<svg width="332" height="188" viewBox="0 0 332 188" fill="none" xmlns="http://www.w3.org/2000/svg">
<g clip-path="url(#clip0)">
<path d="M298.003 108.436C297.672 122.505 295.238 142.304 290.334 157.218C290.187 157.695 290.002 158.173 289.855 158.65C288.896 161.405 287.864 164.013 286.72 166.327C286.389 166.989 286.094 167.613 285.762 168.201C284.176 171.066 282.443 173.454 280.563 175.18C279.936 175.768 279.272 176.245 278.572 176.686C278.572 176.686 278.572 176.686 278.535 176.686L278.498 176.723C278.461 176.723 278.461 176.76 278.424 176.76C278.092 176.943 277.76 177.127 277.429 177.274L259.066 177.384L233.034 177.568L227.208 177.604L163.198 177.421L70.9427 177.053H70.5739L20.0586 176.87C20.0586 176.87 7.30073 166.401 2.13858 147.63C1.99109 147.153 1.88047 146.638 1.76986 146.161C0.589938 141.496 -0.0737675 136.316 0.03685 130.66C0.368702 111.926 4.60904 72.3274 49.0773 63.0707C90.7801 54.4017 79.6814 -0.80818 141.222 4.59158C165.484 6.7221 176.251 27.9906 195.019 22.3337C245.202 7.19963 270.607 21.5623 283.992 46.4306L284.103 46.6142C284.545 47.4591 284.987 48.304 285.393 49.1488C287.126 52.7119 288.675 56.4587 290.002 60.3157C290.924 63.0339 291.772 65.8257 292.546 68.6908C292.657 69.0949 292.768 69.5357 292.878 69.9398C292.878 69.9398 292.878 69.9398 292.878 69.9765C293.874 73.8335 294.722 77.8006 295.459 81.8046C295.57 82.5025 295.717 83.1637 295.828 83.8616C296.012 84.8534 296.16 85.8819 296.344 86.8737C296.455 87.6084 296.565 88.343 296.676 89.0777C296.787 89.8491 296.897 90.6205 297.008 91.3919C297.229 93.0816 297.487 94.7713 297.672 96.4611C297.856 97.8202 297.967 99.3997 298.04 101.163C298.04 103.367 298.077 105.791 298.003 108.436Z" fill="#E8F2FA"/>
<path d="M261.758 36.1454C265.408 69.1684 246.714 116.04 246.714 116.04C246.714 116.04 272.23 92.0899 271.677 63.6952L263.528 63.5483C263.528 63.5483 267.731 60.83 271.308 58.5893C270.312 51.206 267.399 43.6389 261.758 36.1454Z" fill="url(#paint0_linear)"/>
<path d="M232.444 74.3478L237.606 71.299L233.145 70.6378C234.472 65.0911 236.906 60.2056 239.782 55.9813C243.137 57.0098 247.009 58.075 247.009 58.075L242.769 52.0141C251.286 41.6186 261.758 36.1454 261.758 36.1454C265.408 69.1684 246.714 116.04 246.714 116.04C233.956 99.8038 230.785 85.8453 232.444 74.3478Z" fill="url(#paint1_linear)"/>
<path d="M274.626 68.7644C269.022 71.1521 264.56 74.458 260.947 78.2048C261.463 80.519 262.016 83.274 262.016 83.274L258.587 80.8863C246.05 96.2775 246.235 117.142 246.235 117.142C258.55 112.073 265.924 105.351 270.238 98.555C269.354 97.2693 268.026 95.4326 268.026 95.4326L271.529 96.351C273.373 92.8981 274.516 89.4819 275.143 86.2861C273.299 85.8453 271.271 85.2576 271.271 85.2576L275.659 83.2373C276.581 74.8988 274.626 68.7644 274.626 68.7644Z" fill="#B7D972"/>
<path d="M270.165 98.5548C269.28 97.2692 267.952 95.4325 267.952 95.4325L271.455 96.3508C273.299 92.8979 274.442 89.4817 275.069 86.286C273.225 85.8452 271.197 85.2574 271.197 85.2574L275.585 83.2371C276.581 74.9722 274.59 68.801 274.59 68.801C258.771 85.8084 246.161 117.178 246.161 117.178C258.513 112.073 265.851 105.35 270.165 98.5548Z" fill="url(#paint2_linear)"/>
<path d="M303.903 104.726L261.832 178.449L224.222 157.144L266.293 83.4209L303.903 104.726Z" fill="url(#paint3_linear)"/>
<path d="M300.769 106.085L261.426 175.033L227.393 155.748L266.736 86.8003L300.769 106.085ZM260.467 171.544L297.266 107.04L267.694 90.3267L230.896 154.83L260.467 171.544Z" fill="#CFE2A3"/>
<path d="M279.521 139.616C283.907 131.926 280.588 121.799 272.106 116.999C263.625 112.198 253.193 114.542 248.807 122.232C244.421 129.923 247.741 140.05 256.223 144.85C264.704 149.651 275.135 147.307 279.521 139.616Z" fill="#CFE2A3"/>
<path d="M260.762 125.921C259.804 125.664 258.956 125.627 258.071 126.252C258.181 126.362 258.255 126.435 258.366 126.509C259.693 127.28 260.984 128.015 262.311 128.786C262.606 128.97 262.753 128.933 263.012 128.713C263.565 128.199 264.191 127.684 264.818 127.243C266.994 125.664 269.28 125.921 271.345 127.427C273.815 129.227 274.479 131.541 273.557 134.48C273.373 135.031 273.52 135.251 274 135.472C274.331 135.619 274.663 135.839 274.995 136.059C274.663 136.61 274.368 137.161 274.036 137.749C273.52 137.455 273.004 137.161 272.525 136.868C269.796 140.21 266.514 139.806 264.45 138.814C264.929 137.749 265.371 136.684 265.851 135.582C267.104 135.912 268.321 135.912 269.612 135.178C268.874 134.774 268.247 134.406 267.621 134.039C266.773 133.562 265.888 133.084 265.04 132.57C264.745 132.386 264.523 132.386 264.228 132.643C263.343 133.451 262.385 134.113 261.205 134.443C258.808 135.104 256.817 134.296 255.195 132.643C253.683 131.1 253.462 129.154 254.162 127.097C254.199 126.95 254.273 126.839 254.31 126.692C254.31 126.656 254.346 126.582 254.346 126.472C253.941 126.252 253.535 125.995 253.056 125.737C253.388 125.15 253.683 124.635 254.052 124.011C254.346 124.195 254.678 124.342 254.973 124.525C255.268 124.746 255.453 124.672 255.674 124.378C256.669 123.166 257.923 122.358 259.546 122.284C260.394 122.211 261.205 122.358 262.09 122.725C261.647 123.791 261.205 124.819 260.762 125.921ZM266.109 130.88C267.657 131.762 269.169 132.643 270.681 133.488C271.197 132.386 270.755 131.027 269.649 130.256C268.579 129.521 267.215 129.741 266.109 130.88ZM257.001 128.015C256.854 129.227 257.333 130.292 258.218 130.733C259.177 131.211 260.357 131.027 261.057 130.329C259.73 129.558 258.402 128.823 257.001 128.015Z" fill="url(#paint4_linear)"/>
<path d="M251.102 153.691C249.959 153.067 248.557 153.434 247.894 154.573C247.267 155.712 247.636 157.107 248.779 157.769C249.922 158.393 251.323 158.026 251.987 156.887C252.614 155.748 252.245 154.316 251.102 153.691Z" fill="#CBEFEF"/>
<path d="M279.493 103.918C278.35 103.293 276.949 103.661 276.286 104.799C275.659 105.938 276.027 107.334 277.17 107.995C278.314 108.62 279.715 108.252 280.378 107.114C281.005 105.975 280.6 104.542 279.493 103.918Z" fill="#CFE2A3"/>
<path d="M294.353 121.44C294.206 121.329 297.34 116.187 297.34 116.187L256.706 131.835L257.259 135.031L294.353 121.44Z" fill="#B7D972"/>
<path d="M332 153.397L252.171 182.857L237.164 142.414L316.993 112.991L332 153.397Z" fill="url(#paint5_linear)"/>
<path d="M328.718 152.442L254.051 179.992L240.446 143.406L315.112 115.856L328.718 152.442ZM255.563 176.686L325.4 150.936L313.601 119.162L243.764 144.912L255.563 176.686Z" fill="#CFE2A3"/>
<path d="M290.754 164.458C299.081 161.387 303.085 151.51 299.698 142.397C296.312 133.284 286.816 128.386 278.49 131.457C270.163 134.528 266.159 144.405 269.545 153.518C272.932 162.631 282.428 167.529 290.754 164.458Z" fill="#CFE2A3"/>
<path d="M285.282 141.973C284.729 141.165 284.066 140.578 283.033 140.504C283.07 140.651 283.07 140.761 283.107 140.871C283.623 142.304 284.139 143.7 284.656 145.132C284.766 145.426 284.914 145.537 285.246 145.5C286.02 145.463 286.794 145.463 287.569 145.537C290.26 145.72 291.846 147.41 292.436 149.871C293.136 152.846 292.178 155.05 289.597 156.703C289.117 156.997 289.043 157.291 289.265 157.732C289.412 158.062 289.523 158.43 289.67 158.834C289.043 159.054 288.454 159.275 287.827 159.495C287.605 158.944 287.421 158.393 287.237 157.842C282.996 158.65 280.747 156.226 279.788 154.132C280.821 153.618 281.89 153.104 282.96 152.589C283.697 153.655 284.619 154.426 286.094 154.683C285.799 153.912 285.541 153.214 285.319 152.516C284.988 151.597 284.619 150.679 284.324 149.724C284.213 149.393 284.029 149.247 283.66 149.283C282.443 149.32 281.263 149.21 280.157 148.732C277.908 147.704 276.912 145.794 276.728 143.479C276.581 141.312 277.687 139.696 279.53 138.594C279.641 138.52 279.788 138.447 279.899 138.374C279.936 138.337 279.973 138.3 280.047 138.227C279.899 137.786 279.715 137.345 279.53 136.868C280.157 136.647 280.747 136.427 281.411 136.206C281.522 136.537 281.669 136.867 281.78 137.198C281.89 137.565 282.075 137.602 282.406 137.565C283.955 137.272 285.43 137.492 286.721 138.447C287.421 138.961 287.937 139.586 288.38 140.394C287.347 140.871 286.315 141.422 285.282 141.973ZM286.167 149.173C286.794 150.863 287.384 152.479 287.974 154.095C289.08 153.581 289.633 152.222 289.265 150.973C288.933 149.724 287.753 149.026 286.167 149.173ZM281.042 141.165C280.157 141.973 279.825 143.112 280.231 143.994C280.637 144.949 281.669 145.61 282.665 145.5C282.111 144.067 281.595 142.635 281.042 141.165Z" fill="#8FD0D6"/>
<path d="M259.951 156.997C259.509 155.785 258.144 155.161 256.928 155.601C255.711 156.042 255.084 157.401 255.526 158.614C255.969 159.826 257.333 160.45 258.55 160.009C259.804 159.569 260.394 158.209 259.951 156.997Z" fill="#CBEFEF"/>
<path d="M313.859 137.125C313.416 135.912 312.052 135.288 310.835 135.729C309.618 136.17 308.992 137.529 309.434 138.741C309.876 139.953 311.241 140.578 312.457 140.137C313.674 139.659 314.301 138.337 313.859 137.125Z" fill="#CFE2A3"/>
<path d="M318.394 187.045L233.255 187.302L233.108 144.214L318.246 143.957L318.394 187.045Z" fill="url(#paint6_linear)"/>
<path d="M315.629 185.025L236.021 185.282L235.91 146.271L315.518 146.014L315.629 185.025ZM238.565 182.674L313.047 182.453L312.937 148.585L238.454 148.806L238.565 182.674Z" fill="#CFE2A3"/>
<path d="M291.846 165.666C291.883 175.364 284.693 183.261 275.843 183.298C266.957 183.335 259.767 175.474 259.73 165.776C259.693 156.079 266.883 148.181 275.733 148.145C284.619 148.071 291.809 155.932 291.846 165.666Z" fill="#CFE2A3"/>
<path d="M278.461 160.266C278.203 159.311 277.797 158.54 276.839 158.099C276.802 158.246 276.765 158.356 276.765 158.467C276.765 159.973 276.765 161.479 276.765 162.985C276.765 163.315 276.876 163.426 277.171 163.536C277.908 163.756 278.645 164.05 279.346 164.344C281.817 165.446 282.701 167.576 282.406 170.074C282.038 173.086 280.378 174.849 277.392 175.511C276.839 175.621 276.691 175.878 276.728 176.392C276.765 176.76 276.728 177.127 276.728 177.568C276.064 177.568 275.438 177.568 274.774 177.568C274.774 176.98 274.774 176.392 274.774 175.805C270.497 175.107 269.243 172.058 269.059 169.78C270.202 169.67 271.382 169.523 272.562 169.413C272.893 170.699 273.483 171.69 274.774 172.462C274.774 171.617 274.774 170.882 274.774 170.184C274.774 169.193 274.774 168.201 274.774 167.209C274.774 166.842 274.663 166.658 274.331 166.548C273.188 166.18 272.119 165.666 271.234 164.821C269.464 163.095 269.169 160.964 269.833 158.724C270.423 156.667 272.008 155.491 274.147 155.087C274.295 155.05 274.442 155.05 274.59 155.014C274.626 155.014 274.7 154.977 274.774 154.94C274.774 154.463 274.774 153.985 274.774 153.471C275.438 153.471 276.064 153.471 276.765 153.471C276.765 153.801 276.802 154.169 276.765 154.536C276.728 154.903 276.876 155.014 277.244 155.087C278.793 155.344 280.12 156.042 281.005 157.401C281.485 158.099 281.78 158.907 281.89 159.826C280.747 159.973 279.641 160.12 278.461 160.266ZM276.839 167.356C276.839 169.119 276.839 170.882 276.839 172.609C278.056 172.499 279.014 171.433 279.125 170.111C279.235 168.825 278.35 167.76 276.839 167.356ZM274.774 158.099C273.668 158.54 272.967 159.532 273.004 160.487C273.078 161.552 273.815 162.507 274.737 162.728C274.774 161.185 274.774 159.679 274.774 158.099Z" fill="url(#paint7_linear)"/>
<path d="M249.516 165.703C249.516 164.417 248.447 163.352 247.156 163.389C245.866 163.389 244.796 164.454 244.833 165.74C244.833 167.025 245.903 168.091 247.193 168.054C248.447 168.054 249.516 167.025 249.516 165.703Z" fill="#CBEFEF"/>
<path d="M306.964 165.556C306.964 164.27 305.894 163.205 304.604 163.242C303.313 163.242 302.244 164.307 302.281 165.593C302.281 166.878 303.35 167.944 304.641 167.907C305.931 167.87 306.964 166.842 306.964 165.556Z" fill="#CFE2A3"/>
<path d="M318.283 158.43L318.247 143.957L258.808 144.067L258.218 140.651L321.528 140.467L321.565 157.254L318.283 158.43Z" fill="#B7D972"/>
<path d="M276.156 178.615C288.179 166.637 288.179 147.217 276.156 135.239C264.132 123.261 244.638 123.261 232.615 135.239C220.591 147.217 220.591 166.637 232.615 178.615C244.638 190.593 264.132 190.593 276.156 178.615Z" fill="#EDFDFC"/>
<path d="M254.383 184.51C269.677 184.51 282.075 172.159 282.075 156.924C282.075 141.688 269.677 129.337 254.383 129.337C239.09 129.337 226.692 141.688 226.692 156.924C226.692 172.159 239.09 184.51 254.383 184.51Z" fill="url(#paint8_linear)"/>
<path d="M254.678 182.747C240.372 182.894 228.646 171.433 228.462 157.181C228.314 142.928 239.819 131.247 254.125 131.064C268.432 130.917 280.157 142.377 280.342 156.63C280.452 170.882 268.948 182.6 254.678 182.747ZM254.125 132.055C240.372 132.202 229.273 143.479 229.421 157.181C229.568 170.882 240.888 181.939 254.641 181.792C268.395 181.645 279.494 170.368 279.346 156.667C279.199 142.928 267.879 131.909 254.125 132.055Z" fill="#EDFDFC"/>
<path opacity="0.5" d="M258.624 148.769C258.218 147.337 257.591 146.161 256.116 145.5C256.079 145.72 256.043 145.904 256.043 146.088C256.08 148.402 256.116 150.716 256.116 153.03C256.116 153.544 256.301 153.728 256.78 153.875C257.923 154.206 259.029 154.61 260.135 155.087C263.97 156.74 265.371 159.973 264.929 163.83C264.45 168.495 261.905 171.176 257.296 172.242C256.448 172.425 256.227 172.793 256.301 173.564C256.374 174.115 256.338 174.703 256.338 175.327C255.342 175.327 254.383 175.364 253.351 175.364C253.351 174.446 253.314 173.564 253.314 172.682C246.751 171.691 244.723 167.025 244.428 163.536C246.198 163.315 247.968 163.095 249.811 162.875C250.327 164.821 251.286 166.364 253.277 167.503C253.277 166.217 253.24 165.115 253.24 163.977C253.24 162.471 253.167 160.928 253.203 159.422C253.203 158.871 253.056 158.577 252.503 158.43C250.733 157.879 249.074 157.144 247.746 155.822C245.018 153.214 244.538 149.945 245.497 146.528C246.382 143.333 248.779 141.533 252.06 140.871C252.282 140.835 252.503 140.798 252.724 140.725C252.798 140.725 252.872 140.651 253.019 140.614C253.019 139.916 253.019 139.182 252.982 138.374C254.015 138.374 254.936 138.337 256.043 138.337C256.043 138.888 256.08 139.402 256.043 139.953C256.006 140.541 256.264 140.688 256.78 140.798C259.177 141.165 261.205 142.194 262.606 144.251C263.343 145.316 263.786 146.528 264.007 147.924C262.127 148.255 260.394 148.475 258.624 148.769ZM256.227 159.642C256.264 162.36 256.301 165.042 256.301 167.687C258.144 167.503 259.619 165.85 259.767 163.83C259.914 161.846 258.587 160.23 256.227 159.642ZM252.908 145.463C251.212 146.198 250.143 147.704 250.254 149.173C250.364 150.789 251.544 152.222 252.982 152.589C252.945 150.238 252.945 147.888 252.908 145.463Z" fill="#FFF9FF"/>
<path d="M106.746 172.205C106.746 172.205 120.278 153.581 113.235 150.128C113.235 150.128 111.982 148.145 106.93 155.234C106.93 155.234 103.796 156.263 103.649 152.663C103.464 149.063 108.589 143.59 105.345 140.431C102.063 137.308 100.404 142.928 98.0808 143.994C95.7947 145.059 96.864 130.696 93.693 129.154C90.4851 127.611 89.637 133.268 87.8303 133.929C86.0604 134.59 80.7507 117.84 72.2332 120.962C63.6788 124.084 73.45 130.329 77.5428 134.223C81.6357 138.116 73.1919 135.949 72.3069 140.908C71.422 145.867 86.5397 141.863 85.1386 146.712C83.7743 151.524 79.4602 148.769 78.649 152.406C77.3585 158.246 92.2918 152.626 91.96 156.63C91.7019 159.826 86.2816 157.732 85.6917 160.193C85.0648 162.654 94.4673 171.507 106.746 172.205Z" fill="url(#paint9_linear)"/>
<path opacity="0.1" d="M113.715 150.385C113.641 150.349 113.604 150.312 113.53 150.275C113.272 151.046 112.94 151.891 112.572 152.736C111.134 155.932 108.442 160.23 103.575 162.728C102.358 160.046 100.809 157.291 99.0026 154.389C100.293 147.116 102.837 143.039 104.792 140.908C104.976 140.724 105.123 140.541 105.271 140.394C105.197 140.357 105.16 140.284 105.123 140.247C104.976 140.394 104.792 140.578 104.644 140.761C102.727 142.892 100.146 146.932 98.8552 154.132C98.8552 154.132 98.8552 154.095 98.8183 154.095C96.9378 151.12 94.7623 148.034 92.3287 144.839C92.2918 144.508 91.8494 141.459 91.8862 137.749C91.8862 135.104 92.1444 131.725 93.1399 128.933C93.0662 128.896 92.9924 128.896 92.9187 128.896C91.96 131.725 91.7019 135.104 91.665 137.749C91.6281 140.835 91.9231 143.479 92.0706 144.471C90.1901 142.047 88.1621 139.586 85.9866 137.051C79.9027 130.035 74.04 124.342 70.9795 121.513C70.9058 121.55 70.832 121.587 70.7583 121.623C73.7818 124.452 79.6814 130.182 85.8023 137.198C86.8347 138.374 87.904 139.622 88.9733 140.945C88.1253 140.798 85.6548 140.394 82.41 140.247C79.6814 140.137 75.9942 140.173 72.2701 140.835V140.871C72.2701 140.945 72.2332 141.018 72.2332 141.055C75.9573 140.394 79.6446 140.32 82.3731 140.467C86.0604 140.614 88.789 141.129 89.1577 141.202C91.5544 144.104 93.988 147.3 96.2741 150.642C91.0013 149.981 82.6313 151.781 78.5384 152.81C78.5384 152.883 78.5384 152.957 78.5384 153.03C82.6681 152.002 91.2225 150.165 96.4584 150.863C99.7032 155.601 102.616 160.671 104.607 165.63C100.219 166.327 94.9835 164.381 91.37 162.617C89.1208 161.515 87.2034 160.377 85.9498 159.532C85.9129 159.605 85.876 159.642 85.8392 159.715C87.0928 160.524 89.0102 161.699 91.2594 162.801C94.9098 164.601 100.219 166.548 104.681 165.813C105.529 167.944 106.193 170.074 106.635 172.131C106.672 172.131 106.709 172.131 106.746 172.131C106.746 172.131 106.783 172.095 106.82 172.021C106.23 169.193 105.16 166.107 103.685 162.875C104.017 162.728 104.312 162.544 104.607 162.36C106.377 161.295 108 159.936 109.401 158.283C110.728 156.703 111.871 154.83 112.793 152.773C113.162 151.965 113.457 151.157 113.715 150.385Z" fill="white"/>
<path d="M115.485 176.943C115.485 176.943 103.538 163.572 81.2301 164.491L85.1017 169.817L78.8702 164.932C78.8702 164.932 65.928 165.997 57.1155 169.156C57.1155 169.156 76.0679 179.111 80.8614 179.955L87.2403 178.082L83.7743 182.821C83.7743 182.821 94.2092 188.588 104.939 187.412C115.632 186.273 115.485 176.943 115.485 176.943Z" fill="#B7D972"/>
<path d="M181.302 75.8171H233.477C241.294 75.8171 247.636 82.1352 247.636 89.9226V173.894C247.636 181.682 241.294 188 233.477 188H181.302C173.485 188 167.143 181.682 167.143 173.894V89.9226C167.143 82.1352 173.485 75.8171 181.302 75.8171Z" fill="url(#paint10_linear)"/>
<path d="M241.146 85.0371H174.37V102.155H241.146V85.0371Z" fill="#D2E0AF"/>
<path opacity="0.5" d="M176.14 87.4982H241.146V85.0371H174.37V102.155H176.14V87.4982Z" fill="#847D3D"/>
<path d="M190.446 113.211H177.467C175.771 113.211 174.37 111.816 174.37 110.126C174.37 108.436 175.771 107.04 177.467 107.04H190.446C192.143 107.04 193.544 108.436 193.544 110.126C193.544 111.852 192.143 113.211 190.446 113.211Z" fill="url(#paint11_linear)"/>
<path d="M214.266 113.211H201.287C199.591 113.211 198.19 111.816 198.19 110.126C198.19 108.436 199.591 107.04 201.287 107.04H214.266C215.962 107.04 217.363 108.436 217.363 110.126C217.363 111.852 215.962 113.211 214.266 113.211Z" fill="url(#paint12_linear)"/>
<path d="M238.049 113.211H225.07C223.374 113.211 221.972 111.816 221.972 110.126C221.972 108.436 223.374 107.04 225.07 107.04H238.049C239.745 107.04 241.146 108.436 241.146 110.126C241.146 111.852 239.782 113.211 238.049 113.211Z" fill="url(#paint13_linear)"/>
<path d="M182.261 131.909H181.302C177.467 131.909 174.37 128.823 174.37 125.003C174.37 121.183 177.467 118.097 181.302 118.097H182.261C186.095 118.097 189.193 121.183 189.193 125.003C189.23 128.823 186.095 131.909 182.261 131.909Z" fill="url(#paint14_linear)"/>
<path d="M199.591 131.909H198.632C194.797 131.909 191.7 128.823 191.7 125.003C191.7 121.183 194.797 118.097 198.632 118.097H199.591C203.426 118.097 206.523 121.183 206.523 125.003C206.523 128.823 203.426 131.909 199.591 131.909Z" fill="url(#paint15_linear)"/>
<path d="M216.884 131.909H215.925C212.091 131.909 208.993 128.823 208.993 125.003C208.993 121.183 212.091 118.097 215.925 118.097H216.884C220.719 118.097 223.816 121.183 223.816 125.003C223.853 128.823 220.719 131.909 216.884 131.909Z" fill="url(#paint16_linear)"/>
<path d="M182.261 148.953H181.302C177.467 148.953 174.37 145.867 174.37 142.047C174.37 138.227 177.467 135.141 181.302 135.141H182.261C186.095 135.141 189.193 138.227 189.193 142.047C189.23 145.867 186.095 148.953 182.261 148.953Z" fill="url(#paint17_linear)"/>
<path d="M199.591 148.953H198.632C194.797 148.953 191.7 145.867 191.7 142.047C191.7 138.227 194.797 135.141 198.632 135.141H199.591C203.426 135.141 206.523 138.227 206.523 142.047C206.523 145.867 203.426 148.953 199.591 148.953Z" fill="url(#paint18_linear)"/>
<path d="M216.884 148.953H215.925C212.091 148.953 208.993 145.867 208.993 142.047C208.993 138.227 212.091 135.141 215.925 135.141H216.884C220.719 135.141 223.816 138.227 223.816 142.047C223.853 145.867 220.719 148.953 216.884 148.953Z" fill="url(#paint19_linear)"/>
<path d="M238.123 118.097H229.347C227.688 118.097 226.323 119.456 226.323 121.109V125.37V128.896V145.941C226.323 147.594 227.688 148.953 229.347 148.953H238.123C239.782 148.953 241.146 147.594 241.146 145.941V128.896V125.37V121.109C241.146 119.456 239.782 118.097 238.123 118.097Z" fill="url(#paint20_linear)"/>
<path d="M182.261 165.997H181.302C177.467 165.997 174.37 162.911 174.37 159.091C174.37 155.271 177.467 152.185 181.302 152.185H182.261C186.095 152.185 189.193 155.271 189.193 159.091C189.23 162.911 186.095 165.997 182.261 165.997Z" fill="url(#paint21_linear)"/>
<path d="M199.591 165.997H198.632C194.797 165.997 191.7 162.911 191.7 159.091C191.7 155.271 194.797 152.185 198.632 152.185H199.591C203.426 152.185 206.523 155.271 206.523 159.091C206.523 162.911 203.426 165.997 199.591 165.997Z" fill="url(#paint22_linear)"/>
<path d="M216.884 165.997H215.925C212.091 165.997 208.993 162.911 208.993 159.091C208.993 155.271 212.091 152.185 215.925 152.185H216.884C220.719 152.185 223.816 155.271 223.816 159.091C223.853 162.911 220.719 165.997 216.884 165.997Z" fill="url(#paint23_linear)"/>
<path d="M234.214 165.997H233.255C229.421 165.997 226.323 162.911 226.323 159.091C226.323 155.271 229.421 152.185 233.255 152.185H234.214C238.049 152.185 241.146 155.271 241.146 159.091C241.146 162.911 238.049 165.997 234.214 165.997Z" fill="url(#paint24_linear)"/>
<path d="M182.261 183.041H181.302C177.467 183.041 174.37 179.955 174.37 176.135C174.37 172.315 177.467 169.229 181.302 169.229H182.261C186.095 169.229 189.193 172.315 189.193 176.135C189.23 179.955 186.095 183.041 182.261 183.041Z" fill="url(#paint25_linear)"/>
<path d="M199.591 183.041H198.632C194.797 183.041 191.7 179.955 191.7 176.135C191.7 172.315 194.797 169.229 198.632 169.229H199.591C203.426 169.229 206.523 172.315 206.523 176.135C206.523 179.955 203.426 183.041 199.591 183.041Z" fill="url(#paint26_linear)"/>
<path d="M216.884 183.041H215.925C212.091 183.041 208.993 179.955 208.993 176.135C208.993 172.315 212.091 169.229 215.925 169.229H216.884C220.719 169.229 223.816 172.315 223.816 176.135C223.853 179.955 220.719 183.041 216.884 183.041Z" fill="url(#paint27_linear)"/>
<path d="M234.214 183.041H233.255C229.421 183.041 226.323 179.955 226.323 176.135C226.323 172.315 229.421 169.229 233.255 169.229H234.214C238.049 169.229 241.146 172.315 241.146 176.135C241.146 179.955 238.049 183.041 234.214 183.041Z" fill="url(#paint28_linear)"/>
<path d="M184.326 155.454V156.152L180.896 163.279H179.79L183.183 156.336V156.299H179.348V155.418H184.326V155.454Z" fill="white"/>
<path d="M196.53 161.295C196.53 160.303 197.12 159.605 198.079 159.201V159.164C197.194 158.76 196.825 158.062 196.825 157.401C196.825 156.152 197.895 155.307 199.259 155.307C200.771 155.307 201.545 156.263 201.545 157.218C201.545 157.879 201.213 158.577 200.255 159.054V159.091C201.25 159.458 201.84 160.156 201.84 161.111C201.84 162.47 200.66 163.389 199.185 163.389C197.526 163.425 196.53 162.434 196.53 161.295ZM200.734 161.258C200.734 160.303 200.07 159.862 199.001 159.532C198.079 159.789 197.6 160.413 197.6 161.148C197.563 161.956 198.153 162.654 199.185 162.654C200.144 162.654 200.734 162.066 200.734 161.258ZM197.821 157.328C197.821 158.099 198.411 158.54 199.333 158.76C199.996 158.54 200.513 158.062 200.513 157.328C200.513 156.703 200.144 156.042 199.185 156.042C198.3 156.079 197.821 156.667 197.821 157.328Z" fill="white"/>
<path d="M201.84 176.135C201.84 178.78 200.844 180.249 199.111 180.249C197.563 180.249 196.53 178.817 196.493 176.209C196.493 173.601 197.637 172.131 199.222 172.131C200.881 172.168 201.84 173.637 201.84 176.135ZM197.563 176.245C197.563 178.266 198.19 179.441 199.148 179.441C200.254 179.441 200.771 178.192 200.771 176.172C200.771 174.262 200.291 172.976 199.185 172.976C198.263 172.976 197.563 174.115 197.563 176.245Z" fill="white"/>
<path d="M214.782 162.544C215.004 162.581 215.262 162.544 215.63 162.507C216.257 162.434 216.81 162.177 217.29 161.736C217.806 161.258 218.175 160.597 218.322 159.642H218.285C217.843 160.156 217.216 160.487 216.442 160.487C215.04 160.487 214.119 159.422 214.119 158.099C214.119 156.63 215.188 155.307 216.81 155.307C218.433 155.307 219.428 156.593 219.428 158.613C219.428 160.34 218.838 161.552 218.064 162.287C217.474 162.874 216.626 163.242 215.778 163.352C215.409 163.425 215.04 163.425 214.782 163.425V162.544ZM215.188 158.026C215.188 159.018 215.778 159.679 216.7 159.679C217.4 159.679 217.953 159.311 218.248 158.871C218.322 158.76 218.359 158.65 218.359 158.503C218.359 157.181 217.88 156.152 216.737 156.152C215.815 156.116 215.188 156.924 215.188 158.026Z" fill="white"/>
<path d="M182.519 145.904V143.773H178.868V143.075L182.371 138.08H183.514V142.965H184.621V143.81H183.514V145.941H182.519V145.904ZM182.519 142.965V140.32C182.519 139.916 182.519 139.512 182.556 139.108H182.519C182.261 139.549 182.076 139.916 181.855 140.247L179.938 142.892V142.928H182.519V142.965Z" fill="white"/>
<path d="M201.287 138.961H198.3L198.005 140.982C198.19 140.945 198.374 140.945 198.632 140.945C199.222 140.945 199.849 141.092 200.328 141.349C200.955 141.716 201.471 142.377 201.471 143.369C201.471 144.912 200.254 146.051 198.558 146.051C197.71 146.051 196.973 145.794 196.604 145.573L196.862 144.765C197.194 144.949 197.821 145.206 198.558 145.206C199.554 145.206 200.439 144.545 200.439 143.516C200.439 142.488 199.738 141.79 198.19 141.79C197.747 141.79 197.378 141.827 197.083 141.863L197.6 138.116H201.361V138.961H201.287Z" fill="white"/>
<path d="M218.654 138.814C218.433 138.814 218.175 138.814 217.843 138.851C216.183 139.145 215.298 140.357 215.114 141.643H215.151C215.52 141.165 216.183 140.724 217.031 140.724C218.433 140.724 219.391 141.716 219.391 143.259C219.391 144.692 218.396 146.014 216.773 146.014C215.077 146.014 214.008 144.728 214.008 142.671C214.008 141.129 214.561 139.916 215.335 139.145C215.999 138.52 216.847 138.116 217.843 138.006C218.175 137.969 218.433 137.933 218.617 137.933V138.814H218.654ZM218.359 143.333C218.359 142.194 217.732 141.533 216.737 141.533C216.11 141.533 215.52 141.937 215.225 142.488C215.151 142.598 215.114 142.782 215.114 142.965C215.151 144.251 215.741 145.206 216.847 145.206C217.732 145.243 218.359 144.471 218.359 143.333Z" fill="white"/>
<path d="M181.56 122.431L180.159 123.166L179.938 122.358L181.671 121.44H182.593V129.264H181.56V122.431Z" fill="white"/>
<path d="M196.604 129.264V128.603L197.452 127.794C199.443 125.884 200.365 124.893 200.365 123.68C200.365 122.872 199.996 122.138 198.816 122.138C198.116 122.138 197.526 122.505 197.157 122.799L196.825 122.064C197.378 121.623 198.153 121.256 199.038 121.256C200.734 121.256 201.434 122.395 201.434 123.533C201.434 124.966 200.365 126.141 198.743 127.721L198.116 128.309V128.345H201.656V129.227H196.604V129.264Z" fill="white"/>
<path d="M214.414 128.052C214.709 128.235 215.409 128.529 216.147 128.529C217.511 128.529 217.953 127.648 217.916 127.023C217.916 125.921 216.921 125.444 215.888 125.444H215.335V124.635H215.925C216.7 124.635 217.695 124.231 217.695 123.313C217.695 122.689 217.29 122.138 216.331 122.138C215.704 122.138 215.114 122.431 214.745 122.652L214.45 121.88C214.856 121.587 215.667 121.293 216.515 121.293C218.064 121.293 218.764 122.211 218.764 123.166C218.764 123.974 218.285 124.672 217.326 125.003V125.039C218.285 125.223 219.096 125.958 219.096 127.06C219.096 128.309 218.101 129.411 216.22 129.411C215.335 129.411 214.561 129.117 214.192 128.896L214.414 128.052Z" fill="white"/>
<path d="M182.74 179.074C182.74 179.588 182.298 180.029 181.781 180.029C181.265 180.029 180.823 179.588 180.823 179.074C180.823 178.56 181.265 178.119 181.781 178.119C182.334 178.156 182.74 178.56 182.74 179.074Z" fill="white"/>
<path d="M239.376 134.039H234.362V129.043H233.108V134.039H228.093V135.288H233.108V140.284H234.362V135.288H239.376V134.039Z" fill="white"/>
<path d="M219.76 179.074L217.105 176.429L219.76 173.821L219.059 173.123L216.442 175.768L213.787 173.123L213.086 173.821L215.741 176.429L213.086 179.074L213.787 179.735L216.442 177.127L219.059 179.735L219.76 179.074Z" fill="white"/>
<path d="M237.606 158.834H229.236V160.12H237.606V158.834Z" fill="white"/>
<path d="M237.938 173.564H229.568V174.85H237.938V173.564Z" fill="white"/>
<path d="M237.938 176.76H229.568V178.045H237.938V176.76Z" fill="white"/>
<path d="M185.837 128.272H157.667V140.137H185.837V128.272Z" fill="#B7D972"/>
<path d="M157.667 128.272H129.496V140.137H157.667V128.272Z" fill="url(#paint29_linear)"/>
<path d="M129.533 128.272H101.362V140.137H129.533V128.272Z" fill="url(#paint30_linear)"/>
<path d="M186.059 140.504H101.141V127.941H186.059V140.504ZM101.584 139.806H185.616V128.639H101.584V139.806Z" fill="url(#paint31_linear)"/>
<path d="M181.523 152.038H153.353V163.903H181.523V152.038Z" fill="#B7D972"/>
<path d="M153.353 152.038H125.182V163.903H153.353V152.038Z" fill="url(#paint32_linear)"/>
<path d="M125.219 152.038H97.0484V163.903H125.219V152.038Z" fill="url(#paint33_linear)"/>
<path d="M181.745 164.234H96.8271V151.671H181.745V164.234ZM97.2696 163.536H181.302V152.369H97.2696V163.536Z" fill="url(#paint34_linear)"/>
<path d="M185.837 163.903H157.667V175.768H185.837V163.903Z" fill="#B7D972"/>
<path d="M157.667 163.903H129.496V175.768H157.667V163.903Z" fill="url(#paint35_linear)"/>
<path d="M129.533 163.903H101.362V175.768H129.533V163.903Z" fill="url(#paint36_linear)"/>
<path d="M186.059 176.098H101.141V163.536H186.059V176.098ZM101.584 175.401H185.616V164.234H101.584V175.401Z" fill="url(#paint37_linear)"/>
<path d="M192.622 175.768H164.451V187.633H192.622V175.768Z" fill="#B7D972"/>
<path d="M164.488 175.768H136.318V187.633H164.488V175.768Z" fill="url(#paint38_linear)"/>
<path d="M136.318 175.768H108.147V187.633H136.318V175.768Z" fill="url(#paint39_linear)"/>
<path d="M192.843 188H107.926V175.437H192.843V188ZM108.368 187.302H192.401V176.135H108.368V187.302Z" fill="url(#paint40_linear)"/>
<path d="M190.483 140.137H162.313V152.002H190.483V140.137Z" fill="#B7D972"/>
<path d="M162.313 140.137H134.142V152.002H162.313V140.137Z" fill="url(#paint41_linear)"/>
<path d="M134.179 140.137H106.008V152.002H134.179V140.137Z" fill="url(#paint42_linear)"/>
<path d="M190.705 152.369H105.787V139.806H190.705V152.369ZM106.23 151.671H190.262V140.504H106.23V151.671Z" fill="url(#paint43_linear)"/>
<path d="M120.278 49.5897L121.126 55.9813L116.591 52.6753L102.69 45.5858L113.457 46.5776C113.457 46.5776 118.951 47.9 119.246 48.1571C119.504 48.4143 120.278 49.5897 120.278 49.5897Z" fill="#847D3D"/>
<path d="M206.265 90.5103V91.6123L208.735 92.2368L208.809 89.8491L206.265 90.5103Z" fill="#FFC0BB"/>
<path d="M211.869 90.29V91.5757L214.229 92.2736L214.414 90.1431L211.869 90.29Z" fill="#FFC0BB"/>
<path d="M125.035 45.7327L102.653 45.5858L120.278 49.5897L125.035 45.7327Z" fill="#B7D972"/>
<path d="M113.088 56.018L118.951 51.3162L102.653 45.5858L113.088 56.018Z" fill="#B7D972"/>
<path d="M147.969 84.0454L147.674 83.6046C148.117 83.3107 148.559 82.9434 148.891 82.5026L149.297 82.8332C148.891 83.3107 148.449 83.7148 147.969 84.0454Z" fill="#EDFDFC"/>
<path d="M150.919 79.7842L150.403 79.6373C150.698 78.6822 150.919 77.5803 150.993 76.3681L151.509 76.4048C151.435 77.617 151.214 78.7557 150.919 79.7842ZM151.509 72.9519L150.993 72.9886C150.993 72.8417 150.956 72.6948 150.956 72.5478C150.882 72.0703 150.808 71.556 150.661 71.0785C150.55 70.6377 150.403 70.1969 150.255 69.7561L150.735 69.5724C150.882 70.0132 151.03 70.4908 151.14 70.9683C151.251 71.4826 151.362 71.9968 151.435 72.4744C151.472 72.658 151.509 72.805 151.509 72.9519ZM148.817 66.7807C148.264 65.8624 147.564 64.9441 146.826 64.0992L147.232 63.7686C148.006 64.6502 148.707 65.5685 149.297 66.5236L148.817 66.7807ZM132.335 65.5318C131.967 65.6053 131.045 65.642 130.492 65.2747C130.049 65.0175 129.681 64.6135 129.422 64.0992L129.902 63.8788C130.123 64.3196 130.381 64.6135 130.75 64.8339C131.155 65.091 131.93 65.091 132.225 65.0175C132.262 65.0175 132.262 65.0175 132.262 65.0175C132.298 65.0175 132.298 64.9808 132.335 64.9808L132.63 65.4216C132.593 65.4583 132.557 65.4583 132.557 65.4951C132.483 65.4951 132.446 65.5318 132.335 65.5318ZM144.43 61.7483C143.581 61.0504 142.697 60.3524 141.738 59.728L142.033 59.2872C142.992 59.9116 143.913 60.6096 144.798 61.3442L144.43 61.7483ZM134.548 62.4462L134.031 62.336C134.105 62.0054 134.142 61.6748 134.142 61.3442C134.142 60.8667 134.068 60.3892 133.958 59.9116C133.884 59.6545 133.81 59.3974 133.7 59.1402L134.179 58.9566C134.29 59.2504 134.363 59.5076 134.437 59.8014C134.548 60.3157 134.621 60.83 134.621 61.3442C134.658 61.7116 134.621 62.0789 134.548 62.4462ZM129.902 60.83L129.422 60.6096C129.902 59.6178 130.787 58.7362 131.893 58.2219L131.967 58.1852L132.188 58.6627L132.114 58.6994C131.155 59.177 130.344 59.9484 129.902 60.83ZM138.641 58.479C137.682 58.1852 136.944 58.0015 136.576 58.0015C136.17 57.9648 135.765 57.9648 135.396 58.0015V57.4873C135.765 57.4873 136.17 57.4873 136.613 57.4873C137.166 57.524 138.235 57.8178 138.825 58.0015L138.641 58.479ZM132.004 56.3485C131.303 55.5037 130.455 54.769 129.496 54.1813L129.791 53.7405C130.787 54.3649 131.672 55.1363 132.409 56.0179L132.004 56.3485Z" fill="#EDFDFC"/>
<path d="M126.473 52.8589C125.92 52.712 125.366 52.6018 124.813 52.5283L124.85 52.014C125.44 52.0875 126.03 52.1977 126.583 52.3446L126.473 52.8589Z" fill="#EDFDFC"/>
<path d="M197.342 39.8554L196.899 42.6838L195.94 38.9003C195.94 38.9003 197.268 38.2391 197.342 38.4963C197.378 38.7534 197.342 39.8554 197.342 39.8554Z" fill="#002A24"/>
<path d="M189.709 45.9531L189.303 50.8754L193.617 50.655L193.138 46.3205L189.709 45.9531Z" fill="#FFC0BB"/>
<path d="M193.359 48.3775L193.138 46.3205L189.709 45.9531L189.561 47.6429C190.225 48.3408 191.479 49.0387 193.359 48.3775Z" fill="#F99893"/>
<path d="M196.014 42.6839C195.756 43.2349 195.904 43.8226 196.309 44.043C196.752 44.2634 197.305 43.9696 197.563 43.4553C197.821 42.9043 197.673 42.3166 197.268 42.0962C196.862 41.8758 196.272 42.1329 196.014 42.6839Z" fill="#F99893"/>
<path d="M195.645 45.8797C195.793 45.6593 195.94 45.4022 196.051 45.145C196.346 44.4471 196.53 43.7124 196.641 43.0512C196.678 42.9043 196.678 42.7574 196.715 42.6472C196.862 42.0962 196.899 41.5085 196.788 40.884C196.494 38.8637 194.871 37.2841 192.843 36.9903C190.115 36.6229 187.755 38.6065 187.57 41.2881C187.275 41.1044 186.98 41.0677 186.685 41.1779C186.132 41.3983 185.874 42.1329 186.132 42.8309C186.39 43.5288 187.054 43.9328 187.644 43.7124C187.718 43.6757 187.792 43.639 187.865 43.6022C187.939 45.8797 189.709 47.7164 191.921 47.8266C193.027 47.8633 194.023 47.496 194.797 46.8348C194.834 46.798 194.908 46.7613 194.945 46.6878C195.24 46.4307 195.461 46.1736 195.645 45.8797Z" fill="#FFC0BB"/>
<path d="M193.286 41.5819C193.286 41.839 193.286 42.0962 193.322 42.3533C193.322 42.6104 193.359 42.8676 193.47 43.0512L193.507 43.088C193.507 43.088 193.507 43.088 193.544 43.1247C193.581 43.1614 193.581 43.1982 193.617 43.2349C193.654 43.3084 193.691 43.3818 193.691 43.492C193.691 43.6757 193.617 43.8226 193.507 43.9328C193.286 44.1165 192.954 44.1532 192.696 44.0798C192.954 44.043 193.212 43.9328 193.359 43.7859C193.433 43.7124 193.47 43.6022 193.47 43.5288C193.47 43.492 193.433 43.4553 193.433 43.4186C193.433 43.3818 193.396 43.3818 193.396 43.3451L193.359 43.3084L193.322 43.2716C193.249 43.1247 193.212 42.9778 193.212 42.8676C193.212 42.7206 193.212 42.6104 193.212 42.4635C193.138 42.0962 193.175 41.839 193.286 41.5819Z" fill="#F99893"/>
<path d="M191.737 41.9493C191.737 42.1697 191.553 42.3534 191.331 42.3166C191.11 42.3166 190.926 42.133 190.963 41.9126C190.963 41.6922 191.147 41.5085 191.368 41.5452C191.589 41.5085 191.737 41.6922 191.737 41.9493Z" fill="#333333"/>
<path d="M195.203 42.3166C195.203 42.537 195.019 42.7207 194.797 42.6839C194.576 42.6839 194.392 42.5003 194.429 42.2799C194.429 42.0595 194.613 41.8758 194.834 41.9125C195.055 41.9125 195.203 42.0962 195.203 42.3166Z" fill="#333333"/>
<path d="M191.073 44.6675C191.184 44.7777 191.294 44.8511 191.405 44.9246C191.516 44.9981 191.626 45.0715 191.774 45.145C192.032 45.2552 192.29 45.3654 192.548 45.4021C192.806 45.4389 193.101 45.4021 193.359 45.3287C193.617 45.2552 193.876 45.145 194.134 44.9981C194.023 45.0715 193.912 45.1817 193.802 45.2552C193.691 45.3287 193.544 45.3654 193.396 45.4389C193.249 45.4756 193.101 45.5123 192.991 45.5123C192.843 45.5123 192.696 45.5123 192.548 45.5123C192.253 45.4756 191.995 45.3654 191.737 45.2552C191.479 45.0348 191.258 44.8879 191.073 44.6675Z" fill="#F99893"/>
<path d="M192.253 41.031C192.032 40.9575 191.848 40.9208 191.663 40.8841C191.479 40.8473 191.294 40.8473 191.11 40.8841C190.926 40.9208 190.741 40.9575 190.557 41.031C190.446 41.0677 190.373 41.1045 190.299 41.1412C190.225 41.1779 190.115 41.2514 190.004 41.2881C190.041 41.1779 190.115 41.1045 190.188 41.031C190.262 40.9575 190.336 40.8841 190.446 40.8106C190.631 40.6637 190.852 40.5902 191.073 40.5535C191.295 40.5167 191.516 40.5535 191.737 40.6269C191.921 40.7371 192.106 40.8473 192.253 41.031Z" fill="#002A24"/>
<path d="M194.023 41.2146C194.171 41.0677 194.392 40.9942 194.613 40.9575C194.834 40.9207 195.055 40.9207 195.277 40.9942C195.498 41.0677 195.682 41.1779 195.83 41.3615C195.904 41.435 195.977 41.5452 196.014 41.6187C196.051 41.7289 196.088 41.8023 196.125 41.9125C196.051 41.8391 195.977 41.7656 195.867 41.7289C195.793 41.6554 195.719 41.6187 195.609 41.5452C195.461 41.435 195.277 41.3615 195.092 41.2881C194.908 41.2146 194.724 41.2146 194.539 41.1779C194.429 41.1779 194.244 41.2146 194.023 41.2146Z" fill="#002A24"/>
<path d="M192.106 68.948C192.106 68.948 191.184 75.0457 197.12 76.111C203.057 77.1762 210.431 76.8456 210.431 76.8456L211.464 90.8777L214.561 91.0246C214.561 91.0246 222.525 71.5193 211.501 68.4705L201.582 68.5072L197.489 68.2134C197.489 68.2134 193.359 67.1848 193.322 67.4052C193.249 67.6256 192.179 69.0582 192.106 68.948Z" fill="#473B1E"/>
<path d="M186.649 68.9848C186.649 68.9848 185.727 75.0825 191.663 76.1477C197.6 77.213 204.974 76.8824 204.974 76.8824L206.007 90.9144L209.104 91.0614C209.104 91.0614 217.068 71.5561 206.044 68.5072L196.125 68.544L192.032 68.2501C192.032 68.2501 187.902 67.2216 187.865 67.442C187.828 67.6624 186.759 69.0582 186.649 68.9848Z" fill="#847D3D"/>
<path d="M194.097 48.9285C194.097 48.9285 198.19 49.4427 199.222 50.2876C200.255 51.1324 205.232 63.4748 205.232 63.4748L201.066 68.3235L192.253 68.397C192.253 68.397 185.653 71.9601 181.486 68.5807C177.32 65.238 179.495 53.5201 181.892 51.0223C184.289 48.4877 188.566 48.5611 188.566 48.5611C188.566 48.5611 192.511 51.2427 194.097 48.9285Z" fill="#B7D972"/>
<path d="M186.206 55.0629C186.354 55.7241 186.427 56.422 186.501 57.1199C186.538 57.4505 186.538 57.8179 186.575 58.1484C186.575 58.479 186.575 58.8464 186.575 59.177C186.575 59.8749 186.538 60.5728 186.39 61.234C186.28 61.8952 186.095 62.5932 185.8 63.2176C186.022 62.5564 186.132 61.8952 186.206 61.234C186.28 60.5728 186.317 59.8749 186.317 59.2137C186.317 58.5158 186.317 57.8546 186.28 57.1567C186.28 56.422 186.243 55.7241 186.206 55.0629Z" fill="#847D3D"/>
<path d="M198.411 54.5854C198.595 55.5772 198.78 56.569 199.001 57.5608C199.222 58.5526 199.406 59.5444 199.665 60.5362C199.886 61.528 200.181 62.4831 200.476 63.4748C200.623 63.9524 200.808 64.4299 201.029 64.8707C201.25 65.3482 201.471 65.789 201.803 66.1564C201.434 65.789 201.139 65.3482 200.918 64.9074C200.66 64.4666 200.476 63.9891 200.291 63.5116C200.107 63.034 199.96 62.5565 199.812 62.0423C199.665 61.5647 199.554 61.0505 199.406 60.5729C199.296 60.0587 199.185 59.5811 199.075 59.0669C198.964 58.5526 198.89 58.0751 198.816 57.5608C198.632 56.6058 198.521 55.614 198.411 54.5854Z" fill="#847D3D"/>
<path d="M200.476 65.4951C200.439 65.2747 198.89 65.0543 198.337 65.0175C197.895 64.9808 195.019 64.9073 194.06 64.8706L194.134 65.1277V66.2297L193.986 66.9644C194.834 67.0011 196.936 67.1113 197.378 67.1848C197.968 67.295 198.964 67.7358 198.964 67.7358C198.964 67.7358 199.37 67.6256 198.853 67.4052C198.411 67.2215 198.116 66.9276 198.005 66.7807C197.932 66.7073 198.005 66.5603 198.079 66.5603C199.517 66.9276 199.701 67.0011 199.701 67.0011C199.701 67.0011 201.398 67.0011 199.701 66.5971C198.669 66.3767 198.3 66.2297 198.226 66.1195C198.19 66.0828 198.263 65.8991 198.337 65.8991C199.222 65.8624 200.808 66.1563 200.365 65.9359C199.996 65.7522 198.89 65.5685 198.448 65.5318C198.411 65.5318 198.374 65.3481 198.485 65.3481C199.259 65.3114 200.513 65.6787 200.476 65.4951Z" fill="#FFC0BB"/>
<path d="M185.211 62.9973C185.579 63.0708 185.911 63.181 186.28 63.2544C186.649 63.3279 187.017 63.4014 187.349 63.4748C188.087 63.6218 188.787 63.732 189.525 63.8054C190.262 63.9156 191 63.9891 191.7 64.0626C192.438 64.136 193.175 64.2095 193.876 64.2462H193.986L194.023 64.3197C194.097 64.5768 194.134 64.7972 194.171 65.0544C194.207 65.3115 194.207 65.5319 194.207 65.789C194.207 66.0462 194.171 66.2666 194.134 66.5237C194.097 66.7808 194.023 67.0012 193.912 67.2216V67.2584L193.101 67.8094C192.843 67.993 192.585 68.1767 192.29 68.3236C192.548 68.14 192.806 67.9196 193.064 67.7359L193.839 67.1482L193.802 67.1849C193.876 66.9645 193.949 66.7441 193.986 66.5237C194.023 66.3033 194.023 66.0462 194.023 65.8258C194.023 65.6054 193.986 65.3482 193.949 65.1278C193.912 64.9074 193.876 64.6503 193.802 64.4299L193.912 64.5034C193.544 64.5034 193.175 64.4666 192.806 64.4299C192.438 64.3932 192.069 64.3564 191.7 64.3197C190.963 64.2462 190.225 64.136 189.488 64.0258C188.75 63.9156 188.05 63.7687 187.312 63.585C186.944 63.5116 186.612 63.4014 186.243 63.2912C185.911 63.2544 185.542 63.1442 185.211 62.9973Z" fill="#847D3D"/>
<path d="M218.912 57.2668H202.983L198.448 68.2501H192.954C192.733 68.2501 192.548 68.4704 192.548 68.6541C192.548 68.8745 192.733 69.0582 192.954 69.0582H213.639L218.912 57.2668Z" fill="url(#paint44_linear)"/>
<path d="M211.021 63.5483C210.911 64.0258 210.505 64.3197 210.099 64.2462C209.694 64.1727 209.436 63.732 209.51 63.2544C209.62 62.7769 210.026 62.483 210.431 62.5565C210.837 62.63 211.095 63.0708 211.021 63.5483Z" fill="#DAEEF7"/>
<path d="M197.415 37.1739C197.415 37.1739 198.78 37.2106 197.342 36.0719C195.904 34.9332 192.069 33.5741 189.635 34.8597C189.635 34.8597 189.156 33.8312 188.418 34.0516C187.718 34.3087 188.898 35.0067 188.898 35.0067C188.898 35.0067 187.976 34.9699 187.718 35.4107C187.497 35.7413 188.087 35.7413 188.382 35.7413C187.865 35.8148 185.874 37.0637 186.87 41.0676C187.239 40.9942 189.23 38.0922 189.23 38.0922C189.23 38.0922 193.839 40.6268 193.396 38.6065C193.396 38.6065 198.153 41.5819 197.489 39.1208C197.452 39.1575 199.296 39.3044 197.415 37.1739Z" fill="#002A24"/>
<path d="M186.833 41.141C186.833 41.141 187.202 40.9941 187.607 41.3247C188.013 41.6553 187.976 42.794 187.976 42.794C187.976 42.794 189.93 44.043 189.709 38.7167C189.488 33.0598 188.087 39.1575 188.087 39.1575L186.833 41.141Z" fill="#002A24"/>
<path d="M129.312 126.876L131.782 125.37L133.921 126.656L133.183 127.17L130.602 127.537C130.602 127.537 129.607 127.39 129.533 127.39C129.459 127.354 129.312 126.876 129.312 126.876Z" fill="#FFC0BB"/>
<path d="M129.312 126.876L128.685 127.28C128.39 127.464 128.538 127.905 128.869 127.905L133.626 127.941C133.81 127.941 133.921 127.795 133.921 127.648V126.656C130.75 127.648 129.644 127.317 129.312 126.876Z" fill="url(#paint45_linear)"/>
<path d="M139.747 126.95L142.217 125.444L144.356 126.729L143.618 127.244L141.037 127.611C141.037 127.611 140.042 127.464 139.968 127.464C139.894 127.427 139.747 126.95 139.747 126.95Z" fill="#FFC0BB"/>
<path d="M139.747 126.95L139.12 127.354C138.825 127.537 138.972 127.978 139.304 127.978L144.061 128.015C144.245 128.015 144.356 127.868 144.356 127.721V126.729C141.185 127.721 140.079 127.427 139.747 126.95Z" fill="url(#paint46_linear)"/>
<path d="M164.046 85.0004C164.046 85.0004 165.594 84.0086 167.327 85.0004C169.06 85.9922 169.06 89.3716 168.397 90.1797C167.696 90.9879 168.434 92.0899 167.069 93.1184C165.705 94.1837 163.529 94.551 162.276 93.3388C161.022 92.1266 161.944 89.3716 161.944 89.3716L164.046 85.0004Z" fill="url(#paint47_linear)"/>
<path d="M144.761 96.204C144.725 96.2775 144.651 96.2775 144.577 96.2408C144.245 95.7632 143.176 94.2205 143.028 94.2939C142.844 94.3674 143.766 95.7632 143.692 95.8734C143.581 96.0204 142.733 94.6245 142.549 94.7347C142.365 94.8449 143.213 96.0571 143.139 96.1306C143.065 96.204 142.143 95.102 142.033 95.102C141.885 95.102 142.733 96.3877 142.697 96.4979C142.66 96.6081 141.775 95.9102 141.701 95.9836C141.627 96.0571 141.59 96.0938 143.102 98.1876C143.102 98.1876 143.766 98.8488 143.803 99.1427L144.614 99.3998L145.425 98.5917C145.425 98.5917 145.499 95.249 145.388 95.1388C145.314 95.0653 145.204 95.102 144.761 96.204Z" fill="#FFC0BB"/>
<path d="M147.637 116.297L144.54 126.876L140.779 125.848L142.033 116.922L145.904 114.277L147.637 116.297Z" fill="#3A2F17"/>
<path d="M159.805 94.5143C159.805 94.5143 153.279 102.522 152.173 103.808L145.573 97.306C145.573 97.306 144.245 98.0407 143.545 98.8488C143.545 98.8488 146.199 104.983 148.522 106.599L153.131 109.685L152.247 111.779L153.906 113.065L154.754 111.007L157.114 105.755L159.363 98.8121L159.805 95.3592V94.5143Z" fill="url(#paint48_linear)"/>
<path d="M159.768 95.3224C159.768 95.3224 157.003 99.8038 156.45 101.53C155.897 103.257 156.339 103.404 156.081 105.497C155.823 107.591 153.906 113.211 153.906 113.211L157.114 115.379C157.114 115.379 158.847 109.869 158.847 109.648C158.847 109.428 160.469 99.3263 160.469 99.3263L161.796 95.5795L159.768 95.3224Z" fill="#EDFDFC"/>
<path d="M156.782 115.085C156.782 115.085 151.288 110.163 147.011 109.171C142.733 108.179 131.303 125.407 131.303 125.407L134.031 127.354C134.031 127.354 143.95 120.264 145.831 117.068C145.831 117.068 153.869 127.648 156.597 127.905C159.289 128.162 162.35 127.574 165.926 123.313C169.982 118.464 156.782 115.085 156.782 115.085Z" fill="#473B1E"/>
<path d="M162.276 90.9512L163.493 94.2204C163.493 94.2204 162.608 96.2407 159.658 95.4693C159.658 95.4693 159.953 94.7714 159.474 93.3756C158.957 91.9797 162.276 90.9512 162.276 90.9512Z" fill="#FFC0BB"/>
<path opacity="0.6" d="M162.276 90.9512L162.866 92.494C162.608 93.6327 161.649 94.4408 159.769 94.7714C159.769 94.4408 159.695 94 159.474 93.4123C158.957 91.9797 162.276 90.9512 162.276 90.9512Z" fill="#FC8D84"/>
<path d="M145.351 113.909C145.314 114.167 145.278 114.46 145.278 114.718C145.278 114.975 145.314 115.269 145.351 115.526C145.388 115.783 145.462 116.077 145.536 116.334C145.609 116.591 145.683 116.848 145.794 117.105L145.868 117.032C145.72 116.922 145.573 116.811 145.462 116.701C145.314 116.591 145.204 116.444 145.056 116.334C144.946 116.187 144.798 116.077 144.688 115.93C144.577 115.783 144.466 115.636 144.356 115.489C144.466 115.636 144.54 115.783 144.651 115.93C144.761 116.077 144.872 116.224 144.983 116.371C145.093 116.517 145.241 116.628 145.351 116.775C145.499 116.885 145.609 117.032 145.794 117.142L145.904 117.215L145.831 117.068C145.72 116.811 145.646 116.554 145.573 116.297C145.499 116.04 145.425 115.783 145.388 115.489C145.351 115.232 145.314 114.938 145.278 114.681C145.314 114.46 145.314 114.167 145.351 113.909Z" fill="white"/>
<path d="M155.491 88.7839C155.749 89.2981 155.602 89.9226 155.196 90.1063C154.754 90.3267 154.201 90.0328 153.943 89.5185C153.685 89.0043 153.832 88.3798 154.238 88.1961C154.68 87.9757 155.233 88.2329 155.491 88.7839Z" fill="#F99893"/>
<path d="M155.86 91.9429C155.713 91.7225 155.565 91.4653 155.454 91.2082C155.159 90.5103 154.975 89.7756 154.864 89.1512C154.828 89.0042 154.828 88.894 154.791 88.7471C154.643 88.1961 154.606 87.6084 154.717 86.9839C155.012 85.0003 156.597 83.4208 158.589 83.1637C161.28 82.7963 163.64 84.7799 163.788 87.388C164.046 87.2043 164.378 87.1676 164.673 87.2778C165.226 87.4982 165.484 88.2328 165.226 88.894C164.968 89.592 164.304 89.996 163.751 89.7756C163.677 89.7389 163.603 89.7022 163.53 89.6654C163.456 91.9061 161.723 93.7428 159.51 93.853C158.441 93.8897 157.446 93.5224 156.671 92.8612C156.634 92.8245 156.561 92.7877 156.524 92.7143C156.229 92.4939 156.044 92.2367 155.86 91.9429Z" fill="#FFC0BB"/>
<path d="M158.183 87.7186C158.183 87.9758 158.183 88.2329 158.183 88.49C158.183 88.6002 158.183 88.7471 158.146 88.8573C158.109 88.9675 158.109 89.1145 158.036 89.1879L157.999 89.2247C157.999 89.2247 157.999 89.2614 157.962 89.2614C157.925 89.2981 157.925 89.3349 157.888 89.3349C157.888 89.3716 157.851 89.4083 157.851 89.4451C157.851 89.4818 157.851 89.5185 157.814 89.5553C157.814 89.7022 157.888 89.8491 157.999 89.9593C158.109 90.0695 158.22 90.1063 158.367 90.143C158.515 90.1797 158.625 90.1797 158.773 90.143C158.625 90.143 158.515 90.1063 158.404 90.0695C158.294 90.0328 158.183 89.9593 158.109 89.8859C158.036 89.8124 157.999 89.7022 157.999 89.592C157.999 89.5553 157.999 89.5553 157.999 89.5185C157.999 89.4818 158.036 89.4818 158.036 89.4451C158.036 89.4083 158.072 89.4083 158.072 89.3716C158.072 89.3349 158.109 89.2981 158.146 89.2981C158.22 89.1512 158.257 89.041 158.257 88.8941C158.257 88.7472 158.257 88.637 158.257 88.49C158.33 88.1962 158.294 87.939 158.183 87.7186Z" fill="#F99893"/>
<path d="M159.732 88.0493C159.732 88.2697 159.916 88.4533 160.137 88.4166C160.358 88.4166 160.543 88.2329 160.506 88.0125C160.506 87.7921 160.322 87.6085 160.1 87.6452C159.879 87.6452 159.695 87.8289 159.732 88.0493Z" fill="#333333"/>
<path d="M156.302 88.4166C156.302 88.637 156.487 88.8206 156.708 88.7839C156.929 88.7839 157.114 88.6002 157.077 88.3798C157.077 88.1594 156.892 87.9758 156.671 88.0125C156.45 88.0125 156.302 88.1962 156.302 88.4166Z" fill="#333333"/>
<path opacity="0.3" d="M159.916 91.0613C159.916 91.0613 159.326 90.8776 158.81 91.245C158.81 91.245 158.22 90.9144 157.777 91.2817C157.777 91.2817 158.035 92.1266 158.957 92.0531C159.916 91.9429 159.916 91.0613 159.916 91.0613Z" fill="#F99893"/>
<path d="M160.395 90.7307C160.285 90.8042 160.174 90.9144 160.063 90.9878C159.953 91.0613 159.842 91.1348 159.695 91.2082C159.437 91.3184 159.179 91.4286 158.92 91.4286C158.662 91.4654 158.367 91.4286 158.109 91.3552C157.851 91.2817 157.593 91.1715 157.372 91.0246C157.482 91.098 157.593 91.2082 157.704 91.2817C157.814 91.3552 157.962 91.3919 158.072 91.4654C158.22 91.5021 158.33 91.5388 158.478 91.5388C158.625 91.5388 158.773 91.5388 158.92 91.5388C159.215 91.5021 159.474 91.3919 159.732 91.2817C159.99 91.1348 160.211 90.9511 160.395 90.7307Z" fill="#F99893"/>
<path d="M159.215 87.1676C159.437 87.0941 159.621 87.0574 159.805 87.0207C159.99 86.9839 160.174 86.9839 160.358 87.0207C160.543 87.0574 160.727 87.0941 160.875 87.1676C160.985 87.2043 161.059 87.2411 161.133 87.2778C161.207 87.3145 161.317 87.388 161.391 87.4247C161.354 87.3145 161.28 87.2411 161.207 87.1676C161.133 87.0941 161.059 87.0207 160.948 86.9472C160.764 86.8003 160.543 86.7268 160.322 86.7268C160.1 86.6901 159.879 86.7268 159.658 86.8003C159.547 86.8737 159.363 86.9839 159.215 87.1676Z" fill="url(#paint49_linear)"/>
<path d="M157.446 87.3513C157.298 87.2044 157.077 87.1309 156.856 87.0942C156.634 87.0575 156.413 87.0575 156.192 87.1309C155.971 87.2044 155.786 87.3146 155.639 87.4983C155.565 87.5717 155.491 87.6819 155.454 87.7554C155.418 87.8656 155.381 87.9391 155.344 88.0493C155.418 87.9758 155.491 87.9023 155.602 87.8656C155.676 87.7921 155.749 87.7554 155.823 87.6819C155.971 87.5717 156.155 87.4983 156.302 87.4248C156.487 87.3513 156.671 87.3513 156.856 87.3146C157.04 87.3146 157.261 87.3146 157.446 87.3513Z" fill="url(#paint50_linear)"/>
<path d="M151.809 111.388C156.795 105.493 156.04 96.6877 150.122 91.7207C144.205 86.7537 135.366 87.5062 130.38 93.4013C125.394 99.2965 126.149 108.102 132.067 113.069C137.984 118.036 146.823 117.283 151.809 111.388Z" fill="#EDFDFC"/>
<path d="M141.111 114.938C148.076 114.938 153.721 109.313 153.721 102.375C153.721 95.437 148.076 89.8125 141.111 89.8125C134.146 89.8125 128.501 95.437 128.501 102.375C128.501 109.313 134.146 114.938 141.111 114.938Z" fill="url(#paint51_linear)"/>
<path d="M145.536 113.322C139.489 115.746 132.593 112.807 130.16 106.82C127.726 100.796 130.676 93.9266 136.686 91.5022C142.733 89.0778 149.629 92.0165 152.062 98.004C154.533 104.028 151.583 110.897 145.536 113.322ZM136.871 91.8696C131.045 94.2205 128.243 100.832 130.565 106.636C132.925 112.44 139.562 115.232 145.388 112.918C151.214 110.567 154.016 103.955 151.693 98.1509C149.334 92.3471 142.697 89.5554 136.871 91.8696Z" fill="#EDFDFC"/>
<path opacity="0.5" d="M141.553 98.2244C141.148 97.6734 140.669 97.2693 139.931 97.2326C139.968 97.3428 139.968 97.4162 140.005 97.4897C140.41 98.4815 140.816 99.4366 141.185 100.428C141.258 100.649 141.369 100.685 141.59 100.685C142.143 100.649 142.66 100.612 143.213 100.649C145.093 100.722 146.236 101.861 146.716 103.551C147.269 105.608 146.642 107.187 144.872 108.399C144.54 108.62 144.503 108.804 144.688 109.134C144.798 109.355 144.872 109.612 144.983 109.869C144.54 110.052 144.171 110.199 143.729 110.383C143.581 110.016 143.434 109.612 143.286 109.244C140.337 109.906 138.714 108.253 137.977 106.82C138.677 106.453 139.415 106.049 140.152 105.644C140.705 106.379 141.369 106.893 142.402 107.04C142.18 106.489 141.996 106.012 141.812 105.571C141.553 104.947 141.295 104.285 141.037 103.661C140.964 103.44 140.816 103.33 140.558 103.367C139.71 103.44 138.899 103.367 138.124 103.036C136.539 102.375 135.764 101.053 135.617 99.4733C135.469 97.9672 136.17 96.8285 137.461 95.9837C137.534 95.9469 137.645 95.8735 137.719 95.8367C137.756 95.8 137.792 95.8 137.829 95.7265C137.719 95.4327 137.571 95.1021 137.461 94.7715C137.903 94.5878 138.309 94.4409 138.751 94.2572C138.825 94.4776 138.936 94.698 139.009 94.9551C139.083 95.2123 139.23 95.249 139.452 95.1755C140.521 94.9184 141.553 95.0286 142.475 95.6898C142.955 96.0204 143.36 96.4612 143.692 97.0122C142.955 97.453 142.291 97.8203 141.553 98.2244ZM142.365 103.257C142.844 104.396 143.286 105.534 143.729 106.636C144.466 106.232 144.835 105.314 144.577 104.432C144.282 103.551 143.471 103.11 142.365 103.257ZM138.604 97.7836C138.014 98.3713 137.792 99.1794 138.087 99.8039C138.419 100.465 139.12 100.906 139.82 100.796C139.415 99.7672 139.009 98.8121 138.604 97.7836Z" fill="#FFF9FF"/>
<path d="M146.089 104.946C146.126 105.02 146.052 105.093 145.978 105.093C145.351 104.946 143.323 104.542 143.25 104.689C143.176 104.873 144.946 105.277 144.983 105.461C145.02 105.644 143.286 105.204 143.213 105.424C143.139 105.644 144.761 105.975 144.761 106.085C144.761 106.195 143.213 106.012 143.102 106.122C142.992 106.232 144.651 106.599 144.688 106.746C144.725 106.857 143.508 106.967 143.508 107.077C143.508 107.187 143.471 107.261 146.31 107.812L147.416 107.995L148.412 107.628L148.449 106.379C148.449 106.379 145.941 103.624 145.794 103.661C145.646 103.624 145.609 103.734 146.089 104.946Z" fill="#FFC0BB"/>
<path d="M163.419 93.7062C163.419 93.7062 169.06 100.465 168.286 112.33C167.512 124.231 167.401 124.305 167.401 124.305C167.401 124.305 163.935 123.938 161.391 121.917C158.847 119.897 155.713 118.501 155.713 118.501L157.777 111.779C157.777 111.779 155.086 111.852 153.131 111.044C151.177 110.236 147.084 108.032 147.084 108.032C147.084 108.032 147.416 106.012 147.859 105.387C147.859 105.387 153.058 106.967 155.676 107.004C155.639 107.004 158.662 97.6734 163.419 93.7062Z" fill="url(#paint52_linear)"/>
<path d="M163.013 95.8734C162.165 96.6081 161.354 97.4162 160.617 98.2611C159.879 99.1059 159.179 100.024 158.552 100.943L158.33 101.31C158.257 101.42 158.183 101.53 158.109 101.677L157.667 102.412C157.593 102.522 157.519 102.669 157.446 102.779L157.224 103.147L157.04 103.514C156.966 103.624 156.929 103.771 156.856 103.881L156.487 104.653L156.155 105.424L156.008 105.828L155.86 106.232C155.786 106.489 155.676 106.783 155.602 107.04C155.713 106.783 155.823 106.526 155.897 106.269L156.044 105.865L156.229 105.497L156.561 104.726L156.929 103.991C157.003 103.881 157.04 103.734 157.114 103.624L157.335 103.257L157.556 102.889C157.63 102.779 157.704 102.632 157.777 102.522L158.22 101.824C158.294 101.714 158.367 101.604 158.441 101.457L158.662 101.09C159.289 100.171 159.953 99.2529 160.69 98.408L161.243 97.7468C161.428 97.5264 161.612 97.306 161.796 97.1223C162.202 96.6448 162.608 96.2407 163.013 95.8734Z" fill="#847D3D"/>
<path d="M165.447 100.575C164.968 101.604 164.488 102.632 163.972 103.661C163.714 104.175 163.456 104.653 163.198 105.167C162.94 105.681 162.645 106.159 162.35 106.636C162.055 107.114 161.76 107.591 161.428 108.069C161.28 108.289 161.096 108.546 160.948 108.767C160.764 108.987 160.617 109.207 160.432 109.428C160.063 109.869 159.695 110.309 159.289 110.677C158.884 111.081 158.441 111.411 157.925 111.669C158.441 111.448 158.92 111.118 159.363 110.714C159.805 110.346 160.174 109.905 160.543 109.465C160.912 109.024 161.243 108.583 161.575 108.105C161.907 107.628 162.202 107.15 162.497 106.673C163.087 105.681 163.603 104.689 164.083 103.661C164.599 102.669 165.041 101.64 165.447 100.575Z" fill="#847D3D"/>
<path d="M154.533 83.5311C155.196 82.0986 156.487 81.2904 157.593 80.8496C158.957 80.2986 160.469 80.2619 161.833 80.7762C165.705 82.2088 164.931 86.4698 164.746 87.2779C164.562 87.2412 164.304 87.2412 164.009 87.4249C163.861 87.4983 163.788 87.5718 163.677 87.6453C162.94 87.4249 162.681 86.1759 162.313 85.5515C161.796 84.7433 159.732 85.5147 158.847 84.927C157.962 84.3393 157.814 83.7515 157.814 83.7515C154.385 84.3025 154.643 88.1228 154.643 88.1228C154.496 88.086 154.164 87.5351 154.164 87.5351C154.164 87.5351 153.316 86.1759 154.533 83.5311Z" fill="url(#paint53_linear)"/>
<path d="M281.19 137.529L273.889 142.084L273.336 184.988L274.774 185.98L276.212 185.649L280.342 157.475L283.734 139.255L281.19 137.529Z" fill="#FFC0BB"/>
<path d="M295.975 179.588C292.731 170.846 287.052 164.932 287.052 164.932C287.052 164.932 288.122 162.066 289.228 152.626C290.334 143.186 285.688 137.235 285.688 137.235L277.502 139.659C277.502 139.659 281.669 164.417 282.333 165.997C282.849 167.246 289.523 176.099 292.362 179.882V179.955L293.653 181.608L294.869 183.151L296.307 182.49L296.565 180.69L295.975 179.588Z" fill="#FFC0BB"/>
<path d="M273.889 141.496C273.889 141.496 271.972 156.042 272.193 166.915C272.193 166.915 279.604 168.091 285.024 167.687L285.246 161.479L286.426 167.356C286.426 167.356 289.117 167.246 290.334 166.254C290.334 166.254 289.597 160.046 289.818 155.271C290.039 150.496 289.855 144.471 288.269 140.504C286.684 136.5 277.908 140.871 277.908 140.871L273.889 141.496Z" fill="url(#paint54_linear)"/>
<path d="M283.771 104.836C283.771 104.836 285.467 106.122 285.946 107.922C286.389 109.465 288.306 109.207 289.486 111.264C290.813 113.579 292.731 116.995 288.38 119.309C285.688 120.742 281.374 121.844 280.378 120.889C279.42 119.933 277.06 120.301 277.613 110.089C277.613 110.089 283.992 106.489 284.029 106.489C284.103 106.489 283.771 104.836 283.771 104.836Z" fill="#473B1E"/>
<path d="M275.29 134.039L276.064 130.696L274.11 125.517C274.11 125.517 273.041 129.631 271.455 133.304L265.629 134.002L264.413 134.223C264.413 134.223 272.414 138.778 274.589 135.435C274.811 135.508 274.958 135.508 274.958 135.508L275.179 134.627C275.29 134.443 275.401 134.223 275.438 134.039H275.29Z" fill="url(#paint55_linear)"/>
<path d="M282.701 115.966L282.554 118.428L279.199 119.125H278.609L278.719 116.187L282.296 114.938L282.701 115.966Z" fill="#FFC0BB"/>
<path d="M277.466 119.897C277.318 121.55 277.982 121.844 277.982 121.844L283.033 118.097C279.899 118.391 277.871 118.758 277.871 118.758C277.871 118.758 277.613 119.934 277.466 119.897Z" fill="#FFC0BB"/>
<path d="M285.872 110.64C285.872 110.64 286.905 106.416 284.434 104.836C281.964 103.257 279.346 103.44 277.576 104.396C275.806 105.351 274.737 108.657 275.548 110.53L281.448 108.73L285.872 110.64Z" fill="#473B1E"/>
<path d="M282.775 115.342C282.775 115.342 282.701 116.04 282.628 116.921C281.337 118.317 278.977 117.84 278.645 117.693C278.682 117.252 278.645 116.334 278.645 116.334L282.775 115.342Z" fill="#F99893"/>
<path d="M276.286 111.265C276.507 111.816 276.286 112.44 275.843 112.587C275.401 112.771 274.848 112.44 274.626 111.852C274.405 111.301 274.626 110.677 275.069 110.53C275.548 110.383 276.101 110.677 276.286 111.265Z" fill="#F99893"/>
<path d="M276.359 114.534C276.212 114.277 276.101 114.02 276.028 113.762C275.769 113.028 275.659 112.256 275.622 111.595C275.622 111.448 275.585 111.301 275.585 111.154C275.511 110.567 275.511 109.979 275.696 109.355C276.212 107.371 277.982 105.902 280.047 105.828C282.812 105.718 285.024 107.959 284.951 110.677C285.246 110.53 285.577 110.493 285.872 110.64C286.426 110.897 286.61 111.669 286.241 112.367C285.909 113.065 285.172 113.395 284.656 113.138C284.582 113.101 284.508 113.065 284.434 112.991C284.103 115.269 282.185 116.995 279.899 116.885C278.793 116.811 277.797 116.334 277.06 115.599C277.023 115.562 276.949 115.489 276.912 115.452C276.691 115.158 276.507 114.864 276.359 114.534Z" fill="#FFC0BB"/>
<path d="M280.563 111.338C280.563 111.595 280.747 111.779 280.968 111.815C281.227 111.815 281.411 111.632 281.448 111.411C281.448 111.154 281.263 110.971 281.042 110.934C280.784 110.897 280.6 111.081 280.563 111.338Z" fill="#333333"/>
<path d="M276.654 111.338C276.654 111.595 276.839 111.779 277.06 111.815C277.318 111.815 277.502 111.632 277.539 111.411C277.539 111.154 277.355 110.971 277.134 110.934C276.876 110.897 276.654 111.081 276.654 111.338Z" fill="#333333"/>
<path d="M280.194 110.603C280.378 110.493 280.6 110.42 280.821 110.383C281.042 110.346 281.263 110.31 281.448 110.346C281.558 110.346 281.669 110.383 281.78 110.42C281.816 110.42 281.89 110.456 281.927 110.456C281.964 110.456 281.964 110.493 282.001 110.493C282.038 110.493 282.038 110.53 282.075 110.53C282.259 110.64 282.443 110.75 282.628 110.897C282.48 110.714 282.333 110.567 282.111 110.42C282.001 110.346 281.89 110.31 281.78 110.273C281.669 110.236 281.558 110.199 281.448 110.199C281.227 110.163 280.968 110.199 280.747 110.273C280.637 110.31 280.526 110.346 280.415 110.42C280.378 110.456 280.268 110.493 280.194 110.603Z" fill="#473B1E"/>
<path d="M278.424 110.603C278.35 110.53 278.24 110.456 278.166 110.383C278.055 110.31 277.945 110.273 277.834 110.236C277.613 110.163 277.392 110.126 277.134 110.163C277.023 110.163 276.912 110.199 276.802 110.236C276.691 110.273 276.581 110.31 276.47 110.383C276.286 110.493 276.101 110.677 275.954 110.861C276.138 110.714 276.322 110.603 276.507 110.493C276.544 110.493 276.544 110.456 276.581 110.456C276.617 110.456 276.617 110.42 276.654 110.42C276.691 110.42 276.765 110.383 276.802 110.383C276.912 110.346 277.023 110.346 277.134 110.31C277.355 110.273 277.576 110.31 277.76 110.346C278.019 110.42 278.24 110.493 278.424 110.603Z" fill="#473B1E"/>
<path d="M288.527 125.407C288.417 125.297 288.306 125.186 288.232 125.039C288.159 124.929 288.048 124.782 287.974 124.635C287.9 124.488 287.827 124.342 287.753 124.195C287.679 124.048 287.642 123.901 287.605 123.754C287.642 123.901 287.642 124.084 287.716 124.231C287.753 124.305 287.753 124.378 287.79 124.452C287.827 124.525 287.864 124.599 287.9 124.672C287.974 124.819 288.048 124.966 288.159 125.076C288.232 125.186 288.306 125.297 288.417 125.37C288.343 125.37 288.232 125.407 288.159 125.407C288.048 125.407 287.937 125.407 287.827 125.407C287.753 125.407 287.716 125.37 287.642 125.37C287.569 125.37 287.532 125.333 287.458 125.333C287.347 125.297 287.237 125.223 287.126 125.186C287.237 125.26 287.31 125.333 287.421 125.37C287.532 125.407 287.642 125.48 287.753 125.48C287.864 125.517 288.011 125.517 288.122 125.517C288.232 125.517 288.38 125.517 288.49 125.48L288.564 125.444L288.527 125.407Z" fill="white"/>
<path d="M278.94 111.118C278.83 111.301 278.719 111.522 278.609 111.742C278.498 111.963 278.424 112.183 278.35 112.403C278.314 112.514 278.277 112.624 278.277 112.771C278.277 112.807 278.277 112.844 278.277 112.881V112.918C278.277 112.954 278.277 112.954 278.314 112.991C278.314 112.991 278.314 113.028 278.35 113.028L278.387 113.065C278.424 113.065 278.424 113.101 278.461 113.101C278.572 113.175 278.682 113.211 278.793 113.248C278.904 113.285 279.014 113.322 279.125 113.322C278.904 113.211 278.682 113.138 278.535 112.991C278.498 112.991 278.498 112.954 278.461 112.954L278.424 112.918C278.424 112.881 278.424 112.844 278.424 112.771C278.424 112.66 278.461 112.55 278.498 112.44C278.572 112.22 278.645 111.999 278.719 111.779C278.793 111.558 278.867 111.338 278.94 111.118Z" fill="#F99893"/>
<path d="M287.716 132.386C288.306 129.043 288.564 125.48 288.564 125.48C288.601 124.672 287.606 123.497 287.569 122.872C286.721 122.174 286.536 121.623 286.536 121.623L285.061 118.611L284.103 118.134C283.328 118.06 282.96 118.134 282.96 118.134L280.452 120.007C279.42 120.778 277.908 120.08 277.834 118.758C275.622 120.521 274.147 121.293 273.852 124.121C273.631 126.105 274.7 127.758 274.848 129.631L273.852 141.496C273.852 141.496 282.148 141.606 288.195 140.467C288.232 140.467 287.679 137.125 287.716 132.386Z" fill="url(#paint56_linear)"/>
<path d="M273.188 140.982L264.523 141.496C263.97 141.533 263.38 141.165 263.159 140.724L258.587 130.219C258.402 129.741 258.661 129.337 259.214 129.3L267.879 128.786C268.432 128.749 269.022 129.117 269.243 129.558L273.815 140.063C274.036 140.541 273.741 140.945 273.188 140.982Z" fill="url(#paint57_linear)"/>
<path d="M265.334 129.447L262.385 129.631C262.163 129.631 261.868 129.484 261.795 129.3L261.721 129.117C261.647 128.933 261.758 128.749 261.979 128.713L264.929 128.529C265.15 128.529 265.445 128.676 265.519 128.86L265.593 129.043C265.703 129.264 265.556 129.447 265.334 129.447Z" fill="#C8EEF1"/>
<path d="M262.127 138.3H262.09C261.868 138.41 261.61 138.3 261.5 138.116L260.135 135.766C260.062 135.655 260.062 135.508 260.135 135.398C260.357 135.068 260.873 134.37 261.02 134.37C261.242 134.406 260.578 135.582 260.652 135.582C260.762 135.619 261.721 134.81 261.795 134.957C261.868 135.068 261.02 135.986 261.057 136.059C261.094 136.133 262.09 135.545 262.163 135.655C262.274 135.729 261.352 136.463 261.352 136.537L262.127 138.3Z" fill="#FFC0BB"/>
<path d="M261.315 136.574C261.315 136.574 262.311 136.28 262.385 136.39C262.458 136.5 261.315 137.125 261.315 137.088C261.315 137.051 261.315 136.574 261.315 136.574Z" fill="#FFC0BB"/>
<path d="M285.541 110.052H285.43L285.356 109.134L284.951 108.289C284.951 108.289 283.328 106.012 283.291 105.938C283.218 105.865 282.001 105.13 281.927 105.093C281.853 105.057 280.12 105.351 280.12 105.351C280.12 105.351 277.097 104.689 277.613 106.379C278.129 108.069 280.342 108.95 280.452 108.877C280.084 108.51 280.047 107.444 280.047 107.444C281.743 109.391 284.951 110.677 284.951 110.677C284.951 110.677 285.283 110.42 285.872 110.64L285.541 110.052Z" fill="#473B1E"/>
<path d="M277.945 114.02C278.056 114.534 278.572 114.938 279.162 114.901C279.752 114.901 280.268 114.497 280.342 113.946L277.945 114.02Z" fill="white"/>
<path d="M289.228 126.288C289.228 126.288 288.011 119.566 284.213 118.134C283.181 117.766 282.111 118.501 282.075 119.603C282.075 121.146 286.868 132.643 286.352 133.231C285.688 134.039 273.41 136.941 273.004 137.014L271.529 136.868C270.312 136.794 269.059 136.61 268.985 136.721C268.874 136.831 268.948 136.978 270.239 137.565C270.312 137.602 270.312 137.712 270.239 137.786C269.612 138.153 267.731 139.329 267.768 139.512C267.842 139.733 269.575 138.704 269.722 138.851C269.87 138.998 268.174 139.916 268.284 140.137C268.395 140.357 269.944 139.439 270.017 139.512C270.091 139.586 268.727 140.614 268.727 140.798C268.727 140.945 270.312 140.027 270.46 140.1C270.57 140.173 269.685 141.165 269.759 141.239C269.833 141.312 269.538 141.459 272.193 139.769C272.193 139.769 272.856 139.329 273.078 139.145C273.078 139.145 288.343 137.014 289.265 135.802C291.071 133.525 289.228 126.288 289.228 126.288Z" fill="#FFC0BB"/>
<path d="M289.228 126.288C289.228 126.288 288.011 119.566 284.213 118.134C283.181 117.766 282.111 118.501 282.075 119.603C282.075 121.146 286.868 132.643 286.352 133.231C285.688 134.039 273.41 136.941 273.004 137.014H272.967C273.115 137.676 273.299 138.41 273.52 139.035C276.028 138.667 288.417 136.831 289.265 135.766C291.072 133.525 289.228 126.288 289.228 126.288Z" fill="url(#paint58_linear)"/>
<path d="M210.653 24.0969C209.62 19.6522 205.638 16.3095 200.844 16.3095C199.96 16.3095 199.111 16.4197 198.3 16.6401C195.94 11.6077 190.815 8.11802 184.879 8.11802C183.33 8.11802 181.855 8.33841 180.454 8.77921C177.283 3.52638 171.457 0 164.857 0C156.966 0 150.255 4.9957 147.674 11.975C145.868 10.9832 143.803 10.3955 141.59 10.3955C134.658 10.3955 129.054 15.9789 129.054 22.8847C129.054 23.2888 129.091 23.6928 129.127 24.0969H210.653Z" fill="#EDFDFC"/>
<path d="M60.1021 36.9534C60.7658 34.0883 63.31 31.9945 66.3705 31.9945C66.9236 31.9945 67.4766 32.0679 67.9929 32.2149C69.5046 28.9823 72.7863 26.7784 76.5841 26.7784C77.5797 26.7784 78.5015 26.9253 79.3865 27.2192C81.4144 23.8397 85.1386 21.599 89.3789 21.599C94.4304 21.599 98.7445 24.7948 100.367 29.2762C101.51 28.6518 102.837 28.2844 104.275 28.2844C108.7 28.2844 112.277 31.8475 112.277 36.2555C112.277 36.5126 112.277 36.7698 112.24 37.0269H60.1021V36.9534Z" fill="#EDFDFC"/>
<path d="M229.089 29.2395C229.531 27.3661 231.227 25.9703 233.218 25.9703C233.587 25.9703 233.956 26.007 234.288 26.1172C235.283 23.9867 237.459 22.5174 239.966 22.5174C240.63 22.5174 241.257 22.6276 241.847 22.8112C243.211 20.5705 245.645 19.1012 248.447 19.1012C251.765 19.1012 254.605 21.195 255.711 24.1704C256.485 23.7296 257.333 23.5092 258.292 23.5092C261.205 23.5092 263.601 25.8601 263.601 28.7987C263.601 28.9824 263.601 29.1293 263.565 29.313H229.089V29.2395Z" fill="#EDFDFC"/>
<path d="M270.902 76.6253C271.418 74.3478 273.483 72.6581 275.917 72.6581C276.359 72.6581 276.802 72.7316 277.207 72.805C278.424 70.2337 281.042 68.4338 284.066 68.4338C284.84 68.4338 285.614 68.544 286.315 68.7644C287.937 66.0829 290.924 64.2462 294.316 64.2462C298.372 64.2462 301.801 66.8175 303.092 70.3807C304.014 69.8664 305.083 69.5725 306.226 69.5725C309.766 69.5725 312.642 72.4377 312.642 75.9641C312.642 76.1845 312.642 76.3681 312.605 76.5885H270.902V76.6253Z" fill="#EDFDFC"/>
<path d="M270.607 185.98L273.631 184.143L276.249 185.722L275.327 186.384L272.156 186.824C272.156 186.824 270.939 186.678 270.865 186.641C270.828 186.567 270.607 185.98 270.607 185.98Z" fill="#FFC0BB"/>
<path d="M270.607 185.98L269.833 186.457C269.464 186.678 269.649 187.229 270.054 187.229L275.843 187.265C276.064 187.265 276.212 187.118 276.212 186.898V185.686C272.377 186.898 271.05 186.531 270.607 185.98Z" fill="#002A24"/>
<path d="M294.095 185.722L294.021 182.049L296.602 180.727L296.713 181.829L295.57 184.804C295.57 184.804 294.832 185.796 294.759 185.833C294.685 185.796 294.095 185.722 294.095 185.722Z" fill="#FFC0BB"/>
<path d="M294.095 185.723L294.169 186.641C294.206 187.045 294.759 187.192 294.943 186.825L297.782 181.829C297.893 181.645 297.819 181.425 297.635 181.315L296.565 180.727C295.754 184.621 294.759 185.612 294.095 185.723Z" fill="#002A24"/>
<path d="M215.815 95.6897L210.653 93.7062C210.542 93.6694 210.468 93.5225 210.505 93.3756L210.542 93.2654C210.579 93.1552 210.726 93.0817 210.874 93.1184L216.036 95.102C216.147 95.1387 216.22 95.2857 216.183 95.4326L216.147 95.5428C216.11 95.6897 215.962 95.7265 215.815 95.6897Z" fill="white"/>
<path d="M211.574 91.4287L210.763 92.9347C210.653 93.1184 210.689 93.3388 210.837 93.3755L215.815 95.2857C215.925 95.3224 216.11 95.3224 216.22 95.1755C216.368 95.0653 216.442 94.8081 216.368 94.4041C216.183 93.5959 214.782 92.898 214.266 92.0899L211.943 91.2083C211.833 91.1715 211.648 91.245 211.574 91.4287Z" fill="url(#paint59_linear)"/>
<path d="M213.566 92.898C213.529 92.8612 213.565 92.7878 213.602 92.751C213.787 92.5674 214.303 92.1633 214.856 92.5306C214.893 92.5674 214.893 92.6041 214.856 92.6408C214.819 92.6776 214.782 92.7143 214.745 92.6776C214.229 92.3837 213.787 92.7143 213.639 92.898C213.602 92.9347 213.566 92.9347 213.566 92.898Z" fill="white"/>
<path d="M213.971 93.302C213.934 93.2653 213.971 93.1918 214.008 93.1551C214.192 92.9714 214.709 92.5674 215.262 92.9347C215.298 92.9714 215.298 93.0081 215.262 93.0449C215.225 93.0816 215.188 93.1183 215.151 93.0816C214.635 92.7877 214.192 93.1183 214.045 93.302C214.045 93.302 214.008 93.3387 213.971 93.302Z" fill="white"/>
<path d="M214.377 93.6693C214.34 93.6326 214.377 93.5591 214.414 93.5224C214.598 93.3387 215.114 92.9347 215.667 93.302C215.704 93.3387 215.704 93.3755 215.667 93.4122C215.63 93.4489 215.593 93.4857 215.557 93.4489C215.04 93.1551 214.598 93.4857 214.45 93.6693C214.45 93.7061 214.414 93.7061 214.377 93.6693Z" fill="white"/>
<path opacity="0.3" d="M212.164 93.8899C212.275 92.4573 211.648 92.0532 211.279 91.943L210.763 92.8981C210.653 93.0817 210.689 93.3021 210.837 93.3389L212.164 93.8899Z" fill="#E87B50"/>
<path d="M210.579 95.6897L205.269 94.0735C205.122 94.0367 205.048 93.8898 205.122 93.7796L205.159 93.6694C205.195 93.5225 205.343 93.449 205.454 93.5225L210.763 95.1387C210.911 95.1755 210.984 95.3224 210.911 95.4326L210.874 95.5428C210.837 95.653 210.689 95.7264 210.579 95.6897Z" fill="white"/>
<path d="M206.007 91.7593L205.306 93.3021C205.232 93.4857 205.269 93.7061 205.417 93.7429L210.505 95.3224C210.653 95.3591 210.8 95.3224 210.911 95.1755C211.021 95.0285 211.132 94.8081 210.984 94.4041C210.726 93.6327 209.288 93.0082 208.735 92.2368L206.375 91.5022C206.265 91.4654 206.08 91.5756 206.007 91.7593Z" fill="url(#paint60_linear)"/>
<path d="M208.108 93.0816C208.071 93.0449 208.071 92.9714 208.108 92.9347C208.293 92.751 208.772 92.3102 209.362 92.6041C209.399 92.6041 209.399 92.6775 209.399 92.7143C209.362 92.751 209.325 92.7877 209.288 92.751C208.735 92.4939 208.33 92.8612 208.182 93.0449C208.182 93.0816 208.108 93.0816 208.108 93.0816Z" fill="white"/>
<path d="M208.551 93.449C208.514 93.4123 208.514 93.3388 208.551 93.3021C208.735 93.1184 209.215 92.6777 209.804 92.9715C209.841 92.9715 209.841 93.045 209.841 93.0817C209.804 93.1184 209.768 93.1552 209.731 93.1184C209.178 92.8613 208.772 93.2286 208.625 93.4123C208.625 93.449 208.588 93.449 208.551 93.449Z" fill="white"/>
<path d="M208.993 93.7796C208.956 93.7429 208.956 93.6694 208.993 93.6327C209.178 93.449 209.657 93.0082 210.247 93.3021C210.284 93.3021 210.284 93.3756 210.284 93.4123C210.247 93.449 210.21 93.4857 210.173 93.449C209.62 93.1919 209.215 93.5592 209.067 93.7429C209.067 93.8163 209.03 93.8163 208.993 93.7796Z" fill="white"/>
<path opacity="0.3" d="M206.818 94.1469C206.818 92.7144 206.191 92.3838 205.785 92.2736L205.343 93.2654C205.269 93.449 205.306 93.6694 205.454 93.7062L206.818 94.1469Z" fill="#E87B50"/>
</g>
<defs>
<linearGradient id="paint0_linear" x1="246.704" y1="76.0925" x2="271.69" y2="76.0925" gradientUnits="userSpaceOnUse">
<stop stop-color="#C9CD55"/>
<stop offset="0.5065" stop-color="#659C52"/>
<stop offset="1" stop-color="#287F50"/>
</linearGradient>
<linearGradient id="paint1_linear" x1="270.806" y1="93.5107" x2="201.338" y2="19.9827" gradientUnits="userSpaceOnUse">
<stop stop-color="#C9CD55"/>
<stop offset="0.5065" stop-color="#659C52"/>
<stop offset="1" stop-color="#287F50"/>
</linearGradient>
<linearGradient id="paint2_linear" x1="305.343" y1="70.7802" x2="269.891" y2="88.4786" gradientUnits="userSpaceOnUse">
<stop stop-color="#C7A44F"/>
<stop offset="1" stop-color="#609A3F"/>
</linearGradient>
<linearGradient id="paint3_linear" x1="257.789" y1="90.4741" x2="281.16" y2="242.202" gradientUnits="userSpaceOnUse">
<stop stop-color="#C9CD55"/>
<stop offset="0.5065" stop-color="#659C52"/>
<stop offset="1" stop-color="#287F50"/>
</linearGradient>
<linearGradient id="paint4_linear" x1="260.882" y1="116.186" x2="265.531" y2="138.576" gradientUnits="userSpaceOnUse">
<stop stop-color="#C9CD55"/>
<stop offset="0.5065" stop-color="#659C52"/>
<stop offset="1" stop-color="#287F50"/>
</linearGradient>
<linearGradient id="paint5_linear" x1="275.249" y1="87.7848" x2="298.62" y2="239.513" gradientUnits="userSpaceOnUse">
<stop stop-color="#C9CD55"/>
<stop offset="0.5065" stop-color="#659C52"/>
<stop offset="1" stop-color="#287F50"/>
</linearGradient>
<linearGradient id="paint6_linear" x1="263.942" y1="89.5264" x2="287.313" y2="241.254" gradientUnits="userSpaceOnUse">
<stop stop-color="#C9CD55"/>
<stop offset="0.5065" stop-color="#659C52"/>
<stop offset="1" stop-color="#287F50"/>
</linearGradient>
<linearGradient id="paint7_linear" x1="269.088" y1="165.555" x2="282.503" y2="165.555" gradientUnits="userSpaceOnUse">
<stop stop-color="#C9CD55"/>
<stop offset="0.5065" stop-color="#659C52"/>
<stop offset="1" stop-color="#287F50"/>
</linearGradient>
<linearGradient id="paint8_linear" x1="226.699" y1="156.92" x2="282.079" y2="156.92" gradientUnits="userSpaceOnUse">
<stop stop-color="#53CD9F"/>
<stop offset="1" stop-color="#0D7A5C"/>
</linearGradient>
<linearGradient id="paint9_linear" x1="68.7931" y1="146.378" x2="115.258" y2="146.378" gradientUnits="userSpaceOnUse">
<stop stop-color="#C9CD55"/>
<stop offset="0.5065" stop-color="#659C52"/>
<stop offset="1" stop-color="#287F50"/>
</linearGradient>
<linearGradient id="paint10_linear" x1="167.137" y1="131.92" x2="247.639" y2="131.92" gradientUnits="userSpaceOnUse">
<stop stop-color="#00503E"/>
<stop offset="1" stop-color="#023222"/>
</linearGradient>
<linearGradient id="paint11_linear" x1="174.386" y1="110.132" x2="193.543" y2="110.132" gradientUnits="userSpaceOnUse">
<stop stop-color="#FB9A2B"/>
<stop offset="1" stop-color="#E65925"/>
</linearGradient>
<linearGradient id="paint12_linear" x1="198.19" y1="110.132" x2="217.346" y2="110.132" gradientUnits="userSpaceOnUse">
<stop stop-color="#FB9A2B"/>
<stop offset="1" stop-color="#E65925"/>
</linearGradient>
<linearGradient id="paint13_linear" x1="221.993" y1="110.132" x2="241.15" y2="110.132" gradientUnits="userSpaceOnUse">
<stop stop-color="#FB9A2B"/>
<stop offset="1" stop-color="#E65925"/>
</linearGradient>
<linearGradient id="paint14_linear" x1="181.95" y1="117.43" x2="180.582" y2="186.339" gradientUnits="userSpaceOnUse">
<stop stop-color="#C9CD55"/>
<stop offset="0.5065" stop-color="#659C52"/>
<stop offset="1" stop-color="#287F50"/>
</linearGradient>
<linearGradient id="paint15_linear" x1="199.256" y1="117.77" x2="197.888" y2="186.679" gradientUnits="userSpaceOnUse">
<stop stop-color="#C9CD55"/>
<stop offset="0.5065" stop-color="#659C52"/>
<stop offset="1" stop-color="#287F50"/>
</linearGradient>
<linearGradient id="paint16_linear" x1="216.562" y1="118.11" x2="215.194" y2="187.019" gradientUnits="userSpaceOnUse">
<stop stop-color="#C9CD55"/>
<stop offset="0.5065" stop-color="#659C52"/>
<stop offset="1" stop-color="#287F50"/>
</linearGradient>
<linearGradient id="paint17_linear" x1="182.288" y1="117.608" x2="180.92" y2="186.517" gradientUnits="userSpaceOnUse">
<stop stop-color="#C9CD55"/>
<stop offset="0.5065" stop-color="#659C52"/>
<stop offset="1" stop-color="#287F50"/>
</linearGradient>
<linearGradient id="paint18_linear" x1="199.594" y1="117.948" x2="198.226" y2="186.857" gradientUnits="userSpaceOnUse">
<stop stop-color="#C9CD55"/>
<stop offset="0.5065" stop-color="#659C52"/>
<stop offset="1" stop-color="#287F50"/>
</linearGradient>
<linearGradient id="paint19_linear" x1="216.9" y1="118.288" x2="215.532" y2="187.197" gradientUnits="userSpaceOnUse">
<stop stop-color="#C9CD55"/>
<stop offset="0.5065" stop-color="#659C52"/>
<stop offset="1" stop-color="#287F50"/>
</linearGradient>
<linearGradient id="paint20_linear" x1="234.855" y1="112.268" x2="230.835" y2="189.318" gradientUnits="userSpaceOnUse">
<stop stop-color="#53CD9F"/>
<stop offset="1" stop-color="#0D7A5C"/>
</linearGradient>
<linearGradient id="paint21_linear" x1="182.625" y1="117.786" x2="181.257" y2="186.695" gradientUnits="userSpaceOnUse">
<stop stop-color="#C9CD55"/>
<stop offset="0.5065" stop-color="#659C52"/>
<stop offset="1" stop-color="#287F50"/>
</linearGradient>
<linearGradient id="paint22_linear" x1="199.931" y1="118.126" x2="198.563" y2="187.035" gradientUnits="userSpaceOnUse">
<stop stop-color="#C9CD55"/>
<stop offset="0.5065" stop-color="#659C52"/>
<stop offset="1" stop-color="#287F50"/>
</linearGradient>
<linearGradient id="paint23_linear" x1="217.237" y1="118.467" x2="215.869" y2="187.375" gradientUnits="userSpaceOnUse">
<stop stop-color="#C9CD55"/>
<stop offset="0.5065" stop-color="#659C52"/>
<stop offset="1" stop-color="#287F50"/>
</linearGradient>
<linearGradient id="paint24_linear" x1="236.132" y1="113.531" x2="232.215" y2="188.615" gradientUnits="userSpaceOnUse">
<stop stop-color="#53CD9F"/>
<stop offset="1" stop-color="#0D7A5C"/>
</linearGradient>
<linearGradient id="paint25_linear" x1="182.962" y1="117.965" x2="181.594" y2="186.873" gradientUnits="userSpaceOnUse">
<stop stop-color="#C9CD55"/>
<stop offset="0.5065" stop-color="#659C52"/>
<stop offset="1" stop-color="#287F50"/>
</linearGradient>
<linearGradient id="paint26_linear" x1="200.268" y1="118.305" x2="198.9" y2="187.213" gradientUnits="userSpaceOnUse">
<stop stop-color="#C9CD55"/>
<stop offset="0.5065" stop-color="#659C52"/>
<stop offset="1" stop-color="#287F50"/>
</linearGradient>
<linearGradient id="paint27_linear" x1="219.736" y1="113.133" x2="215.819" y2="188.218" gradientUnits="userSpaceOnUse">
<stop stop-color="#53CD9F"/>
<stop offset="1" stop-color="#0D7A5C"/>
</linearGradient>
<linearGradient id="paint28_linear" x1="226.324" y1="176.131" x2="241.15" y2="176.131" gradientUnits="userSpaceOnUse">
<stop stop-color="#FB9A2B"/>
<stop offset="1" stop-color="#E65925"/>
</linearGradient>
<linearGradient id="paint29_linear" x1="129.51" y1="134.219" x2="157.669" y2="134.219" gradientUnits="userSpaceOnUse">
<stop stop-color="#C7A44F"/>
<stop offset="1" stop-color="#609A3F"/>
</linearGradient>
<linearGradient id="paint30_linear" x1="101.35" y1="134.219" x2="129.51" y2="134.219" gradientUnits="userSpaceOnUse">
<stop stop-color="#00503E"/>
<stop offset="1" stop-color="#023222"/>
</linearGradient>
<linearGradient id="paint31_linear" x1="101.13" y1="134.219" x2="186.049" y2="134.219" gradientUnits="userSpaceOnUse">
<stop stop-color="#00503E"/>
<stop offset="1" stop-color="#023222"/>
</linearGradient>
<linearGradient id="paint32_linear" x1="125.196" y1="157.96" x2="153.355" y2="157.96" gradientUnits="userSpaceOnUse">
<stop stop-color="#C7A44F"/>
<stop offset="1" stop-color="#609A3F"/>
</linearGradient>
<linearGradient id="paint33_linear" x1="97.0366" y1="157.96" x2="125.196" y2="157.96" gradientUnits="userSpaceOnUse">
<stop stop-color="#00503E"/>
<stop offset="1" stop-color="#023222"/>
</linearGradient>
<linearGradient id="paint34_linear" x1="96.8161" y1="157.96" x2="181.736" y2="157.96" gradientUnits="userSpaceOnUse">
<stop stop-color="#00503E"/>
<stop offset="1" stop-color="#023222"/>
</linearGradient>
<linearGradient id="paint35_linear" x1="129.51" y1="169.831" x2="157.669" y2="169.831" gradientUnits="userSpaceOnUse">
<stop stop-color="#C7A44F"/>
<stop offset="1" stop-color="#609A3F"/>
</linearGradient>
<linearGradient id="paint36_linear" x1="101.35" y1="169.831" x2="129.51" y2="169.831" gradientUnits="userSpaceOnUse">
<stop stop-color="#00503E"/>
<stop offset="1" stop-color="#023222"/>
</linearGradient>
<linearGradient id="paint37_linear" x1="101.13" y1="169.832" x2="186.049" y2="169.832" gradientUnits="userSpaceOnUse">
<stop stop-color="#00503E"/>
<stop offset="1" stop-color="#023222"/>
</linearGradient>
<linearGradient id="paint38_linear" x1="136.307" y1="181.702" x2="164.467" y2="181.702" gradientUnits="userSpaceOnUse">
<stop stop-color="#C7A44F"/>
<stop offset="1" stop-color="#609A3F"/>
</linearGradient>
<linearGradient id="paint39_linear" x1="108.148" y1="181.702" x2="136.307" y2="181.702" gradientUnits="userSpaceOnUse">
<stop stop-color="#00503E"/>
<stop offset="1" stop-color="#023222"/>
</linearGradient>
<linearGradient id="paint40_linear" x1="107.927" y1="181.702" x2="192.847" y2="181.702" gradientUnits="userSpaceOnUse">
<stop stop-color="#00503E"/>
<stop offset="1" stop-color="#023222"/>
</linearGradient>
<linearGradient id="paint41_linear" x1="134.15" y1="146.089" x2="162.31" y2="146.089" gradientUnits="userSpaceOnUse">
<stop stop-color="#C7A44F"/>
<stop offset="1" stop-color="#609A3F"/>
</linearGradient>
<linearGradient id="paint42_linear" x1="105.991" y1="146.089" x2="134.15" y2="146.089" gradientUnits="userSpaceOnUse">
<stop stop-color="#00503E"/>
<stop offset="1" stop-color="#023222"/>
</linearGradient>
<linearGradient id="paint43_linear" x1="105.77" y1="146.09" x2="190.69" y2="146.09" gradientUnits="userSpaceOnUse">
<stop stop-color="#00503E"/>
<stop offset="1" stop-color="#023222"/>
</linearGradient>
<linearGradient id="paint44_linear" x1="192.558" y1="63.1598" x2="218.916" y2="63.1598" gradientUnits="userSpaceOnUse">
<stop stop-color="#00503E"/>
<stop offset="1" stop-color="#023222"/>
</linearGradient>
<linearGradient id="paint45_linear" x1="128.513" y1="127.288" x2="133.923" y2="127.288" gradientUnits="userSpaceOnUse">
<stop stop-color="#FB9A2B"/>
<stop offset="1" stop-color="#E65925"/>
</linearGradient>
<linearGradient id="paint46_linear" x1="138.948" y1="127.377" x2="144.358" y2="127.377" gradientUnits="userSpaceOnUse">
<stop stop-color="#FB9A2B"/>
<stop offset="1" stop-color="#E65925"/>
</linearGradient>
<linearGradient id="paint47_linear" x1="157.486" y1="80.4688" x2="168.24" y2="93.2453" gradientUnits="userSpaceOnUse">
<stop stop-color="#FB9A2B"/>
<stop offset="1" stop-color="#E65925"/>
</linearGradient>
<linearGradient id="paint48_linear" x1="164.305" y1="105.294" x2="138.364" y2="100.002" gradientUnits="userSpaceOnUse">
<stop stop-color="#C9CD55"/>
<stop offset="0.5065" stop-color="#659C52"/>
<stop offset="1" stop-color="#287F50"/>
</linearGradient>
<linearGradient id="paint49_linear" x1="155.786" y1="81.8993" x2="166.54" y2="94.6758" gradientUnits="userSpaceOnUse">
<stop stop-color="#FB9A2B"/>
<stop offset="1" stop-color="#E65925"/>
</linearGradient>
<linearGradient id="paint50_linear" x1="153.278" y1="84.0105" x2="164.032" y2="96.7868" gradientUnits="userSpaceOnUse">
<stop stop-color="#FB9A2B"/>
<stop offset="1" stop-color="#E65925"/>
</linearGradient>
<linearGradient id="paint51_linear" x1="141.221" y1="92.7822" x2="141.054" y2="110.437" gradientUnits="userSpaceOnUse">
<stop stop-color="#C9CD55"/>
<stop offset="0.5065" stop-color="#659C52"/>
<stop offset="1" stop-color="#287F50"/>
</linearGradient>
<linearGradient id="paint52_linear" x1="154.963" y1="98.9335" x2="165.777" y2="127.964" gradientUnits="userSpaceOnUse">
<stop stop-color="#C9CD55"/>
<stop offset="0.5065" stop-color="#659C52"/>
<stop offset="1" stop-color="#287F50"/>
</linearGradient>
<linearGradient id="paint53_linear" x1="156.189" y1="81.5715" x2="166.943" y2="94.348" gradientUnits="userSpaceOnUse">
<stop stop-color="#FB9A2B"/>
<stop offset="1" stop-color="#E65925"/>
</linearGradient>
<linearGradient id="paint54_linear" x1="272.163" y1="153.277" x2="290.316" y2="153.277" gradientUnits="userSpaceOnUse">
<stop stop-color="#00503E"/>
<stop offset="1" stop-color="#023222"/>
</linearGradient>
<linearGradient id="paint55_linear" x1="253.288" y1="145.763" x2="274.688" y2="130.301" gradientUnits="userSpaceOnUse">
<stop stop-color="#53CD9F"/>
<stop offset="1" stop-color="#0D7A5C"/>
</linearGradient>
<linearGradient id="paint56_linear" x1="276.764" y1="117.72" x2="285.94" y2="150.083" gradientUnits="userSpaceOnUse">
<stop stop-color="#53CD9F"/>
<stop offset="1" stop-color="#0D7A5C"/>
</linearGradient>
<linearGradient id="paint57_linear" x1="258.544" y1="135.135" x2="273.883" y2="135.135" gradientUnits="userSpaceOnUse">
<stop stop-color="#FB9A2B"/>
<stop offset="1" stop-color="#E65925"/>
</linearGradient>
<linearGradient id="paint58_linear" x1="287.492" y1="146.244" x2="284.725" y2="139.806" gradientUnits="userSpaceOnUse">
<stop stop-color="#53CD9F"/>
<stop offset="1" stop-color="#0D7A5C"/>
</linearGradient>
<linearGradient id="paint59_linear" x1="210.717" y1="93.2628" x2="216.405" y2="93.2628" gradientUnits="userSpaceOnUse">
<stop stop-color="#FB9A2B"/>
<stop offset="1" stop-color="#E65925"/>
</linearGradient>
<linearGradient id="paint60_linear" x1="205.289" y1="93.4159" x2="211.079" y2="93.4159" gradientUnits="userSpaceOnUse">
<stop stop-color="#FB9A2B"/>
<stop offset="1" stop-color="#E65925"/>
</linearGradient>
<clipPath id="clip0">
<rect width="332" height="188" fill="white"/>
</clipPath>
</defs>
</svg>
