<svg width="343" height="184" viewBox="0 0 343 184" fill="none" xmlns="http://www.w3.org/2000/svg">
<path d="M319.973 92.954C319.617 104.717 316.991 121.276 311.757 133.73C311.579 134.145 311.421 134.54 311.244 134.934C310.217 137.243 309.091 139.415 307.866 141.349C307.531 141.901 307.175 142.415 306.82 142.928C305.121 145.336 303.265 147.329 301.231 148.75C300.54 149.224 299.829 149.658 299.098 149.993C299.098 149.993 299.078 149.993 299.078 150.013C299.058 150.013 299.039 150.033 299.019 150.033C298.999 150.053 298.96 150.053 298.94 150.072C298.584 150.23 298.229 150.388 297.873 150.507L278.164 150.605L250.258 150.763L244.018 150.803L175.331 150.605L76.368 150.329H75.973L21.7816 150.171C21.7816 150.171 8.11525 141.428 2.56577 125.717C2.42752 125.322 2.28928 124.908 2.15104 124.493C0.906845 120.586 0.17613 116.263 0.274876 111.546C0.61061 95.8751 5.17264 62.7764 52.8864 55.0395C97.6377 47.7764 85.729 1.61191 151.73 6.15138C177.76 7.94743 189.313 25.7106 209.437 20.9737C263.273 8.3027 290.507 20.3422 304.865 41.1053L304.963 41.2435C305.437 41.9343 305.911 42.6448 306.346 43.3553C308.222 46.3356 309.841 49.454 311.283 52.7106C312.29 55.0001 313.199 57.329 314.008 59.7172C314.127 60.0724 314.245 60.408 314.364 60.7632V60.783C315.43 64.0198 316.339 67.3159 317.129 70.6711C317.267 71.2435 317.386 71.8159 317.524 72.3882C317.721 73.2369 317.899 74.0659 318.057 74.9145C318.176 75.5264 318.314 76.1382 318.432 76.7501C318.551 77.4014 318.669 78.033 318.788 78.6843C319.044 80.1053 319.281 81.5066 319.499 82.9277C319.676 84.0724 319.815 85.3948 319.894 86.8751C320.012 88.6909 320.032 90.7435 319.973 92.954Z" fill="#E8F2FA"/>
<path d="M241.47 52.612C241.47 52.612 243.86 47.2633 249.567 47.8554C249.567 47.8554 257.862 38.9541 266.709 46.6712C266.709 46.6712 276.11 44.7567 283.062 48.3291C287.703 50.7172 289.243 53.2041 289.243 53.2041L241.47 52.612Z" fill="#F6FBFF"/>
<path d="M130.994 34.5527C130.994 34.5527 133.759 29.1646 140.355 29.7567C140.355 29.7567 149.933 20.7764 160.144 28.5527C160.144 28.5527 171.006 26.6185 179.043 30.2304C184.395 32.6383 186.173 35.1448 186.173 35.1448L130.994 34.5527Z" fill="#F6FBFF"/>
<path d="M171.637 48.6251C171.637 48.6251 173.454 45.0725 177.819 45.4672C177.819 45.4672 184.158 39.5264 190.913 44.6777C190.913 44.6777 198.081 43.3948 203.414 45.783C206.949 47.3619 208.134 49.0396 208.134 49.0396L171.637 48.6251Z" fill="#F6FBFF"/>
<path d="M71.5294 150.329L20.6361 150.171C20.6361 150.171 7.79923 141.428 2.60522 125.717C21.3471 131.026 27.9433 145.04 34.4999 142.77C41.4911 140.382 70.9172 140.362 71.5294 150.329Z" fill="#9BD399"/>
<path d="M318.452 76.75C319.933 78.3685 321.928 81.0132 322.994 84.6843C324.061 88.3356 323.685 91.2566 323.389 93.9606C321.908 107.579 323.35 105.783 321.809 115.079C319.894 126.566 317.603 129.684 315.884 131.461C314.206 133.197 312.468 134.283 311.224 134.934C309.901 137.895 308.439 140.618 306.8 142.928C305.101 145.336 303.245 147.329 301.211 148.75C300.52 149.224 299.809 149.658 299.078 149.993H264.794H251.384H206.87C206.87 149.993 204.776 141.961 218.008 141.586C241.292 140.915 228.278 130 242.418 129.645C243.642 129.605 245.084 129.665 246.763 129.803C248.362 129.941 249.903 129.882 251.384 129.645C251.72 129.586 252.036 129.526 252.372 129.467C252.648 129.408 252.944 129.349 253.221 129.27C253.26 129.27 253.3 129.25 253.319 129.25C253.813 129.112 254.287 128.974 254.781 128.796C254.88 128.757 254.978 128.737 255.077 128.697C255.788 128.441 256.46 128.145 257.131 127.809C257.724 127.513 258.296 127.217 258.849 126.882C259.126 126.724 259.402 126.546 259.679 126.368C259.777 126.309 259.876 126.23 259.995 126.171C260.093 126.112 260.192 126.033 260.291 125.974C261.041 125.441 261.792 124.868 262.483 124.276C262.542 124.237 262.602 124.178 262.641 124.138C262.7 124.099 262.76 124.04 262.799 124C262.957 123.862 263.095 123.724 263.253 123.586C263.49 123.368 263.747 123.132 263.984 122.895C264.537 122.362 265.05 121.809 265.544 121.257C265.939 120.822 266.334 120.368 266.69 119.895C267.855 118.454 268.901 116.934 269.83 115.395C273.622 109.059 275.241 102.467 274.036 99.7237C274.036 99.704 274.016 99.6843 274.016 99.6843C273.661 98.8948 273.049 98.4408 272.18 98.4211C270.501 98.3816 268.586 98.2632 266.69 97.9277C260.153 96.7632 253.596 93.0329 255.768 81.0724C258.573 65.6382 270.758 68.954 274.747 62.3224C278.756 55.6908 284.266 47.6777 298.624 49.1974C303.877 49.75 308.064 50.875 311.224 52.7895C312.231 55.079 313.139 57.4079 313.949 59.7961C314.068 60.1514 314.186 60.4869 314.305 60.8422V60.8619C315.371 64.0987 316.279 67.3948 317.069 70.75C317.208 71.3224 317.326 71.8948 317.464 72.4672C317.84 73.8487 318.136 75.3093 318.452 76.75Z" fill="#9BD399"/>
<path d="M307.847 141.369C307.511 141.921 307.155 142.434 306.8 142.948C305.101 145.355 303.245 147.349 301.211 148.77C300.52 149.244 299.809 149.678 299.078 150.013C299.078 150.013 299.058 150.013 299.058 150.033C299.039 150.033 299.019 150.053 298.999 150.053C298.979 150.072 298.94 150.073 298.92 150.092C298.565 150.25 298.209 150.408 297.854 150.526L278.144 150.625C278.875 147.23 280.81 144.862 283.516 143.263C284.029 142.967 284.543 142.691 285.115 142.454C285.293 142.375 285.451 142.296 285.629 142.237C285.925 142.119 286.241 142 286.537 141.901C286.794 141.803 287.071 141.724 287.347 141.645C287.959 141.467 288.572 141.309 289.223 141.171C291.81 140.599 294.674 140.382 297.676 140.382C299.453 140.382 301.27 140.461 303.087 140.599C304.884 140.717 306.405 141.013 307.847 141.369Z" fill="#73B471"/>
<path d="M287.367 144.566C287.367 144.566 284.029 132.329 281.462 132.961C278.914 133.612 287.367 144.566 287.367 144.566Z" fill="#73B471"/>
<path d="M288.433 145.75C288.433 145.75 279.783 136.454 277.828 138.211C275.853 139.947 288.433 145.75 288.433 145.75Z" fill="#73B471"/>
<path d="M289.302 147.803C289.302 147.803 289.855 135.132 287.229 134.954C284.602 134.796 289.302 147.803 289.302 147.803Z" fill="#73B471"/>
<path d="M102.18 47.4803C102.18 47.4803 95.0902 46.6711 91.5353 43.1382C87.9805 39.5855 85.7291 36.5066 85.7291 36.5066L91.5353 55.6119L102.18 47.4803Z" fill="#2C2D2D"/>
<path d="M102.338 47.4803C102.338 47.4803 109.428 46.6711 112.963 43.1382C116.518 39.5855 118.769 36.5066 118.769 36.5066L112.963 55.6119L102.338 47.4803Z" fill="#2C2D2D"/>
<path d="M113.141 55.6316H91.5551V134.086H113.141V55.6316Z" fill="#FBFCFC"/>
<path d="M116.439 59.1644H87.9607V61.5131H116.439V59.1644Z" fill="#C7D3D3"/>
<path d="M116.439 61.5131H87.9607V62.342H116.439V61.5131Z" fill="#9AA8A7"/>
<path d="M116.439 74.4014H87.9607V76.7501H116.439V74.4014Z" fill="#C7D3D3"/>
<path d="M116.439 76.75H87.9607V77.5789H116.439V76.75Z" fill="#9AA8A7"/>
<path d="M116.439 89.6382H87.9607V91.9869H116.439V89.6382Z" fill="#C7D3D3"/>
<path d="M116.439 91.9869H87.9607V92.8159H116.439V91.9869Z" fill="#9AA8A7"/>
<path d="M116.439 104.875H87.9607V107.224H116.439V104.875Z" fill="#C7D3D3"/>
<path d="M116.439 107.224H87.9607V108.053H116.439V107.224Z" fill="#9AA8A7"/>
<path d="M116.439 120.112H87.9607V122.461H116.439V120.112Z" fill="#C7D3D3"/>
<path d="M116.439 122.461H87.9607V123.289H116.439V122.461Z" fill="#9AA8A7"/>
<path d="M102.18 73.2961C104.896 73.2961 107.098 71.0958 107.098 68.3816C107.098 65.6674 104.896 63.4672 102.18 63.4672C99.4642 63.4672 97.2626 65.6674 97.2626 68.3816C97.2626 71.0958 99.4642 73.2961 102.18 73.2961Z" fill="#7C7C7C"/>
<path d="M98.566 79.0396H95.7222V88.454H98.566V79.0396Z" fill="#7C7C7C"/>
<path d="M103.602 79.0396H100.758V88.454H103.602V79.0396Z" fill="#7C7C7C"/>
<path d="M108.658 79.0396H105.814V88.454H108.658V79.0396Z" fill="#7C7C7C"/>
<path d="M98.566 94.6711H95.7222V104.086H98.566V94.6711Z" fill="#7C7C7C"/>
<path d="M103.602 94.6711H100.758V104.086H103.602V94.6711Z" fill="#7C7C7C"/>
<path d="M108.658 94.6711H105.814V104.086H108.658V94.6711Z" fill="#7C7C7C"/>
<path d="M98.566 110.283H95.7222V119.697H98.566V110.283Z" fill="#7C7C7C"/>
<path d="M103.602 110.283H100.758V119.697H103.602V110.283Z" fill="#7C7C7C"/>
<path d="M108.658 110.283H105.814V119.697H108.658V110.283Z" fill="#7C7C7C"/>
<path d="M91.5551 55.6711L103.622 40.1382L113.141 55.6711H91.5551Z" fill="#434343"/>
<path d="M94.7544 62.3618H91.5551V74.421H94.7544V62.3618Z" fill="#DFDFDF"/>
<path d="M93.9644 62.3618H92.3252V74.421H93.9644V62.3618Z" fill="#BFC0C0"/>
<path d="M113.141 62.3618H109.941V74.421H113.141V62.3618Z" fill="#DFDFDF"/>
<path d="M112.351 62.3618H110.712V74.421H112.351V62.3618Z" fill="#BFC0C0"/>
<path d="M94.7544 77.7172H91.5551V89.7764H94.7544V77.7172Z" fill="#DFDFDF"/>
<path d="M93.9644 77.7172H92.3252V89.7764H93.9644V77.7172Z" fill="#BFC0C0"/>
<path d="M113.141 77.7172H109.941V89.7764H113.141V77.7172Z" fill="#DFDFDF"/>
<path d="M112.351 77.7172H110.712V89.7764H112.351V77.7172Z" fill="#BFC0C0"/>
<path d="M94.7544 93.0922H91.5551V105.151H94.7544V93.0922Z" fill="#DFDFDF"/>
<path d="M93.9644 93.0922H92.3252V105.151H93.9644V93.0922Z" fill="#BFC0C0"/>
<path d="M113.141 93.0922H109.941V105.151H113.141V93.0922Z" fill="#DFDFDF"/>
<path d="M112.351 93.0922H110.712V105.151H112.351V93.0922Z" fill="#BFC0C0"/>
<path d="M94.7544 108.467H91.5551V120.526H94.7544V108.467Z" fill="#DFDFDF"/>
<path d="M93.9644 108.467H92.3252V120.526H93.9644V108.467Z" fill="#BFC0C0"/>
<path d="M113.141 108.467H109.941V120.526H113.141V108.467Z" fill="#DFDFDF"/>
<path d="M112.351 108.467H110.712V120.526H112.351V108.467Z" fill="#BFC0C0"/>
<path d="M94.7544 123.822H91.5551V135.882H94.7544V123.822Z" fill="#DFDFDF"/>
<path d="M93.9644 123.822H92.3252V135.882H93.9644V123.822Z" fill="#BFC0C0"/>
<path d="M113.141 123.822H109.941V135.882H113.141V123.822Z" fill="#DFDFDF"/>
<path d="M112.351 123.822H110.712V135.882H112.351V123.822Z" fill="#BFC0C0"/>
<path d="M62.4449 151.75C62.4449 151.75 64.7161 148.77 67.5797 148.77C70.4433 148.77 73.7809 151.197 73.7809 151.197H76.5853C76.5853 151.197 78.0467 148.75 81.8188 148.75C85.5908 148.75 86.6375 151.237 86.6375 151.237L86.5388 146.085H62.4449V151.75Z" fill="#B55400"/>
<path d="M42.9526 104.105L53.3209 126.585L89.3629 130.513V116.599C89.3629 116.599 63.1362 113.757 55.0391 110.421C46.9617 107.066 44.0388 101.125 42.9526 104.105Z" fill="#7F5849"/>
<path d="M52.5309 98.8158L60.9835 122.086L96.5713 129.033L97.7365 115.158C97.7365 115.158 71.8257 110.105 64.0446 106.099C56.2832 102.112 53.8738 95.9539 52.5309 98.8158Z" fill="#896358"/>
<path d="M66.1381 94.5526L72.6355 117.664L101.43 124.039L102.595 110.164C102.595 110.164 81.6213 105.546 75.3806 101.658C69.1399 97.7895 67.2638 91.6513 66.1381 94.5526Z" fill="#9B7C75"/>
<path d="M102.595 122.085H60.9835V146.046H102.595V122.085Z" fill="#440400"/>
<path d="M102.595 140.007H60.9835V146.066H102.595V140.007Z" fill="#5E0F0D"/>
<path d="M53.3999 126.605L61.0428 146.066V127.454L53.3999 126.605Z" fill="#2D0B0A"/>
<path d="M86.598 127.77H65.427V137.52H86.598V127.77Z" fill="#6D1D1B"/>
<path d="M86.598 134.914H65.427V137.52H86.598V134.914Z" fill="#893A3A"/>
<path d="M70.0483 108.447L70.7396 118L88.4742 121.158L72.4182 116.895L70.0483 108.447Z" fill="#66453A"/>
<path d="M56.9943 111.092L61.0231 127.454L60.9836 122.086L56.9943 111.092Z" fill="#66453A"/>
<path d="M67.5402 122.085H65.8616V146.046H67.5402V122.085Z" fill="#2D0B0A"/>
<path d="M86.598 122.085H84.9193V146.046H86.598V122.085Z" fill="#2D0B0A"/>
<path d="M63.7878 146.066H61.0229V156.447H63.7878V146.066Z" fill="#2D0B0A"/>
<path d="M76.526 146.066H73.7611V156.447H76.526V146.066Z" fill="#2D0B0A"/>
<path d="M89.2641 146.066H86.4993V156.447H89.2641V146.066Z" fill="#2D0B0A"/>
<path d="M142.448 151.75C142.448 151.75 140.177 148.77 137.314 148.77C134.45 148.77 131.132 151.197 131.132 151.197H128.328C128.328 151.197 126.866 148.75 123.094 148.75C119.322 148.75 118.295 151.237 118.295 151.237L118.394 146.085H142.448V151.75Z" fill="#B55400"/>
<path d="M161.941 104.105L151.572 126.585L115.55 130.513V116.599C115.55 116.599 141.777 113.757 149.854 110.421C157.951 107.066 160.855 101.125 161.941 104.105Z" fill="#7F5849"/>
<path d="M152.362 98.8158L143.91 122.086L108.322 129.033L107.157 115.158C107.157 115.158 133.068 110.105 140.849 106.099C148.61 102.112 151.02 95.9539 152.362 98.8158Z" fill="#896358"/>
<path d="M138.755 94.5526L132.258 117.664L103.464 124.039L102.299 110.164C102.299 110.164 123.272 105.546 129.513 101.658C135.753 97.7895 137.63 91.6513 138.755 94.5526Z" fill="#9B7C75"/>
<path d="M102.299 146.067H143.911V122.107H102.299V146.067Z" fill="#440400"/>
<path d="M102.299 146.055H143.911V139.995H102.299V146.055Z" fill="#5E0F0D"/>
<path d="M151.731 126.605L144.068 146.066V127.454L151.731 126.605Z" fill="#2D0B0A"/>
<path d="M118.277 137.524H139.448V127.774H118.277V137.524Z" fill="#6D1D1B"/>
<path d="M118.277 137.528H139.448V134.923H118.277V137.528Z" fill="#893A3A"/>
<path d="M134.845 108.447L134.154 118L116.419 121.158L132.475 116.895L134.845 108.447Z" fill="#66453A"/>
<path d="M147.899 111.092L143.87 127.454L143.91 122.086L147.899 111.092Z" fill="#66453A"/>
<path d="M137.352 146.067H139.031V122.107H137.352V146.067Z" fill="#2D0B0A"/>
<path d="M118.281 146.067H119.96V122.107H118.281V146.067Z" fill="#2D0B0A"/>
<path d="M141.107 156.438H143.872V146.057H141.107V156.438Z" fill="#2D0B0A"/>
<path d="M128.359 156.438H131.124V146.057H128.359V156.438Z" fill="#2D0B0A"/>
<path d="M115.611 156.438H118.376V146.057H115.611V156.438Z" fill="#2D0B0A"/>
<path d="M93.135 146.105L91.7526 156.526H112.193L110.514 146.105H93.135Z" fill="#B55400"/>
<path d="M102.871 86.954C102.871 86.954 102.002 99.5856 97.46 107.618C92.9177 115.671 87.309 122.697 87.309 122.697H116.34C116.34 122.697 108.144 111.171 105.873 104.816C103.582 98.4803 102.871 86.954 102.871 86.954Z" fill="#2D0B0A"/>
<path d="M102.614 106.888L93.9644 120.349H110.514L102.614 106.888Z" fill="#560600"/>
<path d="M110.514 122.678H93.1349V146.066H110.514V122.678Z" fill="#66453A"/>
<path d="M98.9806 125.678H95.4456V142.671H98.9806V125.678Z" fill="#C4B0AB"/>
<path d="M103.582 125.678H100.047V142.671H103.582V125.678Z" fill="#C4B0AB"/>
<path d="M108.184 125.678H104.649V142.671H108.184V125.678Z" fill="#C4B0AB"/>
<path d="M98.9806 132.388H95.4456V142.671H98.9806V132.388Z" fill="#A3847E"/>
<path d="M103.582 132.388H100.047V142.671H103.582V132.388Z" fill="#A3847E"/>
<path d="M108.184 132.388H104.649V142.671H108.184V132.388Z" fill="#A3847E"/>
<path d="M93.135 122.678H91.4563V146.066H93.135V122.678Z" fill="#2D0B0A"/>
<path d="M112.193 122.678H110.514V146.066H112.193V122.678Z" fill="#2D0B0A"/>
<path d="M94.5174 146.066H91.7526V156.447H94.5174V146.066Z" fill="#2D0B0A"/>
<path d="M112.193 146.066H109.428V156.447H112.193V146.066Z" fill="#2D0B0A"/>
<path d="M158.978 38.3816C158.978 38.3816 158.307 43.5132 161.644 46.8487C164.962 50.1645 169.268 52.7105 170.215 55.6119C171.163 58.5132 171.716 60.9211 171.716 60.9211V70.7105L172.309 81.1908C172.309 81.1908 171.42 77.954 169.327 76C167.214 74.0263 166.621 73.375 166.621 73.375C166.621 73.375 167.786 60.8421 166.937 59.5197L166.246 63.0724C166.246 63.0724 163.619 72.1118 165.397 75.5658C167.174 79.0197 169.801 79.9276 170.038 82.8684C170.275 85.8092 170.591 86.7171 170.275 87.5461C169.939 88.3947 166.819 90.1316 166.819 90.1316L168.794 91.9868C168.794 91.9868 171.697 92.125 172.348 89.2434L176.417 92.3619L175.271 65.3619C175.271 65.3619 173.948 55.2566 170.433 52.3553C166.917 49.454 162.02 46.375 160.479 42.9605C158.939 39.5461 158.978 38.3816 158.978 38.3816Z" fill="#485659"/>
<path d="M145.904 45.9407L147.129 51.9209L145.45 50.3815C145.45 50.3815 147.82 52.217 147.998 54.6446C148.176 57.0525 149.676 58.7696 149.795 64.5328C149.933 70.2959 151.197 84.9209 151.197 84.9209L155.641 90.1512L159.235 76.1183C159.235 76.1183 157.556 68.2236 157.319 65.4604C157.102 62.6973 157.28 57.8223 158.188 55.0986C159.097 52.3551 160.44 48.2301 160.44 48.2301C160.44 48.2301 156.608 55.4538 155.937 58.6117C155.265 61.7696 154.476 65.8749 154.476 65.8749C154.476 65.8749 154.179 59.0854 152.935 57.092C151.691 55.0788 149.124 53.8749 149.124 53.8749L145.904 45.9407Z" fill="#485659"/>
<path d="M119.125 95.796C119.125 95.796 131.31 93.7433 133.759 91.4933C136.208 89.2433 136.346 88.6512 136.998 88.6512C137.63 88.6512 146.398 96.6644 148.946 97.9473C151.493 99.2105 152.56 99.2105 153.251 97.9473C153.942 96.6841 157.991 92.1841 157.655 90.7631C157.319 89.342 155.009 86.7565 152.323 83.8157C149.637 80.8749 156.174 79.9078 158.761 78.3289C161.328 76.7499 171.124 71.2039 176.555 64.9276C176.555 64.9276 181.137 66.092 182.934 64.9276C182.934 64.9276 181.393 64.671 180.939 63.7631C180.485 62.8552 180.287 62.4407 180.287 62.4407L178.293 63.1512C178.293 63.1512 182.973 58.0394 183.21 55.8289C183.428 53.5986 183.546 52.8091 185.067 52.0591C186.587 51.3091 191.307 49.0394 192.67 47.7565C194.033 46.4736 196.264 43.5328 195.356 42.7631C194.448 42.0131 187.219 48.7434 183.862 47.0263C180.505 45.3289 175.962 32.0657 175.311 31.9868C174.659 31.9078 174.698 42.1907 175.39 45.3684C176.061 48.546 179.142 53.1841 179.142 53.1841C179.142 53.1841 178.806 55.3749 177.74 55.3749C176.673 55.3749 173.968 55.4144 173.395 55.0394C172.822 54.6644 171.736 57.1118 171.539 58.7499C171.341 60.3684 164.804 62.8355 164.804 62.8355L151.948 66.6447L141.481 70.1184C141.481 70.1184 140.651 60.2105 140.118 60.2105C139.585 60.2105 139.407 70.7894 139.407 70.7894C139.407 70.7894 133.739 76.3157 133.818 80.3815C133.897 84.467 135.299 86.4605 135.299 86.4605C135.299 86.4605 132.199 89.3618 128.308 90.5065C124.358 91.671 119.144 95.1447 119.125 95.796Z" fill="#C2CCC9"/>
<path d="M158.346 104.52L158.425 110.283L154.475 115.612L159.748 124.513L166.977 102.901L158.346 104.52Z" fill="#485659"/>
<path d="M149.696 115C149.696 115 149.538 118.987 145.193 123.724C140.849 128.461 134.667 128.816 134.351 135.664C134.035 142.513 137.037 142.513 138.202 145.414C139.367 148.316 139.051 151.099 139.051 151.099L136.504 156.329L146.615 155.164C146.615 155.164 145.43 153.171 145.193 150.645C144.937 148.118 145.786 146.539 144.522 144.013C143.258 141.487 139.367 142.217 140.315 136.217C141.263 130.217 149.104 126.27 149.716 124.513C150.328 122.757 152.422 117.487 152.422 117.487L149.696 115Z" fill="#485659"/>
<path d="M143.396 150.467L152.422 141.033L171.973 129.033L176.891 153.368L159.689 154.849L160.696 150.783L155.897 153.98V155.322H145.47L143.396 150.467Z" fill="#485659"/>
<path d="M178.767 117.704L176.338 126.408C176.338 126.408 177.147 129.664 176.891 132.25C176.634 134.835 173.375 139.257 173.375 139.257L172.645 153.743L176.91 153.487L174.54 156.526H183.033C183.033 156.526 180.386 153.289 180.386 150.98C180.386 148.671 180.248 145.888 180.11 144.664C179.971 143.441 177.384 142.533 178.332 140.421C179.28 138.309 185.955 127.493 186.903 123.21C187.851 118.928 188.799 112.118 186.903 108.447C185.007 104.776 183.901 103.888 183.901 101.993C183.901 100.099 184.237 98.875 185.797 95.2039C187.358 91.5328 192.729 85.75 193.203 83.5197C193.677 81.2697 193.203 78.2894 193.203 78.2894L189.945 80.7368C189.945 80.7368 190.28 84.8223 188.72 87.5263C187.16 90.25 181.848 93.921 181.848 93.921C181.848 93.921 179.399 95.7565 179.339 98.9144C179.28 102.072 178.767 117.704 178.767 117.704Z" fill="#485659"/>
<path d="M138.104 75.0131C138.104 75.0131 135.813 84.9012 137.59 88.9275C139.367 92.9539 146.299 102.151 146.299 102.151V108.23L153.389 116.006C153.389 116.006 153.824 114.349 153.35 111.131C152.876 107.914 152.501 98.7565 152.501 98.7565C152.501 98.7565 140.493 91.4736 139.15 87.1512C137.827 82.8091 138.104 75.0131 138.104 75.0131Z" fill="#485659"/>
<path d="M160.538 72.3487C161.21 72.6645 161.012 73.5329 161.309 77.0658C161.625 80.5987 163.185 81.9408 163.185 81.9408C163.185 81.9408 163.915 82.8289 165.515 84.7039C167.135 86.5789 167.806 90.0526 167.806 90.0526C169.208 90.4079 173.948 95.5 173.948 95.5C173.948 95.5 172.289 90.8224 172.289 89.7368C172.289 88.6513 172.605 87.7631 175.251 88.75C177.898 89.7368 177.898 101.421 177.898 101.421C177.898 101.421 178.095 100.553 180.011 105.546C181.927 110.539 180.821 115.533 179.655 121.533C178.471 127.533 171.598 132.211 171.598 132.211C171.598 132.211 172.585 134.382 173.494 136.336C174.402 138.289 174.047 145.651 171.598 145.928C169.149 146.204 169.346 138.428 169.346 138.428L165.91 136.395C165.91 136.395 163.738 137.52 159.393 140.243C155.048 142.967 149.025 142.493 149.025 142.493L142.646 137.164C142.646 137.164 147.405 134.914 149.657 133.02C151.908 131.125 153.685 126.961 153.685 126.961L151.395 118.632C151.395 118.632 147.445 113.697 146.872 112.059C146.28 110.421 147.168 108.211 147.168 108.211C147.168 108.211 146.24 108.013 146.536 107.5C146.833 106.987 148.59 107.914 148.59 107.914C148.59 107.914 147.84 107.303 148.314 107.204C148.807 107.105 149.775 107.974 149.775 107.974C149.775 107.974 149.696 106.711 149.992 106.711C150.289 106.711 150.822 108.171 150.822 109.336C150.822 110.5 150.368 111.98 150.368 111.98C150.368 111.98 151.355 113.224 154.021 114.763C156.687 116.303 158.524 121.217 158.524 121.217C158.524 121.217 158.721 119.322 159.274 117.684C159.827 116.046 161.98 113.046 162.75 111.664C163.521 110.283 164.725 105.526 164.725 105.526C164.725 105.526 164.212 106.079 161.072 106.336C157.932 106.592 157.537 106 155.66 104.401C153.764 102.803 152.303 98.0855 152.303 98.0855C152.303 98.0855 157.122 91.1184 157.122 90.2303C157.122 89.3224 153.824 85.4145 153.824 85.4145C153.824 85.4145 156.984 80.2237 157.3 79.7105C157.616 79.1974 158.05 76.8289 158.011 75.5855C157.971 74.3421 158.011 72.6645 158.011 72.6645C158.366 71.3618 159.867 72.0329 160.538 72.3487Z" fill="#D3BCA9"/>
<path d="M179.695 73.2368C179.695 73.2368 179.517 76.5526 180.327 78.9802C181.137 81.4079 182.164 82.1973 182.144 84.4671C182.104 86.7565 179.715 87.4473 179.695 90.7039C179.675 93.9408 179.893 98.046 179.893 98.046L181.512 96.9013L182.144 91.3355C182.144 91.3355 184.988 85.3552 184.06 82.4539C183.131 79.5329 181.176 78.0329 180.702 76.5131C180.208 75.0131 179.695 73.2368 179.695 73.2368Z" fill="#485659"/>
<path d="M193.44 63.1315C193.44 63.1315 191.939 67.2367 191.149 67.4144C190.359 67.5723 186.449 67.9078 186.252 69.3683C186.054 70.8288 186.37 72.4867 187.16 74.4012C187.95 76.3157 189.964 80.7367 189.964 80.7367L193.223 78.2894C193.223 78.2894 188.325 73.7696 188.286 71.5394C188.246 69.2894 190.695 69.8025 192.236 67.6315C193.756 65.4604 193.717 63.763 193.44 63.1315Z" fill="#485659"/>
<path d="M189.648 129.506C189.648 129.506 188.918 131.204 187.911 132.171C186.903 133.138 184.514 133.987 184.632 136.73C184.751 139.474 187.338 138.23 186.054 142.375C184.77 146.539 184 147.388 184 149.085C184 150.783 184.533 151.474 184.533 151.474L184 152.52L188.681 152.204C188.681 152.204 186.903 150.27 187.18 148.079C187.456 145.888 188.345 143.283 188.345 141.585C188.345 139.888 185.758 137.184 186.805 135.25C187.871 133.296 190.616 131.974 189.648 129.506Z" fill="#485659"/>
<path d="M161.388 92.0262C161.649 92.0262 161.862 91.8141 161.862 91.5525C161.862 91.2909 161.649 91.0789 161.388 91.0789C161.126 91.0789 160.914 91.2909 160.914 91.5525C160.914 91.8141 161.126 92.0262 161.388 92.0262Z" fill="#485659"/>
<path d="M145.47 88.2565C145.47 87.8815 145.766 87.5854 146.141 87.5854C146.517 87.5854 146.813 87.8815 146.813 88.2565C146.813 88.6315 146.517 88.9276 146.141 88.9276C145.766 88.9276 145.47 88.6315 145.47 88.2565Z" fill="#485659"/>
<path d="M65.4072 57.9606C73.6093 57.9606 80.2585 51.3155 80.2585 43.1185C80.2585 34.9214 73.6093 28.2764 65.4072 28.2764C57.2051 28.2764 50.5559 34.9214 50.5559 43.1185C50.5559 51.3155 57.2051 57.9606 65.4072 57.9606Z" fill="url(#paint0_linear)"/>
<path d="M34.5988 53.8356L37.8376 40.079L41.6492 53.8356H34.5988Z" fill="#BFA63A"/>
<path d="M43.0316 110.757H32.6436L34.026 57.9408H41.6491L43.0316 110.757Z" fill="#D9DBCC"/>
<path d="M43.0316 110.757H32.6436L33.157 91.0396H42.5181L43.0316 110.757Z" fill="#C7C9BC"/>
<path d="M46.3099 114.645H29.3455V132.309H46.3099V114.645Z" fill="#D9DBCC"/>
<path d="M46.3099 123.743H29.3455V132.309H46.3099V123.743Z" fill="#CBCCC0"/>
<path d="M49.8648 135.132H25.8302V144.329H49.8648V135.132Z" fill="#D9DBCC"/>
<path d="M49.8648 139.711H25.8302V144.309H49.8648V139.711Z" fill="#BBBCB1"/>
<path d="M46.3297 132.329H29.3455L25.8302 135.408H49.845L46.3297 132.329Z" fill="#9A9B8F"/>
<path d="M54.8218 146.342H21.4064V151.612H54.8218V146.342Z" fill="#D9DBCC"/>
<path d="M49.9043 144.349H26.3239L21.4064 146.5H54.8218L49.9043 144.349Z" fill="#9A9B8F"/>
<path d="M43.0316 117.447H32.6436V130.04H43.0316V117.447Z" fill="#8C7353"/>
<path d="M41.6491 119.125H34.026V128.382H41.6491V119.125Z" fill="#BCA48A"/>
<path d="M41.6491 123.743H34.026V128.362H41.6491V123.743Z" fill="#9B846D"/>
<path d="M49.8648 110.52H25.8302V114.625H49.8648V110.52Z" fill="#BBBCB1"/>
<path d="M42.7551 53.658H32.92V57.9409H42.7551V53.658Z" fill="#BBBCB1"/>
<path d="M38.1338 103.059C37.9165 103.059 37.7585 102.882 37.7585 102.684V63.0132C37.7585 62.7961 37.9363 62.6382 38.1338 62.6382C38.351 62.6382 38.509 62.8158 38.509 63.0132V102.684C38.509 102.901 38.3313 103.059 38.1338 103.059Z" fill="#BFA63A"/>
<path d="M41.6492 55.3354H33.5916V55.8092H41.6492V55.3354Z" fill="#BFA63A"/>
<path d="M329.294 127.809H277.591V133.178H329.294V127.809Z" fill="#E5D7CA"/>
<path d="M329.294 130.493H277.591V133.178H329.294V130.493Z" fill="#CDB7A3"/>
<path d="M312.685 147.112H292.462L281.719 133.178H323.587L312.685 147.112Z" fill="#E5D7CA"/>
<path d="M299.809 133.671L302.653 148.217H312.606L323.587 134.085L299.809 133.671Z" fill="#DBCBBD"/>
<path d="M343 152.776H263.885L271.449 147.112H335.811L343 152.776Z" fill="#DDB97F"/>
<path d="M308.795 127.809H295.089L298.209 25.375H306.128L308.795 127.809Z" fill="#FAFAF9"/>
<path d="M302.712 26.0066L301.942 128.599H295.207L298.209 26.0658L302.712 26.0066Z" fill="#E9E5E0"/>
<path d="M308.182 21.1118H295.701V25.375H308.182V21.1118Z" fill="#B7A38F"/>
<path d="M308.182 16.0394H295.701V17.8947H308.182V16.0394Z" fill="#B7A38F"/>
<path d="M305.852 17.875H298.012V21.0921H305.852V17.875Z" fill="#7C6B5C"/>
<path d="M305.259 16.0395H298.012V4.41446C298.012 2.42103 299.631 0.802612 301.626 0.802612C303.62 0.802612 305.24 2.42103 305.24 4.41446V16.0395H305.259Z" fill="#D29B36"/>
<path d="M305.259 16.0394H298.012V7.69077C298.012 7.41445 298.249 7.17761 298.525 7.17761H304.746C305.022 7.17761 305.259 7.41445 305.259 7.69077V16.0394Z" fill="#AA7827"/>
<path d="M228.475 104.954L228.455 104.934C228.455 104.934 225.513 111.645 224.012 111.625C222.511 111.625 221.385 108.882 219.628 105.645C217.87 102.428 214.947 96.6644 208.884 96.4079C208.805 96.4079 208.726 96.4079 208.647 96.4079C208.331 96.3881 207.995 96.3881 207.66 96.3684C207.581 96.3684 207.502 96.3684 207.423 96.3684C206.573 96.3486 205.685 96.3486 204.855 96.3486C202.801 96.3486 200.984 96.4078 200.234 96.4276C199.385 96.4473 197.351 96.7829 195.237 97.4539C195.158 97.4736 195.079 97.5131 195 97.5328C194.724 97.6315 194.448 97.7302 194.171 97.8289C194.092 97.8486 194.013 97.8881 193.954 97.9078C192.828 98.3421 191.742 98.875 190.853 99.5263C187.93 101.638 186.824 103.691 186.587 107.204C186.587 107.204 186.113 111.171 187.081 114.901C187.891 117.98 190.261 120.605 193.065 120.23C193.658 120.151 194.27 119.934 194.882 119.559C194.882 119.559 194.882 119.579 194.882 119.599C194.961 119.974 195.494 123.21 195.455 125.362C195.455 125.441 195.455 125.52 195.455 125.599C195.455 125.599 195.929 125.737 196.798 125.895C196.877 125.914 196.956 125.914 197.035 125.934C197.311 125.974 197.607 126.033 197.943 126.072C198.022 126.092 198.101 126.092 198.18 126.112C199.74 126.309 201.873 126.428 204.401 126.171C206.238 125.993 207.837 125.658 209.121 125.322C209.2 125.303 209.279 125.283 209.338 125.263C209.595 125.184 209.832 125.125 210.069 125.046C210.148 125.026 210.227 125.007 210.306 124.967C211.925 124.454 212.854 123.98 212.913 123.96L212.952 123.941C212.952 123.941 212.992 121.237 212.419 116.105C211.846 110.974 211.412 107.421 212.143 107.737C212.873 108.053 216.408 117.072 221.701 117.743C226.994 118.414 229.798 113.875 231.694 108.447V108.428L228.475 104.954ZM192.887 113.125C192.374 113.145 192.117 110.303 192.295 108.21C192.374 107.145 192.571 106.592 192.769 106.553C192.986 106.513 193.203 107.007 193.401 108.092C193.717 109.908 193.895 111.309 193.934 111.724C193.934 111.803 193.954 111.862 193.954 111.862C193.954 111.862 193.895 112.079 193.796 112.316C193.638 112.651 193.342 113.105 192.887 113.125Z" fill="url(#paint1_linear)"/>
<path d="M202.683 81.4473C201.379 81.3881 199.661 82.5723 198.713 82.6118C198.634 82.6118 198.555 82.6315 198.496 82.6118C197.706 82.4539 195.81 83.3618 194.704 84.7829C194.388 85.1776 194.132 85.5921 193.993 86.046C193.598 87.25 193.48 89.2237 194.151 89.9342C194.23 90.0131 194.27 90.0526 194.329 90.1118C194.862 90.6447 195.198 90.7237 195.475 89.5987C195.771 88.3355 197.272 87.2302 198.852 86.8947C199.898 86.6776 201.518 86.8355 202.722 86.5394C203.354 86.3815 203.868 86.1052 204.105 85.5723C204.816 84.0131 204.678 82.1973 203.256 81.5855C203.078 81.4868 202.88 81.4473 202.683 81.4473Z" fill="#804828"/>
<path d="M202.979 93.1513C202.722 93.8026 202.327 94.375 201.735 94.8487C201.498 95.0461 201.221 95.1645 200.945 95.2632C200.451 95.4211 199.938 95.4605 199.444 95.4013C198.713 95.3026 198.022 95.0461 197.528 94.7105C196.501 94.0197 195.534 92.2237 195.534 92.2237C194.527 92.8355 193.401 91.1382 193.934 90.4079C194.053 90.2303 194.191 90.1513 194.329 90.1316C194.862 90.6645 195.198 90.7434 195.455 89.6184C195.751 88.3553 197.252 87.25 198.832 86.9145C199.879 86.6974 201.498 86.8553 202.683 86.5592C203.019 87.3289 203.216 88.8684 203.295 90.3289C203.295 90.4474 203.315 90.5658 203.315 90.6645C203.374 91.5132 203.295 92.3816 202.979 93.1513Z" fill="#EDB8B1"/>
<path d="M200.965 95.2434C200.471 95.4013 199.957 95.4408 199.464 95.3618C199.444 95.6184 199.405 96.3487 199.503 96.8816C199.622 97.5132 200.491 97.5921 200.728 97.2171C200.965 96.8421 200.965 96.625 200.965 95.9934C200.945 95.5197 200.945 95.3816 200.965 95.2434Z" fill="#EDB8B1"/>
<path d="M230.47 97.4736C229.976 97.4539 229.838 100.671 229.7 100.849C229.561 101.026 229.265 100.395 228.87 99.5065C228.475 98.6183 228.219 98.6381 228.219 99.4868C228.219 100.335 228.89 102.191 228.969 102.98C229.048 103.75 228.534 104.895 228.495 104.954L231.773 108.467C231.773 108.467 231.773 108.467 231.773 108.487L231.813 108.507C232.899 106.533 233.788 100.118 233.393 99.9802C232.998 99.842 232.682 101.342 232.682 101.342C232.682 101.342 233.057 98.8354 232.721 98.717C232.405 98.5789 231.793 100.671 231.793 100.671C231.793 100.671 232.386 97.4933 231.734 97.5526C231.082 97.6315 230.825 100.434 230.825 100.434C230.825 100.434 230.944 97.4933 230.47 97.4736Z" fill="#EDB8B1"/>
<path d="M197.588 179.737C197.489 179.816 195.771 181.178 195.317 182.125C194.843 183.112 195.218 184.079 197.489 183.191C199.681 182.342 201.696 180.704 201.538 179.954C201.241 180.072 197.785 179.974 197.588 179.737Z" fill="url(#paint2_linear)"/>
<path d="M212.972 123.98C212.834 124.039 209.635 125.678 204.441 126.191C199.148 126.724 195.494 125.599 195.494 125.599C195.494 125.539 195.494 125.441 195.494 125.362C195.297 126.151 194.191 130.691 193.954 136.335C193.697 142.533 193.243 155.007 194.092 162.645C194.941 170.303 197.39 179.461 197.548 179.697H197.568C197.765 179.934 201.241 180.033 201.518 179.914H201.537C201.814 179.796 201.379 169.73 201.577 164.875C201.774 160 202.92 149.697 203.038 144.467C203.157 139.237 203.809 133.849 204.836 133.691C205.863 133.533 207.818 133.888 212.222 142.632C216.626 151.375 216.705 152.559 216.705 155.362C216.705 158.164 216.014 162.428 215.52 166.572C215.026 170.697 215.895 178.691 216.191 179.816C216.191 179.816 216.191 179.875 216.191 179.895C216.191 179.895 219.154 180.171 219.43 179.993C219.43 179.993 219.47 179.993 219.489 179.993C219.628 179.796 222.215 171.132 223.498 162.862C224.782 154.612 225.473 150.585 221.701 141.546C217.929 132.526 216.665 130.553 215.796 128.757C214.927 126.96 214.908 126.941 214.908 126.941C214.908 126.941 214.058 125.243 212.972 123.98Z" fill="url(#paint3_linear)"/>
<path d="M216.211 179.855C216.112 180.447 216.132 181.71 218.008 182.421C220.121 183.23 221.721 183.487 222.096 182.895C222.412 182.382 221.049 180.724 219.47 180.033C219.193 180.191 216.231 179.934 216.231 179.934C216.211 179.914 216.211 179.875 216.211 179.855Z" fill="url(#paint4_linear)"/>
<path d="M194.981 91.7106C194.961 91.7106 194.941 91.6909 194.922 91.6711C194.783 91.2764 194.329 91.0198 194.329 91.0001C194.309 90.9803 194.29 90.9408 194.309 90.9211C194.329 90.9014 194.369 90.8816 194.388 90.9014C194.408 90.9211 194.882 91.1974 195.04 91.6316C195.06 91.6711 195.04 91.6908 195.001 91.7106C195.001 91.7106 195.001 91.7106 194.981 91.7106Z" fill="#DC847F"/>
<path opacity="0.5" d="M198.299 103.671C198.16 103.967 195.415 110.283 193.796 112.276C193.914 112.039 193.954 111.822 193.954 111.822C193.954 111.822 193.954 111.783 193.934 111.684C195.534 109.335 198.042 103.632 198.062 103.572C198.081 103.513 198.16 103.493 198.22 103.513C198.299 103.553 198.318 103.612 198.299 103.671Z" fill="url(#paint5_linear)"/>
<path opacity="0.5" d="M200.234 113.421C198.595 116.934 196.561 118.71 194.902 119.618C194.902 119.599 194.902 119.579 194.902 119.579C194.29 119.954 193.677 120.171 193.085 120.25C193.065 120.191 193.105 120.132 193.164 120.112C194.764 119.638 197.805 118.118 200.037 113.322C202.031 109.039 201.261 104.658 201.261 104.618C201.241 104.559 201.281 104.5 201.36 104.48C201.419 104.48 201.478 104.52 201.498 104.579C201.498 104.618 202.268 109.079 200.234 113.421Z" fill="url(#paint6_linear)"/>
<path opacity="0.5" d="M209.378 125.283C209.299 125.303 209.22 125.322 209.161 125.342C208.963 123.447 208.351 117.171 208.153 111.645C207.976 106.158 207.699 100.987 207.502 97.5724C207.482 97.1381 207.462 96.7237 207.423 96.3684C207.502 96.3684 207.581 96.3684 207.66 96.3684C207.679 96.7237 207.699 97.1184 207.739 97.5526C207.916 100.967 208.213 106.138 208.39 111.625C208.568 117.132 209.18 123.349 209.378 125.283Z" fill="url(#paint7_linear)"/>
<path opacity="0.5" d="M210.346 125.007C210.267 125.026 210.188 125.046 210.109 125.085C209.97 122.855 209.516 115.572 209.358 109.671C209.22 103.908 208.785 98.3026 208.647 96.4078C208.726 96.4078 208.805 96.4078 208.884 96.4078C209.042 98.3026 209.457 103.908 209.595 109.651C209.753 115.513 210.188 122.697 210.346 125.007Z" fill="url(#paint8_linear)"/>
<path opacity="0.5" d="M196.166 108.191C196.166 108.25 196.106 108.289 196.047 108.289C195.988 108.289 195.929 108.23 195.929 108.171C196.067 106.217 195.376 99.921 195 97.5526C195.079 97.5328 195.158 97.4934 195.237 97.4736C195.613 99.8421 196.304 106.217 196.166 108.191Z" fill="url(#paint9_linear)"/>
<path opacity="0.5" d="M195.455 109.572C195.455 109.632 195.395 109.691 195.336 109.691C195.277 109.691 195.218 109.632 195.218 109.572C195.218 107.401 194.388 100.513 193.974 97.9079C194.053 97.8882 194.131 97.8487 194.191 97.829C194.625 100.415 195.455 107.382 195.455 109.572Z" fill="url(#paint10_linear)"/>
<path opacity="0.5" d="M198.2 126.132C198.121 126.132 198.042 126.112 197.963 126.092C197.825 123.25 197.232 117.625 197.232 117.566C197.232 117.507 197.272 117.447 197.331 117.428C197.39 117.428 197.449 117.467 197.469 117.526C197.489 117.605 198.081 123.289 198.2 126.132Z" fill="url(#paint11_linear)"/>
<path opacity="0.5" d="M197.074 125.954C196.995 125.934 196.916 125.914 196.837 125.914C196.738 123.428 196.343 118.493 196.324 118.434C196.324 118.375 196.363 118.316 196.422 118.316C196.482 118.316 196.541 118.355 196.541 118.414C196.561 118.474 196.975 123.487 197.074 125.954Z" fill="url(#paint12_linear)"/>
<path d="M199.622 99.1316L199.958 98.796C199.76 98.9737 199.622 99.1316 199.622 99.1316Z" fill="#EDB8B1"/>
<path d="M200.412 99.546C200.155 99.8026 199.977 100.02 199.977 100.02C199.977 100.02 200.175 99.8223 200.412 99.546Z" fill="#EDB8B1"/>
<path d="M200.649 100.474C200.55 100.592 200.491 100.652 200.491 100.652C200.491 100.652 200.55 100.592 200.649 100.474Z" fill="#EDB8B1"/>
<path d="M201.004 101.322C201.004 101.322 201.281 101.007 201.498 100.671C201.715 100.335 201.873 99.9802 201.715 99.8223C201.478 99.5855 200.925 100.158 200.649 100.474C200.55 100.592 200.491 100.651 200.491 100.651C200.491 100.651 200.55 100.572 200.649 100.474C201.004 100.039 201.834 98.9736 201.537 98.796C201.32 98.6578 200.787 99.1315 200.412 99.5263C200.175 99.8026 199.977 99.9999 199.977 99.9999C199.977 99.9999 200.175 99.7828 200.412 99.5263C200.807 99.0723 201.281 98.4407 201.063 98.2236C200.826 98.0065 200.313 98.4407 199.957 98.7763L199.622 99.1118C199.622 99.1118 199.76 98.9539 199.957 98.7763L200.254 98.4802C200.905 97.8092 200.431 97.671 199.582 98.0657C198.733 98.4605 198.081 99.0723 197.746 99.8815C197.41 100.691 198.753 101.599 198.95 102.013C199.148 102.428 198.2 103.632 198.2 103.632C198.2 103.632 198.713 103.612 199.622 103.849C200.53 104.085 201.379 104.599 201.379 104.599C201.853 103.257 201.735 102.428 201.518 101.934C201.3 101.5 201.004 101.322 201.004 101.322Z" fill="#EDB8B1"/>
<path d="M211.53 89.5591L211.886 89.0854C211.886 89.0854 213.466 89.1447 213.979 89.5591L213.565 90.6052L211.53 89.5591Z" fill="url(#paint13_linear)"/>
<path d="M208.489 167.934L209.417 169C209.417 169 207.581 169.868 207.265 171.27L206.771 170.164C206.771 170.184 207.482 168.585 208.489 167.934Z" fill="url(#paint14_linear)"/>
<path d="M219.766 126.704L220.279 126.053C220.279 126.053 221.563 126.941 221.405 128.697H220.595L219.766 126.704Z" fill="url(#paint15_linear)"/>
<path d="M187.18 126.585L188.108 127.908C188.108 127.908 188.997 126.507 188.523 124.789L187.595 124.02C187.575 124.02 188.404 125.5 187.18 126.585Z" fill="#FF91A0"/>
<path opacity="0.8307" d="M167.53 90.8815C167.352 90.8815 167.174 90.9209 167.036 90.9802C167.174 90.9209 167.332 90.8815 167.53 90.8815ZM166.898 91.0591C166.779 91.138 166.661 91.2367 166.542 91.3749C166.68 91.2367 166.779 91.138 166.898 91.0591ZM166.424 91.513C166.266 91.7104 166.127 91.9472 165.95 92.2433C166.127 91.9472 166.285 91.7104 166.424 91.513Z" fill="#FDB300"/>
<path d="M165.239 89.4999C164.725 89.5394 164.271 89.717 163.777 90.1315C163.461 90.4078 163.106 90.7433 162.731 91.2762C161.151 93.4078 160.973 94.6117 158.722 95.4999C156.49 96.388 153.192 97.9275 153.547 100.987C153.903 104.046 157.142 104.381 158.287 103.493C159.432 102.605 160.341 101.342 161.802 101.322C163.126 101.303 164.488 101.283 165.1 100.375C164.765 100.158 164.449 99.9012 164.212 99.5657C163.066 98.0657 163.126 96.1512 163.185 95.3815C163.284 94.138 165.239 93.6051 165.969 92.2433C166.127 91.9275 166.285 91.6907 166.443 91.513C166.483 91.4538 166.522 91.4144 166.562 91.3749C166.68 91.2367 166.799 91.138 166.917 91.0591C166.957 91.0393 166.996 90.9999 167.036 90.9999C167.194 90.9209 167.352 90.8815 167.53 90.9012C167.727 90.9012 167.964 90.9604 168.221 91.0394C168.241 91.0394 168.28 91.0788 168.3 91.0788C168.794 90.8025 168.932 90.0525 167.826 89.7367C167.609 89.6775 167.372 89.6183 167.075 89.5986C166.325 89.5394 165.752 89.4604 165.239 89.4999Z" fill="#8F0206"/>
<path d="M170.334 96.8617C170.294 97.4538 170.176 98.0261 169.978 98.5196C169.682 99.3683 169.208 100.039 168.734 100.454C168.695 100.493 168.655 100.552 168.616 100.592C168.3 100.809 167.846 100.927 167.352 100.947C166.621 100.987 165.792 100.829 165.081 100.375C164.745 100.158 164.449 99.9012 164.192 99.5656C163.047 98.0656 163.106 96.1512 163.165 95.3814C163.264 94.138 165.219 93.6051 165.969 92.2433C166.127 91.9275 166.285 91.6906 166.424 91.513C166.463 91.4538 166.503 91.4143 166.562 91.3748C166.68 91.2367 166.799 91.138 166.917 91.059C166.957 91.0393 166.996 90.9998 167.036 90.9998C167.194 90.9209 167.352 90.8814 167.53 90.9011C167.727 90.9011 167.964 90.9604 168.221 91.0393C168.241 91.0393 168.28 91.059 168.3 91.0788C169.307 91.4933 170.077 93.7433 170.314 95.8156C170.354 96.1709 170.354 96.5262 170.334 96.8617Z" fill="#EAA9A4"/>
<path d="M138.933 109.691H137.886L137.847 112.77C137.847 112.77 139.525 115.039 141.994 117.013C144.463 118.987 149.124 120.309 150.368 120.092C151 117.743 149.44 115.138 149.282 114.881C149.222 114.881 147.188 115.039 145.391 114.191C143.574 113.322 138.933 109.691 138.933 109.691Z" fill="#EDB8B1"/>
<path d="M173.533 100.513C172.072 100.474 170.531 100.612 168.952 100.908C169.149 102.033 169.84 102.585 169.978 103.355C170.156 104.224 169.11 104.303 168.458 104.007C167.372 103.493 167.273 102.131 167.312 101.283C165.752 101.697 164.172 102.309 162.553 103.178C157.418 105.96 155.878 109.316 154.219 111.27C151.118 114.941 149.578 114.842 149.262 114.862C149.262 114.862 149.341 115.02 149.281 114.921C149.439 115.178 150.96 117.724 150.348 120.072C150.348 120.112 150.368 120.033 150.348 120.072C150.348 120.072 153.231 120.428 155.838 118C158.465 115.592 160.914 112.039 161.565 111.25C162.237 110.46 163.165 110.322 163.501 112.039C163.837 113.737 165.002 121.631 165.397 122.5L165.416 122.559C165.792 123.289 170.492 122.875 173.138 122.382C175.745 121.888 178.392 121.118 179.083 120.329C179.103 120.309 179.122 120.309 179.122 120.289C179.122 120.289 178.55 118.671 178.155 116.52C177.76 114.368 177.898 113.145 177.898 113.145C177.898 113.145 178.925 112.513 178.609 111.112C178.293 109.71 176.91 108.388 177.128 107.697C177.325 106.987 177.957 107.184 178.787 108.704C179.616 110.224 184.573 116.875 187.891 117.368C187.891 117.368 187.891 117.368 187.911 117.368C187.911 117.368 187.851 114.27 188.602 112.75C188.602 112.75 186.094 109.928 184.672 107.895C183.25 105.842 180.998 101.421 176.792 100.809C175.745 100.631 174.659 100.533 173.533 100.513Z" fill="url(#paint16_linear)"/>
<path d="M199.128 105.368C198.832 105.25 198.2 107.48 198.022 107.855C197.844 108.21 197.469 106.513 197.133 106.631C196.798 106.75 197.43 108.033 197.351 108.408C197.291 108.783 196.58 109.987 194.803 111.289C193.006 112.592 189.392 113.381 188.622 112.73C188.622 112.73 188.622 112.73 188.602 112.73C187.871 114.25 187.911 117.349 187.911 117.349C188.701 117.506 192.354 118.395 195.02 116.026C197.706 113.658 199.187 110.539 199.187 110.539C199.187 110.539 200.905 108.664 200.787 108.428C200.688 108.191 199.286 109.474 199.286 109.474C199.286 109.474 200.965 107.303 200.767 107.026C200.59 106.77 199.227 108.408 199.227 108.408C199.227 108.408 200.668 106.02 200.372 105.783C200.096 105.566 198.832 107.756 198.832 107.756C198.832 107.756 199.424 105.487 199.128 105.368Z" fill="#EDB8B1"/>
<path d="M187.654 134.401C187.614 134.816 187.081 135.013 186.508 135.329C186.173 135.526 185.817 135.743 185.541 136.099C184.83 137.085 183.961 136.553 183.27 136.276C182.578 136.02 181.986 136.631 181.235 137.638C180.485 138.664 179.024 137.993 177.918 137.48C176.989 137.046 176.377 137.224 175.587 137.934C175.41 138.092 175.252 138.23 175.074 138.428C174.442 139.099 173.612 139.197 172.743 139.118C172.092 139.039 171.4 138.881 170.749 138.664C170.373 138.546 169.979 138.467 169.623 138.447C169.287 138.428 168.971 138.487 168.636 138.546C168.537 138.566 168.458 138.605 168.359 138.625C168.122 138.704 167.905 138.783 167.668 138.901C167.569 138.941 167.47 139 167.391 139.059C167.075 139.237 166.779 139.454 166.483 139.71C166.068 140.085 165.535 140.283 164.962 140.401C163.738 140.638 162.375 140.303 161.881 139.493C161.17 138.329 162.079 133.256 163.224 128.914C164.33 124.71 164.488 123.368 165.456 122.441C165.456 122.46 165.476 122.5 165.476 122.5C165.594 122.737 166.206 122.855 167.036 122.875H167.391C168.221 122.875 169.208 122.816 170.216 122.717C170.334 122.697 170.452 122.697 170.571 122.678C171.381 122.599 172.19 122.48 172.882 122.362C173 122.342 173.099 122.322 173.198 122.303H173.217C174.264 122.105 175.311 121.868 176.259 121.592C176.377 121.553 176.476 121.533 176.594 121.493C177.819 121.118 178.767 120.684 179.142 120.27H179.241C179.241 120.27 183.309 126.053 185.264 128.835C187.18 131.658 187.713 133.73 187.654 134.401Z" fill="url(#paint17_linear)"/>
<path d="M169.603 138.467C169.267 138.447 168.951 138.506 168.616 138.566C168.517 138.585 168.418 138.625 168.339 138.645C168.102 138.724 167.865 138.803 167.648 138.921C167.549 138.96 167.47 139.02 167.372 139.079C167.056 139.256 166.759 139.474 166.463 139.73C166.048 140.105 165.515 140.303 164.962 140.421C165.061 141.546 165.258 143.52 165.95 147.941C166.957 154.513 168.517 156.408 168.26 160.809C168.023 164.835 168.102 173.303 169.109 176.362C169.208 176.638 169.287 176.934 169.386 177.112C170.492 178.967 171.558 178.947 171.953 177.743C172.013 177.546 172.072 177.329 172.111 177.053C172.289 175.217 172.645 163.335 172.724 159.862C172.803 156.605 172.743 141.151 172.743 139.118C172.092 139.039 171.4 138.862 170.749 138.664C170.334 138.546 169.959 138.467 169.603 138.467Z" fill="#EAA9A4"/>
<path d="M169.09 176.362C169.09 176.421 168.991 178.079 169.169 179.658C169.346 181.276 169.761 181.71 169.86 181.177C169.959 180.645 169.978 179.776 170.354 180.743C170.729 181.71 171.953 183.388 173.138 183.526C174.304 183.664 174.916 183.052 174.363 182.145C173.83 181.276 172.25 178.849 171.973 177.763C171.578 178.947 170.512 178.987 169.406 177.131C169.267 176.934 169.188 176.638 169.09 176.362Z" fill="url(#paint18_linear)"/>
<path d="M186.508 135.329C186.173 135.526 185.817 135.724 185.541 136.099C184.83 137.085 183.961 136.553 183.27 136.276C182.578 136.02 181.986 136.631 181.235 137.638C180.485 138.664 179.024 137.993 177.898 137.48C176.97 137.046 176.377 137.224 175.568 137.934C177.681 139.395 182.243 142.059 184.06 143.599C186.015 145.256 187.417 145.691 186.666 149.224C185.916 152.756 182.223 165.053 181.67 167.618C181.67 167.618 183.309 169.375 184.237 168.605L184.257 168.585C184.277 168.566 187.871 161.5 190.123 157.039C192.394 152.579 194.606 148.256 193.519 146.006C192.512 143.934 189.372 137.855 186.508 135.329Z" fill="#EAA9A4"/>
<path d="M181.67 167.638C181.551 167.875 180.919 169.237 180.919 169.987C180.919 170.796 181.255 170.737 181.453 170.145C181.65 169.553 181.887 169.059 182.302 170.381C182.697 171.704 183.803 172.809 184.968 173.421C186.133 174.053 187.358 173.776 186.805 172.71C186.271 171.684 184.474 170.006 184.277 168.605L184.257 168.625C183.309 169.395 181.67 167.638 181.67 167.638Z" fill="url(#paint19_linear)"/>
<path d="M166.68 115.079C166.542 115.079 166.404 115.059 166.266 115.039C165.179 114.862 164.607 114.053 164.587 114.013C164.528 113.934 164.547 113.816 164.626 113.776C164.705 113.717 164.824 113.737 164.863 113.816C164.863 113.816 165.377 114.546 166.325 114.704C167.056 114.822 167.865 114.566 168.714 113.934C168.793 113.875 168.912 113.895 168.971 113.974C169.03 114.053 169.011 114.151 168.932 114.21C168.162 114.783 167.411 115.079 166.68 115.079Z" fill="url(#paint20_linear)"/>
<path d="M167.372 122.934C166.917 125.303 165.634 131.855 165.634 135.842C165.634 135.941 165.555 136.02 165.456 136.02C165.357 136.02 165.278 135.941 165.278 135.842C165.278 131.855 166.542 125.342 167.016 122.934H167.372Z" fill="#FFC3AB"/>
<path d="M170.887 133.711C170.867 133.711 170.847 133.711 170.847 133.711C170.768 133.711 170.709 133.671 170.67 133.592C170.67 133.572 170.492 132.961 170.216 129.664C169.998 127.039 170.117 124 170.176 122.776C170.295 122.757 170.413 122.757 170.531 122.737C170.452 123.862 170.354 127.02 170.551 129.645C170.808 132.842 170.986 133.474 170.986 133.493C171.025 133.592 170.966 133.691 170.887 133.711Z" fill="#FFC3AB"/>
<path d="M175.686 132.349C175.646 132.368 175.627 132.388 175.587 132.388C175.548 132.388 175.508 132.368 175.469 132.349C175.409 132.309 175.39 132.23 175.409 132.171C175.37 131.796 174.718 129.368 173.711 126.783C173.02 125.006 172.862 123.428 172.862 122.441C172.98 122.421 173.079 122.401 173.178 122.381H173.198C173.217 123.368 173.356 124.928 174.047 126.664C174.56 127.987 176.002 132.131 175.686 132.349Z" fill="#FFC3AB"/>
<path d="M180.09 131.125C180.07 131.125 180.07 131.125 180.051 131.125C179.972 131.125 179.893 131.066 179.873 130.987C179.221 128.401 176.95 123.27 176.219 121.632C176.338 121.592 176.436 121.572 176.555 121.533C177.325 123.23 179.577 128.322 180.228 130.908C180.248 131.026 180.189 131.105 180.09 131.125Z" fill="#FFC3AB"/>
<path d="M136.148 111.882C135.793 112.395 137.768 114.013 138.044 113.559C138.34 113.105 136.583 111.388 136.148 111.882Z" fill="#EDB8B1"/>
<path d="M135.793 110.737C135.576 111.092 137.965 113.322 138.301 112.691C138.617 112.079 136.109 110.184 135.793 110.737Z" fill="#EDB8B1"/>
<path d="M135.951 109.434C135.595 109.908 137.827 112.158 138.242 111.526C138.656 110.875 136.366 108.862 135.951 109.434Z" fill="#EDB8B1"/>
<path d="M138.024 111.645C137.511 111.487 139.19 108.901 139.802 109.355C140.414 109.789 138.795 111.881 138.024 111.645Z" fill="#F9C4C0"/>
<path d="M314.542 111.724C312.764 113.796 311.323 112.77 311.323 112.77C312.073 115.138 312.31 119.52 312.31 119.52C312.31 119.539 312.27 119.559 312.27 119.579C311.737 120.763 307.768 122.697 303.146 123.763C303.067 123.783 302.988 123.802 302.909 123.822C302.554 123.901 302.198 123.98 301.843 124.039C301.804 124.039 301.744 124.059 301.705 124.059C301.626 124.079 301.547 124.099 301.468 124.099C296.412 124.987 291.949 124.118 291.949 124.118V124.099C291.949 124.059 290.843 114.96 290.349 111.98C289.855 108.98 289.539 105.704 289.065 105.506C288.591 105.309 288.572 106.928 288.631 109.395C288.69 111.862 288.177 114.329 286.044 116.717C284.128 118.849 282.074 118.888 281.58 118.987C281.64 118.631 281.482 117.526 281.067 115.829C280.514 113.599 279.744 112.75 279.704 112.73L279.685 112.691C283.871 110.638 282.943 104.303 283.081 100.75C283.22 97.1973 283.318 96.6249 284.859 94.6117C285.945 93.1907 288.927 92.5196 291.317 92.1051C291.396 92.0854 291.495 92.0854 291.574 92.0657C292.482 91.9078 293.292 91.7894 293.845 91.6907C294.615 91.5525 295.8 91.3354 297.182 91.138C297.261 91.138 297.34 91.1183 297.419 91.0986C299.592 90.7828 302.218 90.5065 304.43 90.5657C308.163 90.6644 310.296 95.4801 312.725 100.158C315.134 104.855 316.319 109.651 314.542 111.724Z" fill="#869ADD"/>
<path d="M296.076 84.467C296.254 83.9341 296.827 84.1315 296.945 84.8223C297.064 85.5131 297.083 87.0131 295.958 86.717C295.958 86.6973 295.8 85.2368 296.076 84.467Z" fill="#EDB8B1"/>
<path d="M295.049 89.9342C294.575 90.546 294.022 91.0197 293.509 91.3157C293.45 91.3355 293.39 91.3552 293.351 91.375C292.344 91.8684 291.277 91.8684 290.171 90.8815C289.974 90.7039 289.776 90.5065 289.579 90.2697C289.302 89.9342 289.065 89.5592 288.868 89.1644C288.117 87.6644 287.9 85.8486 287.92 85.1184C288.67 85.1578 289.46 84.9999 290.191 84.6447C290.586 84.4473 290.981 84.2894 291.356 84.1513C291.652 84.0526 291.929 83.9736 292.225 83.9342C292.403 83.9144 292.581 83.8947 292.758 83.9144C292.976 83.9144 293.193 83.9736 293.39 84.0526C293.45 84.0723 293.489 84.0921 293.529 84.1118C293.726 84.2105 293.924 84.3092 294.121 84.4671C295.049 85.2565 295.504 86.4802 295.859 86.6776L295.879 86.7368C296.155 87.9605 295.701 89.0657 295.049 89.9342Z" fill="#EDB8B1"/>
<path d="M291.336 79.8289C291.119 79.8289 290.902 79.8486 290.685 79.9078C290.329 79.9868 289.974 80.1249 289.658 80.342C288.275 81.1907 286.853 80.4604 285.965 81.2696C285.234 81.921 284.819 83.6775 285.984 84.4867C286.557 84.8815 287.209 85.0789 287.92 85.1183C288.67 85.1578 289.46 84.9999 290.191 84.6446C290.586 84.4473 290.981 84.2894 291.356 84.1512C291.652 84.0525 291.949 83.9736 292.225 83.9341C292.403 83.9144 292.581 83.8946 292.758 83.8946C292.976 83.9144 293.193 83.9539 293.39 84.0328C293.45 84.0525 293.489 84.0723 293.529 84.092C293.726 84.1907 293.924 84.2894 294.121 84.4473C295.049 85.2367 295.503 86.4604 295.859 86.6578C295.938 86.6973 296.017 86.717 296.096 86.6183C296.471 86.1446 296.827 83.6973 294.852 81.6841C294.832 81.6644 294.812 81.6249 294.773 81.6052C294.398 81.2499 294.042 80.9539 293.706 80.717C293.608 80.6578 293.529 80.5986 293.43 80.5394C293.193 80.3815 292.956 80.2631 292.719 80.1644C292.62 80.1249 292.502 80.0854 292.403 80.046C292.186 79.967 291.988 79.9275 291.791 79.8881C291.692 79.8683 291.593 79.8486 291.494 79.8486C291.435 79.8486 291.396 79.8289 291.336 79.8289Z" fill="#FF7D00"/>
<path d="M312.922 105.408C313.041 105.881 313.317 108.21 309.308 109.217C309.308 109.217 308.4 108.881 306.662 104.599C304.904 100.316 304.568 98.5985 304.568 98.5985C304.568 98.5985 304.114 97.2367 303.482 96.2104C302.83 95.1643 302.87 94.8683 303.028 94.8288C303.206 94.7893 304.391 96.388 304.391 96.388C304.391 96.388 303.127 94.513 303.265 93.9406C303.383 93.3683 304.865 95.717 304.865 95.717C304.865 95.717 303.462 92.6183 303.759 92.4209C304.075 92.2235 305.674 95.0854 305.674 95.0854C305.674 95.0854 304.529 92.1446 304.884 92.0262C305.24 91.9077 306.365 94.8683 306.365 94.8683C306.365 94.8683 306.306 93.2893 306.681 93.5064C307.057 93.7235 307.195 96.2893 307.412 97.0393C307.629 97.7893 308.834 99.388 309.999 101.105C311.145 102.881 312.823 104.934 312.922 105.408Z" fill="#EDB8B1"/>
<path d="M269.83 103.73C269.494 103.908 270.442 106.335 270.442 106.335C270.442 106.335 269.06 103.592 268.645 103.829C268.23 104.046 269.731 107.026 269.731 107.026C269.731 107.026 268.408 105.171 268.151 105.27C267.894 105.349 269.158 107.658 269.158 107.658C269.158 107.658 268.151 106.316 267.717 106.493C267.302 106.671 268.546 108.368 269.455 109.987C270.363 111.605 272.95 115.908 275.3 117.783C277.631 119.638 280.613 119.243 281.541 119.026C281.6 118.671 281.442 117.585 281.008 115.888C280.455 113.658 279.685 112.809 279.645 112.789C279.467 112.829 277.887 113.125 275.972 111.546C273.957 109.888 272.674 108.171 271.824 106.414C271.824 106.414 271.548 104.5 271.192 104.342C270.837 104.184 271.054 105.822 271.054 105.822C271.054 105.822 270.165 103.552 269.83 103.73Z" fill="#EAA9A4"/>
<path d="M292.818 180.052C292.581 180.052 292.363 180.092 292.166 180.112C291.968 180.151 291.791 180.191 291.672 180.27C291.573 180.309 291.455 180.388 291.356 180.447C290.29 181 288.868 181.927 288.512 182.816C288.117 183.802 288.433 184.316 290.25 183.842C292.067 183.388 295.819 181.355 295.977 180.802C295.977 180.783 295.958 180.783 295.958 180.763C295.958 180.704 295.918 180.645 295.839 180.585C295.819 180.566 295.78 180.546 295.74 180.526C295.701 180.506 295.642 180.467 295.582 180.447C295.484 180.408 295.346 180.368 295.227 180.329C295.01 180.27 294.753 180.21 294.457 180.151C294.338 180.131 294.22 180.112 294.082 180.092C293.667 180.072 293.232 180.033 292.818 180.052Z" fill="url(#paint21_linear)"/>
<path d="M312.27 119.599C311.698 120.901 306.997 123.072 301.863 124.059C296.649 125.046 291.949 124.138 291.949 124.138V124.118C291.396 126.368 289.401 135.368 288.117 141.033C286.814 146.796 286.162 151.829 287.861 161.658C289.539 171.408 291.317 180.25 291.356 180.408C291.455 180.349 291.573 180.289 291.672 180.23C291.81 180.171 291.968 180.112 292.166 180.072C292.166 180.072 292.166 180.072 292.186 180.072C292.383 180.033 292.6 180.013 292.837 180.013C292.837 180.013 292.837 180.013 292.857 180.013C293.252 179.993 293.687 180.033 294.121 180.072C294.259 180.092 294.358 180.112 294.496 180.132C294.793 180.171 295.03 180.23 295.267 180.309C295.405 180.349 295.523 180.368 295.622 180.428C295.681 180.447 295.741 180.487 295.78 180.507C295.82 180.526 295.859 180.546 295.879 180.566C295.938 180.625 295.997 180.684 295.997 180.743H296.017C296.017 180.743 295.82 176.678 295.701 174.309C295.583 171.96 294.378 155.441 294.635 152.342C294.891 149.224 299.295 140.007 300.52 136.947C301.724 133.888 303.383 131.026 305.437 133.493C307.491 135.98 311.066 143.658 311.737 148.474C312.409 153.27 311.836 155.401 311.145 161.441C310.454 167.48 310.059 168.487 310.039 172.197C310.019 175.888 310.987 179.579 310.987 179.618C310.987 179.539 310.947 179.421 310.967 179.342C311.086 178.77 314.265 179.145 314.265 179.145C314.364 179.145 314.463 179.184 314.561 179.184C314.561 179.184 314.561 179.184 314.581 179.184C314.581 179.184 315.904 172.414 317.109 166.947C318.314 161.5 322.185 152.046 319.657 142.158C317.188 132.822 312.764 120.882 312.27 119.599Z" fill="#310062"/>
<path d="M312.587 179.066C311.777 179.046 310.947 179.085 310.888 179.381C310.868 179.46 310.908 179.559 310.908 179.658V179.678C310.947 180.309 311.461 181.316 313.357 181.908C315.529 182.599 317.504 182.954 317.919 182.145C318.314 181.375 317.07 179.559 314.482 179.224C314.384 179.204 314.285 179.184 314.186 179.184C314.206 179.184 313.396 179.085 312.587 179.066Z" fill="url(#paint22_linear)"/>
<path d="M297.399 91.0986L297.123 93.7039C297.123 93.7434 297.103 93.7829 297.064 93.8026C297.024 93.8223 296.985 93.8223 296.945 93.8026L295.326 92.7565L295.01 92.5592L294.496 92.2236C294.398 92.4013 294.319 92.5789 294.22 92.7565C294.18 92.8552 294.121 92.9539 294.082 93.0526C293.687 93.8421 293.311 94.5921 293.272 94.6513C293.252 94.6907 293.213 94.7302 293.173 94.7302H293.153C293.055 94.7302 292.956 94.5921 291.81 92.8552C291.633 92.5789 291.435 92.3026 291.297 92.0855C291.376 92.0657 291.475 92.0657 291.554 92.046C291.652 92.2039 291.81 92.4407 292.008 92.7368C292.383 93.3092 292.916 94.1184 293.134 94.4144C293.292 94.0789 293.687 93.3092 293.983 92.7171C293.983 92.6973 293.983 92.6973 294.003 92.6776C294.161 92.3618 294.279 92.1052 294.358 91.9868C294.378 91.9671 294.398 91.9276 294.437 91.9276C294.477 91.9276 294.496 91.9276 294.536 91.9473L295.168 92.3618C295.188 92.3618 295.188 92.3815 295.207 92.3815L296.945 93.4868L297.182 91.1184C297.241 91.1184 297.32 91.1184 297.399 91.0986Z" fill="url(#paint23_linear)"/>
<path d="M301.724 124.099C301.645 124.118 301.566 124.138 301.487 124.138C301.014 120.625 299.355 111.092 297.755 105.092C296.215 99.2302 294.477 94.2566 294.062 93.0723C294.003 92.9145 293.963 92.8158 293.963 92.8158C293.963 92.796 293.963 92.7763 293.963 92.7368C293.963 92.7171 293.963 92.7171 293.983 92.6973C294.003 92.6776 294.022 92.6579 294.042 92.6579C294.101 92.6381 294.161 92.6579 294.2 92.7368C294.2 92.7368 294.2 92.7566 294.22 92.7763C294.417 93.3289 296.294 98.6776 297.992 105.033C299.592 111.033 301.231 120.566 301.724 124.099Z" fill="url(#paint24_linear)"/>
<path d="M303.166 123.803C303.087 123.822 303.008 123.842 302.929 123.862C302.416 120.822 301.033 112.691 299.71 107.599C298.15 101.579 295.247 93.1908 295.01 92.5592C295.01 92.5395 294.99 92.5197 294.99 92.5197C294.97 92.4605 294.99 92.4013 295.069 92.3816C295.109 92.3619 295.148 92.3816 295.168 92.4013C295.188 92.4211 295.207 92.4408 295.207 92.4605C295.207 92.4605 295.247 92.579 295.326 92.7763C295.898 94.4145 298.486 101.974 299.927 107.539C301.25 112.632 302.653 120.724 303.166 123.803Z" fill="url(#paint25_linear)"/>
<path d="M295.049 89.9144C294.575 90.5263 294.022 91.0197 293.509 91.296C293.45 91.3355 293.39 91.3355 293.351 91.3552C293.43 91.8881 293.706 92.9736 294.477 92.7368C295.266 92.4999 295.128 90.7236 295.049 89.9144Z" fill="#EDB8B1"/>
<path d="M268.112 71.2039L269.218 72.9012L270.027 72.3683L268.526 70.3354L268.112 71.2039Z" fill="#FF91A0"/>
<path d="M233.116 81.8222C233.116 81.8222 234.163 80.0656 234.321 79.4932C234.459 78.9209 234.064 78.7235 233.333 79.9669C233.333 79.9669 233.649 77.6972 233.294 77.5985C232.938 77.4998 232.583 80.2037 232.583 80.2037C232.583 80.2037 232.879 77.3024 232.464 77.2038C232.05 77.1248 231.694 80.2235 231.694 80.2235C231.694 80.2235 231.675 78.2103 231.438 78.1314C231.201 78.0524 230.983 80.1643 230.983 80.1643C230.983 80.1643 231.003 78.7432 230.687 78.7235C230.371 78.7037 230.035 82.1774 230.035 82.1774L233.116 81.8222Z" fill="#EDB8B1"/>
<path d="M276.465 86.6774C276.465 86.6774 276.406 85.8485 276.248 84.8024C276.09 83.7761 275.873 83.559 276.149 83.3814C276.426 83.2037 277.157 85.0393 277.157 85.0393C277.157 85.0393 276.999 81.9801 277.394 81.9998C277.789 82.0195 277.887 84.8024 277.887 84.8024C277.887 84.8024 277.769 81.6051 278.184 81.6445C278.598 81.7037 278.658 84.684 278.658 84.684C278.658 84.684 278.776 82.7103 279.052 82.809C279.329 82.9077 279.21 85.138 279.21 85.138C279.21 85.138 279.329 83.6972 279.605 83.8353C279.882 83.9735 279.526 86.7959 279.526 86.7959L276.465 86.6774Z" fill="#EDB8B1"/>
<path d="M253.3 98.0261C252.846 99.2301 252.332 100.276 252.609 101.184C252.905 102.112 253.892 101.796 254.307 101.164C254.682 100.592 255.196 98.5788 255.275 98.263C254.722 98.4801 253.971 98.4209 253.3 98.0261Z" fill="#EDB8B1"/>
<path d="M257.25 96.7038C257.21 96.7433 256.519 97.4736 255.591 98.1051C255.492 98.1644 255.393 98.2038 255.275 98.263C254.722 98.4801 253.971 98.4209 253.28 98.0262C252.707 97.6907 252.194 97.138 251.937 96.2696C251.917 96.1709 251.878 96.0722 251.858 95.9736C251.68 95.2433 251.641 94.3749 251.7 93.5065C251.779 91.9867 252.115 90.4867 252.431 89.7564C253.023 89.8157 254.188 88.888 255.097 88.8683C255.176 88.8683 255.255 88.888 255.314 88.9078C255.373 88.9275 255.433 88.9275 255.492 88.9472C256.223 89.2433 256.598 90.4472 256.756 92.2828C256.894 93.763 256.756 94.9867 257.25 96.7038Z" fill="#EDB8B1"/>
<path d="M233.136 81.8221L230.035 82.1971C230.035 82.1971 228.811 85.7695 228.89 89.6774C228.969 93.5853 230.095 96.9998 233.669 100.414C237.244 103.848 240.621 104.066 242.22 104.283C243.82 104.52 246.249 104.263 246.111 105.447C245.973 106.631 245.183 107.48 245.42 109.651C245.657 111.822 247.474 112.73 247.691 113.638C247.888 114.447 248.501 119.243 249.212 121.079C249.291 121.296 249.389 121.493 249.468 121.612C250.318 122.816 253.359 123.842 256.677 123.368C259.777 122.934 262.325 120.941 262.542 120.052C262.562 119.993 262.582 119.914 262.582 119.855C262.404 119.125 262.029 114.625 261.871 112.73C261.594 109.493 263.964 107.776 265.919 107.322C267.875 106.868 272.614 105.842 275.557 101.895C278.5 97.9471 279.961 91.1577 279.467 86.8156L276.426 86.6774C276.426 86.6774 275.419 92.9142 273.977 95.0656C272.555 97.1971 270.027 100.335 266.453 100.927C262.878 101.52 258.434 100.671 254.662 99.9998C250.871 99.3287 248.52 98.3419 244.61 98.5393C240.68 98.7366 236.474 96.7037 234.341 93.0327C232.247 89.3814 233.136 81.8221 233.136 81.8221Z" fill="url(#paint26_linear)"/>
<path d="M268.842 139.099C268.645 139.355 267.934 139.691 266.848 139.947C265.86 140.184 264.576 140.362 263.056 140.381C261.18 140.401 258.671 140.224 255.926 139.474C254.228 139.02 252.451 138.349 250.673 137.381C250.456 137.263 250.258 137.164 250.041 137.046C245.479 134.401 243.544 131.52 243.287 131.164C243.267 131.145 243.188 131.026 243.188 131.026C243.188 131.026 245.222 129.052 247.75 127C250.278 124.947 249.488 122.579 249.192 121.138C249.192 121.118 249.212 121.099 249.212 121.059C249.291 121.276 249.389 121.474 249.468 121.592C249.883 122.184 250.811 122.717 252.056 123.072C252.372 123.171 252.688 123.23 253.043 123.289C253.774 123.427 254.583 123.487 255.433 123.447C255.768 123.427 256.124 123.408 256.479 123.368C256.558 123.368 256.618 123.349 256.697 123.349C257.388 123.25 258.059 123.072 258.691 122.855L259.698 122.421C260.093 122.224 260.488 122.006 260.804 121.789C261.061 121.631 261.278 121.454 261.476 121.296C262.088 120.822 262.463 120.349 262.523 120.033C263.47 120.98 264.813 122.145 265.939 122.855C268.625 124.552 269.968 126.052 270.6 128.954C271.686 133.631 269.217 138.605 268.842 139.099Z" fill="#FF91A0"/>
<path d="M242.793 169.355C242.043 169.849 240.246 171.329 239.633 172.138C239.001 172.967 238.646 173.895 240.364 173.678C242.062 173.46 246.664 171.013 246.032 169.493C245.361 169.71 243.267 169.651 242.793 169.355Z" fill="url(#paint27_linear)"/>
<path d="M243.307 131.164C241.865 132.427 237.441 136.927 235.842 139.256C234.222 141.625 233.156 144.25 234.775 149.796C236.414 155.362 238.685 159.724 239.811 162.802C240.937 165.862 242.359 168.96 242.675 169.296C242.695 169.316 242.754 169.316 242.774 169.335C243.248 169.631 245.341 169.691 246.012 169.474C246.012 169.474 246.012 169.474 246.032 169.474C246.032 169.474 245.538 163.276 244.867 159.329C244.195 155.381 242.497 148.513 242.379 146.914C242.28 145.296 243.86 142.927 245.914 141.27C247.948 139.651 250.555 137.46 250.653 137.362C250.436 137.243 250.239 137.164 250.021 137.026C245.499 134.401 243.544 131.539 243.307 131.164Z" fill="#EAA9A4"/>
<path d="M255.926 139.493C255.097 142.039 252.154 149.283 251.977 153.151C251.779 157.256 252.707 161.638 255.531 166.454C258.316 171.23 263.431 178.908 263.51 179.006L263.549 179.066C263.549 179.066 264.379 179.322 265.287 178.888C266.176 178.473 266.512 177.605 266.532 177.565V177.546C266.532 177.546 263.174 168.842 261.812 164.658C260.429 160.473 259.363 155.638 260.172 152.48C260.923 149.519 265.584 142.019 266.887 139.947C265.9 140.184 264.616 140.362 263.095 140.401C261.18 140.421 258.671 140.223 255.926 139.493Z" fill="#EAA9A4"/>
<path d="M266.492 177.566C266.472 177.605 266.137 178.473 265.248 178.888C264.339 179.302 263.51 179.066 263.51 179.066L263.47 179.006C263.075 179.737 262.246 181.019 261.95 182.085C261.634 183.191 262.088 183.427 262.503 183.526C262.917 183.625 264.043 183.348 265.228 181.75C266.413 180.191 266.808 178.316 266.492 177.566Z" fill="url(#paint28_linear)"/>
<path d="M255.926 86.8945C255.67 86.8945 255.413 86.9143 255.156 86.9537C253.142 87.2893 251.759 89.2827 252.253 89.6774C252.312 89.7169 252.372 89.7366 252.451 89.7564C253.043 89.8156 254.208 88.888 255.097 88.8682C255.176 88.8682 255.255 88.888 255.314 88.9077C255.373 88.9274 255.433 88.9274 255.492 88.9472C256.223 89.2432 256.598 90.4472 256.756 92.263C256.894 93.7827 256.756 94.9866 257.25 96.7235C257.447 97.434 257.743 98.2038 258.237 99.1314C259.896 102.349 262.542 102.684 265.189 102.289C267.835 101.914 269.553 99.0524 268.586 96.6445C267.618 94.2169 264.201 95.3616 262.7 94.8682C261.18 94.3748 260.666 91.4932 260.192 89.6577C260.172 89.5787 260.113 89.4998 260.093 89.4208C259.58 88.0787 257.98 87.1314 256.361 86.9537C256.223 86.934 256.065 86.8945 255.926 86.8945Z" fill="#804928"/>
<path opacity="0.4" d="M253.161 127.177C252.806 130.375 250.021 133.947 248.836 133.079C247.671 132.23 250.081 130.434 251.246 128.796C252.273 127.355 252.391 125.5 252.075 123.072C252.391 123.171 252.707 123.23 253.063 123.289C253.24 124.197 253.359 125.52 253.161 127.177Z" fill="url(#paint29_linear)"/>
<path opacity="0.4" d="M257.289 129.408C257.368 134.875 255.531 136.77 255.077 136.355C254.603 135.921 255.077 132.664 255.946 130.237C256.657 128.204 256.143 125.421 255.492 123.487C255.827 123.467 256.183 123.447 256.538 123.408C256.835 124.355 257.249 126.191 257.289 129.408Z" fill="url(#paint30_linear)"/>
<path opacity="0.4" d="M260.587 136.552C259.205 136.118 260.291 132.546 260.548 129.684C260.785 127.177 259.58 124.77 258.711 122.895L259.718 122.46C260.232 123.546 261.18 125.875 261.594 128.638C262.187 132.467 261.97 136.967 260.587 136.552Z" fill="url(#paint31_linear)"/>
<path opacity="0.4" d="M266.196 135.112C264.517 135.723 264.636 131.658 264.28 128.539C263.964 125.717 261.772 122.973 260.824 121.809C261.081 121.651 261.298 121.473 261.496 121.316C262.108 121.927 263.293 123.191 264.458 124.848C266.156 127.217 267.875 134.48 266.196 135.112Z" fill="url(#paint32_linear)"/>
<path d="M279.033 74.0459L279.961 75.1117C279.961 75.1117 278.124 75.9801 277.808 77.3814L277.315 76.2959C277.315 76.2959 278.006 74.6972 279.033 74.0459Z" fill="url(#paint33_linear)"/>
<defs>
<linearGradient id="paint0_linear" x1="81.8207" y1="64.6175" x2="51.5592" y2="24.9356" gradientUnits="userSpaceOnUse">
<stop offset="2.7e-07" stop-color="#FFBD6D"/>
<stop offset="1" stop-color="#FFEE8B"/>
</linearGradient>
<linearGradient id="paint1_linear" x1="214.126" y1="94.9393" x2="196.713" y2="137.567" gradientUnits="userSpaceOnUse">
<stop offset="0.01" stop-color="#FF874E"/>
<stop offset="0.9887" stop-color="#FF6661"/>
</linearGradient>
<linearGradient id="paint2_linear" x1="195.127" y1="181.638" x2="201.542" y2="181.638" gradientUnits="userSpaceOnUse">
<stop stop-color="#0D4CB6"/>
<stop offset="0.9887" stop-color="#243181"/>
</linearGradient>
<linearGradient id="paint3_linear" x1="220.538" y1="120.439" x2="194.729" y2="184.381" gradientUnits="userSpaceOnUse">
<stop stop-color="#402B69"/>
<stop offset="1" stop-color="#503069"/>
</linearGradient>
<linearGradient id="paint4_linear" x1="216.176" y1="181.54" x2="222.128" y2="181.54" gradientUnits="userSpaceOnUse">
<stop stop-color="#0D4CB6"/>
<stop offset="0.9887" stop-color="#243181"/>
</linearGradient>
<linearGradient id="paint5_linear" x1="193.797" y1="107.906" x2="198.307" y2="107.906" gradientUnits="userSpaceOnUse">
<stop offset="0.01" stop-color="#FF874E"/>
<stop offset="0.9887" stop-color="#FF6661"/>
</linearGradient>
<linearGradient id="paint6_linear" x1="193.079" y1="112.366" x2="201.635" y2="112.366" gradientUnits="userSpaceOnUse">
<stop offset="0.01" stop-color="#FF874E"/>
<stop offset="0.9887" stop-color="#FF6661"/>
</linearGradient>
<linearGradient id="paint7_linear" x1="207.432" y1="110.855" x2="209.38" y2="110.855" gradientUnits="userSpaceOnUse">
<stop offset="0.01" stop-color="#FF874E"/>
<stop offset="0.9887" stop-color="#FF6661"/>
</linearGradient>
<linearGradient id="paint8_linear" x1="208.655" y1="110.736" x2="210.351" y2="110.736" gradientUnits="userSpaceOnUse">
<stop offset="0.01" stop-color="#FF874E"/>
<stop offset="0.9887" stop-color="#FF6661"/>
</linearGradient>
<linearGradient id="paint9_linear" x1="195.02" y1="102.882" x2="196.19" y2="102.882" gradientUnits="userSpaceOnUse">
<stop offset="0.01" stop-color="#FF874E"/>
<stop offset="0.9887" stop-color="#FF6661"/>
</linearGradient>
<linearGradient id="paint10_linear" x1="193.976" y1="103.761" x2="195.456" y2="103.761" gradientUnits="userSpaceOnUse">
<stop offset="0.01" stop-color="#FF874E"/>
<stop offset="0.9887" stop-color="#FF6661"/>
</linearGradient>
<linearGradient id="paint11_linear" x1="197.242" y1="121.783" x2="198.204" y2="121.783" gradientUnits="userSpaceOnUse">
<stop offset="0.01" stop-color="#FF874E"/>
<stop offset="0.9887" stop-color="#FF6661"/>
</linearGradient>
<linearGradient id="paint12_linear" x1="196.318" y1="122.136" x2="197.065" y2="122.136" gradientUnits="userSpaceOnUse">
<stop offset="0.01" stop-color="#FF874E"/>
<stop offset="0.9887" stop-color="#FF6661"/>
</linearGradient>
<linearGradient id="paint13_linear" x1="211.538" y1="89.8442" x2="213.988" y2="89.8442" gradientUnits="userSpaceOnUse">
<stop stop-color="#4874D0"/>
<stop offset="0.9814" stop-color="#7889DE"/>
</linearGradient>
<linearGradient id="paint14_linear" x1="206.775" y1="169.609" x2="209.422" y2="169.609" gradientUnits="userSpaceOnUse">
<stop stop-color="#0D4CB6"/>
<stop offset="0.9887" stop-color="#243181"/>
</linearGradient>
<linearGradient id="paint15_linear" x1="219.766" y1="127.369" x2="221.415" y2="127.369" gradientUnits="userSpaceOnUse">
<stop stop-color="#0D4CB6"/>
<stop offset="0.9887" stop-color="#243181"/>
</linearGradient>
<linearGradient id="paint16_linear" x1="149.278" y1="111.722" x2="188.597" y2="111.722" gradientUnits="userSpaceOnUse">
<stop stop-color="#4874D0"/>
<stop offset="0.9814" stop-color="#7889DE"/>
</linearGradient>
<linearGradient id="paint17_linear" x1="161.595" y1="130.402" x2="187.653" y2="130.402" gradientUnits="userSpaceOnUse">
<stop stop-color="#FC6E8C"/>
<stop offset="0.9887" stop-color="#ED576F"/>
</linearGradient>
<linearGradient id="paint18_linear" x1="169.07" y1="179.952" x2="174.56" y2="179.952" gradientUnits="userSpaceOnUse">
<stop offset="0.01" stop-color="#FF874E"/>
<stop offset="0.9887" stop-color="#FF6661"/>
</linearGradient>
<linearGradient id="paint19_linear" x1="180.932" y1="170.703" x2="186.932" y2="170.703" gradientUnits="userSpaceOnUse">
<stop offset="0.01" stop-color="#FF874E"/>
<stop offset="0.9887" stop-color="#FF6661"/>
</linearGradient>
<linearGradient id="paint20_linear" x1="164.558" y1="114.404" x2="169.009" y2="114.404" gradientUnits="userSpaceOnUse">
<stop stop-color="#0D4CB6"/>
<stop offset="0.9887" stop-color="#243181"/>
</linearGradient>
<linearGradient id="paint21_linear" x1="288.353" y1="182.026" x2="295.977" y2="182.026" gradientUnits="userSpaceOnUse">
<stop offset="0.01" stop-color="#FF874E"/>
<stop offset="0.9887" stop-color="#FF6661"/>
</linearGradient>
<linearGradient id="paint22_linear" x1="310.9" y1="180.84" x2="317.999" y2="180.84" gradientUnits="userSpaceOnUse">
<stop offset="0.01" stop-color="#FF874E"/>
<stop offset="0.9887" stop-color="#FF6661"/>
</linearGradient>
<linearGradient id="paint23_linear" x1="291.294" y1="92.9267" x2="297.393" y2="92.9267" gradientUnits="userSpaceOnUse">
<stop stop-color="#0D4CB6"/>
<stop offset="0.9887" stop-color="#243181"/>
</linearGradient>
<linearGradient id="paint24_linear" x1="293.979" y1="108.387" x2="301.729" y2="108.387" gradientUnits="userSpaceOnUse">
<stop stop-color="#0D4CB6"/>
<stop offset="0.9887" stop-color="#243181"/>
</linearGradient>
<linearGradient id="paint25_linear" x1="294.993" y1="108.104" x2="303.163" y2="108.104" gradientUnits="userSpaceOnUse">
<stop stop-color="#0D4CB6"/>
<stop offset="0.9887" stop-color="#243181"/>
</linearGradient>
<linearGradient id="paint26_linear" x1="228.893" y1="102.648" x2="279.599" y2="102.648" gradientUnits="userSpaceOnUse">
<stop stop-color="#0D4CB6"/>
<stop offset="0.9887" stop-color="#243181"/>
</linearGradient>
<linearGradient id="paint27_linear" x1="239.115" y1="171.527" x2="246.086" y2="171.527" gradientUnits="userSpaceOnUse">
<stop stop-color="#4874D0"/>
<stop offset="0.9814" stop-color="#7889DE"/>
</linearGradient>
<linearGradient id="paint28_linear" x1="261.86" y1="180.557" x2="266.598" y2="180.557" gradientUnits="userSpaceOnUse">
<stop stop-color="#4874D0"/>
<stop offset="0.9814" stop-color="#7889DE"/>
</linearGradient>
<linearGradient id="paint29_linear" x1="248.538" y1="128.15" x2="253.261" y2="128.15" gradientUnits="userSpaceOnUse">
<stop stop-color="#FC928C"/>
<stop offset="0.9887" stop-color="#ED576F"/>
</linearGradient>
<linearGradient id="paint30_linear" x1="254.888" y1="129.905" x2="257.293" y2="129.905" gradientUnits="userSpaceOnUse">
<stop stop-color="#FC928C"/>
<stop offset="0.9887" stop-color="#ED576F"/>
</linearGradient>
<linearGradient id="paint31_linear" x1="258.714" y1="129.504" x2="261.909" y2="129.504" gradientUnits="userSpaceOnUse">
<stop stop-color="#FC928C"/>
<stop offset="0.9887" stop-color="#ED576F"/>
</linearGradient>
<linearGradient id="paint32_linear" x1="260.849" y1="128.248" x2="266.888" y2="128.248" gradientUnits="userSpaceOnUse">
<stop stop-color="#FC928C"/>
<stop offset="0.9887" stop-color="#ED576F"/>
</linearGradient>
<linearGradient id="paint33_linear" x1="277.314" y1="75.7159" x2="279.959" y2="75.7159" gradientUnits="userSpaceOnUse">
<stop stop-color="#0D4CB6"/>
<stop offset="0.9887" stop-color="#243181"/>
</linearGradient>
</defs>
</svg>
