<svg width="19" height="19" viewBox="0 0 19 19" fill="none" xmlns="http://www.w3.org/2000/svg">
<path d="M0.936035 5.8429H18.0638V18.0639H0.936035V5.8429Z" fill="#DFEEF4"/>
<path d="M0.936035 2.35095H18.0638V5.84294H0.936035V2.35095Z" fill="#F45858"/>
<path d="M8.94617 0.936035H10.0538V3.76555H8.94617V0.936035Z" fill="#6D7A84"/>
<path d="M13.3671 0.936035H14.4747V3.76555H13.3671V0.936035Z" fill="#6D7A84"/>
<path d="M4.52527 0.936035H5.63291V3.76555H4.52527V0.936035Z" fill="#6D7A84"/>
<path d="M4.10597 9.40067C4.62105 9.40067 5.0386 8.98311 5.0386 8.46803C5.0386 7.95295 4.62105 7.5354 4.10597 7.5354C3.59089 7.5354 3.17334 7.95295 3.17334 8.46803C3.17334 8.98311 3.59089 9.40067 4.10597 9.40067Z" fill="#3EA2E5"/>
<path d="M7.70204 9.40067C8.21712 9.40067 8.63468 8.98311 8.63468 8.46803C8.63468 7.95295 8.21712 7.5354 7.70204 7.5354C7.18696 7.5354 6.76941 7.95295 6.76941 8.46803C6.76941 8.98311 7.18696 9.40067 7.70204 9.40067Z" fill="#3EA2E5"/>
<path d="M11.2981 9.40067C11.8132 9.40067 12.2307 8.98311 12.2307 8.46803C12.2307 7.95295 11.8132 7.5354 11.2981 7.5354C10.783 7.5354 10.3655 7.95295 10.3655 8.46803C10.3655 8.98311 10.783 9.40067 11.2981 9.40067Z" fill="#3EA2E5"/>
<path d="M14.8942 9.40067C15.4093 9.40067 15.8268 8.98311 15.8268 8.46803C15.8268 7.95295 15.4093 7.5354 14.8942 7.5354C14.3791 7.5354 13.9615 7.95295 13.9615 8.46803C13.9615 8.98311 14.3791 9.40067 14.8942 9.40067Z" fill="#3EA2E5"/>
<path d="M4.10597 12.886C4.62105 12.886 5.0386 12.4685 5.0386 11.9534C5.0386 11.4383 4.62105 11.0208 4.10597 11.0208C3.59089 11.0208 3.17334 11.4383 3.17334 11.9534C3.17334 12.4685 3.59089 12.886 4.10597 12.886Z" fill="#3EA2E5"/>
<path d="M7.70204 12.886C8.21712 12.886 8.63468 12.4685 8.63468 11.9534C8.63468 11.4383 8.21712 11.0208 7.70204 11.0208C7.18696 11.0208 6.76941 11.4383 6.76941 11.9534C6.76941 12.4685 7.18696 12.886 7.70204 12.886Z" fill="#3EA2E5"/>
<path d="M11.2981 12.886C11.8132 12.886 12.2307 12.4685 12.2307 11.9534C12.2307 11.4383 11.8132 11.0208 11.2981 11.0208C10.783 11.0208 10.3655 11.4383 10.3655 11.9534C10.3655 12.4685 10.783 12.886 11.2981 12.886Z" fill="#3EA2E5"/>
<path d="M14.8942 12.886C15.4093 12.886 15.8268 12.4685 15.8268 11.9534C15.8268 11.4383 15.4093 11.0208 14.8942 11.0208C14.3791 11.0208 13.9615 11.4383 13.9615 11.9534C13.9615 12.4685 14.3791 12.886 14.8942 12.886Z" fill="#3EA2E5"/>
<path d="M4.10597 16.3714C4.62105 16.3714 5.0386 15.9538 5.0386 15.4387C5.0386 14.9237 4.62105 14.5061 4.10597 14.5061C3.59089 14.5061 3.17334 14.9237 3.17334 15.4387C3.17334 15.9538 3.59089 16.3714 4.10597 16.3714Z" fill="#3EA2E5"/>
<path d="M7.70204 16.3714C8.21712 16.3714 8.63468 15.9538 8.63468 15.4387C8.63468 14.9237 8.21712 14.5061 7.70204 14.5061C7.18696 14.5061 6.76941 14.9237 6.76941 15.4387C6.76941 15.9538 7.18696 16.3714 7.70204 16.3714Z" fill="#3EA2E5"/>
<path d="M11.2981 16.3714C11.8132 16.3714 12.2307 15.9538 12.2307 15.4387C12.2307 14.9237 11.8132 14.5061 11.2981 14.5061C10.783 14.5061 10.3655 14.9237 10.3655 15.4387C10.3655 15.9538 10.783 16.3714 11.2981 16.3714Z" fill="#3EA2E5"/>
<path d="M14.8942 16.3714C15.4093 16.3714 15.8268 15.9538 15.8268 15.4387C15.8268 14.9237 15.4093 14.5061 14.8942 14.5061C14.3791 14.5061 13.9615 14.9237 13.9615 15.4387C13.9615 15.9538 14.3791 16.3714 14.8942 16.3714Z" fill="#3EA2E5"/>
</svg>
