<svg width="19" height="19" viewBox="0 0 19 19" fill="none" xmlns="http://www.w3.org/2000/svg">
<path d="M5.5644 3.77061L4.45497 2.65889C4.19762 2.40101 3.85529 2.25903 3.49098 2.25903C3.12668 2.25903 2.78434 2.40105 2.52703 2.65889L1.72283 3.46483C1.19346 3.99523 1.19346 4.85832 1.72283 5.38876L2.83459 6.50282C2.94332 6.61177 3.08593 6.66625 3.22862 6.66625C3.37086 6.66625 3.51317 6.61203 3.62183 6.50364C3.83944 6.28647 5.3463 4.77468 5.56362 4.55781C5.78119 4.34068 5.78156 3.98825 5.5644 3.77061Z" fill="#105C6E"/>
<path d="M9.5 0.111328C9.19259 0.111328 8.94336 0.360555 8.94336 0.667969V2.44922C8.94336 2.75663 9.19259 3.00586 9.5 3.00586C9.80741 3.00586 10.0566 2.75663 10.0566 2.44922V0.667969C10.0566 0.360555 9.80741 0.111328 9.5 0.111328Z" fill="#26879C"/>
<path d="M10.873 0H8.12695C7.81954 0 7.57031 0.249227 7.57031 0.556641C7.57031 0.864055 7.81954 1.11328 8.12695 1.11328H10.873C11.1805 1.11328 11.4297 0.864055 11.4297 0.556641C11.4297 0.249227 11.1805 0 10.873 0Z" fill="#DE513C"/>
<path d="M9.5 0H8.12695C7.81954 0 7.57031 0.249227 7.57031 0.556641C7.57031 0.864055 7.81954 1.11328 8.12695 1.11328H9.5V0Z" fill="#FC6249"/>
<path d="M15.5356 4.40175C13.9235 2.7863 11.78 1.89661 9.49996 1.89661C7.21993 1.89661 5.07641 2.7863 3.46431 4.40175C1.8525 6.0169 0.964844 8.16431 0.964844 10.4483C0.964844 12.7323 1.8525 14.8797 3.46431 16.4949C5.07641 18.1103 7.21993 19 9.49996 19C11.78 19 13.9235 18.1103 15.5356 16.4949C17.1474 14.8797 18.0351 12.7323 18.0351 10.4483C18.0351 8.16431 17.1474 6.0169 15.5356 4.40175Z" fill="#DE513C"/>
<path d="M9.49996 1.89661C7.21992 1.89661 5.07641 2.7863 3.46431 4.40175C1.8525 6.0169 0.964844 8.16431 0.964844 10.4483C0.964844 12.7323 1.8525 14.8797 3.46431 16.4949C5.07641 18.1103 7.21992 19 9.49996 19V1.89661Z" fill="#FC6249"/>
<path d="M9.49999 4.02783C5.96651 4.02783 3.0918 6.90804 3.0918 10.4483C3.0918 13.9886 5.96651 16.8688 9.49999 16.8688C13.0335 16.8688 15.9082 13.9886 15.9082 10.4483C15.9082 6.90804 13.0335 4.02783 9.49999 4.02783Z" fill="#96D1D9"/>
<path d="M9.49999 4.02783C5.96651 4.02783 3.0918 6.90804 3.0918 10.4483C3.0918 13.9886 5.96651 16.8688 9.49999 16.8688V4.02783Z" fill="#F4F2E6"/>
<path d="M9.5 5.41825C9.80741 5.41825 10.0566 5.16902 10.0566 4.86161V4.05232C9.87313 4.03644 9.68755 4.02783 9.5 4.02783C9.31245 4.02783 9.12687 4.03644 8.94336 4.05232V4.86161C8.94336 5.16902 9.19259 5.41825 9.5 5.41825Z" fill="#105C6E"/>
<path d="M9.5 15.4784C9.19259 15.4784 8.94336 15.7276 8.94336 16.035V16.8443C9.12687 16.8602 9.31245 16.8688 9.5 16.8688C9.68755 16.8688 9.87313 16.8602 10.0566 16.8443V16.035C10.0566 15.7276 9.80741 15.4784 9.5 15.4784Z" fill="#105C6E"/>
<path d="M15.8838 9.8916H15.0867C14.7793 9.8916 14.53 10.1408 14.53 10.4482C14.53 10.7557 14.7793 11.0049 15.0867 11.0049H15.8838C15.8996 10.8214 15.9082 10.6358 15.9082 10.4482C15.9082 10.2607 15.8996 10.0751 15.8838 9.8916Z" fill="#105C6E"/>
<path d="M4.46993 10.4482C4.46993 10.1408 4.2207 9.8916 3.91329 9.8916H3.11614C3.10033 10.0751 3.0918 10.2607 3.0918 10.4482C3.0918 10.6358 3.10033 10.8214 3.11614 11.0049H3.91329C4.2207 11.0049 4.46993 10.7557 4.46993 10.4482Z" fill="#105C6E"/>
<path d="M10.8731 10.1271H10.0878V7.87573C10.0878 7.56832 9.83855 7.31909 9.53113 7.31909C9.22372 7.31909 8.97449 7.56832 8.97449 7.87573V10.6837C8.97449 10.9911 9.22372 11.2403 9.53113 11.2403H10.8731C11.1805 11.2403 11.4297 10.9911 11.4297 10.6837C11.4297 10.3763 11.1805 10.1271 10.8731 10.1271Z" fill="#105C6E"/>
</svg>
