<svg width="147" height="152" viewBox="0 0 147 152" fill="none" xmlns="http://www.w3.org/2000/svg">
<g clip-path="url(#clip0)">
<path d="M139.6 66.5C133.3 89.7 94.8 97.7 72.1 97.5C50.7 97.3 12.9 89.4 6.59999 66.5C-0.500006 40.5 34 0 73.1 0C112.1 0 146.7 40.5 139.6 66.5Z" fill="#F8C77F"/>
<path d="M12.9 50.2H12.2V59.5999H12.9V50.2Z" fill="#545050"/>
<path d="M25.3 72.5H0V69.8C0 62.8 5.7 57.2 12.6 57.2C19.6 57.2 25.2 62.9 25.2 69.8V72.5H25.3Z" fill="#284A67"/>
<path d="M25.2 72.5H0V106.1H25.2V72.5Z" fill="#D4C5C1"/>
<path d="M6.9 72.5H0V106.1H6.9V72.5Z" fill="#E8DCD6"/>
<path d="M25.3 72.5H18.4V106.1H25.3V72.5Z" fill="#E8DCD6"/>
<path d="M25.3 72.5H0V75H25.3V72.5Z" fill="#B7A6A3"/>
<path d="M25.2 85.3999H0V106.1H25.2V85.3999Z" fill="#E2D1C7"/>
<path d="M6.9 85.3999H0V106.1H6.9V85.3999Z" fill="#E8DCD6"/>
<path d="M25.2 85.3999H18.3V106.1H25.2V85.3999Z" fill="#E8DCD6"/>
<path d="M25.2 85.3999H0V86.8999H25.2V85.3999Z" fill="#B7A6A3"/>
<path d="M5.49999 89.8H1.39999V102.7H5.49999V89.8Z" fill="#476168"/>
<path d="M23.8 89.8H19.7V102.7H23.8V89.8Z" fill="#476168"/>
<path d="M5.49999 89.8H1.39999V91.5H5.49999V89.8Z" fill="#5B7075"/>
<path d="M23.8 89.8H19.7V91.5H23.8V89.8Z" fill="#5B7075"/>
<path d="M17 89.8H8.10001V102.7H17V89.8Z" fill="#476168"/>
<path d="M16.2 106.1H9.10001V96.1C9.10001 94.3 10.6 92.8 12.4 92.8H13C14.8 92.8 16.3 94.3 16.3 96.1V106.1H16.2Z" fill="#E2D1C7"/>
<path d="M12.4 105.8H9.89999V97C9.89999 96.3 10.4 95.8 11.1 95.8C11.8 95.8 12.3 96.3 12.3 97V105.8H12.4Z" fill="#2E3435"/>
<path d="M15.4 105.8H13V97C13 96.3 13.5 95.8 14.2 95.8C14.9 95.8 15.4 96.3 15.4 97V105.8Z" fill="#2E3435"/>
<path d="M12 94.8C12 94.5 12.3 94.2 12.6 94.2C12.9 94.2 13.2 94.5 13.2 94.8C13.2 95.1 12.9 95.4 12.6 95.4C12.2 95.4 12 95.1 12 94.8Z" fill="#2E3435"/>
<path d="M5.5 77.2H1V81.8H5.5V77.2Z" fill="#476168"/>
<path d="M24 77.2H19.5V81.8H24V77.2Z" fill="#476168"/>
<path d="M17.1 77.2H8.20001V81.8H17.1V77.2Z" fill="#476168"/>
<path d="M5.5 79.5H1V81.8H5.5V79.5Z" fill="#384C51"/>
<path d="M24 79.5H19.5V81.8H24V79.5Z" fill="#384C51"/>
<path d="M17.1 79.5H8.20001V81.8H17.1V79.5Z" fill="#384C51"/>
<path d="M25.3 68.2H0V72.6H25.3V68.2Z" fill="#E8DCD6"/>
<path d="M1.70001 71.6999H0.700012V69.8999C0.700012 69.5999 0.900012 69.3999 1.20001 69.3999C1.50001 69.3999 1.70001 69.5999 1.70001 69.8999V71.6999Z" fill="#545050"/>
<path d="M3.60001 71.6999H2.60001V69.8999C2.60001 69.5999 2.80001 69.3999 3.10001 69.3999C3.40001 69.3999 3.60001 69.5999 3.60001 69.8999V71.6999Z" fill="#545050"/>
<path d="M5.5 71.6999H4.5V69.8999C4.5 69.5999 4.7 69.3999 5 69.3999C5.3 69.3999 5.5 69.5999 5.5 69.8999V71.6999Z" fill="#545050"/>
<path d="M7.40002 71.6999H6.40002V69.8999C6.40002 69.5999 6.60002 69.3999 6.90002 69.3999C7.20002 69.3999 7.40002 69.5999 7.40002 69.8999V71.6999Z" fill="#545050"/>
<path d="M9.30002 71.6999H8.30002V69.8999C8.30002 69.5999 8.50002 69.3999 8.80002 69.3999C9.10002 69.3999 9.30002 69.5999 9.30002 69.8999V71.6999Z" fill="#545050"/>
<path d="M11.3 71.6999H10.3V69.8999C10.3 69.5999 10.5 69.3999 10.8 69.3999C11.1 69.3999 11.3 69.5999 11.3 69.8999V71.6999Z" fill="#545050"/>
<path d="M13.2 71.6999H12.2V69.8999C12.2 69.5999 12.4 69.3999 12.7 69.3999C13 69.3999 13.2 69.5999 13.2 69.8999V71.6999Z" fill="#545050"/>
<path d="M15.1 71.6999H14.1V69.8999C14.1 69.5999 14.3 69.3999 14.6 69.3999C14.9 69.3999 15.1 69.5999 15.1 69.8999V71.6999Z" fill="#545050"/>
<path d="M17 71.6999H16V69.8999C16 69.5999 16.2 69.3999 16.5 69.3999C16.8 69.3999 17 69.5999 17 69.8999V71.6999Z" fill="#545050"/>
<path d="M18.9 71.6999H17.9V69.8999C17.9 69.5999 18.1 69.3999 18.4 69.3999C18.7 69.3999 18.9 69.5999 18.9 69.8999V71.6999Z" fill="#545050"/>
<path d="M20.8 71.6999H19.8V69.8999C19.8 69.5999 20 69.3999 20.3 69.3999C20.6 69.3999 20.8 69.5999 20.8 69.8999V71.6999Z" fill="#545050"/>
<path d="M22.7 71.6999H21.7V69.8999C21.7 69.5999 21.9 69.3999 22.2 69.3999C22.5 69.3999 22.7 69.5999 22.7 69.8999V71.6999Z" fill="#545050"/>
<path d="M24.6 71.6999H23.6V69.8999C23.6 69.5999 23.8 69.3999 24.1 69.3999C24.4 69.3999 24.6 69.5999 24.6 69.8999V71.6999Z" fill="#545050"/>
<path d="M25.3 106.1H0V107H25.3V106.1Z" fill="#B7A6A3"/>
<path d="M25.3 111.5H0V112.4H25.3V111.5Z" fill="#B7A6A3"/>
<path d="M25.3 107H0V111.5H25.3V107Z" fill="#E8DCD6"/>
<path d="M5.50001 107.7H1.70001V110.5H5.50001V107.7Z" fill="#476168"/>
<path d="M23.6 107.7H19.8V110.5H23.6V107.7Z" fill="#476168"/>
<path d="M17 107.7H8V110.5H17V107.7Z" fill="#476168"/>
<path d="M5.50001 108.6H1.70001V110.6H5.50001V108.6Z" fill="#32474C"/>
<path d="M23.6 108.6H19.8V110.6H23.6V108.6Z" fill="#32474C"/>
<path d="M17 108.6H8V110.6H17V108.6Z" fill="#32474C"/>
<path d="M57.5 106.1H25.2V112.3H57.5V106.1Z" fill="#E2D1C7"/>
<path d="M57.5 111.5H25.2V112.4H57.5V111.5Z" fill="#B7A6A3"/>
<path d="M57.5 106.1H25.2V107H57.5V106.1Z" fill="#B7A6A3"/>
<path d="M57.5 85H25.3V106.2H57.5V85Z" fill="#E8DCD6"/>
<path d="M40.4 85H25.3V106.2H40.4V85Z" fill="#E2D1C7"/>
<path d="M55.9 89.3H27.3V96.5H55.9V89.3Z" fill="#476168"/>
<path d="M55.9 89.3H27.3V91H55.9V89.3Z" fill="#5B7075"/>
<path d="M30.5 99H27.3V106.1H30.5V99Z" fill="#2E3435"/>
<path d="M34.7 99H31.5V106.1H34.7V99Z" fill="#2E3435"/>
<path d="M39 99H35.8V106.1H39V99Z" fill="#2E3435"/>
<path d="M43.2 99H40V106.1H43.2V99Z" fill="#2E3435"/>
<path d="M47.5 99H44.3V106.1H47.5V99Z" fill="#2E3435"/>
<path d="M51.7 99H48.5V106.1H51.7V99Z" fill="#2E3435"/>
<path d="M55.9 99H52.7V106.1H55.9V99Z" fill="#2E3435"/>
<path d="M30.5 99H27.3V101.5H30.5V99Z" fill="#424647"/>
<path d="M34.7 99H31.5V101.5H34.7V99Z" fill="#424647"/>
<path d="M39 99H35.8V101.5H39V99Z" fill="#424647"/>
<path d="M43.2 99H40V101.5H43.2V99Z" fill="#424647"/>
<path d="M47.5 99H44.3V101.5H47.5V99Z" fill="#424647"/>
<path d="M51.7 99H48.5V101.5H51.7V99Z" fill="#424647"/>
<path d="M55.9 99H52.7V101.5H55.9V99Z" fill="#424647"/>
<path d="M30.5 98.3H27.3V96.4C27.3 95.5 28 94.8 28.9 94.8C29.8 94.8 30.5 95.5 30.5 96.4V98.3Z" fill="#2E3435"/>
<path d="M34.7 98.3H31.5V96.4C31.5 95.5 32.2 94.8 33.1 94.8C34 94.8 34.7 95.5 34.7 96.4V98.3Z" fill="#2E3435"/>
<path d="M39 98.3H35.8V96.4C35.8 95.5 36.5 94.8 37.4 94.8C38.3 94.8 39 95.5 39 96.4V98.3Z" fill="#2E3435"/>
<path d="M43.2 98.3H40V96.4C40 95.5 40.7 94.8 41.6 94.8C42.5 94.8 43.2 95.5 43.2 96.4V98.3Z" fill="#2E3435"/>
<path d="M47.5 98.3H44.3V96.4C44.3 95.5 45 94.8 45.9 94.8C46.8 94.8 47.5 95.5 47.5 96.4V98.3Z" fill="#2E3435"/>
<path d="M51.7 98.3H48.5V96.4C48.5 95.5 49.2 94.8 50.1 94.8C51 94.8 51.7 95.5 51.7 96.4V98.3Z" fill="#2E3435"/>
<path d="M55.9 98.3H52.7V96.4C52.7 95.5 53.4 94.8 54.3 94.8C55.2 94.8 55.9 95.5 55.9 96.4V98.3Z" fill="#2E3435"/>
<path d="M30.2 86.6001H27.3V88.5001H30.2V86.6001Z" fill="#476168"/>
<path d="M34.5 86.6001H31.6V88.5001H34.5V86.6001Z" fill="#476168"/>
<path d="M38.8 86.6001H35.9V88.5001H38.8V86.6001Z" fill="#476168"/>
<path d="M43.1 86.6001H40.2V88.5001H43.1V86.6001Z" fill="#476168"/>
<path d="M47.4 86.6001H44.5V88.5001H47.4V86.6001Z" fill="#476168"/>
<path d="M51.7 86.6001H48.8V88.5001H51.7V86.6001Z" fill="#476168"/>
<path d="M55.9 86.6001H53V88.5001H55.9V86.6001Z" fill="#476168"/>
<path d="M57.5 75H25.3V84.9H57.5V75Z" fill="#E8DCD6"/>
<path d="M57.5 75H25.3V77.2H57.5V75Z" fill="#D4C5C1"/>
<path d="M57.5 75H25.3V76.1H57.5V75Z" fill="#B7A6A3"/>
<path d="M57.5 81.7999H25.3V84.8999H57.5V81.7999Z" fill="#A09290"/>
<path d="M30.4 78.7999H26.5V80.1999H30.4V78.7999Z" fill="#476168"/>
<path d="M35.3 78.7999H31.4V80.1999H35.3V78.7999Z" fill="#476168"/>
<path d="M40.2 78.7999H36.3V80.1999H40.2V78.7999Z" fill="#476168"/>
<path d="M45.1 78.7999H41.2V80.1999H45.1V78.7999Z" fill="#476168"/>
<path d="M50.1 78.7999H46.2V80.1999H50.1V78.7999Z" fill="#476168"/>
<path d="M55 78.7999H51.1V80.1999H55V78.7999Z" fill="#476168"/>
<path d="M57.5 71.3999H25.3V74.9999H57.5V71.3999Z" fill="#284A67"/>
<path d="M32.2 107.7H27.3V110.5H32.2V107.7Z" fill="#32474C"/>
<path d="M32.2 109.1H27.3V110.5H32.2V109.1Z" fill="#283A3D"/>
<path d="M38.1 107.7H33.2V110.5H38.1V107.7Z" fill="#32474C"/>
<path d="M38.1 109.1H33.2V110.5H38.1V109.1Z" fill="#283A3D"/>
<path d="M44.1 107.7H39.2V110.5H44.1V107.7Z" fill="#32474C"/>
<path d="M44.1 109.1H39.2V110.5H44.1V109.1Z" fill="#283A3D"/>
<path d="M50 107.7H45.1V110.5H50V107.7Z" fill="#32474C"/>
<path d="M50 109.1H45.1V110.5H50V109.1Z" fill="#283A3D"/>
<path d="M55.9 107.7H51V110.5H55.9V107.7Z" fill="#32474C"/>
<path d="M55.9 109.1H51V110.5H55.9V109.1Z" fill="#283A3D"/>
<path d="M133.23 59.5061H133.93V50.1061H133.23V59.5061Z" fill="#545050"/>
<path d="M120.9 72.5H146.2V69.8C146.2 62.8 140.5 57.2 133.6 57.2C126.6 57.2 121 62.9 121 69.8V72.5H120.9Z" fill="#284A67"/>
<path d="M121.03 106.164H146.23V72.5641H121.03V106.164Z" fill="#D4C5C1"/>
<path d="M139.292 106.164H146.192V72.5641H139.292V106.164Z" fill="#E8DCD6"/>
<path d="M120.919 106.164H127.819V72.5641H120.919V106.164Z" fill="#E8DCD6"/>
<path d="M120.906 75.0488H146.206V72.5488H120.906V75.0488Z" fill="#B7A6A3"/>
<path d="M121.03 106.151H146.23V85.4509H121.03V106.151Z" fill="#E2D1C7"/>
<path d="M139.292 106.151H146.192V85.4509H139.292V106.151Z" fill="#E8DCD6"/>
<path d="M121.067 106.151H127.967V85.4509H121.067V106.151Z" fill="#E8DCD6"/>
<path d="M121.03 86.9712H146.23V85.4712H121.03V86.9712Z" fill="#B7A6A3"/>
<path d="M140.691 102.694H144.791V89.7941H140.691V102.694Z" fill="#476168"/>
<path d="M122.468 102.694H126.568V89.7941H122.468V102.694Z" fill="#476168"/>
<path d="M140.691 91.5105H144.791V89.8105H140.691V91.5105Z" fill="#5B7075"/>
<path d="M122.468 91.5105H126.568V89.8105H122.468V91.5105Z" fill="#5B7075"/>
<path d="M129.23 102.694H138.13V89.7941H129.23V102.694Z" fill="#476168"/>
<path d="M130 106.1H137.1V96.1C137.1 94.3 135.6 92.8 133.8 92.8H133.2C131.4 92.8 129.9 94.3 129.9 96.1V106.1H130Z" fill="#E2D1C7"/>
<path d="M133.8 105.8H136.2V97C136.2 96.3 135.7 95.8 135 95.8C134.3 95.8 133.8 96.3 133.8 97V105.8Z" fill="#2E3435"/>
<path d="M130.8 105.8H133.2V97C133.2 96.3 132.7 95.8 132 95.8C131.3 95.8 130.8 96.3 130.8 97V105.8Z" fill="#2E3435"/>
<path d="M134.2 94.8C134.2 94.5 133.9 94.2 133.6 94.2C133.3 94.2 133 94.5 133 94.8C133 95.1 133.3 95.4 133.6 95.4C134 95.4 134.2 95.1 134.2 94.8Z" fill="#2E3435"/>
<path d="M140.682 81.8595H145.182V77.2595H140.682V81.8595Z" fill="#476168"/>
<path d="M122.267 81.8595H126.767V77.2595H122.267V81.8595Z" fill="#476168"/>
<path d="M129.176 81.8595H138.076V77.2595H129.176V81.8595Z" fill="#476168"/>
<path d="M140.682 81.8584H145.182V79.5584H140.682V81.8584Z" fill="#384C51"/>
<path d="M122.267 81.8584H126.767V79.5584H122.267V81.8584Z" fill="#384C51"/>
<path d="M129.176 81.8584H138.076V79.5584H129.176V81.8584Z" fill="#384C51"/>
<path d="M120.906 72.5051H146.206V68.1051H120.906V72.5051Z" fill="#E8DCD6"/>
<path d="M144.5 71.7H145.5V69.9C145.5 69.6 145.3 69.4 145 69.4C144.7 69.4 144.5 69.6 144.5 69.9V71.7Z" fill="#545050"/>
<path d="M142.6 71.7H143.6V69.9C143.6 69.6 143.4 69.4 143.1 69.4C142.8 69.4 142.6 69.6 142.6 69.9V71.7Z" fill="#545050"/>
<path d="M140.7 71.7H141.7V69.9C141.7 69.6 141.5 69.4 141.2 69.4C140.9 69.4 140.7 69.6 140.7 69.9V71.7Z" fill="#545050"/>
<path d="M138.8 71.7H139.8V69.9C139.8 69.6 139.6 69.4 139.3 69.4C139 69.4 138.8 69.6 138.8 69.9V71.7Z" fill="#545050"/>
<path d="M136.9 71.7H137.9V69.9C137.9 69.6 137.7 69.4 137.4 69.4C137.1 69.4 136.9 69.6 136.9 69.9V71.7Z" fill="#545050"/>
<path d="M134.9 71.7H135.9V69.9C135.9 69.6 135.7 69.4 135.4 69.4C135.1 69.4 134.9 69.6 134.9 69.9V71.7Z" fill="#545050"/>
<path d="M133 71.7H134V69.9C134 69.6 133.8 69.4 133.5 69.4C133.2 69.4 133 69.6 133 69.9V71.7Z" fill="#545050"/>
<path d="M131.1 71.7H132.1V69.9C132.1 69.6 131.9 69.4 131.6 69.4C131.3 69.4 131.1 69.6 131.1 69.9V71.7Z" fill="#545050"/>
<path d="M129.2 71.7H130.2V69.9C130.2 69.6 130 69.4 129.7 69.4C129.4 69.4 129.2 69.6 129.2 69.9V71.7Z" fill="#545050"/>
<path d="M127.3 71.7H128.3V69.9C128.3 69.6 128.1 69.4 127.8 69.4C127.5 69.4 127.3 69.6 127.3 69.9V71.7Z" fill="#545050"/>
<path d="M125.4 71.7H126.4V69.9C126.4 69.6 126.2 69.4 125.9 69.4C125.6 69.4 125.4 69.6 125.4 69.9V71.7Z" fill="#545050"/>
<path d="M123.5 71.7H124.5V69.9C124.5 69.6 124.3 69.4 124 69.4C123.7 69.4 123.5 69.6 123.5 69.9V71.7Z" fill="#545050"/>
<path d="M121.6 71.7H122.6V69.9C122.6 69.6 122.4 69.4 122.1 69.4C121.8 69.4 121.6 69.6 121.6 69.9V71.7Z" fill="#545050"/>
<path d="M120.906 107.074H146.206V106.174H120.906V107.074Z" fill="#B7A6A3"/>
<path d="M120.906 112.419H146.206V111.519H120.906V112.419Z" fill="#B7A6A3"/>
<path d="M120.906 111.546H146.206V107.046H120.906V111.546Z" fill="#E8DCD6"/>
<path d="M140.72 110.56H144.52V107.76H140.72V110.56Z" fill="#476168"/>
<path d="M122.568 110.56H126.368V107.76H122.568V110.56Z" fill="#476168"/>
<path d="M129.22 110.56H138.22V107.76H129.22V110.56Z" fill="#476168"/>
<path d="M140.72 110.532H144.52V108.532H140.72V110.532Z" fill="#32474C"/>
<path d="M122.568 110.532H126.368V108.532H122.568V110.532Z" fill="#32474C"/>
<path d="M129.22 110.532H138.22V108.532H129.22V110.532Z" fill="#32474C"/>
<path d="M88.7657 112.368H121.066V106.168H88.7657V112.368Z" fill="#E2D1C7"/>
<path d="M88.7657 112.419H121.066V111.519H88.7657V112.419Z" fill="#B7A6A3"/>
<path d="M88.7657 107.074H121.066V106.174H88.7657V107.074Z" fill="#B7A6A3"/>
<path d="M88.7241 106.094H120.924V84.8938H88.7241V106.094Z" fill="#E8DCD6"/>
<path d="M105.847 106.094H120.947V84.8938H105.847V106.094Z" fill="#E2D1C7"/>
<path d="M90.2553 96.6072H118.855V89.4072H90.2553V96.6072Z" fill="#476168"/>
<path d="M90.2553 91.0964H118.855V89.3964H90.2553V91.0964Z" fill="#5B7075"/>
<path d="M115.68 106.151H118.88V99.0514H115.68V106.151Z" fill="#2E3435"/>
<path d="M111.406 106.151H114.606V99.0514H111.406V106.151Z" fill="#2E3435"/>
<path d="M107.231 106.151H110.431V99.0514H107.231V106.151Z" fill="#2E3435"/>
<path d="M102.955 106.151H106.155V99.0514H102.955V106.151Z" fill="#2E3435"/>
<path d="M98.7807 106.151H101.981V99.0514H98.7807V106.151Z" fill="#2E3435"/>
<path d="M94.5051 106.151H97.7051V99.0514H94.5051V106.151Z" fill="#2E3435"/>
<path d="M90.2305 106.151H93.4305V99.0514H90.2305V106.151Z" fill="#2E3435"/>
<path d="M115.68 101.554H118.88V99.0537H115.68V101.554Z" fill="#424647"/>
<path d="M111.406 101.554H114.606V99.0537H111.406V101.554Z" fill="#424647"/>
<path d="M107.231 101.554H110.431V99.0537H107.231V101.554Z" fill="#424647"/>
<path d="M102.955 101.554H106.155V99.0537H102.955V101.554Z" fill="#424647"/>
<path d="M98.7807 101.554H101.981V99.0537H98.7807V101.554Z" fill="#424647"/>
<path d="M94.5051 101.554H97.7051V99.0537H94.5051V101.554Z" fill="#424647"/>
<path d="M90.2305 101.554H93.4305V99.0537H90.2305V101.554Z" fill="#424647"/>
<path d="M115.7 98.3H118.9V96.4C118.9 95.5 118.2 94.8 117.3 94.8C116.4 94.8 115.7 95.5 115.7 96.4V98.3Z" fill="#2E3435"/>
<path d="M111.5 98.3H114.7V96.4C114.7 95.5 114 94.8 113.1 94.8C112.2 94.8 111.5 95.5 111.5 96.4V98.3Z" fill="#2E3435"/>
<path d="M107.2 98.3H110.4V96.4C110.4 95.5 109.7 94.8 108.8 94.8C107.9 94.8 107.2 95.5 107.2 96.4V98.3Z" fill="#2E3435"/>
<path d="M103 98.3H106.2V96.4C106.2 95.5 105.5 94.8 104.6 94.8C103.7 94.8 103 95.5 103 96.4V98.3Z" fill="#2E3435"/>
<path d="M98.7 98.3H101.9V96.4C101.9 95.5 101.2 94.8 100.3 94.8C99.4 94.8 98.7 95.5 98.7 96.4V98.3Z" fill="#2E3435"/>
<path d="M94.5 98.3H97.7V96.4C97.7 95.5 97 94.8 96.1 94.8C95.2 94.8 94.5 95.5 94.5 96.4V98.3Z" fill="#2E3435"/>
<path d="M90.3 98.3H93.5V96.4C93.5 95.5 92.8 94.8 91.9 94.8C91 94.8 90.3 95.5 90.3 96.4V98.3Z" fill="#2E3435"/>
<path d="M115.995 88.5066H118.895V86.6066H115.995V88.5066Z" fill="#476168"/>
<path d="M111.716 88.5066H114.616V86.6066H111.716V88.5066Z" fill="#476168"/>
<path d="M107.435 88.5066H110.335V86.6066H107.435V88.5066Z" fill="#476168"/>
<path d="M103.155 88.5066H106.055V86.6066H103.155V88.5066Z" fill="#476168"/>
<path d="M98.8763 88.5066H101.776V86.6066H98.8763V88.5066Z" fill="#476168"/>
<path d="M94.4962 88.5066H97.3962V86.6066H94.4962V88.5066Z" fill="#476168"/>
<path d="M90.217 88.5066H93.117V86.6066H90.217V88.5066Z" fill="#476168"/>
<path d="M88.7241 84.9785H120.924V75.0785H88.7241V84.9785Z" fill="#E8DCD6"/>
<path d="M88.7241 77.246H120.924V75.046H88.7241V77.246Z" fill="#D4C5C1"/>
<path d="M88.7241 76.1376H120.924V75.0376H88.7241V76.1376Z" fill="#B7A6A3"/>
<path d="M88.7241 84.9919H120.924V81.8919H88.7241V84.9919Z" fill="#A09290"/>
<path d="M115.824 80.2605H119.724V78.8605H115.824V80.2605Z" fill="#476168"/>
<path d="M110.867 80.2605H114.767V78.8605H110.867V80.2605Z" fill="#476168"/>
<path d="M106.011 80.2605H109.911V78.8605H106.011V80.2605Z" fill="#476168"/>
<path d="M101.055 80.2605H104.955V78.8605H101.055V80.2605Z" fill="#476168"/>
<path d="M96.0993 80.2605H99.9993V78.8605H96.0993V80.2605Z" fill="#476168"/>
<path d="M91.2429 80.2605H95.1429V78.8605H91.2429V80.2605Z" fill="#476168"/>
<path d="M88.7241 75.0588H120.924V71.4588H88.7241V75.0588Z" fill="#284A67"/>
<path d="M113.976 110.56H118.876V107.76H113.976V110.56Z" fill="#32474C"/>
<path d="M113.976 110.576H118.876V109.176H113.976V110.576Z" fill="#283A3D"/>
<path d="M108.016 110.56H112.916V107.76H108.016V110.56Z" fill="#32474C"/>
<path d="M108.016 110.576H112.916V109.176H108.016V110.576Z" fill="#283A3D"/>
<path d="M102.155 110.56H107.055V107.76H102.155V110.56Z" fill="#32474C"/>
<path d="M102.155 110.576H107.055V109.176H102.155V110.576Z" fill="#283A3D"/>
<path d="M96.196 110.56H101.096V107.76H96.196V110.56Z" fill="#32474C"/>
<path d="M96.196 110.576H101.096V109.176H96.196V110.576Z" fill="#283A3D"/>
<path d="M90.2346 110.56H95.1346V107.76H90.2346V110.56Z" fill="#32474C"/>
<path d="M90.2346 110.576H95.1346V109.176H90.2346V110.576Z" fill="#283A3D"/>
<path d="M73.7 32.6H72.8V45.5H73.7V32.6Z" fill="#545050"/>
<path d="M90.8 63.2999H56V59.6999C56 50.0999 63.8 42.2999 73.4 42.2999C83 42.2999 90.8 50.0999 90.8 59.6999V63.2999Z" fill="#284A67"/>
<path d="M90.6 63.2999H56V109.4H90.6V63.2999Z" fill="#D4C5C1"/>
<path d="M65.5 63.2999H56V109.4H65.5V63.2999Z" fill="#E8DCD6"/>
<path d="M90.8 63.2999H81.3V109.4H90.8V63.2999Z" fill="#E8DCD6"/>
<path d="M90.7 63.2999H56V66.6999H90.7V63.2999Z" fill="#B7A6A3"/>
<path d="M90.6 81H56V109.4H90.6V81Z" fill="#E2D1C7"/>
<path d="M65.5 81H56V109.4H65.5V81Z" fill="#E8DCD6"/>
<path d="M90.6 81H81.1V109.4H90.6V81Z" fill="#E8DCD6"/>
<path d="M90.6 81H56V83.1H90.6V81Z" fill="#B7A6A3"/>
<path d="M63.6 87H58V104.7H63.6V87Z" fill="#476168"/>
<path d="M88.6 87H83V104.7H88.6V87Z" fill="#476168"/>
<path d="M63.6 87H58V89.4H63.6V87Z" fill="#5B7075"/>
<path d="M88.6 87H83V89.4H88.6V87Z" fill="#5B7075"/>
<path d="M79.5 87H67.2V104.7H79.5V87Z" fill="#B1A3A0"/>
<path d="M78.6 88H68.1V95.9H78.6V88Z" fill="#D9E1E2"/>
<path d="M78.3 109.4H68.6V95.7C68.6 93.2 70.6 91.2 73.1 91.2H73.9C76.4 91.2 78.4 93.2 78.4 95.7V109.4H78.3Z" fill="#2B2D2D"/>
<path d="M63.6 69.7999H57.4V76.0999H63.6V69.7999Z" fill="#476168"/>
<path d="M89 69.7999H82.8V76.0999H89V69.7999Z" fill="#476168"/>
<path d="M79.4 69.7999H67.2V76.0999H79.4V69.7999Z" fill="#476168"/>
<path d="M63.6 72.9H57.4V76.1H63.6V72.9Z" fill="#384C51"/>
<path d="M89 72.9H82.8V76.1H89V72.9Z" fill="#384C51"/>
<path d="M79.4 72.9H67.2V76.1H79.4V72.9Z" fill="#384C51"/>
<path d="M90.7 57.2999H56V63.2999H90.7V57.2999Z" fill="#E8DCD6"/>
<path d="M58.4 62.1H57V59.7C57 59.3 57.3 59 57.7 59C58.1 59 58.4 59.3 58.4 59.7V62.1Z" fill="#545050"/>
<path d="M61 62.1H59.6V59.7C59.6 59.3 59.9 59 60.3 59C60.7 59 61 59.3 61 59.7V62.1Z" fill="#545050"/>
<path d="M63.6 62.1H62.2V59.7C62.2 59.3 62.5 59 62.9 59C63.3 59 63.6 59.3 63.6 59.7V62.1Z" fill="#545050"/>
<path d="M66.2 62.1H64.8V59.7C64.8 59.3 65.1 59 65.5 59C65.9 59 66.2 59.3 66.2 59.7V62.1Z" fill="#545050"/>
<path d="M68.9 62.1H67.5V59.7C67.5 59.3 67.8 59 68.2 59C68.6 59 68.9 59.3 68.9 59.7V62.1Z" fill="#545050"/>
<path d="M71.5 62.1H70.1V59.7C70.1 59.3 70.4 59 70.8 59C71.2 59 71.5 59.3 71.5 59.7V62.1Z" fill="#545050"/>
<path d="M74.1 62.1H72.7V59.7C72.7 59.3 73 59 73.4 59C73.8 59 74.1 59.3 74.1 59.7V62.1Z" fill="#545050"/>
<path d="M76.7 62.1H75.3V59.7C75.3 59.3 75.6 59 76 59C76.4 59 76.7 59.3 76.7 59.7V62.1Z" fill="#545050"/>
<path d="M79.4 62.1H78V59.7C78 59.3 78.3 59 78.7 59C79.1 59 79.4 59.3 79.4 59.7V62.1Z" fill="#545050"/>
<path d="M82 62.1H80.6V59.7C80.6 59.3 80.9 59 81.3 59C81.7 59 82 59.3 82 59.7V62.1Z" fill="#545050"/>
<path d="M84.6 62.1H83.2V59.7C83.2 59.3 83.5 59 83.9 59C84.3 59 84.6 59.3 84.6 59.7V62.1Z" fill="#545050"/>
<path d="M87.3 62.1H85.9V59.7C85.9 59.3 86.2 59 86.6 59C87 59 87.3 59.3 87.3 59.7V62.1Z" fill="#545050"/>
<path d="M89.9 62.1H88.5V59.7C88.5 59.3 88.8 59 89.2 59C89.6 59 89.9 59.3 89.9 59.7V62.1Z" fill="#545050"/>
<path d="M90.7 109.4H56V110.7H90.7V109.4Z" fill="#B7A6A3"/>
<path d="M90.7 116.8H56V118.1H90.7V116.8Z" fill="#B7A6A3"/>
<path d="M90.7 110.7H56V116.8H90.7V110.7Z" fill="#E8DCD6"/>
<path d="M63.5 111.6H58.3V115.5H63.5V111.6Z" fill="#476168"/>
<path d="M88.4 111.6H83.2V115.5H88.4V111.6Z" fill="#476168"/>
<path d="M63.5 112.8H58.3V115.5H63.5V112.8Z" fill="#32474C"/>
<path d="M88.4 112.8H83.2V115.5H88.4V112.8Z" fill="#32474C"/>
<path d="M80.1 118.1H66.7L68.5 109.4H78.3L80.1 118.1Z" fill="#545656"/>
</g>
<path d="M46.3011 134.4V147H45.0231V136.92L40.0731 145.398H39.4431L34.4931 136.974V147H33.2151V134.4H34.3131L39.7851 143.742L45.2031 134.4H46.3011ZM59.5685 137.532V147H58.3445V145.272C58.0085 145.848 57.5465 146.298 56.9585 146.622C56.3705 146.934 55.6985 147.09 54.9425 147.09C53.7065 147.09 52.7285 146.748 52.0085 146.064C51.3005 145.368 50.9465 144.354 50.9465 143.022V137.532H52.2245V142.896C52.2245 143.892 52.4705 144.648 52.9625 145.164C53.4545 145.68 54.1565 145.938 55.0685 145.938C56.0645 145.938 56.8505 145.638 57.4265 145.038C58.0025 144.426 58.2905 143.58 58.2905 142.5V137.532H59.5685ZM66.5858 147.09C65.8178 147.09 65.0798 146.982 64.3718 146.766C63.6758 146.538 63.1298 146.256 62.7338 145.92L63.3098 144.912C63.7058 145.224 64.2038 145.482 64.8038 145.686C65.4038 145.878 66.0278 145.974 66.6758 145.974C67.5398 145.974 68.1758 145.842 68.5838 145.578C69.0038 145.302 69.2138 144.918 69.2138 144.426C69.2138 144.078 69.0998 143.808 68.8718 143.616C68.6438 143.412 68.3558 143.262 68.0078 143.166C67.6598 143.058 67.1978 142.956 66.6218 142.86C65.8538 142.716 65.2358 142.572 64.7678 142.428C64.2998 142.272 63.8978 142.014 63.5618 141.654C63.2378 141.294 63.0758 140.796 63.0758 140.16C63.0758 139.368 63.4058 138.72 64.0658 138.216C64.7258 137.712 65.6438 137.46 66.8198 137.46C67.4318 137.46 68.0438 137.544 68.6558 137.712C69.2678 137.868 69.7718 138.078 70.1678 138.342L69.6098 139.368C68.8298 138.828 67.8998 138.558 66.8198 138.558C66.0038 138.558 65.3858 138.702 64.9658 138.99C64.5578 139.278 64.3538 139.656 64.3538 140.124C64.3538 140.484 64.4678 140.772 64.6958 140.988C64.9358 141.204 65.2298 141.366 65.5778 141.474C65.9258 141.57 66.4058 141.672 67.0178 141.78C67.7738 141.924 68.3798 142.068 68.8358 142.212C69.2918 142.356 69.6818 142.602 70.0058 142.95C70.3298 143.298 70.4918 143.778 70.4918 144.39C70.4918 145.218 70.1438 145.878 69.4478 146.37C68.7638 146.85 67.8098 147.09 66.5858 147.09ZM81.9985 142.662H74.0785C74.1505 143.646 74.5285 144.444 75.2125 145.056C75.8965 145.656 76.7605 145.956 77.8045 145.956C78.3925 145.956 78.9325 145.854 79.4245 145.65C79.9165 145.434 80.3425 145.122 80.7025 144.714L81.4225 145.542C81.0025 146.046 80.4745 146.43 79.8385 146.694C79.2145 146.958 78.5245 147.09 77.7685 147.09C76.7965 147.09 75.9325 146.886 75.1765 146.478C74.4325 146.058 73.8505 145.482 73.4305 144.75C73.0105 144.018 72.8005 143.19 72.8005 142.266C72.8005 141.342 72.9985 140.514 73.3945 139.782C73.8025 139.05 74.3545 138.48 75.0505 138.072C75.7585 137.664 76.5505 137.46 77.4265 137.46C78.3025 137.46 79.0885 137.664 79.7845 138.072C80.4805 138.48 81.0265 139.05 81.4225 139.782C81.8185 140.502 82.0165 141.33 82.0165 142.266L81.9985 142.662ZM77.4265 138.558C76.5145 138.558 75.7465 138.852 75.1225 139.44C74.5105 140.016 74.1625 140.772 74.0785 141.708H80.7925C80.7085 140.772 80.3545 140.016 79.7305 139.44C79.1185 138.852 78.3505 138.558 77.4265 138.558ZM94.0497 137.532V147H92.8257V145.272C92.4897 145.848 92.0277 146.298 91.4397 146.622C90.8517 146.934 90.1797 147.09 89.4237 147.09C88.1877 147.09 87.2097 146.748 86.4897 146.064C85.7817 145.368 85.4277 144.354 85.4277 143.022V137.532H86.7057V142.896C86.7057 143.892 86.9517 144.648 87.4437 145.164C87.9357 145.68 88.6377 145.938 89.5497 145.938C90.5457 145.938 91.3317 145.638 91.9077 145.038C92.4837 144.426 92.7717 143.58 92.7717 142.5V137.532H94.0497ZM110.337 137.46C111.525 137.46 112.455 137.802 113.127 138.486C113.811 139.17 114.153 140.178 114.153 141.51V147H112.875V141.636C112.875 140.652 112.635 139.902 112.155 139.386C111.687 138.87 111.021 138.612 110.157 138.612C109.173 138.612 108.399 138.918 107.835 139.53C107.271 140.13 106.989 140.964 106.989 142.032V147H105.711V141.636C105.711 140.652 105.471 139.902 104.991 139.386C104.523 138.87 103.851 138.612 102.975 138.612C102.003 138.612 101.229 138.918 100.653 139.53C100.089 140.13 99.8071 140.964 99.8071 142.032V147H98.5291V137.532H99.7531V139.26C100.089 138.684 100.557 138.24 101.157 137.928C101.757 137.616 102.447 137.46 103.227 137.46C104.019 137.46 104.703 137.628 105.279 137.964C105.867 138.3 106.305 138.798 106.593 139.458C106.941 138.834 107.439 138.348 108.087 138C108.747 137.64 109.497 137.46 110.337 137.46Z" fill="black"/>
<defs>
<clipPath id="clip0">
<rect width="146.2" height="118.1" fill="white"/>
</clipPath>
</defs>
</svg>
