<svg width="331" height="205" viewBox="0 0 331 205" fill="none" xmlns="http://www.w3.org/2000/svg">
<g clip-path="url(#clip0)">
<path d="M325.902 126.728C325.567 141.256 323.044 161.716 318.034 177.109C317.876 177.603 317.699 178.115 317.541 178.609C316.553 181.469 315.477 184.135 314.312 186.535C313.995 187.206 313.66 187.859 313.307 188.477C311.684 191.443 309.902 193.896 307.944 195.662C307.292 196.262 306.604 196.774 305.916 197.197L305.898 197.215C305.88 197.233 305.863 197.233 305.845 197.25C305.828 197.268 305.792 197.286 305.775 197.286C305.439 197.498 305.087 197.674 304.751 197.833L285.859 197.957L259.116 198.133L253.136 198.168L187.321 197.921L92.4874 197.568H92.0993L40.1666 197.374C40.1666 197.374 27.06 186.571 21.7503 167.17C21.6092 166.676 21.4857 166.164 21.3622 165.652C20.1627 160.815 19.4747 155.484 19.5629 149.659C19.8981 130.294 24.2552 89.4105 69.9785 79.8605C112.862 70.8929 101.466 13.8926 164.689 19.4885C189.632 21.6951 200.71 43.6373 219.99 37.7943C271.588 22.154 297.678 37.0175 311.455 62.6668L311.543 62.8433C312.002 63.7083 312.443 64.5733 312.884 65.4559C314.683 69.1277 316.235 72.9936 317.611 77.0008C318.581 79.8252 319.446 82.7025 320.222 85.6505C320.328 86.0742 320.451 86.5155 320.557 86.9392C320.557 86.9568 320.557 86.9568 320.557 86.9745C321.58 90.964 322.462 95.0417 323.221 99.1724C323.344 99.8786 323.468 100.585 323.591 101.291C323.768 102.332 323.944 103.374 324.103 104.415C324.226 105.174 324.332 105.916 324.456 106.675C324.579 107.469 324.685 108.264 324.808 109.058C325.055 110.806 325.285 112.553 325.496 114.301C325.673 115.713 325.796 117.355 325.867 119.173C325.955 121.468 325.955 123.992 325.902 126.728Z" fill="#E8F2FA"/>
<path d="M328.336 107.434V197.815H133.607C133.607 197.815 130.237 190.136 134.736 184.646C139.234 179.156 146.219 181.769 147.842 184.646C147.225 172.29 153.84 166.906 162.695 166.535C171.551 166.164 175.678 176.526 175.678 176.526C175.678 176.526 174.937 165.405 186.033 164.169C197.146 162.916 198.134 172.537 198.134 172.537C198.134 172.537 198.258 160.18 211.241 158.291C224.03 156.438 228.228 163.587 228.334 163.781C228.246 163.516 225.371 154.496 229.428 144.222C231.457 139.085 235.214 133.63 241.935 128.811C262.274 114.195 278.75 130.435 278.75 130.435C278.75 130.435 274.252 120.726 283.813 114.071C293.356 107.416 302.529 120.903 302.529 120.903C302.529 120.903 304.063 100.602 328.336 107.434Z" fill="url(#paint0_linear)"/>
<path opacity="0.45" d="M328.336 120.938V197.833H197.976L195.118 191.531C195.118 191.531 197.676 177.55 215.986 172.042C234.297 166.553 245.657 171.566 245.657 171.566C245.657 171.566 243.911 144.999 264.744 137.284C285.594 129.57 307.556 142.81 307.556 142.81C307.556 142.81 311.172 125.157 328.336 120.938Z" fill="url(#paint1_linear)"/>
<path opacity="0.45" d="M328.336 107.434V112.076C323.062 109.552 315.829 110.594 311.208 114.089C305.598 118.343 305.475 130.947 301.594 127.699C297.731 124.451 296.602 117.708 289.987 117.461C283.372 117.213 281.008 121.838 282.754 128.582C284.501 135.325 281.996 137.69 278.15 134.884C274.287 132.077 266.543 125.828 252.554 128.458C238.583 131.088 238.195 140.815 233.203 143.198C231.562 143.975 230.328 144.24 229.428 144.257C231.457 139.12 235.214 133.666 241.935 128.846C262.274 114.23 278.75 130.47 278.75 130.47C278.75 130.47 274.252 120.762 283.813 114.107C293.356 107.451 302.529 120.938 302.529 120.938C302.529 120.938 304.063 100.602 328.336 107.434Z" fill="url(#paint2_linear)"/>
<path d="M328.336 146.905V197.833H157.28C157.774 196.015 158.709 194.161 160.402 192.643C165.694 187.93 172.186 191.602 173.35 194.708C174.673 182.405 182.047 178.133 190.867 179.156C199.669 180.18 202.121 191.054 202.121 191.054C202.121 191.054 203.127 179.968 214.293 180.48C225.459 180.992 224.947 190.648 224.947 190.648C224.947 190.648 227.011 178.45 240.118 178.645C253.048 178.839 256.065 186.535 256.135 186.747C256.065 186.323 252.889 165.476 275.063 154.355C297.184 143.251 310.837 161.292 311.172 161.733C311.084 161.416 308.421 151.371 318.74 146.376C322.409 144.575 325.673 145.263 328.336 146.905Z" fill="url(#paint3_linear)"/>
<path opacity="0.45" d="M328.336 166.058V197.833H261.286C261.092 194.144 262.256 188.707 269.383 184.911C281.114 178.662 298.842 187.153 298.842 187.153C298.842 187.153 295.72 177.833 305.21 171.566C314.7 165.299 324.685 173.667 324.685 173.667C324.685 173.667 324.456 168.741 328.336 166.058Z" fill="url(#paint4_linear)"/>
<path d="M155.48 187.93C155.48 187.93 154.74 189.236 155.304 190.684C155.657 191.602 155.692 192.555 155.392 193.367C155.145 194.055 154.228 194.161 153.822 193.561L149.571 187.153C149.2 186.606 149.395 185.864 149.977 185.564C150.488 185.3 151.07 184.982 151.511 184.717C152.464 184.152 153.822 184.576 153.822 184.576L155.48 187.93Z" fill="#2A3967"/>
<path d="M167.299 174.991C166.17 178.521 155.886 189.642 155.886 189.642C155.886 189.642 151.476 186.412 151.582 184.064C151.582 184.064 156.997 173.967 157.068 172.713C157.086 172.413 156.468 171.213 155.533 169.518C155.41 169.289 155.269 169.042 155.128 168.812C153.505 165.917 151.159 161.963 149.324 158.662C149.289 158.591 149.236 158.503 149.2 158.432C147.56 155.467 146.36 153.066 146.537 152.554C147.013 151.054 161.125 149.041 161.125 149.041C161.125 149.041 168.428 171.442 167.299 174.991Z" fill="#32478F"/>
<path d="M155.128 168.812C153.505 165.917 151.159 161.963 149.324 158.662C149.289 158.591 149.236 158.503 149.2 158.432V154.902L154.087 154.16L155.128 168.812Z" fill="#2A3967"/>
<path d="M137.329 191.39C137.329 191.39 136.553 194.603 137.346 195.926C137.84 196.774 138.034 197.709 137.858 198.557C137.717 199.263 136.817 199.528 136.341 198.998L131.137 193.332C130.696 192.855 130.767 192.096 131.296 191.69C131.754 191.354 132.284 190.948 132.672 190.613C133.518 189.907 134.93 190.119 134.93 190.119L137.329 191.39Z" fill="#2A3967"/>
<path d="M154.228 151.124C154.228 151.124 148.76 170.189 146.713 174.99C145.302 178.327 138.44 193.755 138.44 193.755C138.44 193.755 131.596 191.672 132.054 189.554C132.054 189.554 136.411 173.737 137.205 171.954C138.228 169.642 137.576 153.843 141.439 151.001C145.302 148.141 154.228 151.124 154.228 151.124Z" fill="#32478F"/>
<path d="M154.193 124.804C154.193 124.804 162.854 115.695 163.33 114.495C163.807 113.295 165.606 102.844 165.606 102.844L167.864 102.933C167.864 102.933 168.464 115.254 167.723 117.725C166.982 120.197 156.821 131.283 156.821 131.283L154.193 124.804Z" fill="#FFAE73"/>
<path d="M152.57 122.121C152.305 121.715 152.093 121.256 151.952 120.797C151.617 119.738 151.564 118.59 151.6 117.743C151.635 116.949 151.723 116.419 151.723 116.419L145.761 113.965C145.99 115.448 146.025 116.807 145.955 117.99C145.778 120.779 145.02 122.545 145.02 122.545L145.126 122.809C144.455 122.933 143.75 123.074 143.009 123.251L150.718 127.328L155.181 122.686C155.181 122.686 154.545 122.244 152.57 122.121Z" fill="#FFAE73"/>
<path d="M151.952 120.797C148.689 120.973 145.937 117.973 145.937 117.973L151.6 117.743C151.582 118.59 151.635 119.738 151.952 120.797Z" fill="#F5975D"/>
<path d="M141.104 125.139C141.104 125.139 133.924 117.284 130.572 114.936C130.572 114.936 125.386 104.645 124.981 103.974C124.575 103.303 122.44 104.768 122.44 104.768C122.44 104.768 124.875 114.971 126.797 117.902C128.72 120.832 134.753 130.682 138.44 130.771C142.109 130.877 141.104 125.139 141.104 125.139Z" fill="#FFAE73"/>
<path d="M153.381 118.855C153.381 118.855 147.031 121.115 144.367 116.137C141.492 110.77 143.803 106.481 145.99 106.039C150.329 105.122 153.028 106.587 153.946 108.299C154.863 109.994 156.892 117.637 153.381 118.855Z" fill="#FFAE73"/>
<path d="M150.259 116.137C150.259 116.137 151 117.072 152.676 116.543C152.676 116.543 154.21 116.137 153.752 115.113C153.769 115.113 151.935 114.883 150.259 116.137Z" fill="white"/>
<path d="M145.691 117.831C145.691 117.831 144.738 115.66 144.738 114.46C144.738 114.46 142.868 112.447 143.803 111.829C144.738 111.212 145.391 112.447 145.585 112.183C145.796 111.918 145.796 107.646 146.996 107.681C148.213 107.716 152.747 108.723 154.546 106.887C156.345 105.051 151.089 98.8901 143.327 102.085C135.565 105.263 137.929 114.001 145.691 117.831Z" fill="#2A3967"/>
<path d="M139.675 105.881C139.675 105.881 139.216 104.839 139.551 104.027C139.551 104.027 139.657 105.086 140.116 105.527C140.574 105.969 139.675 105.881 139.675 105.881Z" fill="#2A3967"/>
<path d="M139.781 105.104C139.781 105.104 138.775 105.069 138.387 105.881C138.387 105.881 139.04 105.351 139.781 105.792V105.104Z" fill="#2A3967"/>
<path d="M160.631 153.719C152.975 156.279 142.938 156.032 140.451 155.926C140.081 155.908 139.886 155.89 139.886 155.89C139.004 155.767 138.369 155.131 138.299 154.355C138.299 154.249 138.299 154.16 138.299 154.055L139.657 142.263L138.405 136.508L137.681 133.224L136.041 125.722C139.251 123.904 142.233 122.845 144.985 122.245C146.131 123.145 148.354 124.416 150.7 123.939C152.446 123.586 152.781 122.721 152.676 121.803C156.415 122.05 158.444 122.827 158.444 122.827L163.101 149.889C163.383 151.53 162.36 153.137 160.631 153.719Z" fill="#FF912B"/>
<path d="M132.142 127.081C132.142 127.081 136.958 129.835 137.487 132.289C137.487 132.289 144.155 126.958 145.002 122.245C145.002 122.245 143.573 122.245 141.827 122.933C141.827 122.933 140.927 122.598 140.01 122.651L136.306 120.126C136.288 120.109 132.319 121.503 132.142 127.081Z" fill="#FF912B"/>
<path d="M152.676 121.803C152.676 121.803 154.616 121.468 155.339 121.591C155.339 121.591 155.674 121.291 156.486 121.185L160.49 118.114C160.49 118.114 163.56 120.762 163.136 124.839C163.136 124.839 159.802 127.275 159.802 127.805C159.802 128.335 159.89 131.336 159.89 131.336L152.676 121.803Z" fill="#FF912B"/>
<path d="M165.606 102.844C165.606 102.844 165.571 101.873 165.182 101.097C164.812 100.302 164.812 98.1839 165.218 98.2722C165.623 98.3604 165.518 99.1372 165.941 98.9959C166.382 98.8724 166.894 96.3657 167.493 96.5422C168.093 96.7188 168.587 97.5131 168.552 99.3137C168.516 101.114 167.846 102.95 167.846 102.95L165.606 102.844Z" fill="#FFAE73"/>
<path d="M124.91 103.974C124.91 103.974 124.592 102.932 124.698 101.962C124.804 100.991 124.01 98.7311 123.605 98.9783C123.199 99.2254 123.605 100.002 123.093 100.02C122.581 100.055 121.1 97.5661 120.535 97.9897C119.971 98.3957 119.741 99.4196 120.447 101.308C121.153 103.215 122.546 104.91 122.546 104.91L124.91 103.974Z" fill="#FFAE73"/>
<path d="M120.994 56.5945C120.994 56.5945 134.295 79.8606 131.631 87.8749C128.967 95.8892 120.041 96.4188 120.041 96.4188L120.994 56.5945Z" fill="#FDDBBA"/>
<path d="M127.891 199.757H109.316C107.993 198.857 109.669 190.031 109.669 190.031C109.669 190.031 114.732 188.107 115.614 192.025C116.496 195.944 122.07 197.18 125.016 197.657C127.062 197.974 127.697 199.086 127.891 199.757Z" fill="#1E3865"/>
<path d="M100.355 199.757H81.7798C80.4568 198.857 82.1326 190.031 82.1326 190.031C82.1326 190.031 87.1953 188.107 88.0773 192.025C88.9593 195.944 94.5336 197.18 97.4795 197.657C99.5082 197.974 100.143 199.086 100.355 199.757Z" fill="#1E3865"/>
<path d="M122.899 109.694C122.899 109.694 122.07 120.109 121.082 132.642C119.741 149.659 116.16 191.849 116.16 191.849C116.16 191.849 113.797 193.861 108.575 192.767C108.575 192.767 104.13 178.203 102.807 161.592C102.789 161.328 102.772 161.045 102.736 160.763C101.502 143.851 99.5787 108.228 99.5787 108.228L122.899 109.694Z" fill="#25468F"/>
<path d="M123.181 106.092C123.181 106.092 122.07 120.109 121.082 132.642L102.789 161.592C102.772 161.327 102.754 161.045 102.719 160.763C101.484 143.851 99.5611 108.228 99.5611 108.228L123.181 106.092Z" fill="#1E3865"/>
<path d="M117.854 106.092C117.854 106.092 104.589 139.12 100.355 151.654C97.3384 160.568 88.8182 191.867 88.8182 191.867C88.8182 191.867 85.1138 192.996 82.0091 190.807C82.0091 190.807 78.8339 158.838 85.2373 149.818C88.6418 145.034 86.084 100.108 99.8433 99.7198C113.603 99.3491 117.854 106.092 117.854 106.092Z" fill="#25468F"/>
<path d="M111.927 57.3888C109.898 58.448 107.923 58.5186 106.211 58.1655C104.641 57.8301 103.301 57.1417 102.348 56.5238C101.36 55.8883 100.778 55.3411 100.778 55.3411C100.778 55.3411 100.849 55.2352 100.955 55.041C101.554 54.0171 103.371 50.3277 102.56 44.4141C102.542 44.3435 103.142 44.4494 104.024 44.6613C106.652 45.2791 111.944 46.7796 112.174 46.8502H112.191C112.191 46.8502 112.262 48.0859 112.474 50.3277C112.491 50.5219 112.509 50.7338 112.527 50.9456C112.562 51.2104 112.58 51.4928 112.615 51.7753C112.862 54.1054 111.927 57.3888 111.927 57.3888Z" fill="#FFAE73"/>
<path d="M112.474 50.3453C108.54 51.2456 102.683 45.4379 102.683 45.4379C103.107 45.1201 103.565 44.873 104.024 44.6788C106.652 45.2967 111.944 46.7971 112.174 46.8678H112.191C112.191 46.8678 112.262 48.1211 112.474 50.3453Z" fill="#F9924F"/>
<path d="M124.981 100.532C124.698 104.327 123.887 107.028 122.14 107.028C122.14 107.028 114.344 109.782 105.03 109.852C103.213 109.87 100.637 109.517 98.485 109.146C96.2976 108.776 94.5689 108.405 94.5689 108.405C92.699 107.981 90.6351 106.816 90.8997 104.68C91.0409 103.55 91.1467 102.085 91.2173 100.391C91.2173 100.285 91.2349 100.179 91.2349 100.055C91.4466 95.1124 91.4113 88.2809 91.4289 81.767C91.4466 77.7599 91.4819 73.8587 91.623 70.5753C91.623 70.5753 89.7884 57.6536 91.817 55.5352C94.2161 53.0639 101.237 52.2872 101.678 52.3931C101.801 52.3578 101.942 52.3401 102.084 52.3048C102.084 52.3048 108.187 55.6412 112.632 53.1521C112.632 53.1521 119.106 54.635 120.976 56.5944C121.629 57.2652 124.187 61.4489 124.257 66.0209C124.346 72.4112 124.099 79.6487 124.099 79.6487C124.169 80.6902 124.275 82.0142 124.398 83.55C124.522 85.174 124.681 87.0099 124.787 88.934C124.839 89.9049 124.91 90.8758 124.945 91.8643C125.122 94.9183 125.175 97.9722 124.981 100.532Z" fill="#FDDBBA"/>
<path d="M101.731 52.3931C101.731 52.3931 108.346 59.2246 113.073 57.8301C113.073 57.8301 113.708 56.9121 111.574 56.612C109.457 56.3119 107.146 56.4355 101.731 52.3931Z" fill="#F8CAA4"/>
<path d="M113.814 46.5501C113.814 46.5501 112.191 47.1326 110.145 47.415C107.129 47.8211 103.177 47.5739 101.925 43.9375C99.8257 37.7944 97.1444 34.1226 103.318 31.616C106.617 30.2744 108.734 30.2037 110.163 30.7157C111.415 31.157 112.139 32.0396 112.703 32.9222C113.903 34.7934 116.302 45.4909 113.814 46.5501Z" fill="#FFAE73"/>
<path d="M113.162 29.1975C114.555 29.5329 115.173 31.7395 113.85 32.6398C111.468 34.2815 108.575 33.6283 107.499 34.105C105.964 34.7934 105.682 37.353 105.665 38.1827C105.629 38.9947 105.523 39.6832 103.442 39.2066C103.107 39.1183 102.86 39.1536 102.683 39.2595C101.819 39.7714 102.93 42.2605 103.248 42.79C103.248 42.79 103.724 44.573 102.666 45.4379C102.542 45.5439 100.443 46.4618 95.4156 38.7476C94.6218 37.5296 93.8633 34.8111 95.0981 32.1808C96.3153 29.5506 100.09 26.3025 104.624 26.3025C108.222 26.3201 110.216 28.4914 113.162 29.1975Z" fill="#0B3563"/>
<path d="M113.867 42.5959C113.867 42.5959 113.991 43.3902 112.156 44.0257C112.156 44.0257 110.604 44.5553 110.322 43.7433C110.304 43.7433 111.539 42.5606 113.867 42.5959Z" fill="white"/>
<path d="M107.182 96.0127C107.182 96.0127 112.156 99.2961 114.079 99.5079C115.384 99.6491 120.553 99.4373 120.571 98.7841C120.606 97.8662 117.413 96.8953 116.584 96.5246C115.755 96.1539 115.102 95.7302 115.12 95.3772C115.12 95.0241 118.313 96.2069 117.977 95.4301C117.625 94.6534 114.679 93.2942 113.973 93.1706C113.267 93.047 110.957 93.8237 110.075 93.4001C109.175 92.9588 107.182 96.0127 107.182 96.0127Z" fill="#F9924F"/>
<path d="M109.369 93.1354C110.039 94.3711 107.182 96.0128 107.182 96.0128C107.182 96.0128 99.3141 99.7551 91.2526 100.391C91.2526 100.285 91.2702 100.179 91.2702 100.055C91.4819 95.1125 91.4466 88.2809 91.4643 81.7671C91.4643 81.7671 108.275 91.07 109.369 93.1354Z" fill="#F8CAA4"/>
<path d="M93.5811 54.3348C93.5811 54.3348 90.1765 55.7824 86.1193 63.3553C82.062 70.9283 78.2341 86.9746 79.8747 89.5871C81.5152 92.1997 95.3451 98.1663 107.411 96.5776C107.411 96.5776 110.41 93.8591 109.792 92.7999C109.792 92.7999 89.5767 84.5561 89.5591 83.5676C89.5415 82.579 96.7739 74.0881 97.1797 69.8515C97.603 65.6149 93.5811 54.3348 93.5811 54.3348Z" fill="#FDDBBA"/>
<path d="M113.585 73.5056C113.585 73.5056 113.338 76.1005 113.585 76.7713C113.832 77.4421 120.712 77.601 120.888 76.9655C121.064 76.33 121.329 74.4236 120.888 74.0882C120.447 73.7351 113.585 73.5056 113.585 73.5056Z" fill="#FFAE73"/>
<path d="M118.119 97.6014H116.566C112.738 97.6014 109.598 94.4592 109.598 90.6286V83.9383C109.598 80.1076 109.687 76.7007 113.797 75.4297L121.047 75.9769C127.309 77.7069 125.086 80.1076 125.086 83.9383V90.6286C125.104 94.4592 121.964 97.6014 118.119 97.6014Z" fill="#FFAE73"/>
<path d="M120.888 75.8886C120.888 75.8886 122.599 76.33 123.816 75.6592C125.58 74.6883 127.679 74.141 128.05 73.6997C128.667 72.9406 131.719 69.8514 131.719 69.8514L133.183 70.8223C133.183 70.8223 131.772 76.5418 130.643 77.5656C129.496 78.5895 127.468 82.2083 124.028 82.7379C122.229 82.985 120.888 75.8886 120.888 75.8886Z" fill="#FFAE73"/>
<path d="M131.719 69.8338C131.719 69.8338 131.19 68.3863 131.631 68.2098C132.072 68.0156 132.336 69.0748 132.336 69.0748C132.336 69.0748 133.483 66.6917 134.647 67.7155C135.812 68.7394 133.183 70.8047 133.183 70.8047L131.719 69.8338Z" fill="#FFAE73"/>
<path d="M113.55 75.5179C113.55 75.5179 111.839 75.9592 110.621 75.2884C108.857 74.3175 106.758 73.7703 106.388 73.329C105.77 72.5699 102.719 69.4807 102.719 69.4807L101.255 70.4516C101.255 70.4516 102.666 76.1711 103.795 77.1949C104.941 78.2188 106.97 81.8376 110.41 82.3672C112.209 82.6143 113.55 75.5179 113.55 75.5179Z" fill="#FFAE73"/>
<path d="M102.719 69.4631C102.719 69.4631 103.248 68.0156 102.807 67.8391C102.366 67.6449 102.101 68.7041 102.101 68.7041C102.101 68.7041 100.955 66.3209 99.7904 67.3448C98.6262 68.3687 101.255 70.434 101.255 70.434L102.719 69.4631Z" fill="#FFAE73"/>
<path d="M123.869 87.8925C123.869 87.8925 127.926 89.6754 130.061 90.2932C132.054 90.8758 134.524 92.288 134.577 92.4998C134.63 92.7293 134.647 94.7064 133.642 95.0947C132.636 95.4831 121.664 97.0542 120.041 96.4187C120.041 96.4187 121.206 88.5456 123.869 87.8925Z" fill="#FFAE73"/>
<path d="M134.436 88.3867C134.436 88.3867 132.495 88.5279 131.366 89.9401C131.366 89.9401 130.908 90.558 130.079 90.2932C130.079 90.2932 127.044 92.235 128.967 95.9067C128.967 95.9067 133.06 95.6419 133.642 95.0947C134.224 94.5475 134.436 88.3867 134.436 88.3867Z" fill="white"/>
<path d="M133.642 95.0947C133.642 95.0947 135.688 94.6181 136.059 92.5527C136.429 90.505 136.041 88.5632 134.7 88.3867C133.36 88.2102 132.495 88.9516 132.125 89.9225C131.754 90.9287 130.678 95.2006 133.642 95.0947Z" fill="#A8CCFF"/>
<path d="M117.907 59.666C117.907 59.666 121.999 59.4895 123.552 63.3731C125.104 67.2566 125.422 73.947 121.805 75.0061C119.336 75.7299 116.69 75.218 114.308 74.3C113.056 73.8234 112.632 72.7643 111.909 71.9169C107.287 66.5329 108.787 60.1426 117.907 59.666Z" fill="#FFAE73"/>
<path d="M109.616 86.9216C109.616 86.9216 117.642 88.6516 125.086 86.9216C125.086 86.9216 125.933 88.3691 126.039 88.8105C126.268 89.7284 125.845 91.2465 124.204 93.1707C121.77 95.9951 113.444 98.1134 110.533 96.2952C107.975 94.7064 107.393 89.3047 109.616 86.9216Z" fill="white"/>
<path d="M118.595 90.3462C120.094 90.8581 122.246 92.0762 124.204 93.1706C126.021 94.1768 128.12 96.101 128.12 96.3305C128.12 96.5599 127.715 98.5017 126.639 98.6606C125.563 98.8195 114.52 97.9192 113.073 96.9306C113.073 96.9306 111.398 96.454 111.186 94.5475C110.868 91.7408 112.227 88.122 118.595 90.3462Z" fill="#FFAE73"/>
<path d="M128.879 92.2704C128.879 92.2704 126.956 91.9703 125.545 93.1001C125.545 93.1001 124.963 93.5943 124.204 93.153C124.204 93.153 120.8 94.371 121.894 98.3782C121.894 98.3782 125.951 99.0313 126.639 98.6253C127.327 98.237 128.879 92.2704 128.879 92.2704Z" fill="white"/>
<path d="M126.639 98.643C126.639 98.643 128.738 98.6253 129.549 96.7012C130.361 94.7771 130.414 92.8 129.144 92.341C127.874 91.882 126.868 92.394 126.304 93.2766C125.721 94.1416 123.71 98.0781 126.639 98.643Z" fill="#A8CCFF"/>
<path d="M119.547 71.3696C119.547 71.3696 120.376 72.3405 121.453 71.9874C122.529 71.6344 122.705 70.4517 122.705 70.4517C122.705 70.4517 121.117 70.4517 119.547 71.3696Z" fill="white"/>
<path d="M114.344 68.8983C114.344 68.8983 112.756 67.5037 112.262 68.5099C111.75 69.5161 112.915 70.9989 113.85 71.0166C114.785 71.0342 114.979 69.3396 114.344 68.8983Z" fill="#F9924F"/>
<path d="M114.59 68.8277C114.59 68.8277 113.373 67.7686 113.003 68.5276C112.615 69.3043 113.497 70.4341 114.22 70.4341C114.908 70.4694 115.067 69.1808 114.59 68.8277Z" fill="#FFAE73"/>
<path d="M113.162 61.696C113.162 61.696 115.12 64.3615 119.247 64.2733C119.247 64.2733 120.87 64.0438 121.558 62.9846C121.558 62.9846 120.253 63.5142 119.565 63.2847C119.565 63.2847 123.446 62.6845 123.411 61.643C123.358 60.6015 121.329 59.4365 119.83 59.2599C118.648 59.1187 115.067 59.1364 113.973 59.7366C112.897 60.3367 112.862 61.3606 113.162 61.696Z" fill="#FF9223"/>
<path d="M114.908 59.4541C114.908 59.4541 110.41 60.1779 109.616 63.779C109.298 65.2265 109.969 67.3272 109.969 67.3272C109.969 67.3272 109.881 63.0552 113.479 62.8787C116.09 62.7552 117.819 62.4904 117.819 62.4904L114.908 59.4541Z" fill="#FF9223"/>
<path d="M115.561 80.9726C115.561 81.1139 115.437 81.2374 115.296 81.2374C115.155 81.2374 115.031 81.1139 115.031 80.9726C115.031 80.8314 115.155 80.7079 115.296 80.7079C115.437 80.6902 115.561 80.8138 115.561 80.9726Z" fill="#F9924F"/>
<path d="M122.317 80.9726C122.317 81.1139 122.193 81.2374 122.052 81.2374C121.911 81.2374 121.788 81.1139 121.788 80.9726C121.788 80.8314 121.911 80.7079 122.052 80.7079C122.211 80.6902 122.317 80.8138 122.317 80.9726Z" fill="#F9924F"/>
<path d="M127.997 86.0743C127.785 85.2623 127.221 84.6091 126.462 84.2561C125.492 83.8148 124.134 83.2146 123.516 83.091C122.511 82.9145 120.429 81.6964 120.271 82.3143C120.094 82.9498 121.735 83.6735 121.735 84.3797C121.735 85.0858 117.148 86.7804 117.272 87.5042C117.395 88.2279 118.701 89.852 120.482 89.4107C122.264 88.9694 126.674 87.9455 127.697 87.6631C128.244 87.5395 128.173 86.7804 127.997 86.0743Z" fill="#F9924F"/>
<path d="M185.38 116.949C185.38 116.949 182.205 117.16 180.917 117.972C179.63 118.767 178.448 119.085 178.677 119.455C178.907 119.826 181.164 119.032 181.217 119.455C181.27 119.879 179.224 121.115 178.642 121.221C178.077 121.309 176.772 121.503 177.001 122.244C177.231 122.986 179.418 123.215 181.164 123.268C182.911 123.321 187.162 120.497 187.162 120.497L185.38 116.949Z" fill="#FFAE73"/>
<path d="M187.691 120.938C190.902 120.938 201.504 113.859 205.067 110.982C205.455 110.664 205.755 110.417 205.949 110.205C207.272 108.846 211.858 102.173 215.104 96.2244C216.974 92.7998 218.403 89.6223 218.526 87.8218C218.932 81.4492 215.58 72.5522 215.58 72.5522C205.684 75.9945 204.644 83.9205 204.644 83.9205L199.563 102.827C199.299 103.833 198.716 104.733 197.923 105.386L184.498 116.543C184.04 118.467 186.615 120.938 187.691 120.938Z" fill="#FDDBBA"/>
<path d="M205.067 110.982C205.455 110.664 205.755 110.417 205.949 110.205C207.272 108.846 211.858 102.173 215.104 96.2244C215.528 92.6233 215.228 89.2516 213.764 86.9038C213.746 86.9038 205.331 101.732 205.067 110.982Z" fill="#F8CAA4"/>
<path d="M210.765 169.889L212.44 176.915L213.481 181.257L216.956 195.732C216.956 195.732 219.92 196.65 223.007 195.732C223.007 195.732 224.154 190.948 224.189 184.964C224.206 181.84 223.924 178.397 223.007 175.132C222.636 173.808 222.16 172.519 221.56 171.283C216.674 161.292 210.765 169.889 210.765 169.889Z" fill="#FFAE73"/>
<path d="M207.889 199.969H224.189C224.189 199.969 224.453 197.498 223.73 195.132C223.624 194.779 223.501 194.426 223.342 194.091C223.342 194.091 219.708 194.92 216.568 194.091C216.568 194.091 213.622 196.597 211.841 197.374C210.059 198.151 208.083 197.745 207.889 199.969Z" fill="#25468F"/>
<path d="M212.44 176.915L213.481 181.257C215.245 182.387 219.073 184.435 224.171 184.964C224.189 181.84 223.907 178.397 222.989 175.132C221.49 174.373 219.973 173.967 218.667 174.196C215.457 174.779 213.534 175.961 212.44 176.915Z" fill="#F48F4E"/>
<path d="M216.357 199.969H224.189C224.189 199.969 224.453 197.498 223.73 195.132C221.772 195.75 217.768 197.286 216.357 199.969Z" fill="#193871"/>
<path d="M223.765 169.889L225.441 176.915L226.482 181.257L229.957 195.732C229.957 195.732 232.921 196.65 236.008 195.732C236.008 195.732 237.154 190.948 237.19 184.964C237.207 181.84 236.925 178.397 236.008 175.132C235.637 173.808 235.161 172.519 234.561 171.283C229.657 161.292 223.765 169.889 223.765 169.889Z" fill="#FFAE73"/>
<path d="M236.343 194.108C236.343 194.108 232.709 194.938 229.569 194.108C229.569 194.108 226.623 196.615 224.842 197.392C223.06 198.168 221.084 197.745 220.908 199.969H237.207C237.19 199.969 237.525 196.703 236.343 194.108Z" fill="#25468F"/>
<path d="M225.441 176.915L226.482 181.257C228.246 182.387 232.074 184.435 237.172 184.964C237.19 181.84 236.907 178.397 235.99 175.132C234.491 174.373 232.974 173.967 231.668 174.196C228.44 174.779 226.517 175.961 225.441 176.915Z" fill="#F48F4E"/>
<path d="M208.419 177.903C214.504 181.769 239.871 178.998 240.083 175.255C240.083 175.255 238.83 165.882 238.407 161.945C238.23 160.321 238.142 159.015 238.248 158.326C240.894 140.85 243.099 120.285 242.834 116.348C242.799 115.801 242.764 115.501 242.764 115.501C242.764 115.501 240.859 115.342 237.966 115.236C229.551 114.901 212.74 114.954 209.953 120.462C207.113 126.075 207.043 158.662 207.043 158.662C207.025 167.665 208.419 177.903 208.419 177.903Z" fill="#FF912B"/>
<path d="M238.389 161.963C238.213 160.339 238.125 159.032 238.23 158.344C240.876 140.868 243.081 120.303 242.817 116.366C242.782 115.819 242.746 115.519 242.746 115.519C242.746 115.519 240.841 115.36 237.948 115.254C233.591 117.814 230.769 122.191 230.769 122.191C230.769 122.191 231.651 154.884 238.389 161.963Z" fill="#FC7600"/>
<path d="M226.747 47.256C226.747 44.9788 225.441 43.3371 222.919 43.1959C221.067 43.0723 218.526 44.2021 218.526 46.4793C218.526 48.7565 220.361 51.3867 222.636 51.3867C224.912 51.3691 226.747 49.5332 226.747 47.256Z" fill="#B5D1F1"/>
<path d="M223.236 63.673C223.236 63.673 233.115 54.7584 225.512 47.9269C224.771 47.2561 223.871 46.7971 222.901 46.5853C220.237 46.0027 214.328 45.1907 211.347 48.4917C208.119 52.0576 206.849 54.7584 209.53 58.0065C212.211 61.2546 223.236 63.673 223.236 63.673Z" fill="#D1E4FC"/>
<path d="M236.149 122.668C236.149 122.668 235.708 124.38 235.884 126.428C236.131 129.288 236.66 130.859 238.513 131.794C238.513 131.794 240.665 133.26 240.982 131.353C241.317 129.447 240.665 129.376 241.176 126.693C241.688 124.01 241.3 121.98 239.765 120.779L236.149 122.668Z" fill="#FFAE73"/>
<path d="M214.328 63.5847C214.328 63.5847 214.469 65.0499 214.716 67.0446C214.84 68.0155 214.981 69.11 215.157 70.2044C215.281 70.9988 215.422 71.7932 215.563 72.5699L218.932 83.9558L226.852 71.14C226.852 71.14 225 69.6042 222.478 61.2722C222.46 61.1839 222.442 61.131 222.442 61.131L214.328 63.5847Z" fill="#FFAE73"/>
<path d="M209.724 119.738C209.618 121.009 209.953 121.256 209.953 121.256C209.953 121.256 214.822 123.021 227.047 122.403C228.37 122.333 229.622 122.262 230.786 122.209C238.671 121.75 242.887 121.256 242.887 121.256C242.887 121.256 249.344 106.339 237.207 87.9806C235.831 85.8976 234.226 83.7793 232.339 81.6433C230.381 79.4014 229.94 76.4005 229.199 73.5584C228.987 72.7464 229.604 72.5699 229.287 71.7931C229.287 71.7931 227.082 71.1753 226.852 71.1753C225.6 72.2874 223.942 74.441 219.832 74.8647C217.045 75.1471 215.969 73.5937 215.563 72.6405C214.504 73.0288 213.411 73.682 212.511 74.1233C205.067 77.7068 204.379 84.6442 204.379 84.6442C204.379 84.6442 211.223 107.169 211.647 109.993C211.823 111.194 210.253 113.136 209.724 119.738Z" fill="#FDDBBA"/>
<path d="M214.716 67.027C214.84 67.9979 214.981 69.0923 215.157 70.1868C223.801 66.8152 222.689 62.1196 222.46 61.2369C222.442 61.1487 222.425 61.0957 222.425 61.0957C222.425 61.0957 217.997 64.2732 214.716 67.027Z" fill="#F48F4E"/>
<path d="M212.917 68.1567C212.917 68.1567 222.584 68.4744 222.689 62.4372C222.795 56.4 224.101 52.3929 217.944 51.9339C211.77 51.4749 210.535 53.7698 210.006 55.7645C209.477 57.7769 210.412 67.9272 212.917 68.1567Z" fill="#FFAE73"/>
<path d="M212.07 51.0336C212.07 51.0336 212.67 62.5255 224.471 61.4487C224.471 61.4487 224.224 46.0733 212.07 51.0336Z" fill="#D1E4FC"/>
<path d="M214.328 52.0399C214.328 52.0399 210.835 54.1759 209.742 57.6005C209.759 57.6005 205.861 52.1635 214.328 52.0399Z" fill="#D1E4FC"/>
<path d="M230.769 122.191C238.654 121.732 242.87 121.238 242.87 121.238C242.87 121.238 249.326 106.322 237.19 87.963C234.738 93.7001 228.952 108.987 230.769 122.191Z" fill="#F8CAA4"/>
<path d="M226.853 71.14C226.853 71.14 236.202 73.0642 240.383 77.8833C243.575 81.5904 247.068 99.6843 247.068 102.668C247.068 105.527 243.787 120.709 241.741 123.621C241.6 123.815 241.353 123.939 241.123 123.904L235.849 123.339C235.408 123.286 235.09 122.88 235.161 122.456L238.125 103.25L227.735 84.8031C227.717 84.8208 221.596 77.5656 226.853 71.14Z" fill="#FDDBBA"/>
<path d="M236.114 123.921C236.114 123.921 234.72 127.911 235.09 128.282C235.461 128.652 236.431 127.028 236.431 127.028L236.114 123.921Z" fill="#FFAE73"/>
<path d="M211.717 64.0967C211.717 64.0967 211.999 65.0852 212.458 65.1735C212.917 65.2618 213.658 65.4206 214.31 65.1735C214.963 64.9264 215.139 64.3968 215.139 64.3968C215.139 64.3968 213.675 63.8496 211.717 64.0967Z" fill="white"/>
<path d="M81.4975 122.456L78.9397 122.933C78.9397 122.933 71.9542 112.165 71.7602 108.881C71.5661 105.739 65.2862 92.0232 72.6422 83.4617C72.9773 83.0733 73.3302 82.7026 73.7182 82.3319C73.7359 82.3143 73.7535 82.2966 73.7535 82.2966C73.7535 82.2966 73.7712 82.3143 73.7888 82.3496C73.9299 82.5967 74.5297 83.6559 75.2 85.986C76.2761 89.6401 77.5991 96.4187 77.9166 108.14C77.9519 108.14 79.663 118.167 81.4975 122.456Z" fill="#FFA166"/>
<path d="M81.4975 122.456C81.4975 122.456 83.826 125.051 83.8966 125.987C83.9848 127.24 83.0322 129.288 82.3972 129.094C81.7621 128.9 81.6916 127.876 81.5152 127.099C81.3388 126.322 80.5097 125.493 80.545 125.846C80.5979 126.199 81.0742 127.576 80.9331 127.787C80.7743 127.999 80.5979 127.964 80.2451 127.311C79.8217 126.516 78.8868 125.404 79.0103 124.592C79.1338 123.71 79.1514 123.533 78.8339 122.474C78.4987 121.415 77.9519 120.144 77.9519 120.144L79.9276 119.72L81.4975 122.456Z" fill="#FFA166"/>
<path d="M26.8307 194.761L23.7789 196.333C23.7789 196.333 21.962 193.949 20.3391 191.09C19.1925 189.077 18.1517 186.835 17.9048 184.982C17.2874 180.498 12.5422 173.137 13.0361 171.884C13.53 170.63 22.9322 168.459 22.9322 168.459C22.9322 168.459 24.7668 181.045 25.984 189.183C26.3368 191.566 26.6367 193.561 26.8307 194.761Z" fill="#FFAE73"/>
<path d="M26.8307 194.761L23.7789 196.333C23.7789 196.333 21.962 193.949 20.3391 191.09C21.6092 191.001 23.8142 190.613 25.984 189.183C26.3368 191.566 26.6367 193.561 26.8307 194.761Z" fill="white"/>
<path d="M19.9157 171.336C19.9157 171.336 16.0702 176.773 13.7417 184.399C13.1948 186.2 11.325 188.442 9.43749 190.419C7.60291 192.343 5.7507 194.038 5.06273 194.885L1.95806 193.385C1.95806 193.385 3.05175 190.26 4.65701 187.418C5.25677 186.359 5.9271 185.353 6.6327 184.541C7.62055 183.428 7.30303 169.465 8.27324 168.547C9.27873 167.647 19.9157 171.336 19.9157 171.336Z" fill="#FFAE73"/>
<path d="M19.1396 151.23L11.2015 146.446C11.2368 146.429 11.4132 146.181 11.9953 144.469C12.2423 143.745 12.3834 143.092 12.454 142.598C12.454 142.545 12.4716 142.492 12.4716 142.457C12.5598 141.733 12.4892 141.309 12.4892 141.309L14.2356 141.945L17.4461 143.11C17.4108 143.922 17.5167 144.504 17.6931 144.893C18.1164 145.846 18.8926 145.864 18.9103 145.864L19.1396 151.23Z" fill="#FFAE73"/>
<path d="M17.6931 144.857C14.5884 145.122 12.842 143.092 12.454 142.58C12.401 142.51 12.3658 142.457 12.3658 142.457C12.3658 142.457 12.401 142.439 12.4716 142.421C12.7186 142.351 13.4065 142.139 14.2356 141.892L17.4461 143.057C17.4108 143.887 17.5167 144.469 17.6931 144.857Z" fill="#F99352"/>
<path d="M17.8518 143.745C17.8518 143.745 10.9545 144.504 10.8134 139.826C10.6723 135.148 9.64916 133.013 14.4297 132.607C19.2101 132.183 20.3391 133.913 20.6213 135.502C21.4857 140.427 19.7923 143.534 17.8518 143.745Z" fill="#FFAE73"/>
<path d="M4.97453 127.876C4.88633 127.664 4.81577 127.523 4.81577 127.523C4.88633 127.628 4.93925 127.752 4.97453 127.876Z" fill="#E25310"/>
<path d="M20.0745 146.287C20.0745 146.287 26.6896 141.203 27.3952 139.509C28.1008 137.832 31.1349 131.653 31.9287 131.018C31.9287 131.018 33.5692 130.806 33.8162 131.953C34.0455 133.101 32.2462 139.862 30.9938 141.909C29.7413 143.957 23.726 150.877 21.7327 151.883L20.0745 146.287Z" fill="#FFAE73"/>
<path d="M36.1623 127.911C36.0565 128.493 35.8095 129.129 35.5273 129.464C35.1568 129.906 34.5747 130.771 34.2043 131.336C33.9573 131.689 33.8162 131.953 33.8162 131.953L31.9463 131.035C31.9463 131.035 31.9111 127.84 33.1459 127.17C33.1811 127.152 33.2164 127.134 33.2517 127.134C33.7809 126.852 34.2748 126.658 34.7158 126.516C35.298 126.358 35.7566 126.34 36.0212 126.499C36.2505 126.622 36.2858 127.258 36.1623 127.911Z" fill="#FFAE73"/>
<path d="M14.7825 134.884C12.3481 134.266 13.2654 138.591 12.648 138.308C11.96 137.973 10.7781 137.973 10.9545 138.82C11.1486 139.65 11.4132 139.95 11.5543 140.48C11.6954 141.009 11.5543 142.033 10.9898 141.821C10.4253 141.609 5.13328 135.572 8.873 130.877C12.5951 126.181 23.726 129.076 20.2333 133.984C19.6159 134.848 16.5288 135.325 14.7825 134.884Z" fill="#25468F"/>
<path d="M26.4073 180.375C26.4073 180.375 19.6159 181.805 16.3701 181.363C12.013 180.781 8.14976 180.675 4.05724 178.468C4.05724 178.468 6.22698 167.682 6.35046 167.17C6.54451 166.411 7.92044 160.621 9.20817 155.273C10.3724 150.365 11.4661 145.828 11.4661 145.828C11.4661 145.828 14.6943 148.123 16.5818 147.311C18.4693 146.499 18.2223 145.581 18.2223 145.581C18.2223 145.581 19.4571 145.087 20.0392 145.264C20.6214 145.44 22.2619 144.522 22.2619 144.522C22.2619 144.522 24.0788 145.917 24.1494 148.935C24.167 149.377 24.1317 149.871 24.0612 150.383L22.7558 151.883C22.7735 151.883 25.7194 169.924 26.4073 180.375Z" fill="#FF912B"/>
<path d="M31.8758 198.504H22.7911C22.7911 198.504 22.6147 197.021 22.8264 195.75C22.844 195.591 22.9322 195.45 23.0557 195.326C23.5849 195.503 24.3787 195.626 25.2431 195.326C25.9487 195.062 26.4779 194.673 26.8483 194.32C26.9365 194.408 28.824 196.209 29.6884 196.209C30.5704 196.209 31.9287 196.633 31.8758 198.504Z" fill="#B63B39"/>
<path d="M9.43749 190.437C7.60291 192.361 5.7507 194.055 5.06273 194.903L1.95806 193.402C1.95806 193.402 3.05175 190.278 4.65701 187.436C5.22149 188.301 6.66799 190.084 9.43749 190.437Z" fill="white"/>
<path d="M5.73306 194.091C5.73306 194.091 5.62722 196.068 6.2799 196.332C6.93259 196.597 8.1674 197.25 8.1674 198.504H3.5986C3.5986 198.504 0.458649 196.95 0.0352847 196.297C-0.388079 195.644 2.13446 192.837 2.13446 192.837C2.13446 192.837 3.6868 194.532 5.73306 194.091Z" fill="#B63B39"/>
<path d="M13.2654 161.998C13.2654 161.998 15.2587 161.628 16.0349 162.139C16.8111 162.651 17.0404 163.446 16.4759 163.781C14.7119 164.805 12.9302 163.675 12.9302 163.675L13.2654 161.998Z" fill="#FFAE73"/>
<path d="M11.5719 146.446C11.5719 146.446 5.43317 147.752 3.01647 157.303C2.78715 158.238 3.01647 159.227 3.66916 159.95C4.78049 161.186 7.23247 162.987 12.9479 163.658C13.5653 163.728 13.6535 162.139 13.6535 162.139C13.5829 162.263 9.77265 159.668 8.14976 158.273C7.84988 158.026 7.86752 157.497 8.0792 157.161C8.62604 156.332 9.54333 154.866 9.86086 154.125C10.3195 153.066 13.3007 146.94 11.5719 146.446Z" fill="#FFAE73"/>
<path d="M11.5014 145.828C11.5014 145.828 7.88515 146.093 4.93925 150.012C4.93925 150.012 5.9271 153.631 10.6194 154.584C10.6194 154.584 13.4947 148.088 11.5014 145.828Z" fill="#FF912B"/>
<path d="M10.6194 129.429C10.6194 129.429 7.14428 128.476 4.81578 131.018C2.48728 133.56 5.87419 138.202 2.61076 140.762C-0.652671 143.304 0.63506 145.21 1.95807 145.828C4.93926 147.223 9.50806 145.493 8.57313 143.127C6.79148 138.608 9.41986 135.148 9.41986 135.148L10.6194 129.429Z" fill="#25468F"/>
<path d="M57.8068 169.201C57.8068 169.236 57.8068 169.253 57.8245 169.289C57.8245 169.342 57.8421 169.395 57.8421 169.43C58.1949 172.837 58.9534 176.297 59.8354 179.51C62.1639 187.895 65.4979 194.285 65.4979 194.285L68.2674 194.02C68.2674 194.02 66.7504 187.577 66.6269 178.821C66.5387 172.696 67.1208 165.44 69.3788 158.485C70.7018 154.408 71.7425 150.524 72.5716 146.888C75.2529 135.025 75.6057 125.775 75.5352 120.974C75.4999 118.59 75.3764 117.302 75.3764 117.302L59.8001 119.508L59.0769 119.614C59.1827 126.799 59.2357 136.543 59.2533 144.169C59.2533 146.005 59.2533 147.717 59.2709 149.253C59.2709 151.371 59.2709 153.119 59.2709 154.337C59.2709 155.502 59.2709 156.173 59.2709 156.173C58.3889 158.221 57.895 160.498 57.7186 162.916C57.5246 164.911 57.5951 167.047 57.8068 169.201Z" fill="#FF912B"/>
<path d="M63.7868 191.319C63.7163 190.949 63.6281 190.49 63.5222 189.995C62.3933 187.347 60.9997 183.676 59.8354 179.51C63.7515 179.845 65.692 179.316 66.6269 178.804C66.6798 182.211 66.9444 185.247 67.2267 187.718C67.6324 189.254 68.3909 191.708 69.2553 192.732C70.6312 194.373 72.1306 195.768 73.9652 196.703C74.1769 196.809 69.3964 198.486 66.9621 198.221C64.5277 197.974 62.5167 197.533 62.7284 196.015C62.799 195.485 62.9401 194.938 63.1518 194.461C63.5399 193.579 63.9985 192.414 63.7868 191.319Z" fill="#FFAE73"/>
<path d="M57.8068 169.2C57.5599 166.341 62.4285 156.473 62.4285 156.473L59.2357 154.302C59.2357 155.467 59.2357 156.138 59.2357 156.138C58.3537 158.185 57.8597 160.462 57.6833 162.881C57.5246 164.911 57.5951 167.047 57.8068 169.2Z" fill="#ED770D"/>
<path d="M67.1385 198.645C69.5904 198.521 68.9025 199.086 72.307 199.351C75.7116 199.616 76.9464 198.557 77.1404 198.08C77.3168 197.656 75.6939 197.197 73.9652 196.65L73.9476 196.686C73.9476 196.686 71.6896 197.727 68.9025 197.268C66.6269 196.897 64.3689 195.785 62.799 195.521C62.6579 196.032 62.5344 196.544 62.5344 197.092C62.552 198.627 64.7041 198.786 67.1385 198.645Z" fill="#0D458E"/>
<path d="M59.0593 119.579C59.1651 126.764 59.218 136.508 59.2357 144.134C59.2357 145.97 62.4462 154.937 62.4462 156.455C65.0393 152.748 67.2796 127.187 70.8782 120.709C70.8429 118.326 75.3588 117.249 75.3588 117.249L59.7825 119.455L59.0593 119.579Z" fill="#ED770D"/>
<path d="M56.5896 52.6049C56.5014 52.2871 55.3195 48.633 49.6394 49.8511C49.6394 49.8511 52.4795 49.498 53.2556 50.5925C53.2556 50.5925 50.9977 49.551 49.5865 50.4159C48.1753 51.2809 47.946 54.1936 48.1576 55.0762C48.3693 55.9589 49.9217 58.5891 50.9624 58.5891C51.3505 58.5891 51.7739 58.4655 52.1443 58.289C51.9856 58.7656 51.8444 59.2599 51.721 59.8248C50.6273 64.9794 54.0494 68.9159 55.8311 67.945C56.9601 67.3272 57.8244 69.3219 57.8244 69.3219L67.2619 56.8062C67.2796 56.8062 60.6998 48.8978 56.5896 52.6049Z" fill="#1E3865"/>
<path d="M71.4074 113.453C67.1208 99.755 71.8131 96.7717 71.3721 89.9224C70.9311 83.0732 65.6214 75.6944 65.6214 75.6944C65.6214 75.6944 65.3568 75.6591 64.8982 75.6238C64.5454 75.4296 64.4395 73.9468 64.4572 72.3757C64.4572 70.4869 64.5983 68.4922 64.5983 68.4922L58.2302 67.2388L57.8597 67.1682C57.8774 71.599 56.7131 74.5117 55.8664 75.1825C55.0726 75.2708 51.6857 75.6944 49.6041 76.5771C48.8103 76.9125 48.2106 77.3008 47.9989 77.7598C46.2525 81.6081 44.5061 91.2994 43.289 98.2192C42.601 102.067 42.0894 105.068 41.8072 105.704C41.0487 107.469 38.7378 117.213 36.7445 122.015L38.5438 124.222C38.5438 124.222 47.6108 108.934 48.3693 105.316C48.6163 104.15 49.2161 101.803 49.9393 99.1724C50.0451 98.7664 50.151 98.3781 50.2745 97.9544C51.5269 101.344 52.162 102.915 52.1267 104.38C52.0738 106.463 50.6625 108.334 47.7166 114.972C46.0761 118.626 75.7821 127.434 71.4074 113.453Z" fill="#FFAE73"/>
<path d="M64.5983 69.4984C64.5983 69.4984 64.4571 71.4932 64.4571 73.382C60.8938 73.2761 59.024 70.028 58.2478 68.2274L64.5983 69.4984Z" fill="#F48F4E"/>
<path d="M57.5951 67.539C57.5951 67.539 55.7253 64.591 55.2843 62.0667C54.9668 60.2661 55.884 53.5934 62.5873 54.5467C62.5873 54.5467 64.5277 54.7408 66.3623 55.9765C67.8088 56.9651 69.9256 59.0834 67.5618 64.9088L66.9444 66.8682L57.5951 67.539Z" fill="#1E3865"/>
<path d="M65.7978 71.2813C65.7978 71.2813 57.3835 71.4225 57.3658 66.1797C57.3658 60.9369 56.2721 57.4063 61.6524 57.1062C67.0326 56.7885 68.0734 58.8009 68.4968 60.5485C68.9201 62.2785 67.9852 71.1048 65.7978 71.2813Z" fill="#FFAE73"/>
<path d="M61.5818 158.697C61.0526 159.703 55.7429 166.076 50.4332 173.137C49.9746 173.737 49.4983 174.39 49.022 175.079C45.8821 179.492 42.2658 185.264 40.1137 188.071C38.1557 190.631 36.3917 187.436 37.3795 185.141C38.9495 181.54 40.2725 175.255 41.7719 170.63C42.1247 169.554 42.4775 168.583 42.848 167.735C44.4708 164.099 47.2227 158.997 51.0859 155.043C51.7562 154.355 45.9173 139.103 46.3407 126.481C46.4995 121.485 47.2051 117.09 48.7927 114.407L64.6336 115.201C64.6336 115.219 66.7857 148.918 61.5818 158.697Z" fill="#FF912B"/>
<path d="M68.2498 57.6182C66.9444 56.0471 65.9742 56.3825 65.4097 56.8592C60.8938 54.3525 57.8421 58.0772 57.8421 58.0772C57.2776 61.8372 54.561 64.0085 54.561 64.0085C54.561 64.0085 56.0957 64.9617 59.6414 64.0438C60.7174 63.7613 61.6876 63.0023 62.4991 62.0667C61.0702 64.4674 59.1122 66.1974 59.1122 66.1974C63.3458 64.238 65.0393 58.3596 65.198 57.7418C65.7096 58.2008 66.7327 59.207 67.0326 60.1955C67.456 61.5371 67.65 64.2909 68.4438 64.185C68.4615 64.1674 70.2078 59.9837 68.2498 57.6182Z" fill="#1E3865"/>
<path d="M36.9738 121.538C36.9738 121.538 36.1976 123.357 35.4038 123.851C34.61 124.363 34.0984 125.404 34.3101 126.375C34.5218 127.346 34.0984 129.023 35.1039 129.023C36.1094 129.023 38.4732 124.557 38.7731 123.71C39.073 122.862 39.3199 122.703 39.3199 122.703L36.9738 121.538Z" fill="#FFAE73"/>
<path d="M45.7233 120.673C45.688 121.221 45.7233 121.662 45.8291 121.962C46.1643 123.039 47.3285 123.533 50.1157 123.251C51.8268 123.074 52.5853 120.144 52.9205 117.637C53.9436 121.221 55.3901 123.215 57.2423 123.639C59.9589 124.257 74.6179 125.298 75.5175 118.643C76.5054 111.335 72.5716 99.0489 72.4128 92.0585C72.8186 89.5871 72.9597 87.4335 72.9068 85.58C72.8009 80.6019 71.3721 77.8128 70.2607 76.7007C69.9432 76.4535 69.6433 76.3123 68.3909 76.0828C67.7558 75.9769 66.8738 75.8357 65.6214 75.6768C65.6214 75.6768 65.0745 75.6062 65.0922 75.6239C65.3215 76.0475 67.8088 79.7899 67.5794 81.0256C67.3325 82.3142 57.7539 82.1377 56.9954 81.4139C56.2368 80.7078 54.2611 75.3414 54.2611 75.3414C54.2611 75.3414 50.3627 75.7827 48.4575 77.195C48.4575 77.195 48.4575 77.2126 48.4752 77.2126C48.2458 77.3891 48.0694 77.5657 47.9812 77.7422C45.9526 81.6964 43.924 91.6701 42.4951 98.7841C45.9526 100.726 48.9691 100.143 49.9216 99.8962C48.6868 108.14 45.8997 116.931 45.7233 120.673Z" fill="white"/>
<path d="M63.3811 68.1745C63.3811 68.1745 63.5399 68.8277 65.1451 68.7041C65.1451 68.7041 66.5034 68.5982 66.4505 67.8921C66.4505 67.8921 65.1275 67.3978 63.3811 68.1745Z" fill="white"/>
<path d="M49.0044 175.079C45.8644 179.492 42.2482 185.264 40.0961 188.071C38.138 190.631 36.374 187.436 37.3619 185.141C38.9318 181.54 40.2548 175.255 41.7543 170.63C42.7774 172.184 44.8589 174.179 49.0044 175.079Z" fill="#FFAE73"/>
<path d="M38.4026 123.339C38.4026 123.339 38.8613 125.351 38.5261 125.969C38.191 126.605 38.4203 127.417 37.7323 127.187C37.062 126.975 38.4026 123.339 38.4026 123.339Z" fill="#FFAE73"/>
<path d="M33.4987 186.218C32.2286 187.047 33.2517 188.936 34.6629 190.931C36.0918 192.926 35.2274 192.661 36.8327 195.662C38.4379 198.68 39.9902 199.157 40.5018 199.069C40.9428 198.98 40.4842 197.374 40.0079 195.626C39.955 195.415 39.8844 195.185 39.8315 194.973C39.3199 192.996 39.9726 191.125 40.2901 189.024C40.59 187.03 43.4654 183.058 43.4654 183.058L41.4015 178.874C41.4015 178.874 38.8613 182.511 37.7147 183.993C37.0443 184.858 35.8624 185.3 34.9452 185.6C34.4689 185.741 33.9573 185.918 33.4987 186.218Z" fill="#FFAE73"/>
<path d="M34.6806 190.931C36.1094 192.926 35.245 192.661 36.8503 195.662C38.4556 198.68 40.0079 199.157 40.5195 199.069C40.9605 198.981 40.5018 197.374 40.0255 195.627H39.9902C39.9902 195.627 37.8911 194.267 36.7797 191.672C35.8801 189.554 35.5802 187.047 34.9628 185.582C34.4689 185.741 33.9573 185.918 33.4987 186.2C32.2286 187.047 33.2517 188.936 34.6806 190.931Z" fill="#0D458E"/>
<path d="M69.1671 76.2417C69.1671 76.2417 71.7073 76.2241 73.4713 79.6487C75.2353 83.0556 77.9166 94.1591 77.9166 94.1591C77.9166 94.1591 74.8119 97.6367 71.1604 96.8423C67.5089 96.0479 69.1671 76.2417 69.1671 76.2417Z" fill="white"/>
<path d="M258.622 199.757L258.358 121.591C258.358 121.591 257.758 115.96 252.854 115.925C247.615 115.89 247.28 121.521 247.28 121.521C247.28 121.521 247.35 122.015 247.897 122.015C248.462 122.015 248.55 121.538 248.55 121.538C248.55 121.538 248.815 117.196 252.836 117.231C256.611 117.249 257.088 121.591 257.088 121.591L256.629 199.757H258.622Z" fill="#1E3865"/>
<path d="M255.941 199.74L259.205 199.757L258.94 196.35C258.94 196.35 258.975 195.874 258.305 195.838C257.688 195.803 256.488 195.715 256.364 196.085C256.276 196.421 255.941 199.74 255.941 199.74Z" fill="#1E3865"/>
<path d="M252.836 111.776L252.607 112.889C252.607 112.889 247.086 112.836 245.763 118.749C245.763 118.749 245.392 121.203 247.174 120.691C248.956 120.179 248.691 118.908 251.196 118.237C253.718 117.567 255.359 117.037 255.747 115.219L256.17 113.189L252.836 111.776Z" fill="#FFAE73"/>
<path d="M272.646 63.4436C272.646 63.4436 271.147 69.1807 269.859 74.4412C269.348 76.5595 268.854 78.5896 268.501 80.143C268.148 81.7317 267.954 82.8085 268.025 82.9321C269.118 84.715 267.037 95.5537 265.432 99.4903C265.29 99.8433 265.096 100.249 264.867 100.708C262.627 105.033 256.682 113.524 256.682 113.524C256.682 113.524 255.024 113.683 253.93 113.277C253.031 112.924 252.413 111.812 252.413 111.812C252.942 110.964 255.13 100.955 257.917 95.3419C259.099 92.9411 260.969 70.6459 263.262 67.6449C265.185 65.1206 272.646 63.4436 272.646 63.4436Z" fill="#FF912B"/>
<path d="M268.042 82.9144C269.136 84.6973 267.054 95.536 265.449 99.4726C265.308 99.8256 265.114 100.232 264.885 100.691C262.821 91.3171 266.402 78.0599 266.402 78.0599C267.266 78.413 267.972 79.1367 268.519 80.1253C268.166 81.714 267.954 82.7908 268.042 82.9144Z" fill="#FC7600"/>
<path d="M282.719 191.284C282.719 191.284 283.231 199.757 281.625 199.863C281.414 199.881 273.511 199.828 273.511 199.828L263.315 199.775C263.315 199.775 263.509 197.286 266.455 196.792C269.401 196.297 274.357 194.25 276.157 190.366C278.08 186.271 282.719 191.284 282.719 191.284Z" fill="#06294C"/>
<path d="M298.048 191.372C298.048 191.372 298.56 199.846 296.955 199.951C296.743 199.969 288.84 199.916 288.84 199.916L278.644 199.863C278.644 199.863 278.838 197.374 281.784 196.88C284.73 196.386 289.687 194.338 291.486 190.454C293.409 186.377 298.048 191.372 298.048 191.372Z" fill="#0B3563"/>
<path d="M283.319 170.86C283.548 174.443 284.024 179.051 283.83 183.217C283.548 189.024 283.336 193.914 283.336 193.914C279.508 195.185 272.488 193.579 272.488 193.579C272.488 193.579 270.089 178.892 268.095 167.153C267.213 161.892 266.472 157.356 266.19 155.202C265.308 148.264 267.425 111.423 267.425 111.423C267.425 111.423 277.815 104.839 282.084 108.299C286.335 111.741 288.946 115.113 281.837 152.572C281.308 155.396 282.807 162.828 283.319 170.86Z" fill="#25468F"/>
<path d="M283.319 170.86C283.548 174.443 283.971 180.18 283.777 184.329C280.196 180.498 273.158 172.413 268.095 167.135C267.213 161.875 266.472 157.338 266.19 155.184C265.308 148.247 267.425 111.406 267.425 111.406C267.425 111.406 277.815 104.821 282.084 108.281C286.335 111.724 288.946 115.095 281.837 152.554C281.308 155.396 282.807 162.828 283.319 170.86Z" fill="#1E3865"/>
<path d="M276.792 112.218C276.792 112.218 277.497 149.129 278.909 155.979C280.32 162.828 287.711 194.197 287.711 194.197C287.711 194.197 294.82 194.885 298.542 193.314C298.542 193.314 298.383 178.803 297.184 170.277C296.055 162.316 293.991 155.025 294.308 152.148C298.524 114.248 295.667 111.088 291.151 107.981C286.653 104.857 276.792 112.218 276.792 112.218Z" fill="#25468F"/>
<path d="M290.833 115.536C290.833 115.536 288.346 120.462 293.056 124.275C293.056 124.275 295.102 125.687 295.42 123.869C295.737 122.05 295.385 122.686 295.896 120.126C296.408 117.567 295.79 114.919 294.326 113.754L290.833 115.536Z" fill="#FFAE73"/>
<path d="M270.424 55.0586C270.424 55.0586 273.211 59.5777 272.611 63.6025L276.792 73.5939L284.254 62.1197C284.254 62.1197 280.461 57.6359 279.014 51.6693L270.424 55.0586Z" fill="#FFAE73"/>
<path d="M269.154 58.748C269.154 58.748 279.508 59.2599 279.738 53.0462C279.967 46.8325 282.789 42.7018 275.045 42.1192C268.677 41.625 266.543 44.2728 265.961 46.3382C265.379 48.3683 265.326 58.395 269.154 58.748Z" fill="#FFAE73"/>
<path d="M294.167 114.107C291.945 114.301 288.875 114.53 285.153 114.742C284.412 114.777 283.636 114.83 282.842 114.866C271.623 115.431 267.178 113.577 267.178 113.577C267.178 113.577 266.878 113.33 266.984 112.024C267.513 105.245 268.96 103.233 268.801 101.944C268.43 99.0489 261.533 75.3415 261.533 75.3415C261.533 75.3415 261.445 67.8744 269.771 64.4145C270.635 64.0614 271.57 63.7437 272.629 63.4789C272.982 64.4498 273.969 66.0738 276.527 65.7914C280.302 65.3677 283.001 63.1611 284.165 62.0314C284.377 62.0314 284.448 62.0314 284.448 62.0314C284.73 62.8257 284.942 63.6554 285.136 64.5027C285.806 67.4507 286.176 70.5399 287.976 72.8524C289.74 75.1473 291.257 77.4068 292.527 79.6134C293.603 81.4493 294.52 83.2498 295.296 85.0151C302.546 101.326 296.796 113.877 294.167 114.107Z" fill="#FF912B"/>
<path d="M294.167 114.107C291.945 114.301 288.875 114.53 285.153 114.742C284.183 96.454 291.715 78.9602 291.715 78.9602C291.998 79.1544 292.262 79.3839 292.509 79.631C293.797 80.902 294.697 82.7732 295.279 85.0327C297.466 93.3118 295.526 106.763 294.167 114.107Z" fill="#FC7600"/>
<path d="M265.855 52.7991C265.855 52.7991 263.791 60.7957 267.213 61.9431C270.635 63.0905 279.72 62.2432 279.773 52.4283C279.773 52.4283 274.992 55.2351 272.717 55.1645C270.441 55.0762 268.977 53.7523 266.878 54.7761C266.843 54.7585 266.084 54.7055 265.855 52.7991Z" fill="#D1E4FC"/>
<path d="M284.448 62.0314C284.448 62.0314 291.68 62.2432 295.473 67.2389C298.383 71.0695 301.347 91.5642 301.329 94.6358C301.312 97.725 297.907 114.707 296.055 116.543C296.055 116.543 294.855 116.843 293.268 116.525C291.574 116.19 290.586 115.201 290.586 115.201C290.586 115.201 291.609 96.2775 291.627 94.4946C291.645 91.9173 283.707 76.1358 283.707 76.1358C283.707 76.1358 279.597 68.6335 284.448 62.0314Z" fill="#FF912B"/>
<path d="M279.297 44.061C279.12 43.4255 278.344 43.0901 278.344 43.0901C272.523 40.5128 268.254 43.2666 268.254 43.2666C271.852 38.4828 280.479 39.5419 282.26 43.8845C285.188 50.9808 279.755 52.4107 279.755 52.4107C279.755 52.4107 274.357 50.0982 277.497 47.2561C278.538 46.3205 279.05 45.4732 279.226 44.7495C279.279 44.52 279.314 44.2905 279.297 44.061Z" fill="#D1E4FC"/>
<path d="M267.548 56.0472C267.548 56.0472 268.236 57.124 269.418 57.0887C270.618 57.0534 271.165 56.0472 271.165 56.0472C271.165 56.0472 269.154 55.6589 267.548 56.0472Z" fill="white"/>
<path d="M250.931 41.06C262.262 41.06 271.447 31.8684 271.447 20.53C271.447 9.1916 262.262 0 250.931 0C239.601 0 230.416 9.1916 230.416 20.53C230.416 31.8684 239.601 41.06 250.931 41.06Z" fill="url(#paint5_linear)"/>
</g>
<defs>
<linearGradient id="paint0_linear" x1="221.611" y1="130.454" x2="268.846" y2="242.277" gradientUnits="userSpaceOnUse">
<stop offset="2.7e-07" stop-color="#84F1C7"/>
<stop offset="1" stop-color="#4084B6"/>
</linearGradient>
<linearGradient id="paint1_linear" x1="328.409" y1="244.952" x2="235.467" y2="123.239" gradientUnits="userSpaceOnUse">
<stop offset="2.7e-07"/>
<stop offset="1" stop-opacity="0"/>
</linearGradient>
<linearGradient id="paint2_linear" x1="250.086" y1="48.8419" x2="299.853" y2="181.742" gradientUnits="userSpaceOnUse">
<stop offset="2.7e-07" stop-color="white"/>
<stop offset="1" stop-color="white" stop-opacity="0"/>
</linearGradient>
<linearGradient id="paint3_linear" x1="238.617" y1="164.339" x2="284.723" y2="252.553" gradientUnits="userSpaceOnUse">
<stop offset="2.7e-07" stop-color="#84F1C7"/>
<stop offset="1" stop-color="#4084B6"/>
</linearGradient>
<linearGradient id="paint4_linear" x1="337.116" y1="263.169" x2="277.14" y2="148.171" gradientUnits="userSpaceOnUse">
<stop offset="2.7e-07"/>
<stop offset="1" stop-opacity="0"/>
</linearGradient>
<linearGradient id="paint5_linear" x1="273.629" y1="50.281" x2="231.745" y2="-4.569" gradientUnits="userSpaceOnUse">
<stop offset="2.7e-07" stop-color="#FFBD6D"/>
<stop offset="1" stop-color="#FFEE8B"/>
</linearGradient>
<clipPath id="clip0">
<rect width="331" height="205" fill="white"/>
</clipPath>
</defs>
</svg>
