<svg width="351" height="198" viewBox="0 0 351 198" fill="none" xmlns="http://www.w3.org/2000/svg">
<g clip-path="url(#clip0)">
<path d="M327.973 106.954C327.617 118.717 324.991 135.276 319.757 147.73C319.579 148.145 319.421 148.54 319.244 148.934C318.217 151.243 317.091 153.415 315.866 155.349C315.531 155.901 315.175 156.415 314.82 156.928C313.121 159.336 311.265 161.329 309.231 162.75C308.54 163.224 307.829 163.658 307.098 163.993C307.098 163.993 307.078 163.993 307.078 164.013C307.058 164.013 307.039 164.033 307.019 164.033C306.999 164.053 306.96 164.053 306.94 164.072C306.584 164.23 306.229 164.388 305.873 164.507L286.164 164.605L258.258 164.763L252.018 164.803L183.331 164.605L84.368 164.329H83.973L29.7816 164.171C29.7816 164.171 16.1153 155.428 10.5658 139.717C10.4275 139.322 10.2893 138.908 10.151 138.493C8.90685 134.586 8.17613 130.263 8.27488 125.546C8.61061 109.875 13.1726 76.7764 60.8864 69.0395C105.638 61.7764 93.729 15.6119 159.73 20.1514C185.76 21.9474 197.313 39.7106 217.437 34.9737C271.273 22.3027 298.507 34.3422 312.865 55.1053L312.963 55.2435C313.437 55.9343 313.911 56.6448 314.346 57.3553C316.222 60.3356 317.841 63.454 319.283 66.7106C320.29 69.0001 321.199 71.329 322.008 73.7172C322.127 74.0724 322.245 74.408 322.364 74.7632V74.783C323.43 78.0198 324.339 81.3159 325.129 84.6711C325.267 85.2435 325.386 85.8159 325.524 86.3882C325.721 87.2369 325.899 88.0659 326.057 88.9145C326.176 89.5264 326.314 90.1382 326.432 90.7501C326.551 91.4014 326.669 92.033 326.788 92.6843C327.044 94.1053 327.281 95.5066 327.499 96.9277C327.676 98.0724 327.815 99.3948 327.894 100.875C328.012 102.691 328.032 104.743 327.973 106.954Z" fill="#E8F2FA"/>
<path d="M249.47 66.612C249.47 66.612 251.86 61.2633 257.567 61.8554C257.567 61.8554 265.862 52.9541 274.709 60.6712C274.709 60.6712 284.11 58.7567 291.062 62.3291C295.703 64.7172 297.243 67.2041 297.243 67.2041L249.47 66.612Z" fill="#F6FBFF"/>
<path d="M138.994 48.5527C138.994 48.5527 141.759 43.1646 148.355 43.7567C148.355 43.7567 157.933 34.7764 168.144 42.5527C168.144 42.5527 179.006 40.6185 187.043 44.2304C192.395 46.6383 194.173 49.1448 194.173 49.1448L138.994 48.5527Z" fill="#F6FBFF"/>
<path d="M179.637 62.6251C179.637 62.6251 181.454 59.0725 185.819 59.4672C185.819 59.4672 192.158 53.5264 198.913 58.6777C198.913 58.6777 206.081 57.3948 211.414 59.783C214.949 61.3619 216.134 63.0396 216.134 63.0396L179.637 62.6251Z" fill="#F6FBFF"/>
<path d="M79.5295 164.329L28.6362 164.171C28.6362 164.171 15.7993 155.428 10.6053 139.717C29.3471 145.026 35.9433 159.04 42.5 156.77C49.4912 154.382 78.9173 154.362 79.5295 164.329Z" fill="#9BD399"/>
<path d="M326.452 90.75C327.933 92.3685 329.928 95.0132 330.994 98.6843C332.061 102.336 331.685 105.257 331.389 107.961C329.908 121.579 331.35 119.783 329.809 129.079C327.894 140.566 325.603 143.684 323.885 145.461C322.206 147.197 320.468 148.283 319.224 148.934C317.901 151.895 316.439 154.618 314.8 156.928C313.102 159.336 311.245 161.329 309.211 162.75C308.52 163.224 307.809 163.658 307.078 163.993H272.794H259.384H214.87C214.87 163.993 212.776 155.961 226.008 155.586C249.292 154.915 236.278 144 250.418 143.645C251.643 143.605 253.084 143.665 254.763 143.803C256.363 143.941 257.903 143.882 259.384 143.645C259.72 143.586 260.036 143.526 260.372 143.467C260.648 143.408 260.944 143.349 261.221 143.27C261.26 143.27 261.3 143.25 261.32 143.25C261.813 143.112 262.287 142.974 262.781 142.796C262.88 142.757 262.978 142.737 263.077 142.697C263.788 142.441 264.46 142.145 265.131 141.809C265.724 141.513 266.296 141.217 266.849 140.882C267.126 140.724 267.402 140.546 267.679 140.368C267.777 140.309 267.876 140.23 267.995 140.171C268.093 140.112 268.192 140.033 268.291 139.974C269.041 139.441 269.792 138.868 270.483 138.276C270.542 138.237 270.602 138.178 270.641 138.138C270.7 138.099 270.76 138.04 270.799 138C270.957 137.862 271.095 137.724 271.253 137.586C271.49 137.368 271.747 137.132 271.984 136.895C272.537 136.362 273.05 135.809 273.544 135.257C273.939 134.822 274.334 134.368 274.69 133.895C275.855 132.454 276.902 130.934 277.83 129.395C281.622 123.059 283.241 116.467 282.036 113.724C282.036 113.704 282.017 113.684 282.017 113.684C281.661 112.895 281.049 112.441 280.18 112.421C278.501 112.382 276.586 112.263 274.69 111.928C268.153 110.763 261.596 107.033 263.768 95.0724C266.573 79.6382 278.758 82.954 282.747 76.3224C286.756 69.6908 292.266 61.6777 306.624 63.1974C311.877 63.75 316.064 64.875 319.224 66.7895C320.231 69.079 321.139 71.4079 321.949 73.7961C322.068 74.1514 322.186 74.4869 322.305 74.8422V74.8619C323.371 78.0987 324.28 81.3948 325.069 84.75C325.208 85.3224 325.326 85.8948 325.464 86.4672C325.84 87.8487 326.136 89.3093 326.452 90.75Z" fill="#9BD399"/>
<path d="M315.847 155.369C315.511 155.921 315.156 156.434 314.8 156.948C313.102 159.355 311.245 161.349 309.211 162.77C308.52 163.244 307.809 163.678 307.078 164.013C307.078 164.013 307.058 164.013 307.058 164.033C307.039 164.033 307.019 164.053 306.999 164.053C306.979 164.072 306.94 164.073 306.92 164.092C306.565 164.25 306.209 164.408 305.854 164.526L286.144 164.625C286.875 161.23 288.81 158.862 291.516 157.263C292.029 156.967 292.543 156.691 293.116 156.454C293.293 156.375 293.451 156.296 293.629 156.237C293.925 156.119 294.241 156 294.538 155.901C294.794 155.803 295.071 155.724 295.347 155.645C295.959 155.467 296.572 155.309 297.223 155.171C299.811 154.599 302.674 154.382 305.676 154.382C307.453 154.382 309.27 154.461 311.087 154.599C312.884 154.717 314.405 155.013 315.847 155.369Z" fill="#73B471"/>
<path d="M295.367 158.566C295.367 158.566 292.029 146.329 289.462 146.961C286.914 147.612 295.367 158.566 295.367 158.566Z" fill="#73B471"/>
<path d="M296.433 159.75C296.433 159.75 287.783 150.454 285.828 152.211C283.853 153.947 296.433 159.75 296.433 159.75Z" fill="#73B471"/>
<path d="M297.302 161.803C297.302 161.803 297.855 149.132 295.229 148.954C292.602 148.796 297.302 161.803 297.302 161.803Z" fill="#73B471"/>
<path d="M110.18 61.4803C110.18 61.4803 103.09 60.6711 99.5353 57.1382C95.9805 53.5855 93.7291 50.5066 93.7291 50.5066L99.5353 69.6119L110.18 61.4803Z" fill="#2C2D2D"/>
<path d="M110.338 61.4803C110.338 61.4803 117.428 60.6711 120.963 57.1382C124.518 53.5855 126.769 50.5066 126.769 50.5066L120.963 69.6119L110.338 61.4803Z" fill="#2C2D2D"/>
<path d="M121.141 69.6316H99.5551V148.086H121.141V69.6316Z" fill="#FBFCFC"/>
<path d="M124.439 73.1644H95.9607V75.5131H124.439V73.1644Z" fill="#C7D3D3"/>
<path d="M124.439 75.5131H95.9607V76.342H124.439V75.5131Z" fill="#9AA8A7"/>
<path d="M124.439 88.4014H95.9607V90.7501H124.439V88.4014Z" fill="#C7D3D3"/>
<path d="M124.439 90.75H95.9607V91.5789H124.439V90.75Z" fill="#9AA8A7"/>
<path d="M124.439 103.638H95.9607V105.987H124.439V103.638Z" fill="#C7D3D3"/>
<path d="M124.439 105.987H95.9607V106.816H124.439V105.987Z" fill="#9AA8A7"/>
<path d="M124.439 118.875H95.9607V121.224H124.439V118.875Z" fill="#C7D3D3"/>
<path d="M124.439 121.224H95.9607V122.053H124.439V121.224Z" fill="#9AA8A7"/>
<path d="M124.439 134.112H95.9607V136.461H124.439V134.112Z" fill="#C7D3D3"/>
<path d="M124.439 136.461H95.9607V137.289H124.439V136.461Z" fill="#9AA8A7"/>
<path d="M110.18 87.2961C112.896 87.2961 115.098 85.0958 115.098 82.3816C115.098 79.6674 112.896 77.4672 110.18 77.4672C107.464 77.4672 105.263 79.6674 105.263 82.3816C105.263 85.0958 107.464 87.2961 110.18 87.2961Z" fill="#7C7C7C"/>
<path d="M106.566 93.0396H103.722V102.454H106.566V93.0396Z" fill="#7C7C7C"/>
<path d="M111.602 93.0396H108.758V102.454H111.602V93.0396Z" fill="#7C7C7C"/>
<path d="M116.658 93.0396H113.814V102.454H116.658V93.0396Z" fill="#7C7C7C"/>
<path d="M106.566 108.671H103.722V118.086H106.566V108.671Z" fill="#7C7C7C"/>
<path d="M111.602 108.671H108.758V118.086H111.602V108.671Z" fill="#7C7C7C"/>
<path d="M116.658 108.671H113.814V118.086H116.658V108.671Z" fill="#7C7C7C"/>
<path d="M106.566 124.283H103.722V133.697H106.566V124.283Z" fill="#7C7C7C"/>
<path d="M111.602 124.283H108.758V133.697H111.602V124.283Z" fill="#7C7C7C"/>
<path d="M116.658 124.283H113.814V133.697H116.658V124.283Z" fill="#7C7C7C"/>
<path d="M99.5551 69.6711L111.622 54.1382L121.141 69.6711H99.5551Z" fill="#434343"/>
<path d="M102.754 76.3618H99.5551V88.421H102.754V76.3618Z" fill="#DFDFDF"/>
<path d="M101.964 76.3618H100.325V88.421H101.964V76.3618Z" fill="#BFC0C0"/>
<path d="M121.141 76.3618H117.941V88.421H121.141V76.3618Z" fill="#DFDFDF"/>
<path d="M120.351 76.3618H118.712V88.421H120.351V76.3618Z" fill="#BFC0C0"/>
<path d="M102.754 91.7172H99.5551V103.776H102.754V91.7172Z" fill="#DFDFDF"/>
<path d="M101.964 91.7172H100.325V103.776H101.964V91.7172Z" fill="#BFC0C0"/>
<path d="M121.141 91.7172H117.941V103.776H121.141V91.7172Z" fill="#DFDFDF"/>
<path d="M120.351 91.7172H118.712V103.776H120.351V91.7172Z" fill="#BFC0C0"/>
<path d="M102.754 107.092H99.5551V119.151H102.754V107.092Z" fill="#DFDFDF"/>
<path d="M101.964 107.092H100.325V119.151H101.964V107.092Z" fill="#BFC0C0"/>
<path d="M121.141 107.092H117.941V119.151H121.141V107.092Z" fill="#DFDFDF"/>
<path d="M120.351 107.092H118.712V119.151H120.351V107.092Z" fill="#BFC0C0"/>
<path d="M102.754 122.467H99.5551V134.526H102.754V122.467Z" fill="#DFDFDF"/>
<path d="M101.964 122.467H100.325V134.526H101.964V122.467Z" fill="#BFC0C0"/>
<path d="M121.141 122.467H117.941V134.526H121.141V122.467Z" fill="#DFDFDF"/>
<path d="M120.351 122.467H118.712V134.526H120.351V122.467Z" fill="#BFC0C0"/>
<path d="M102.754 137.822H99.5551V149.882H102.754V137.822Z" fill="#DFDFDF"/>
<path d="M101.964 137.822H100.325V149.882H101.964V137.822Z" fill="#BFC0C0"/>
<path d="M121.141 137.822H117.941V149.882H121.141V137.822Z" fill="#DFDFDF"/>
<path d="M120.351 137.822H118.712V149.882H120.351V137.822Z" fill="#BFC0C0"/>
<path d="M70.4449 165.75C70.4449 165.75 72.716 162.77 75.5796 162.77C78.4433 162.77 81.7808 165.197 81.7808 165.197H84.5852C84.5852 165.197 86.0466 162.75 89.8187 162.75C93.5908 162.75 94.6375 165.237 94.6375 165.237L94.5387 160.085H70.4449V165.75Z" fill="#B55400"/>
<path d="M50.9526 118.105L61.3208 140.585L97.3628 144.513V130.599C97.3628 130.599 71.1361 127.757 63.039 124.421C54.9616 121.066 52.0388 115.125 50.9526 118.105Z" fill="#7F5849"/>
<path d="M60.5309 112.816L68.9835 136.086L104.571 143.033L105.736 129.158C105.736 129.158 79.8257 124.105 72.0446 120.099C64.2832 116.112 61.8738 109.954 60.5309 112.816Z" fill="#896358"/>
<path d="M74.1379 108.553L80.6354 131.664L109.429 138.039L110.595 124.164C110.595 124.164 89.6212 119.546 83.3805 115.658C77.1398 111.789 75.2636 105.651 74.1379 108.553Z" fill="#9B7C75"/>
<path d="M110.595 136.085H68.9835V160.046H110.595V136.085Z" fill="#440400"/>
<path d="M110.595 154.007H68.9835V160.066H110.595V154.007Z" fill="#5E0F0D"/>
<path d="M61.3998 140.605L69.0427 160.066V141.454L61.3998 140.605Z" fill="#2D0B0A"/>
<path d="M94.598 141.77H73.427V151.52H94.598V141.77Z" fill="#6D1D1B"/>
<path d="M94.598 148.914H73.427V151.52H94.598V148.914Z" fill="#893A3A"/>
<path d="M78.0483 122.447L78.7395 132L96.4741 135.158L80.4182 130.895L78.0483 122.447Z" fill="#66453A"/>
<path d="M64.9941 125.092L69.0229 141.454L68.9834 136.086L64.9941 125.092Z" fill="#66453A"/>
<path d="M75.5401 136.085H73.8615V160.046H75.5401V136.085Z" fill="#2D0B0A"/>
<path d="M94.598 136.085H92.9193V160.046H94.598V136.085Z" fill="#2D0B0A"/>
<path d="M71.7878 160.066H69.0229V170.447H71.7878V160.066Z" fill="#2D0B0A"/>
<path d="M84.526 160.066H81.7611V170.447H84.526V160.066Z" fill="#2D0B0A"/>
<path d="M97.2641 160.066H94.4993V170.447H97.2641V160.066Z" fill="#2D0B0A"/>
<path d="M150.448 165.75C150.448 165.75 148.177 162.77 145.314 162.77C142.45 162.77 139.132 165.197 139.132 165.197H136.328C136.328 165.197 134.866 162.75 131.094 162.75C127.322 162.75 126.295 165.237 126.295 165.237L126.394 160.085H150.448V165.75Z" fill="#B55400"/>
<path d="M169.941 118.105L159.572 140.585L123.55 144.513V130.599C123.55 130.599 149.777 127.757 157.854 124.421C165.951 121.066 168.854 115.125 169.941 118.105Z" fill="#7F5849"/>
<path d="M160.362 112.816L151.91 136.086L116.322 143.033L115.157 129.158C115.157 129.158 141.068 124.105 148.849 120.099C156.61 116.112 159.019 109.954 160.362 112.816Z" fill="#896358"/>
<path d="M146.755 108.553L140.258 131.664L111.464 138.039L110.298 124.164C110.298 124.164 131.272 119.546 137.513 115.658C143.753 111.789 145.63 105.651 146.755 108.553Z" fill="#9B7C75"/>
<path d="M110.299 160.067H151.91V136.107H110.299V160.067Z" fill="#440400"/>
<path d="M110.299 160.055H151.91V153.995H110.299V160.055Z" fill="#5E0F0D"/>
<path d="M159.73 140.605L152.068 160.066V141.454L159.73 140.605Z" fill="#2D0B0A"/>
<path d="M126.277 151.524H147.448V141.774H126.277V151.524Z" fill="#6D1D1B"/>
<path d="M126.277 151.528H147.448V148.923H126.277V151.528Z" fill="#893A3A"/>
<path d="M142.845 122.447L142.154 132L124.419 135.158L140.475 130.895L142.845 122.447Z" fill="#66453A"/>
<path d="M155.899 125.092L151.87 141.454L151.91 136.086L155.899 125.092Z" fill="#66453A"/>
<path d="M145.352 160.067H147.031V136.107H145.352V160.067Z" fill="#2D0B0A"/>
<path d="M126.281 160.067H127.96V136.107H126.281V160.067Z" fill="#2D0B0A"/>
<path d="M149.107 170.438H151.872V160.057H149.107V170.438Z" fill="#2D0B0A"/>
<path d="M136.359 170.438H139.124V160.057H136.359V170.438Z" fill="#2D0B0A"/>
<path d="M123.611 170.438H126.376V160.057H123.611V170.438Z" fill="#2D0B0A"/>
<path d="M101.135 160.105L99.7525 170.526H120.193L118.514 160.105H101.135Z" fill="#B55400"/>
<path d="M110.871 100.954C110.871 100.954 110.002 113.586 105.46 121.618C100.918 129.671 95.309 136.697 95.309 136.697H124.34C124.34 136.697 116.144 125.171 113.873 118.816C111.582 112.48 110.871 100.954 110.871 100.954Z" fill="#2D0B0A"/>
<path d="M110.615 120.888L101.964 134.349H118.514L110.615 120.888Z" fill="#560600"/>
<path d="M118.514 136.678H101.135V160.066H118.514V136.678Z" fill="#66453A"/>
<path d="M106.981 139.678H103.446V156.671H106.981V139.678Z" fill="#C4B0AB"/>
<path d="M111.582 139.678H108.047V156.671H111.582V139.678Z" fill="#C4B0AB"/>
<path d="M116.184 139.678H112.649V156.671H116.184V139.678Z" fill="#C4B0AB"/>
<path d="M106.981 146.388H103.446V156.671H106.981V146.388Z" fill="#A3847E"/>
<path d="M111.582 146.388H108.047V156.671H111.582V146.388Z" fill="#A3847E"/>
<path d="M116.184 146.388H112.649V156.671H116.184V146.388Z" fill="#A3847E"/>
<path d="M101.135 136.678H99.4562V160.066H101.135V136.678Z" fill="#2D0B0A"/>
<path d="M120.193 136.678H118.514V160.066H120.193V136.678Z" fill="#2D0B0A"/>
<path d="M102.517 160.066H99.7525V170.447H102.517V160.066Z" fill="#2D0B0A"/>
<path d="M120.193 160.066H117.428V170.447H120.193V160.066Z" fill="#2D0B0A"/>
<path d="M166.978 52.3816C166.978 52.3816 166.307 57.5132 169.644 60.8487C172.962 64.1645 177.268 66.7105 178.216 69.6119C179.163 72.5132 179.716 74.9211 179.716 74.9211V84.7105L180.309 95.1908C180.309 95.1908 179.42 91.954 177.327 90C175.214 88.0263 174.621 87.375 174.621 87.375C174.621 87.375 175.786 74.8421 174.937 73.5197L174.246 77.0724C174.246 77.0724 171.619 86.1118 173.397 89.5658C175.174 93.0197 177.801 93.9276 178.038 96.8684C178.275 99.8092 178.591 100.717 178.275 101.546C177.939 102.395 174.819 104.132 174.819 104.132L176.794 105.987C176.794 105.987 179.697 106.125 180.348 103.243L184.417 106.362L183.271 79.3619C183.271 79.3619 181.948 69.2566 178.433 66.3553C174.917 63.454 170.02 60.375 168.479 56.9605C166.939 53.5461 166.978 52.3816 166.978 52.3816Z" fill="#485659"/>
<path d="M153.904 59.9407L155.129 65.9209L153.45 64.3815C153.45 64.3815 155.82 66.217 155.998 68.6446C156.176 71.0525 157.676 72.7696 157.795 78.5328C157.933 84.2959 159.197 98.9209 159.197 98.9209L163.641 104.151L167.235 90.1183C167.235 90.1183 165.556 82.2236 165.319 79.4604C165.102 76.6973 165.28 71.8223 166.188 69.0986C167.097 66.3551 168.44 62.2301 168.44 62.2301C168.44 62.2301 164.608 69.4538 163.937 72.6117C163.265 75.7696 162.476 79.8749 162.476 79.8749C162.476 79.8749 162.179 73.0854 160.935 71.092C159.691 69.0788 157.124 67.8749 157.124 67.8749L153.904 59.9407Z" fill="#485659"/>
<path d="M127.125 109.796C127.125 109.796 139.31 107.743 141.759 105.493C144.208 103.243 144.346 102.651 144.998 102.651C145.63 102.651 154.398 110.664 156.946 111.947C159.493 113.21 160.56 113.21 161.251 111.947C161.942 110.684 165.991 106.184 165.655 104.763C165.319 103.342 163.009 100.757 160.323 97.8157C157.637 94.8749 164.174 93.9078 166.761 92.3289C169.328 90.7499 179.124 85.2039 184.555 78.9276C184.555 78.9276 189.137 80.092 190.934 78.9276C190.934 78.9276 189.393 78.671 188.939 77.7631C188.485 76.8552 188.288 76.4407 188.288 76.4407L186.293 77.1512C186.293 77.1512 190.973 72.0394 191.21 69.8289C191.428 67.5986 191.546 66.8091 193.067 66.0591C194.587 65.3091 199.307 63.0394 200.67 61.7565C202.033 60.4736 204.265 57.5328 203.356 56.7631C202.448 56.0131 195.219 62.7434 191.862 61.0263C188.505 59.3289 183.962 46.0657 183.311 45.9868C182.659 45.9078 182.699 56.1907 183.39 59.3684C184.061 62.546 187.142 67.1841 187.142 67.1841C187.142 67.1841 186.806 69.3749 185.74 69.3749C184.673 69.3749 181.968 69.4144 181.395 69.0394C180.822 68.6644 179.736 71.1118 179.539 72.7499C179.341 74.3684 172.804 76.8355 172.804 76.8355L159.948 80.6447L149.481 84.1184C149.481 84.1184 148.651 74.2105 148.118 74.2105C147.585 74.2105 147.407 84.7894 147.407 84.7894C147.407 84.7894 141.739 90.3157 141.818 94.3815C141.897 98.467 143.299 100.46 143.299 100.46C143.299 100.46 140.199 103.362 136.308 104.507C132.358 105.671 127.144 109.145 127.125 109.796Z" fill="#C2CCC9"/>
<path d="M166.346 118.52L166.425 124.283L162.476 129.612L167.749 138.513L174.977 116.901L166.346 118.52Z" fill="#485659"/>
<path d="M157.696 129C157.696 129 157.538 132.987 153.193 137.724C148.849 142.461 142.667 142.816 142.351 149.664C142.035 156.513 145.037 156.513 146.202 159.414C147.367 162.316 147.051 165.099 147.051 165.099L144.504 170.329L154.615 169.164C154.615 169.164 153.43 167.171 153.193 164.645C152.937 162.118 153.786 160.539 152.522 158.013C151.258 155.487 147.367 156.217 148.315 150.217C149.263 144.217 157.104 140.27 157.716 138.513C158.328 136.757 160.422 131.487 160.422 131.487L157.696 129Z" fill="#485659"/>
<path d="M151.396 164.467L160.422 155.033L179.973 143.033L184.891 167.368L167.689 168.849L168.696 164.783L163.897 167.98V169.322H153.47L151.396 164.467Z" fill="#485659"/>
<path d="M186.767 131.704L184.338 140.408C184.338 140.408 185.147 143.664 184.891 146.25C184.634 148.835 181.375 153.257 181.375 153.257L180.645 167.743L184.91 167.487L182.541 170.526H191.033C191.033 170.526 188.386 167.289 188.386 164.98C188.386 162.671 188.248 159.888 188.11 158.664C187.972 157.441 185.384 156.533 186.332 154.421C187.28 152.309 193.956 141.493 194.903 137.21C195.851 132.928 196.799 126.118 194.903 122.447C193.008 118.776 191.902 117.888 191.902 115.993C191.902 114.099 192.237 112.875 193.798 109.204C195.358 105.533 200.729 99.75 201.203 97.5197C201.677 95.2697 201.203 92.2894 201.203 92.2894L197.945 94.7368C197.945 94.7368 198.281 98.8223 196.72 101.526C195.16 104.25 189.848 107.921 189.848 107.921C189.848 107.921 187.399 109.757 187.34 112.914C187.28 116.072 186.767 131.704 186.767 131.704Z" fill="#485659"/>
<path d="M146.104 89.0131C146.104 89.0131 143.813 98.9012 145.59 102.928C147.367 106.954 154.299 116.151 154.299 116.151V122.23L161.389 130.006C161.389 130.006 161.824 128.349 161.35 125.131C160.876 121.914 160.501 112.756 160.501 112.756C160.501 112.756 148.493 105.474 147.15 101.151C145.827 96.8091 146.104 89.0131 146.104 89.0131Z" fill="#485659"/>
<path d="M168.538 86.3487C169.21 86.6645 169.012 87.5329 169.309 91.0658C169.625 94.5987 171.185 95.9408 171.185 95.9408C171.185 95.9408 171.916 96.8289 173.515 98.7039C175.135 100.579 175.806 104.053 175.806 104.053C177.208 104.408 181.948 109.5 181.948 109.5C181.948 109.5 180.289 104.822 180.289 103.737C180.289 102.651 180.605 101.763 183.252 102.75C185.898 103.737 185.898 115.421 185.898 115.421C185.898 115.421 186.095 114.553 188.011 119.546C189.927 124.539 188.821 129.533 187.656 135.533C186.471 141.533 179.598 146.211 179.598 146.211C179.598 146.211 180.585 148.382 181.494 150.336C182.402 152.289 182.047 159.651 179.598 159.928C177.149 160.204 177.347 152.428 177.347 152.428L173.91 150.395C173.91 150.395 171.738 151.52 167.393 154.243C163.048 156.967 157.025 156.493 157.025 156.493L150.646 151.164C150.646 151.164 155.405 148.914 157.657 147.02C159.908 145.125 161.686 140.961 161.686 140.961L159.395 132.632C159.395 132.632 155.445 127.697 154.872 126.059C154.28 124.421 155.168 122.211 155.168 122.211C155.168 122.211 154.24 122.013 154.536 121.5C154.833 120.987 156.59 121.914 156.59 121.914C156.59 121.914 155.84 121.303 156.314 121.204C156.808 121.105 157.775 121.974 157.775 121.974C157.775 121.974 157.696 120.711 157.992 120.711C158.289 120.711 158.822 122.171 158.822 123.336C158.822 124.5 158.368 125.98 158.368 125.98C158.368 125.98 159.355 127.224 162.021 128.763C164.687 130.303 166.524 135.217 166.524 135.217C166.524 135.217 166.722 133.322 167.275 131.684C167.827 130.046 169.98 127.046 170.75 125.664C171.521 124.283 172.725 119.526 172.725 119.526C172.725 119.526 172.212 120.079 169.072 120.336C165.932 120.592 165.537 120 163.66 118.401C161.765 116.803 160.303 112.086 160.303 112.086C160.303 112.086 165.122 105.118 165.122 104.23C165.122 103.322 161.824 99.4145 161.824 99.4145C161.824 99.4145 164.984 94.2237 165.3 93.7105C165.616 93.1974 166.05 90.8289 166.011 89.5855C165.971 88.3421 166.011 86.6645 166.011 86.6645C166.366 85.3618 167.867 86.0329 168.538 86.3487Z" fill="#D3BCA9"/>
<path d="M187.695 87.2368C187.695 87.2368 187.517 90.5526 188.327 92.9802C189.137 95.4079 190.164 96.1973 190.144 98.4671C190.104 100.757 187.715 101.447 187.695 104.704C187.675 107.941 187.893 112.046 187.893 112.046L189.512 110.901L190.144 105.335C190.144 105.335 192.988 99.3552 192.06 96.4539C191.131 93.5329 189.176 92.0329 188.702 90.5131C188.209 89.0131 187.695 87.2368 187.695 87.2368Z" fill="#485659"/>
<path d="M201.44 77.1315C201.44 77.1315 199.939 81.2367 199.15 81.4144C198.36 81.5723 194.449 81.9078 194.252 83.3683C194.054 84.8288 194.37 86.4867 195.16 88.4012C195.95 90.3157 197.965 94.7367 197.965 94.7367L201.223 92.2894C201.223 92.2894 196.325 87.7696 196.286 85.5394C196.246 83.2894 198.695 83.8025 200.236 81.6315C201.756 79.4604 201.717 77.763 201.44 77.1315Z" fill="#485659"/>
<path d="M197.649 143.506C197.649 143.506 196.918 145.204 195.911 146.171C194.903 147.138 192.514 147.987 192.632 150.73C192.751 153.474 195.338 152.23 194.054 156.375C192.771 160.539 192 161.388 192 163.085C192 164.783 192.534 165.474 192.534 165.474L192 166.52L196.681 166.204C196.681 166.204 194.903 164.27 195.18 162.079C195.456 159.888 196.345 157.283 196.345 155.585C196.345 153.888 193.758 151.184 194.805 149.25C195.871 147.296 198.616 145.974 197.649 143.506Z" fill="#485659"/>
<path d="M169.388 106.026C169.649 106.026 169.862 105.814 169.862 105.553C169.862 105.291 169.649 105.079 169.388 105.079C169.126 105.079 168.914 105.291 168.914 105.553C168.914 105.814 169.126 106.026 169.388 106.026Z" fill="#485659"/>
<path d="M153.47 102.256C153.47 101.881 153.766 101.585 154.141 101.585C154.517 101.585 154.813 101.881 154.813 102.256C154.813 102.631 154.517 102.928 154.141 102.928C153.766 102.928 153.47 102.631 153.47 102.256Z" fill="#485659"/>
<path d="M73.4073 71.9606C81.6094 71.9606 88.2585 65.3155 88.2585 57.1185C88.2585 48.9214 81.6094 42.2764 73.4073 42.2764C65.2051 42.2764 58.556 48.9214 58.556 57.1185C58.556 65.3155 65.2051 71.9606 73.4073 71.9606Z" fill="url(#paint0_linear)"/>
<path d="M42.5988 67.8356L45.8376 54.079L49.6492 67.8356H42.5988Z" fill="#BFA63A"/>
<path d="M51.0316 124.757H40.6436L42.026 71.9408H49.6491L51.0316 124.757Z" fill="#D9DBCC"/>
<path d="M51.0316 124.757H40.6436L41.157 105.04H50.5181L51.0316 124.757Z" fill="#C7C9BC"/>
<path d="M54.31 128.645H37.3455V146.309H54.31V128.645Z" fill="#D9DBCC"/>
<path d="M54.31 137.743H37.3455V146.309H54.31V137.743Z" fill="#CBCCC0"/>
<path d="M57.8647 149.132H33.8301V158.329H57.8647V149.132Z" fill="#D9DBCC"/>
<path d="M57.8647 153.711H33.8301V158.309H57.8647V153.711Z" fill="#BBBCB1"/>
<path d="M54.3297 146.329H37.3455L33.8301 149.408H57.845L54.3297 146.329Z" fill="#9A9B8F"/>
<path d="M62.8218 160.342H29.4064V165.612H62.8218V160.342Z" fill="#D9DBCC"/>
<path d="M57.9043 158.349H34.3239L29.4064 160.5H62.8218L57.9043 158.349Z" fill="#9A9B8F"/>
<path d="M51.0316 131.447H40.6436V144.04H51.0316V131.447Z" fill="#8C7353"/>
<path d="M49.6491 133.125H42.026V142.382H49.6491V133.125Z" fill="#BCA48A"/>
<path d="M49.6491 137.743H42.026V142.362H49.6491V137.743Z" fill="#9B846D"/>
<path d="M57.8647 124.52H33.8301V128.625H57.8647V124.52Z" fill="#BBBCB1"/>
<path d="M50.7551 67.658H40.9201V71.9409H50.7551V67.658Z" fill="#BBBCB1"/>
<path d="M46.1338 117.059C45.9166 117.059 45.7586 116.882 45.7586 116.684V77.0132C45.7586 76.7961 45.9364 76.6382 46.1338 76.6382C46.3511 76.6382 46.5091 76.8158 46.5091 77.0132V116.684C46.5091 116.901 46.3313 117.059 46.1338 117.059Z" fill="#BFA63A"/>
<path d="M49.6492 69.3354H41.5916V69.8092H49.6492V69.3354Z" fill="#BFA63A"/>
<path d="M337.294 141.809H285.591V147.178H337.294V141.809Z" fill="#E5D7CA"/>
<path d="M337.294 144.493H285.591V147.178H337.294V144.493Z" fill="#CDB7A3"/>
<path d="M320.685 161.112H300.462L289.719 147.178H331.587L320.685 161.112Z" fill="#E5D7CA"/>
<path d="M307.809 147.671L310.653 162.217H320.606L331.587 148.085L307.809 147.671Z" fill="#DBCBBD"/>
<path d="M351 166.776H271.885L279.449 161.112H343.811L351 166.776Z" fill="#DDB97F"/>
<path d="M316.795 141.809H303.089L306.209 39.375H314.129L316.795 141.809Z" fill="#FAFAF9"/>
<path d="M310.712 40.0066L309.942 142.599H303.207L306.209 40.0658L310.712 40.0066Z" fill="#E9E5E0"/>
<path d="M316.182 35.1118H303.701V39.375H316.182V35.1118Z" fill="#B7A38F"/>
<path d="M316.182 30.0394H303.701V31.8947H316.182V30.0394Z" fill="#B7A38F"/>
<path d="M313.852 31.875H306.012V35.0921H313.852V31.875Z" fill="#7C6B5C"/>
<path d="M313.26 30.0395H306.012V18.4145C306.012 16.421 307.631 14.8026 309.626 14.8026C311.62 14.8026 313.24 16.421 313.24 18.4145V30.0395H313.26Z" fill="#D29B36"/>
<path d="M313.26 30.0394H306.012V21.6908C306.012 21.4145 306.249 21.1776 306.525 21.1776H312.746C313.023 21.1776 313.26 21.4145 313.26 21.6908V30.0394Z" fill="#AA7827"/>
<path d="M236.475 118.954L236.455 118.934C236.455 118.934 233.513 125.645 232.012 125.625C230.511 125.625 229.385 122.882 227.628 119.645C225.87 116.428 222.947 110.664 216.884 110.408C216.805 110.408 216.726 110.408 216.647 110.408C216.331 110.388 215.995 110.388 215.66 110.368C215.581 110.368 215.502 110.368 215.423 110.368C214.573 110.349 213.685 110.349 212.855 110.349C210.801 110.349 208.984 110.408 208.234 110.428C207.385 110.447 205.351 110.783 203.237 111.454C203.158 111.474 203.079 111.513 203 111.533C202.724 111.632 202.448 111.73 202.171 111.829C202.092 111.849 202.013 111.888 201.954 111.908C200.828 112.342 199.742 112.875 198.853 113.526C195.93 115.638 194.824 117.691 194.587 121.204C194.587 121.204 194.113 125.171 195.081 128.901C195.891 131.98 198.261 134.605 201.065 134.23C201.658 134.151 202.27 133.934 202.882 133.559C202.882 133.559 202.882 133.579 202.882 133.599C202.961 133.974 203.494 137.21 203.455 139.362C203.455 139.441 203.455 139.52 203.455 139.599C203.455 139.599 203.929 139.737 204.798 139.895C204.877 139.914 204.956 139.914 205.035 139.934C205.311 139.974 205.607 140.033 205.943 140.072C206.022 140.092 206.101 140.092 206.18 140.112C207.74 140.309 209.873 140.428 212.401 140.171C214.238 139.993 215.837 139.658 217.121 139.322C217.2 139.303 217.279 139.283 217.338 139.263C217.595 139.184 217.832 139.125 218.069 139.046C218.148 139.026 218.227 139.007 218.306 138.967C219.925 138.454 220.854 137.98 220.913 137.96L220.952 137.941C220.952 137.941 220.992 135.237 220.419 130.105C219.846 124.974 219.412 121.421 220.143 121.737C220.873 122.053 224.408 131.072 229.701 131.743C234.994 132.414 237.798 127.875 239.694 122.447V122.428L236.475 118.954ZM200.887 127.125C200.374 127.145 200.117 124.303 200.295 122.21C200.374 121.145 200.571 120.592 200.769 120.553C200.986 120.513 201.203 121.007 201.401 122.092C201.717 123.908 201.895 125.309 201.934 125.724C201.934 125.803 201.954 125.862 201.954 125.862C201.954 125.862 201.895 126.079 201.796 126.316C201.638 126.651 201.342 127.105 200.887 127.125Z" fill="url(#paint1_linear)"/>
<path d="M210.683 95.4473C209.379 95.3881 207.661 96.5723 206.713 96.6118C206.634 96.6118 206.555 96.6315 206.496 96.6118C205.706 96.4539 203.81 97.3618 202.704 98.7829C202.388 99.1776 202.132 99.5921 201.993 100.046C201.598 101.25 201.48 103.224 202.151 103.934C202.23 104.013 202.27 104.053 202.329 104.112C202.862 104.645 203.198 104.724 203.475 103.599C203.771 102.336 205.272 101.23 206.852 100.895C207.898 100.678 209.518 100.835 210.722 100.539C211.354 100.382 211.868 100.105 212.105 99.5723C212.816 98.0131 212.678 96.1973 211.256 95.5855C211.078 95.4868 210.88 95.4473 210.683 95.4473Z" fill="#804828"/>
<path d="M210.979 107.151C210.722 107.803 210.327 108.375 209.735 108.849C209.498 109.046 209.221 109.164 208.945 109.263C208.451 109.421 207.938 109.461 207.444 109.401C206.713 109.303 206.022 109.046 205.528 108.711C204.501 108.02 203.534 106.224 203.534 106.224C202.527 106.836 201.401 105.138 201.934 104.408C202.053 104.23 202.191 104.151 202.329 104.132C202.862 104.664 203.198 104.743 203.455 103.618C203.751 102.355 205.252 101.25 206.832 100.914C207.879 100.697 209.498 100.855 210.683 100.559C211.019 101.329 211.216 102.868 211.295 104.329C211.295 104.447 211.315 104.566 211.315 104.664C211.374 105.513 211.295 106.382 210.979 107.151Z" fill="#EDB8B1"/>
<path d="M208.965 109.243C208.471 109.401 207.958 109.441 207.464 109.362C207.444 109.618 207.405 110.349 207.503 110.882C207.622 111.513 208.491 111.592 208.728 111.217C208.965 110.842 208.965 110.625 208.965 109.993C208.945 109.52 208.945 109.382 208.965 109.243Z" fill="#EDB8B1"/>
<path d="M238.47 111.474C237.976 111.454 237.838 114.671 237.7 114.849C237.561 115.026 237.265 114.395 236.87 113.506C236.475 112.618 236.218 112.638 236.218 113.487C236.218 114.335 236.89 116.191 236.969 116.98C237.048 117.75 236.534 118.895 236.495 118.954L239.773 122.467C239.773 122.467 239.773 122.467 239.773 122.487L239.813 122.507C240.899 120.533 241.788 114.118 241.393 113.98C240.998 113.842 240.682 115.342 240.682 115.342C240.682 115.342 241.057 112.835 240.721 112.717C240.405 112.579 239.793 114.671 239.793 114.671C239.793 114.671 240.386 111.493 239.734 111.553C239.082 111.632 238.825 114.434 238.825 114.434C238.825 114.434 238.944 111.493 238.47 111.474Z" fill="#EDB8B1"/>
<path d="M205.588 193.737C205.489 193.816 203.771 195.178 203.316 196.125C202.843 197.112 203.218 198.079 205.489 197.191C207.681 196.342 209.695 194.704 209.537 193.954C209.241 194.072 205.785 193.974 205.588 193.737Z" fill="url(#paint2_linear)"/>
<path d="M220.972 137.98C220.834 138.039 217.635 139.678 212.441 140.191C207.148 140.724 203.494 139.599 203.494 139.599C203.494 139.539 203.494 139.441 203.494 139.362C203.297 140.151 202.191 144.691 201.954 150.335C201.697 156.533 201.243 169.007 202.092 176.645C202.941 184.303 205.39 193.461 205.548 193.697H205.568C205.765 193.934 209.241 194.033 209.518 193.914H209.537C209.814 193.796 209.379 183.73 209.577 178.875C209.774 174 210.92 163.697 211.038 158.467C211.157 153.237 211.809 147.849 212.835 147.691C213.862 147.533 215.818 147.888 220.222 156.632C224.626 165.375 224.705 166.559 224.705 169.362C224.705 172.164 224.014 176.428 223.52 180.572C223.026 184.697 223.895 192.691 224.191 193.816C224.191 193.816 224.191 193.875 224.191 193.895C224.191 193.895 227.154 194.171 227.43 193.993C227.43 193.993 227.47 193.993 227.489 193.993C227.628 193.796 230.215 185.132 231.498 176.862C232.782 168.612 233.473 164.585 229.701 155.546C225.929 146.526 224.665 144.553 223.796 142.757C222.927 140.96 222.908 140.941 222.908 140.941C222.908 140.941 222.058 139.243 220.972 137.98Z" fill="url(#paint3_linear)"/>
<path d="M224.211 193.855C224.112 194.447 224.132 195.71 226.008 196.421C228.121 197.23 229.721 197.487 230.096 196.895C230.412 196.382 229.049 194.724 227.47 194.033C227.193 194.191 224.231 193.934 224.231 193.934C224.211 193.914 224.211 193.875 224.211 193.855Z" fill="url(#paint4_linear)"/>
<path d="M202.981 105.711C202.961 105.711 202.941 105.691 202.922 105.671C202.783 105.276 202.329 105.02 202.329 105C202.309 104.98 202.29 104.941 202.309 104.921C202.329 104.901 202.369 104.882 202.388 104.901C202.408 104.921 202.882 105.197 203.04 105.632C203.06 105.671 203.04 105.691 203.001 105.711C203.001 105.711 203.001 105.711 202.981 105.711Z" fill="#DC847F"/>
<path opacity="0.5" d="M206.299 117.671C206.16 117.967 203.415 124.283 201.796 126.276C201.914 126.039 201.954 125.822 201.954 125.822C201.954 125.822 201.954 125.783 201.934 125.684C203.534 123.335 206.042 117.632 206.062 117.572C206.081 117.513 206.16 117.493 206.22 117.513C206.299 117.553 206.318 117.612 206.299 117.671Z" fill="url(#paint5_linear)"/>
<path opacity="0.5" d="M208.234 127.421C206.595 130.934 204.561 132.71 202.902 133.618C202.902 133.599 202.902 133.579 202.902 133.579C202.29 133.954 201.677 134.171 201.085 134.25C201.065 134.191 201.105 134.132 201.164 134.112C202.764 133.638 205.805 132.118 208.037 127.322C210.031 123.039 209.261 118.658 209.261 118.618C209.241 118.559 209.281 118.5 209.36 118.48C209.419 118.48 209.478 118.52 209.498 118.579C209.498 118.618 210.268 123.079 208.234 127.421Z" fill="url(#paint6_linear)"/>
<path opacity="0.5" d="M217.378 139.283C217.299 139.303 217.22 139.322 217.161 139.342C216.963 137.447 216.351 131.171 216.153 125.645C215.976 120.158 215.699 114.987 215.502 111.572C215.482 111.138 215.462 110.724 215.423 110.368C215.502 110.368 215.581 110.368 215.66 110.368C215.679 110.724 215.699 111.118 215.739 111.553C215.916 114.967 216.213 120.138 216.39 125.625C216.568 131.132 217.18 137.349 217.378 139.283Z" fill="url(#paint7_linear)"/>
<path opacity="0.5" d="M218.346 139.007C218.267 139.026 218.188 139.046 218.109 139.085C217.97 136.855 217.516 129.572 217.358 123.671C217.22 117.908 216.785 112.303 216.647 110.408C216.726 110.408 216.805 110.408 216.884 110.408C217.042 112.303 217.457 117.908 217.595 123.651C217.753 129.513 218.188 136.697 218.346 139.007Z" fill="url(#paint8_linear)"/>
<path opacity="0.5" d="M204.166 122.191C204.166 122.25 204.106 122.289 204.047 122.289C203.988 122.289 203.929 122.23 203.929 122.171C204.067 120.217 203.376 113.921 203 111.553C203.079 111.533 203.158 111.493 203.237 111.474C203.613 113.842 204.304 120.217 204.166 122.191Z" fill="url(#paint9_linear)"/>
<path opacity="0.5" d="M203.455 123.572C203.455 123.632 203.395 123.691 203.336 123.691C203.277 123.691 203.218 123.632 203.218 123.572C203.218 121.401 202.388 114.513 201.974 111.908C202.053 111.888 202.132 111.849 202.191 111.829C202.625 114.415 203.455 121.382 203.455 123.572Z" fill="url(#paint10_linear)"/>
<path opacity="0.5" d="M206.2 140.132C206.121 140.132 206.042 140.112 205.963 140.092C205.825 137.25 205.232 131.625 205.232 131.566C205.232 131.507 205.272 131.447 205.331 131.428C205.39 131.428 205.449 131.467 205.469 131.526C205.489 131.605 206.081 137.289 206.2 140.132Z" fill="url(#paint11_linear)"/>
<path opacity="0.5" d="M205.074 139.954C204.995 139.934 204.916 139.914 204.837 139.914C204.738 137.428 204.343 132.493 204.324 132.434C204.324 132.375 204.363 132.316 204.422 132.316C204.482 132.316 204.541 132.355 204.541 132.414C204.561 132.474 204.975 137.487 205.074 139.954Z" fill="url(#paint12_linear)"/>
<path d="M207.622 113.132L207.958 112.796C207.76 112.974 207.622 113.132 207.622 113.132Z" fill="#EDB8B1"/>
<path d="M208.412 113.546C208.155 113.803 207.977 114.02 207.977 114.02C207.977 114.02 208.175 113.822 208.412 113.546Z" fill="#EDB8B1"/>
<path d="M208.649 114.474C208.55 114.592 208.491 114.652 208.491 114.652C208.491 114.652 208.55 114.592 208.649 114.474Z" fill="#EDB8B1"/>
<path d="M209.004 115.322C209.004 115.322 209.281 115.007 209.498 114.671C209.715 114.335 209.873 113.98 209.715 113.822C209.478 113.585 208.925 114.158 208.649 114.474C208.55 114.592 208.491 114.651 208.491 114.651C208.491 114.651 208.55 114.572 208.649 114.474C209.004 114.039 209.834 112.974 209.537 112.796C209.32 112.658 208.787 113.132 208.412 113.526C208.175 113.803 207.977 114 207.977 114C207.977 114 208.175 113.783 208.412 113.526C208.807 113.072 209.281 112.441 209.063 112.224C208.826 112.007 208.313 112.441 207.957 112.776L207.622 113.112C207.622 113.112 207.76 112.954 207.957 112.776L208.254 112.48C208.905 111.809 208.431 111.671 207.582 112.066C206.733 112.46 206.081 113.072 205.746 113.882C205.41 114.691 206.753 115.599 206.95 116.013C207.148 116.428 206.2 117.632 206.2 117.632C206.2 117.632 206.713 117.612 207.622 117.849C208.53 118.085 209.379 118.599 209.379 118.599C209.853 117.257 209.735 116.428 209.518 115.934C209.3 115.5 209.004 115.322 209.004 115.322Z" fill="#EDB8B1"/>
<path d="M219.53 103.559L219.886 103.085C219.886 103.085 221.466 103.145 221.979 103.559L221.565 104.605L219.53 103.559Z" fill="url(#paint13_linear)"/>
<path d="M216.489 181.934L217.417 183C217.417 183 215.581 183.868 215.265 185.27L214.771 184.164C214.771 184.184 215.482 182.585 216.489 181.934Z" fill="url(#paint14_linear)"/>
<path d="M227.766 140.704L228.279 140.053C228.279 140.053 229.563 140.941 229.405 142.697H228.595L227.766 140.704Z" fill="url(#paint15_linear)"/>
<path d="M195.18 140.585L196.108 141.908C196.108 141.908 196.997 140.507 196.523 138.789L195.595 138.02C195.575 138.02 196.404 139.5 195.18 140.585Z" fill="#FF91A0"/>
<path opacity="0.8307" d="M175.53 104.881C175.352 104.881 175.174 104.921 175.036 104.98C175.174 104.921 175.332 104.881 175.53 104.881ZM174.898 105.059C174.779 105.138 174.661 105.237 174.542 105.375C174.68 105.237 174.779 105.138 174.898 105.059ZM174.424 105.513C174.266 105.71 174.127 105.947 173.95 106.243C174.127 105.947 174.285 105.71 174.424 105.513Z" fill="#FDB300"/>
<path d="M173.239 103.5C172.725 103.539 172.271 103.717 171.777 104.131C171.461 104.408 171.106 104.743 170.731 105.276C169.151 107.408 168.973 108.612 166.722 109.5C164.49 110.388 161.192 111.928 161.547 114.987C161.903 118.046 165.142 118.381 166.287 117.493C167.432 116.605 168.341 115.342 169.802 115.322C171.126 115.303 172.488 115.283 173.1 114.375C172.765 114.158 172.449 113.901 172.212 113.566C171.066 112.066 171.126 110.151 171.185 109.381C171.284 108.138 173.239 107.605 173.969 106.243C174.127 105.928 174.285 105.691 174.443 105.513C174.483 105.454 174.522 105.414 174.562 105.375C174.68 105.237 174.799 105.138 174.917 105.059C174.957 105.039 174.996 105 175.036 105C175.194 104.921 175.352 104.881 175.53 104.901C175.727 104.901 175.964 104.96 176.221 105.039C176.241 105.039 176.28 105.079 176.3 105.079C176.794 104.803 176.932 104.053 175.826 103.737C175.609 103.678 175.372 103.618 175.075 103.599C174.325 103.539 173.752 103.46 173.239 103.5Z" fill="#8F0206"/>
<path d="M178.334 110.862C178.294 111.454 178.176 112.026 177.978 112.52C177.682 113.368 177.208 114.039 176.734 114.454C176.695 114.493 176.655 114.552 176.616 114.592C176.3 114.809 175.846 114.927 175.352 114.947C174.621 114.987 173.792 114.829 173.081 114.375C172.745 114.158 172.449 113.901 172.192 113.566C171.047 112.066 171.106 110.151 171.165 109.381C171.264 108.138 173.219 107.605 173.969 106.243C174.127 105.927 174.285 105.691 174.424 105.513C174.463 105.454 174.503 105.414 174.562 105.375C174.68 105.237 174.799 105.138 174.917 105.059C174.957 105.039 174.996 105 175.036 105C175.194 104.921 175.352 104.881 175.53 104.901C175.727 104.901 175.964 104.96 176.221 105.039C176.241 105.039 176.28 105.059 176.3 105.079C177.307 105.493 178.077 107.743 178.314 109.816C178.354 110.171 178.354 110.526 178.334 110.862Z" fill="#EAA9A4"/>
<path d="M146.933 123.691H145.886L145.847 126.77C145.847 126.77 147.525 129.039 149.994 131.013C152.463 132.987 157.123 134.309 158.368 134.092C159 131.743 157.439 129.138 157.281 128.881C157.222 128.881 155.188 129.039 153.391 128.191C151.574 127.322 146.933 123.691 146.933 123.691Z" fill="#EDB8B1"/>
<path d="M181.533 114.513C180.072 114.474 178.531 114.612 176.952 114.908C177.149 116.033 177.84 116.585 177.978 117.355C178.156 118.224 177.11 118.303 176.458 118.007C175.372 117.493 175.273 116.131 175.312 115.283C173.752 115.697 172.172 116.309 170.553 117.178C165.418 119.96 163.878 123.316 162.219 125.27C159.118 128.941 157.578 128.842 157.262 128.862C157.262 128.862 157.341 129.02 157.281 128.921C157.439 129.178 158.96 131.724 158.348 134.072C158.348 134.112 158.368 134.033 158.348 134.072C158.348 134.072 161.231 134.428 163.838 132C166.465 129.592 168.914 126.039 169.565 125.25C170.237 124.46 171.165 124.322 171.501 126.039C171.837 127.737 173.002 135.631 173.397 136.5L173.416 136.559C173.792 137.289 178.492 136.875 181.138 136.382C183.745 135.888 186.392 135.118 187.083 134.329C187.103 134.309 187.122 134.309 187.122 134.289C187.122 134.289 186.55 132.671 186.155 130.52C185.76 128.368 185.898 127.145 185.898 127.145C185.898 127.145 186.925 126.513 186.609 125.112C186.293 123.71 184.91 122.388 185.128 121.697C185.325 120.987 185.957 121.184 186.787 122.704C187.616 124.224 192.573 130.875 195.891 131.368C195.891 131.368 195.891 131.368 195.911 131.368C195.911 131.368 195.851 128.27 196.602 126.75C196.602 126.75 194.094 123.928 192.672 121.895C191.25 119.842 188.998 115.421 184.792 114.809C183.745 114.631 182.659 114.533 181.533 114.513Z" fill="url(#paint16_linear)"/>
<path d="M207.128 119.368C206.832 119.25 206.2 121.48 206.022 121.855C205.844 122.21 205.469 120.513 205.133 120.631C204.798 120.75 205.43 122.033 205.351 122.408C205.291 122.783 204.58 123.987 202.803 125.289C201.006 126.592 197.392 127.381 196.622 126.73C196.622 126.73 196.622 126.73 196.602 126.73C195.871 128.25 195.911 131.349 195.911 131.349C196.701 131.506 200.354 132.395 203.02 130.026C205.706 127.658 207.187 124.539 207.187 124.539C207.187 124.539 208.905 122.664 208.787 122.428C208.688 122.191 207.286 123.474 207.286 123.474C207.286 123.474 208.965 121.303 208.767 121.026C208.59 120.77 207.227 122.408 207.227 122.408C207.227 122.408 208.668 120.02 208.372 119.783C208.096 119.566 206.832 121.756 206.832 121.756C206.832 121.756 207.424 119.487 207.128 119.368Z" fill="#EDB8B1"/>
<path d="M195.654 148.401C195.614 148.816 195.081 149.013 194.508 149.329C194.173 149.526 193.817 149.743 193.541 150.099C192.83 151.085 191.961 150.553 191.27 150.276C190.578 150.02 189.986 150.631 189.235 151.638C188.485 152.664 187.024 151.993 185.918 151.48C184.989 151.046 184.377 151.224 183.587 151.934C183.41 152.092 183.252 152.23 183.074 152.428C182.442 153.099 181.612 153.197 180.743 153.118C180.092 153.039 179.4 152.881 178.749 152.664C178.373 152.546 177.979 152.467 177.623 152.447C177.287 152.428 176.971 152.487 176.636 152.546C176.537 152.566 176.458 152.605 176.359 152.625C176.122 152.704 175.905 152.783 175.668 152.901C175.569 152.941 175.47 153 175.391 153.059C175.075 153.237 174.779 153.454 174.483 153.71C174.068 154.085 173.535 154.283 172.962 154.401C171.738 154.638 170.375 154.303 169.881 153.493C169.17 152.329 170.079 147.256 171.224 142.914C172.33 138.71 172.488 137.368 173.456 136.441C173.456 136.46 173.476 136.5 173.476 136.5C173.594 136.737 174.206 136.855 175.036 136.875H175.391C176.221 136.875 177.208 136.816 178.216 136.717C178.334 136.697 178.452 136.697 178.571 136.678C179.381 136.599 180.19 136.48 180.882 136.362C181 136.342 181.099 136.322 181.198 136.303H181.217C182.264 136.105 183.311 135.868 184.259 135.592C184.377 135.553 184.476 135.533 184.594 135.493C185.819 135.118 186.767 134.684 187.142 134.27H187.241C187.241 134.27 191.309 140.053 193.264 142.835C195.18 145.658 195.713 147.73 195.654 148.401Z" fill="url(#paint17_linear)"/>
<path d="M177.603 152.467C177.268 152.447 176.952 152.506 176.616 152.566C176.517 152.585 176.418 152.625 176.339 152.645C176.102 152.724 175.865 152.803 175.648 152.921C175.549 152.96 175.47 153.02 175.372 153.079C175.056 153.256 174.759 153.474 174.463 153.73C174.048 154.105 173.515 154.303 172.962 154.421C173.061 155.546 173.258 157.52 173.95 161.941C174.957 168.513 176.517 170.408 176.26 174.809C176.023 178.835 176.102 187.303 177.11 190.362C177.208 190.638 177.287 190.934 177.386 191.112C178.492 192.967 179.558 192.947 179.953 191.743C180.013 191.546 180.072 191.329 180.111 191.053C180.289 189.217 180.645 177.335 180.724 173.862C180.803 170.605 180.743 155.151 180.743 153.118C180.092 153.039 179.4 152.862 178.749 152.664C178.334 152.546 177.959 152.467 177.603 152.467Z" fill="#EAA9A4"/>
<path d="M177.09 190.362C177.09 190.421 176.991 192.079 177.169 193.658C177.346 195.276 177.761 195.71 177.86 195.177C177.959 194.645 177.978 193.776 178.354 194.743C178.729 195.71 179.953 197.388 181.138 197.526C182.304 197.664 182.916 197.052 182.363 196.145C181.83 195.276 180.25 192.849 179.973 191.763C179.578 192.947 178.512 192.987 177.406 191.131C177.267 190.934 177.188 190.638 177.09 190.362Z" fill="url(#paint18_linear)"/>
<path d="M194.508 149.329C194.173 149.526 193.817 149.724 193.541 150.099C192.83 151.085 191.961 150.553 191.27 150.276C190.578 150.02 189.986 150.631 189.235 151.638C188.485 152.664 187.024 151.993 185.898 151.48C184.97 151.046 184.377 151.224 183.568 151.934C185.681 153.395 190.243 156.059 192.06 157.599C194.015 159.256 195.417 159.691 194.666 163.224C193.916 166.756 190.223 179.053 189.67 181.618C189.67 181.618 191.309 183.375 192.237 182.605L192.257 182.585C192.277 182.566 195.871 175.5 198.123 171.039C200.394 166.579 202.606 162.256 201.519 160.006C200.512 157.934 197.372 151.855 194.508 149.329Z" fill="#EAA9A4"/>
<path d="M189.67 181.638C189.551 181.875 188.919 183.237 188.919 183.987C188.919 184.796 189.255 184.737 189.453 184.145C189.65 183.553 189.887 183.059 190.302 184.381C190.697 185.704 191.803 186.809 192.968 187.421C194.133 188.053 195.358 187.776 194.805 186.71C194.271 185.684 192.474 184.006 192.277 182.605L192.257 182.625C191.309 183.395 189.67 181.638 189.67 181.638Z" fill="url(#paint19_linear)"/>
<path d="M174.68 129.079C174.542 129.079 174.404 129.059 174.266 129.039C173.179 128.862 172.607 128.053 172.587 128.013C172.528 127.934 172.547 127.816 172.626 127.776C172.705 127.717 172.824 127.737 172.863 127.816C172.863 127.816 173.377 128.546 174.325 128.704C175.056 128.822 175.865 128.566 176.715 127.934C176.794 127.875 176.912 127.895 176.971 127.974C177.031 128.053 177.011 128.151 176.932 128.21C176.162 128.783 175.411 129.079 174.68 129.079Z" fill="url(#paint20_linear)"/>
<path d="M175.372 136.934C174.917 139.303 173.634 145.855 173.634 149.842C173.634 149.941 173.555 150.02 173.456 150.02C173.357 150.02 173.278 149.941 173.278 149.842C173.278 145.855 174.542 139.342 175.016 136.934H175.372Z" fill="#FFC3AB"/>
<path d="M178.887 147.711C178.867 147.711 178.847 147.711 178.847 147.711C178.768 147.711 178.709 147.671 178.67 147.592C178.67 147.572 178.492 146.961 178.215 143.664C177.998 141.039 178.117 138 178.176 136.776C178.294 136.757 178.413 136.757 178.531 136.737C178.452 137.862 178.354 141.02 178.551 143.645C178.808 146.842 178.986 147.474 178.986 147.493C179.025 147.592 178.966 147.691 178.887 147.711Z" fill="#FFC3AB"/>
<path d="M183.686 146.349C183.646 146.368 183.627 146.388 183.587 146.388C183.548 146.388 183.508 146.368 183.469 146.349C183.409 146.309 183.39 146.23 183.409 146.171C183.37 145.796 182.718 143.368 181.711 140.783C181.02 139.006 180.862 137.428 180.862 136.441C180.98 136.421 181.079 136.401 181.178 136.381H181.198C181.217 137.368 181.356 138.928 182.047 140.664C182.56 141.987 184.002 146.131 183.686 146.349Z" fill="#FFC3AB"/>
<path d="M188.09 145.125C188.07 145.125 188.07 145.125 188.05 145.125C187.971 145.125 187.892 145.066 187.873 144.987C187.221 142.401 184.95 137.27 184.219 135.632C184.338 135.592 184.436 135.572 184.555 135.533C185.325 137.23 187.577 142.322 188.228 144.908C188.248 145.026 188.189 145.105 188.09 145.125Z" fill="#FFC3AB"/>
<path d="M144.148 125.882C143.793 126.395 145.768 128.013 146.044 127.559C146.34 127.105 144.583 125.388 144.148 125.882Z" fill="#EDB8B1"/>
<path d="M143.793 124.737C143.576 125.092 145.965 127.322 146.301 126.691C146.617 126.079 144.109 124.184 143.793 124.737Z" fill="#EDB8B1"/>
<path d="M143.951 123.434C143.595 123.908 145.827 126.158 146.242 125.526C146.657 124.875 144.366 122.862 143.951 123.434Z" fill="#EDB8B1"/>
<path d="M146.024 125.645C145.511 125.487 147.19 122.901 147.802 123.355C148.414 123.789 146.795 125.881 146.024 125.645Z" fill="#F9C4C0"/>
<path d="M322.542 125.724C320.764 127.796 319.322 126.77 319.322 126.77C320.073 129.138 320.31 133.52 320.31 133.52C320.31 133.539 320.27 133.559 320.27 133.579C319.737 134.763 315.768 136.697 311.146 137.763C311.067 137.783 310.988 137.802 310.909 137.822C310.554 137.901 310.198 137.98 309.843 138.039C309.803 138.039 309.744 138.059 309.705 138.059C309.626 138.079 309.547 138.099 309.468 138.099C304.412 138.987 299.949 138.118 299.949 138.118V138.099C299.949 138.059 298.843 128.96 298.349 125.98C297.855 122.98 297.539 119.704 297.065 119.506C296.591 119.309 296.572 120.928 296.631 123.395C296.69 125.862 296.177 128.329 294.044 130.717C292.128 132.849 290.074 132.888 289.58 132.987C289.64 132.631 289.482 131.526 289.067 129.829C288.514 127.599 287.744 126.75 287.704 126.73L287.685 126.691C291.871 124.638 290.943 118.303 291.081 114.75C291.22 111.197 291.318 110.625 292.859 108.612C293.945 107.191 296.927 106.52 299.317 106.105C299.396 106.085 299.494 106.085 299.573 106.066C300.482 105.908 301.292 105.789 301.845 105.691C302.615 105.553 303.8 105.335 305.182 105.138C305.261 105.138 305.34 105.118 305.419 105.099C307.592 104.783 310.218 104.506 312.43 104.566C316.163 104.664 318.296 109.48 320.725 114.158C323.134 118.855 324.319 123.651 322.542 125.724Z" fill="#869ADD"/>
<path d="M304.076 98.467C304.254 97.9341 304.827 98.1315 304.945 98.8223C305.064 99.5131 305.083 101.013 303.958 100.717C303.958 100.697 303.8 99.2368 304.076 98.467Z" fill="#EDB8B1"/>
<path d="M303.049 103.934C302.575 104.546 302.022 105.02 301.509 105.316C301.45 105.335 301.39 105.355 301.351 105.375C300.344 105.868 299.277 105.868 298.171 104.882C297.974 104.704 297.776 104.507 297.579 104.27C297.302 103.934 297.065 103.559 296.868 103.164C296.117 101.664 295.9 99.8486 295.92 99.1184C296.67 99.1578 297.46 98.9999 298.191 98.6447C298.586 98.4473 298.981 98.2894 299.356 98.1513C299.652 98.0526 299.929 97.9736 300.225 97.9342C300.403 97.9144 300.581 97.8947 300.758 97.9144C300.976 97.9144 301.193 97.9736 301.39 98.0526C301.45 98.0723 301.489 98.0921 301.529 98.1118C301.726 98.2105 301.924 98.3092 302.121 98.4671C303.049 99.2565 303.504 100.48 303.859 100.678L303.879 100.737C304.155 101.96 303.701 103.066 303.049 103.934Z" fill="#EDB8B1"/>
<path d="M299.336 93.8289C299.119 93.8289 298.902 93.8486 298.685 93.9078C298.329 93.9868 297.974 94.1249 297.658 94.342C296.275 95.1907 294.853 94.4604 293.965 95.2696C293.234 95.921 292.819 97.6775 293.984 98.4867C294.557 98.8815 295.209 99.0789 295.92 99.1183C296.67 99.1578 297.46 98.9999 298.191 98.6446C298.586 98.4473 298.981 98.2894 299.356 98.1512C299.652 98.0525 299.949 97.9736 300.225 97.9341C300.403 97.9144 300.581 97.8946 300.758 97.8946C300.976 97.9144 301.193 97.9539 301.39 98.0328C301.45 98.0525 301.489 98.0723 301.529 98.092C301.726 98.1907 301.924 98.2894 302.121 98.4473C303.049 99.2367 303.503 100.46 303.859 100.658C303.938 100.697 304.017 100.717 304.096 100.618C304.471 100.145 304.827 97.6973 302.852 95.6841C302.832 95.6644 302.812 95.6249 302.773 95.6052C302.398 95.2499 302.042 94.9539 301.706 94.717C301.608 94.6578 301.529 94.5986 301.43 94.5394C301.193 94.3815 300.956 94.2631 300.719 94.1644C300.62 94.1249 300.502 94.0854 300.403 94.046C300.186 93.967 299.988 93.9275 299.791 93.8881C299.692 93.8683 299.593 93.8486 299.494 93.8486C299.435 93.8486 299.396 93.8289 299.336 93.8289Z" fill="#FF7D00"/>
<path d="M320.922 119.408C321.041 119.881 321.317 122.21 317.308 123.217C317.308 123.217 316.4 122.881 314.662 118.599C312.904 114.316 312.568 112.599 312.568 112.599C312.568 112.599 312.114 111.237 311.482 110.21C310.83 109.164 310.87 108.868 311.028 108.829C311.206 108.789 312.391 110.388 312.391 110.388C312.391 110.388 311.127 108.513 311.265 107.941C311.383 107.368 312.865 109.717 312.865 109.717C312.865 109.717 311.462 106.618 311.759 106.421C312.075 106.224 313.674 109.085 313.674 109.085C313.674 109.085 312.529 106.145 312.884 106.026C313.24 105.908 314.365 108.868 314.365 108.868C314.365 108.868 314.306 107.289 314.681 107.506C315.057 107.724 315.195 110.289 315.412 111.039C315.629 111.789 316.834 113.388 317.999 115.105C319.145 116.881 320.823 118.934 320.922 119.408Z" fill="#EDB8B1"/>
<path d="M277.83 117.73C277.494 117.908 278.442 120.335 278.442 120.335C278.442 120.335 277.06 117.592 276.645 117.829C276.23 118.046 277.731 121.026 277.731 121.026C277.731 121.026 276.408 119.171 276.151 119.27C275.894 119.349 277.158 121.658 277.158 121.658C277.158 121.658 276.151 120.316 275.717 120.493C275.302 120.671 276.546 122.368 277.455 123.987C278.363 125.605 280.95 129.908 283.3 131.783C285.631 133.638 288.613 133.243 289.541 133.026C289.6 132.671 289.442 131.585 289.008 129.888C288.455 127.658 287.685 126.809 287.645 126.789C287.467 126.829 285.887 127.125 283.972 125.546C281.957 123.888 280.674 122.171 279.824 120.414C279.824 120.414 279.548 118.5 279.192 118.342C278.837 118.184 279.054 119.822 279.054 119.822C279.054 119.822 278.165 117.552 277.83 117.73Z" fill="#EAA9A4"/>
<path d="M300.818 194.052C300.581 194.052 300.363 194.092 300.166 194.112C299.968 194.151 299.791 194.191 299.672 194.27C299.573 194.309 299.455 194.388 299.356 194.447C298.29 195 296.868 195.927 296.512 196.816C296.117 197.802 296.433 198.316 298.25 197.842C300.067 197.388 303.819 195.355 303.977 194.802C303.977 194.783 303.958 194.783 303.958 194.763C303.958 194.704 303.918 194.645 303.839 194.585C303.819 194.566 303.78 194.546 303.74 194.526C303.701 194.506 303.642 194.467 303.582 194.447C303.484 194.408 303.346 194.368 303.227 194.329C303.01 194.27 302.753 194.21 302.457 194.151C302.338 194.131 302.22 194.112 302.082 194.092C301.667 194.072 301.232 194.033 300.818 194.052Z" fill="url(#paint21_linear)"/>
<path d="M320.27 133.599C319.698 134.901 314.997 137.072 309.863 138.059C304.649 139.046 299.949 138.138 299.949 138.138V138.118C299.396 140.368 297.401 149.368 296.117 155.033C294.814 160.796 294.162 165.829 295.861 175.658C297.539 185.408 299.317 194.25 299.356 194.408C299.455 194.349 299.573 194.289 299.672 194.23C299.81 194.171 299.968 194.112 300.166 194.072C300.166 194.072 300.166 194.072 300.186 194.072C300.383 194.033 300.6 194.013 300.837 194.013C300.837 194.013 300.837 194.013 300.857 194.013C301.252 193.993 301.687 194.033 302.121 194.072C302.259 194.092 302.358 194.112 302.496 194.132C302.793 194.171 303.03 194.23 303.267 194.309C303.405 194.349 303.523 194.368 303.622 194.428C303.681 194.447 303.741 194.487 303.78 194.507C303.82 194.526 303.859 194.546 303.879 194.566C303.938 194.625 303.997 194.684 303.997 194.743H304.017C304.017 194.743 303.82 190.678 303.701 188.309C303.583 185.96 302.378 169.441 302.635 166.342C302.891 163.224 307.295 154.007 308.52 150.947C309.724 147.888 311.383 145.026 313.437 147.493C315.491 149.98 319.066 157.658 319.737 162.474C320.409 167.27 319.836 169.401 319.145 175.441C318.454 181.48 318.059 182.487 318.039 186.197C318.019 189.888 318.987 193.579 318.987 193.618C318.987 193.539 318.947 193.421 318.967 193.342C319.086 192.77 322.265 193.145 322.265 193.145C322.364 193.145 322.463 193.184 322.561 193.184C322.561 193.184 322.561 193.184 322.581 193.184C322.581 193.184 323.904 186.414 325.109 180.947C326.314 175.5 330.185 166.046 327.657 156.158C325.188 146.822 320.764 134.882 320.27 133.599Z" fill="#310062"/>
<path d="M320.587 193.066C319.777 193.046 318.947 193.085 318.888 193.381C318.868 193.46 318.908 193.559 318.908 193.658V193.678C318.947 194.309 319.461 195.316 321.357 195.908C323.529 196.599 325.504 196.954 325.919 196.145C326.314 195.375 325.07 193.559 322.482 193.224C322.384 193.204 322.285 193.184 322.186 193.184C322.206 193.184 321.396 193.085 320.587 193.066Z" fill="url(#paint22_linear)"/>
<path d="M305.399 105.099L305.123 107.704C305.123 107.743 305.103 107.783 305.064 107.803C305.024 107.822 304.985 107.822 304.945 107.803L303.326 106.757L303.01 106.559L302.496 106.224C302.398 106.401 302.319 106.579 302.22 106.757C302.18 106.855 302.121 106.954 302.082 107.053C301.687 107.842 301.311 108.592 301.272 108.651C301.252 108.691 301.213 108.73 301.173 108.73H301.153C301.055 108.73 300.956 108.592 299.81 106.855C299.633 106.579 299.435 106.303 299.297 106.085C299.376 106.066 299.475 106.066 299.554 106.046C299.652 106.204 299.81 106.441 300.008 106.737C300.383 107.309 300.916 108.118 301.134 108.414C301.292 108.079 301.687 107.309 301.983 106.717C301.983 106.697 301.983 106.697 302.003 106.678C302.161 106.362 302.279 106.105 302.358 105.987C302.378 105.967 302.398 105.928 302.437 105.928C302.477 105.928 302.496 105.928 302.536 105.947L303.168 106.362C303.188 106.362 303.188 106.382 303.207 106.382L304.945 107.487L305.182 105.118C305.241 105.118 305.32 105.118 305.399 105.099Z" fill="url(#paint23_linear)"/>
<path d="M309.724 138.099C309.645 138.118 309.566 138.138 309.487 138.138C309.014 134.625 307.355 125.092 305.755 119.092C304.215 113.23 302.477 108.257 302.062 107.072C302.003 106.914 301.963 106.816 301.963 106.816C301.963 106.796 301.963 106.776 301.963 106.737C301.963 106.717 301.963 106.717 301.983 106.697C302.003 106.678 302.022 106.658 302.042 106.658C302.101 106.638 302.161 106.658 302.2 106.737C302.2 106.737 302.2 106.757 302.22 106.776C302.417 107.329 304.294 112.678 305.992 119.033C307.592 125.033 309.231 134.566 309.724 138.099Z" fill="url(#paint24_linear)"/>
<path d="M311.166 137.803C311.087 137.822 311.008 137.842 310.929 137.862C310.416 134.822 309.033 126.691 307.71 121.599C306.15 115.579 303.247 107.191 303.01 106.559C303.01 106.539 302.99 106.52 302.99 106.52C302.97 106.461 302.99 106.401 303.069 106.382C303.109 106.362 303.148 106.382 303.168 106.401C303.188 106.421 303.207 106.441 303.207 106.461C303.207 106.461 303.247 106.579 303.326 106.776C303.898 108.414 306.486 115.974 307.927 121.539C309.25 126.632 310.653 134.724 311.166 137.803Z" fill="url(#paint25_linear)"/>
<path d="M303.049 103.914C302.575 104.526 302.022 105.02 301.509 105.296C301.45 105.335 301.39 105.335 301.351 105.355C301.43 105.888 301.706 106.974 302.477 106.737C303.266 106.5 303.128 104.724 303.049 103.914Z" fill="#EDB8B1"/>
<path d="M276.112 85.2039L277.217 86.9012L278.027 86.3683L276.526 84.3354L276.112 85.2039Z" fill="#FF91A0"/>
<path d="M241.116 95.8222C241.116 95.8222 242.163 94.0656 242.321 93.4932C242.459 92.9209 242.064 92.7235 241.334 93.9669C241.334 93.9669 241.649 91.6972 241.294 91.5985C240.939 91.4998 240.583 94.2037 240.583 94.2037C240.583 94.2037 240.879 91.3024 240.465 91.2038C240.05 91.1248 239.694 94.2235 239.694 94.2235C239.694 94.2235 239.675 92.2103 239.438 92.1314C239.201 92.0524 238.983 94.1643 238.983 94.1643C238.983 94.1643 239.003 92.7432 238.687 92.7235C238.371 92.7037 238.035 96.1774 238.035 96.1774L241.116 95.8222Z" fill="#EDB8B1"/>
<path d="M284.465 100.677C284.465 100.677 284.406 99.8485 284.248 98.8024C284.09 97.7761 283.873 97.559 284.149 97.3814C284.426 97.2037 285.157 99.0393 285.157 99.0393C285.157 99.0393 284.999 95.9801 285.394 95.9998C285.789 96.0195 285.887 98.8024 285.887 98.8024C285.887 98.8024 285.769 95.6051 286.184 95.6445C286.598 95.7037 286.658 98.684 286.658 98.684C286.658 98.684 286.776 96.7103 287.053 96.809C287.329 96.9077 287.211 99.138 287.211 99.138C287.211 99.138 287.329 97.6972 287.606 97.8353C287.882 97.9735 287.527 100.796 287.527 100.796L284.465 100.677Z" fill="#EDB8B1"/>
<path d="M261.3 112.026C260.846 113.23 260.332 114.276 260.609 115.184C260.905 116.112 261.892 115.796 262.307 115.164C262.682 114.592 263.196 112.579 263.275 112.263C262.722 112.48 261.971 112.421 261.3 112.026Z" fill="#EDB8B1"/>
<path d="M265.25 110.704C265.21 110.743 264.519 111.474 263.591 112.105C263.492 112.164 263.393 112.204 263.275 112.263C262.722 112.48 261.971 112.421 261.28 112.026C260.707 111.691 260.194 111.138 259.937 110.27C259.917 110.171 259.878 110.072 259.858 109.974C259.68 109.243 259.641 108.375 259.7 107.506C259.779 105.987 260.115 104.487 260.431 103.756C261.023 103.816 262.189 102.888 263.097 102.868C263.176 102.868 263.255 102.888 263.314 102.908C263.373 102.927 263.433 102.927 263.492 102.947C264.223 103.243 264.598 104.447 264.756 106.283C264.894 107.763 264.756 108.987 265.25 110.704Z" fill="#EDB8B1"/>
<path d="M241.136 95.8221L238.035 96.1971C238.035 96.1971 236.811 99.7695 236.89 103.677C236.969 107.585 238.095 111 241.669 114.414C245.244 117.848 248.621 118.066 250.221 118.283C251.82 118.52 254.249 118.263 254.111 119.447C253.973 120.631 253.183 121.48 253.42 123.651C253.657 125.822 255.474 126.73 255.691 127.638C255.889 128.447 256.501 133.243 257.212 135.079C257.291 135.296 257.389 135.493 257.468 135.612C258.318 136.816 261.359 137.842 264.677 137.368C267.777 136.934 270.325 134.941 270.542 134.052C270.562 133.993 270.582 133.914 270.582 133.855C270.404 133.125 270.029 128.625 269.871 126.73C269.594 123.493 271.964 121.776 273.919 121.322C275.875 120.868 280.614 119.842 283.557 115.895C286.5 111.947 287.961 105.158 287.467 100.816L284.426 100.677C284.426 100.677 283.419 106.914 281.977 109.066C280.555 111.197 278.027 114.335 274.453 114.927C270.878 115.52 266.435 114.671 262.662 114C258.871 113.329 256.521 112.342 252.61 112.539C248.68 112.737 244.474 110.704 242.341 107.033C240.247 103.381 241.136 95.8221 241.136 95.8221Z" fill="url(#paint26_linear)"/>
<path d="M276.842 153.099C276.645 153.355 275.934 153.691 274.848 153.947C273.86 154.184 272.576 154.362 271.056 154.381C269.18 154.401 266.672 154.224 263.926 153.474C262.228 153.02 260.451 152.349 258.673 151.381C258.456 151.263 258.258 151.164 258.041 151.046C253.479 148.401 251.544 145.52 251.287 145.164C251.267 145.145 251.188 145.026 251.188 145.026C251.188 145.026 253.222 143.052 255.75 141C258.278 138.947 257.488 136.579 257.192 135.138C257.192 135.118 257.212 135.099 257.212 135.059C257.291 135.276 257.389 135.474 257.468 135.592C257.883 136.184 258.811 136.717 260.056 137.072C260.372 137.171 260.688 137.23 261.043 137.289C261.774 137.427 262.583 137.487 263.433 137.447C263.768 137.427 264.124 137.408 264.479 137.368C264.558 137.368 264.618 137.349 264.697 137.349C265.388 137.25 266.059 137.072 266.691 136.855L267.698 136.421C268.093 136.224 268.488 136.006 268.804 135.789C269.061 135.631 269.278 135.454 269.476 135.296C270.088 134.822 270.463 134.349 270.523 134.033C271.471 134.98 272.813 136.145 273.939 136.855C276.625 138.552 277.968 140.052 278.6 142.954C279.686 147.631 277.218 152.605 276.842 153.099Z" fill="#FF91A0"/>
<path d="M250.793 183.355C250.043 183.849 248.246 185.329 247.633 186.138C247.001 186.967 246.646 187.895 248.364 187.678C250.063 187.46 254.664 185.013 254.032 183.493C253.361 183.71 251.267 183.651 250.793 183.355Z" fill="url(#paint27_linear)"/>
<path d="M251.307 145.164C249.865 146.427 245.441 150.927 243.842 153.256C242.222 155.625 241.156 158.25 242.775 163.796C244.414 169.362 246.685 173.724 247.811 176.802C248.937 179.862 250.359 182.96 250.675 183.296C250.695 183.316 250.754 183.316 250.774 183.335C251.248 183.631 253.341 183.691 254.012 183.474C254.012 183.474 254.012 183.474 254.032 183.474C254.032 183.474 253.538 177.276 252.867 173.329C252.195 169.381 250.497 162.513 250.379 160.914C250.28 159.296 251.86 156.927 253.914 155.27C255.948 153.651 258.555 151.46 258.653 151.362C258.436 151.243 258.239 151.164 258.021 151.026C253.499 148.401 251.544 145.539 251.307 145.164Z" fill="#EAA9A4"/>
<path d="M263.926 153.493C263.097 156.039 260.154 163.283 259.977 167.151C259.779 171.256 260.707 175.638 263.531 180.454C266.316 185.23 271.431 192.908 271.51 193.006L271.55 193.066C271.55 193.066 272.379 193.322 273.287 192.888C274.176 192.473 274.512 191.605 274.532 191.565V191.546C274.532 191.546 271.174 182.842 269.812 178.658C268.429 174.473 267.363 169.638 268.172 166.48C268.923 163.519 273.584 156.019 274.887 153.947C273.9 154.184 272.616 154.362 271.095 154.401C269.18 154.421 266.672 154.223 263.926 153.493Z" fill="#EAA9A4"/>
<path d="M274.492 191.566C274.472 191.605 274.137 192.473 273.248 192.888C272.34 193.302 271.51 193.066 271.51 193.066L271.471 193.006C271.076 193.737 270.246 195.019 269.95 196.085C269.634 197.191 270.088 197.427 270.503 197.526C270.918 197.625 272.043 197.348 273.228 195.75C274.413 194.191 274.808 192.316 274.492 191.566Z" fill="url(#paint28_linear)"/>
<path d="M263.926 100.895C263.67 100.895 263.413 100.914 263.156 100.954C261.142 101.289 259.759 103.283 260.253 103.677C260.312 103.717 260.372 103.737 260.451 103.756C261.043 103.816 262.208 102.888 263.097 102.868C263.176 102.868 263.255 102.888 263.314 102.908C263.373 102.927 263.433 102.927 263.492 102.947C264.223 103.243 264.598 104.447 264.756 106.263C264.894 107.783 264.756 108.987 265.25 110.723C265.447 111.434 265.743 112.204 266.237 113.131C267.896 116.349 270.542 116.684 273.189 116.289C275.835 115.914 277.553 113.052 276.586 110.645C275.618 108.217 272.201 109.362 270.7 108.868C269.18 108.375 268.666 105.493 268.192 103.658C268.172 103.579 268.113 103.5 268.093 103.421C267.58 102.079 265.98 101.131 264.361 100.954C264.223 100.934 264.065 100.895 263.926 100.895Z" fill="#804928"/>
<path opacity="0.4" d="M261.162 141.177C260.806 144.375 258.021 147.947 256.837 147.079C255.671 146.23 258.081 144.434 259.246 142.796C260.273 141.355 260.391 139.5 260.075 137.072C260.391 137.171 260.707 137.23 261.063 137.289C261.241 138.197 261.359 139.52 261.162 141.177Z" fill="url(#paint29_linear)"/>
<path opacity="0.4" d="M265.289 143.408C265.368 148.875 263.531 150.77 263.077 150.355C262.603 149.921 263.077 146.664 263.946 144.237C264.657 142.204 264.144 139.421 263.492 137.487C263.828 137.467 264.183 137.447 264.539 137.408C264.835 138.355 265.25 140.191 265.289 143.408Z" fill="url(#paint30_linear)"/>
<path opacity="0.4" d="M268.587 150.552C267.205 150.118 268.291 146.546 268.548 143.684C268.785 141.177 267.58 138.77 266.711 136.895L267.718 136.46C268.232 137.546 269.18 139.875 269.594 142.638C270.187 146.467 269.97 150.967 268.587 150.552Z" fill="url(#paint31_linear)"/>
<path opacity="0.4" d="M274.196 149.112C272.517 149.723 272.636 145.658 272.28 142.539C271.964 139.717 269.772 136.973 268.824 135.809C269.081 135.651 269.298 135.473 269.496 135.316C270.108 135.927 271.293 137.191 272.458 138.848C274.156 141.217 275.875 148.48 274.196 149.112Z" fill="url(#paint32_linear)"/>
<path d="M287.033 88.0459L287.961 89.1117C287.961 89.1117 286.124 89.9801 285.808 91.3814L285.315 90.2959C285.315 90.2959 286.006 88.6972 287.033 88.0459Z" fill="url(#paint33_linear)"/>
</g>
<defs>
<linearGradient id="paint0_linear" x1="89.8208" y1="78.6175" x2="59.5592" y2="38.9356" gradientUnits="userSpaceOnUse">
<stop offset="2.7e-07" stop-color="#FFBD6D"/>
<stop offset="1" stop-color="#FFEE8B"/>
</linearGradient>
<linearGradient id="paint1_linear" x1="222.126" y1="108.939" x2="204.713" y2="151.567" gradientUnits="userSpaceOnUse">
<stop offset="0.01" stop-color="#FF874E"/>
<stop offset="0.9887" stop-color="#FF6661"/>
</linearGradient>
<linearGradient id="paint2_linear" x1="203.127" y1="195.638" x2="209.542" y2="195.638" gradientUnits="userSpaceOnUse">
<stop stop-color="#0D4CB6"/>
<stop offset="0.9887" stop-color="#243181"/>
</linearGradient>
<linearGradient id="paint3_linear" x1="228.538" y1="134.439" x2="202.729" y2="198.381" gradientUnits="userSpaceOnUse">
<stop stop-color="#402B69"/>
<stop offset="1" stop-color="#503069"/>
</linearGradient>
<linearGradient id="paint4_linear" x1="224.176" y1="195.54" x2="230.128" y2="195.54" gradientUnits="userSpaceOnUse">
<stop stop-color="#0D4CB6"/>
<stop offset="0.9887" stop-color="#243181"/>
</linearGradient>
<linearGradient id="paint5_linear" x1="201.798" y1="121.906" x2="206.307" y2="121.906" gradientUnits="userSpaceOnUse">
<stop offset="0.01" stop-color="#FF874E"/>
<stop offset="0.9887" stop-color="#FF6661"/>
</linearGradient>
<linearGradient id="paint6_linear" x1="201.079" y1="126.366" x2="209.635" y2="126.366" gradientUnits="userSpaceOnUse">
<stop offset="0.01" stop-color="#FF874E"/>
<stop offset="0.9887" stop-color="#FF6661"/>
</linearGradient>
<linearGradient id="paint7_linear" x1="215.432" y1="124.855" x2="217.38" y2="124.855" gradientUnits="userSpaceOnUse">
<stop offset="0.01" stop-color="#FF874E"/>
<stop offset="0.9887" stop-color="#FF6661"/>
</linearGradient>
<linearGradient id="paint8_linear" x1="216.655" y1="124.736" x2="218.351" y2="124.736" gradientUnits="userSpaceOnUse">
<stop offset="0.01" stop-color="#FF874E"/>
<stop offset="0.9887" stop-color="#FF6661"/>
</linearGradient>
<linearGradient id="paint9_linear" x1="203.02" y1="116.882" x2="204.19" y2="116.882" gradientUnits="userSpaceOnUse">
<stop offset="0.01" stop-color="#FF874E"/>
<stop offset="0.9887" stop-color="#FF6661"/>
</linearGradient>
<linearGradient id="paint10_linear" x1="201.976" y1="117.761" x2="203.456" y2="117.761" gradientUnits="userSpaceOnUse">
<stop offset="0.01" stop-color="#FF874E"/>
<stop offset="0.9887" stop-color="#FF6661"/>
</linearGradient>
<linearGradient id="paint11_linear" x1="205.242" y1="135.783" x2="206.204" y2="135.783" gradientUnits="userSpaceOnUse">
<stop offset="0.01" stop-color="#FF874E"/>
<stop offset="0.9887" stop-color="#FF6661"/>
</linearGradient>
<linearGradient id="paint12_linear" x1="204.318" y1="136.136" x2="205.065" y2="136.136" gradientUnits="userSpaceOnUse">
<stop offset="0.01" stop-color="#FF874E"/>
<stop offset="0.9887" stop-color="#FF6661"/>
</linearGradient>
<linearGradient id="paint13_linear" x1="219.538" y1="103.844" x2="221.988" y2="103.844" gradientUnits="userSpaceOnUse">
<stop stop-color="#4874D0"/>
<stop offset="0.9814" stop-color="#7889DE"/>
</linearGradient>
<linearGradient id="paint14_linear" x1="214.775" y1="183.609" x2="217.423" y2="183.609" gradientUnits="userSpaceOnUse">
<stop stop-color="#0D4CB6"/>
<stop offset="0.9887" stop-color="#243181"/>
</linearGradient>
<linearGradient id="paint15_linear" x1="227.766" y1="141.369" x2="229.414" y2="141.369" gradientUnits="userSpaceOnUse">
<stop stop-color="#0D4CB6"/>
<stop offset="0.9887" stop-color="#243181"/>
</linearGradient>
<linearGradient id="paint16_linear" x1="157.278" y1="125.722" x2="196.597" y2="125.722" gradientUnits="userSpaceOnUse">
<stop stop-color="#4874D0"/>
<stop offset="0.9814" stop-color="#7889DE"/>
</linearGradient>
<linearGradient id="paint17_linear" x1="169.595" y1="144.402" x2="195.653" y2="144.402" gradientUnits="userSpaceOnUse">
<stop stop-color="#FC6E8C"/>
<stop offset="0.9887" stop-color="#ED576F"/>
</linearGradient>
<linearGradient id="paint18_linear" x1="177.07" y1="193.952" x2="182.56" y2="193.952" gradientUnits="userSpaceOnUse">
<stop offset="0.01" stop-color="#FF874E"/>
<stop offset="0.9887" stop-color="#FF6661"/>
</linearGradient>
<linearGradient id="paint19_linear" x1="188.932" y1="184.703" x2="194.932" y2="184.703" gradientUnits="userSpaceOnUse">
<stop offset="0.01" stop-color="#FF874E"/>
<stop offset="0.9887" stop-color="#FF6661"/>
</linearGradient>
<linearGradient id="paint20_linear" x1="172.558" y1="128.404" x2="177.01" y2="128.404" gradientUnits="userSpaceOnUse">
<stop stop-color="#0D4CB6"/>
<stop offset="0.9887" stop-color="#243181"/>
</linearGradient>
<linearGradient id="paint21_linear" x1="296.353" y1="196.026" x2="303.977" y2="196.026" gradientUnits="userSpaceOnUse">
<stop offset="0.01" stop-color="#FF874E"/>
<stop offset="0.9887" stop-color="#FF6661"/>
</linearGradient>
<linearGradient id="paint22_linear" x1="318.9" y1="194.84" x2="325.999" y2="194.84" gradientUnits="userSpaceOnUse">
<stop offset="0.01" stop-color="#FF874E"/>
<stop offset="0.9887" stop-color="#FF6661"/>
</linearGradient>
<linearGradient id="paint23_linear" x1="299.294" y1="106.927" x2="305.393" y2="106.927" gradientUnits="userSpaceOnUse">
<stop stop-color="#0D4CB6"/>
<stop offset="0.9887" stop-color="#243181"/>
</linearGradient>
<linearGradient id="paint24_linear" x1="301.979" y1="122.387" x2="309.729" y2="122.387" gradientUnits="userSpaceOnUse">
<stop stop-color="#0D4CB6"/>
<stop offset="0.9887" stop-color="#243181"/>
</linearGradient>
<linearGradient id="paint25_linear" x1="302.993" y1="122.104" x2="311.163" y2="122.104" gradientUnits="userSpaceOnUse">
<stop stop-color="#0D4CB6"/>
<stop offset="0.9887" stop-color="#243181"/>
</linearGradient>
<linearGradient id="paint26_linear" x1="236.893" y1="116.648" x2="287.599" y2="116.648" gradientUnits="userSpaceOnUse">
<stop stop-color="#0D4CB6"/>
<stop offset="0.9887" stop-color="#243181"/>
</linearGradient>
<linearGradient id="paint27_linear" x1="247.115" y1="185.527" x2="254.086" y2="185.527" gradientUnits="userSpaceOnUse">
<stop stop-color="#4874D0"/>
<stop offset="0.9814" stop-color="#7889DE"/>
</linearGradient>
<linearGradient id="paint28_linear" x1="269.86" y1="194.557" x2="274.598" y2="194.557" gradientUnits="userSpaceOnUse">
<stop stop-color="#4874D0"/>
<stop offset="0.9814" stop-color="#7889DE"/>
</linearGradient>
<linearGradient id="paint29_linear" x1="256.538" y1="142.15" x2="261.262" y2="142.15" gradientUnits="userSpaceOnUse">
<stop stop-color="#FC928C"/>
<stop offset="0.9887" stop-color="#ED576F"/>
</linearGradient>
<linearGradient id="paint30_linear" x1="262.889" y1="143.905" x2="265.293" y2="143.905" gradientUnits="userSpaceOnUse">
<stop stop-color="#FC928C"/>
<stop offset="0.9887" stop-color="#ED576F"/>
</linearGradient>
<linearGradient id="paint31_linear" x1="266.715" y1="143.504" x2="269.909" y2="143.504" gradientUnits="userSpaceOnUse">
<stop stop-color="#FC928C"/>
<stop offset="0.9887" stop-color="#ED576F"/>
</linearGradient>
<linearGradient id="paint32_linear" x1="268.849" y1="142.248" x2="274.888" y2="142.248" gradientUnits="userSpaceOnUse">
<stop stop-color="#FC928C"/>
<stop offset="0.9887" stop-color="#ED576F"/>
</linearGradient>
<linearGradient id="paint33_linear" x1="285.314" y1="89.7159" x2="287.959" y2="89.7159" gradientUnits="userSpaceOnUse">
<stop stop-color="#0D4CB6"/>
<stop offset="0.9887" stop-color="#243181"/>
</linearGradient>
<clipPath id="clip0">
<rect width="351" height="198" fill="white"/>
</clipPath>
</defs>
</svg>
