<svg width="206" height="107" viewBox="0 0 206 107" fill="none" xmlns="http://www.w3.org/2000/svg">
<path d="M204.934 41.207L154.852 71.7626L143.262 39.7857L204.934 41.207Z" fill="#466EB6"/>
<path d="M145.503 26.4846L143.262 39.7858L204.934 41.207L145.503 26.4846Z" fill="#9BC1F9" fill-opacity="0.49"/>
<path d="M141.484 44.3706L204.934 41.2069L137.463 64.4047L141.484 44.3706Z" fill="#9BC1F9" fill-opacity="0.49"/>
<path d="M86.4053 81.6584C86.5712 80.8322 87.5199 80.3781 88.3442 80.5436C88.3442 80.5436 97.8643 83.3139 111.843 80.963C125.821 78.6122 134.284 68.4936 135.192 67.1719C135.564 66.3871 136.471 66.1395 137.295 66.305C138.078 66.677 138.531 67.6272 138.159 68.412C137.332 70.3947 127.59 81.5457 112.54 83.8962C97.6961 86.2882 87.9699 83.4765 87.5992 83.1872C86.5273 83.1869 86.0334 82.4432 86.4053 81.6584Z" fill="#F7CC7F"/>
<path d="M24.1644 72.3882C42.0937 75.987 60.4388 76.4464 78.5399 73.8488C93.5486 71.7047 107.821 64.6859 122.787 63.8225C123.652 63.7814 124.23 63.038 124.19 62.1705C124.15 61.3029 123.409 60.7244 122.543 60.7655C107.123 61.7527 93.0986 68.6064 78.0899 70.7504C60.1948 73.3894 42.3034 72.8062 24.5801 69.2487C18.1915 67.9664 10.9798 65.4445 3.15097 61.7245C2.36809 61.3525 1.46083 61.6001 1.08892 62.3849C0.717011 63.1697 0.963352 64.0786 1.74623 64.4506C8.99824 67.84 16.5392 70.8576 24.1644 72.3882Z" fill="#F7CC7F"/>
</svg>
