<svg width="27" height="26" viewBox="0 0 27 26" fill="none" xmlns="http://www.w3.org/2000/svg">
<path d="M13.5 0C6.04255 0 0 5.81875 0 13C0 20.1812 6.04255 26 13.5 26C20.9575 26 27 20.1812 27 13C27 5.81875 20.9575 0 13.5 0ZM16.3168 18.0688C16.8036 18.5375 16.8036 19.3062 16.3168 19.775C16.0702 20.0125 15.7522 20.125 15.4341 20.125C15.1161 20.125 14.7916 20.0063 14.545 19.7687L8.44399 13.875C7.99615 13.4 8.00914 12.6687 8.48293 12.2125L14.6748 6.23125C15.1615 5.7625 15.9534 5.75625 16.4466 6.23125C16.9334 6.7 16.9399 7.4625 16.4466 7.9375L11.131 13L16.3168 18.0688Z" fill="white"/>
</svg>
