<svg width="1199" height="699" viewBox="0 0 1199 699" fill="none" xmlns="http://www.w3.org/2000/svg">
    <path d="M1195.88 626.354C1189.29 667.861 1153.51 698.432 1111.48 698.411L869.385 698.301L657.251 698.2H650.883L605.468 698.184H599.609L556.268 698.167L548.856 698.163L488.467 698.137L477.821 698.125L428.57 698.099H421.213L415.178 698.095L330.296 698.053L315.473 698.049L249.902 698.02H246.166L235.922 698.015L134.814 697.965C121.884 697.961 109.365 695.127 98.0115 689.917C80.8126 682.028 66.2905 668.673 57.0561 651.399C50.5078 639.145 43.4476 624.794 36.6032 608.76C25.6514 583.089 15.2518 553.094 8.39733 520.43C2.91406 494.321 -0.299517 466.505 0.272533 437.831C0.368435 432.684 0.59389 427.504 0.95058 422.302C1.26184 417.79 1.66859 413.261 2.18091 408.716C3.82303 394.103 6.54995 379.348 10.5467 364.559C15.3978 346.625 22.116 328.631 31.0497 310.773C41.665 289.542 55.419 268.5 72.8737 247.971C82.2991 236.882 92.8092 225.937 104.484 215.202C313.715 22.8186 516.674 103.748 545.672 103.748C685.463 103.748 651.687 15.5356 806.481 2.04171C1133.86 -26.5018 1085.16 274.98 1085.16 274.992C1085.16 275.005 1080.32 291.573 1078.83 297.746C1076.82 306.038 1075.27 313.889 1074.15 321.332C1074.07 321.899 1073.99 322.467 1073.91 323.035C1073.59 325.196 1073.32 327.311 1073.1 329.401C1071.41 344.274 1071.51 357.469 1073.04 369.336C1075.88 391.547 1083.71 409.107 1094.15 424.291C1101.11 434.429 1109.25 443.499 1117.84 452.179C1120.25 454.613 1122.7 457.018 1125.18 459.407C1128.37 462.498 1131.59 465.559 1134.82 468.624C1139.13 472.716 1143.45 476.82 1147.68 481.012C1148.59 481.904 1149.49 482.808 1150.39 483.716C1151.94 485.272 1153.47 486.845 1154.98 488.434C1161.22 494.956 1167.16 501.781 1172.55 509.173C1173.73 510.775 1174.87 512.407 1175.99 514.063C1177.3 516.015 1178.57 518.008 1179.79 520.047C1183.69 526.523 1187.15 533.453 1190 540.98C1198.38 563.102 1201.59 590.367 1195.88 626.354" fill="#EBF3FA"/>
    <path d="M519.787 567.98L159.244 513.908L0.272705 437.831C0.368608 432.684 0.594062 427.504 0.950752 422.302C1.26201 417.79 1.66876 413.261 2.18108 408.716C3.8232 394.103 6.55012 379.348 10.5469 364.559C15.398 346.625 22.1162 328.631 31.0498 310.773C31.0498 310.773 112.005 277.171 147.011 277.171C152.271 277.171 156.489 277.928 159.244 279.673C179.825 292.704 237.714 370.48 265.695 370.48C266.387 370.48 267.054 370.429 267.708 370.332C283.724 367.961 297.289 354.509 313.159 354.509C324.159 354.509 336.265 360.968 351.066 382.06C377.696 420.014 395.61 439.976 416.444 439.976C423.893 439.976 431.717 437.423 440.449 432.226C466.405 416.777 482.507 396.181 501.78 396.181C507.114 396.181 512.687 397.757 518.782 401.458C546.905 418.526 607.365 515.914 607.365 515.914L519.787 567.98Z" fill="#D6E6FB"/>
    <path d="M716.248 567.984C654.332 567.984 645.327 514.909 645.327 514.909C645.327 514.909 723.285 402.438 734.432 402.438C734.529 402.438 734.621 402.446 734.709 402.463C743.976 404.313 768.027 442.759 779.973 442.759C780.97 442.759 781.883 442.49 782.699 441.91C793.244 434.379 837.392 281.279 854.251 279.673C854.571 279.643 854.895 279.626 855.223 279.626C862.495 279.626 871.164 287.01 879.026 294.394C886.887 301.782 893.945 309.166 897.992 309.166C898.682 309.166 899.279 308.956 899.784 308.494C903.435 305.142 919.89 270.762 936.862 240.902C950.393 217.081 964.261 196.14 972.203 196.14C972.211 196.14 972.215 196.14 972.224 196.14C980.195 196.174 991.059 213.435 1002.52 235.314C991.059 213.435 980.195 196.174 972.224 196.14C972.215 196.14 972.211 196.14 972.203 196.14C964.261 196.14 950.393 217.081 936.862 240.902L936.858 240.911C936.858 240.911 962.217 214.348 965.376 214.348C965.582 214.348 965.696 214.461 965.696 214.714C965.696 218.187 965.948 228.456 967.963 228.451C968.278 228.451 968.636 228.199 969.044 227.631C971.559 224.112 975.467 216.677 979.029 216.677C979.736 216.677 980.43 216.972 981.099 217.649C985.116 221.74 1002.52 235.322 1002.52 235.322C1021.86 272.247 1042.88 322.332 1054.53 325.057C1055.76 325.343 1057.02 325.473 1058.33 325.473C1063.16 325.473 1068.53 323.682 1074.15 321.332C1074.07 321.899 1073.99 322.467 1073.91 323.035C1073.59 325.196 1073.32 327.311 1073.1 329.401C1072.26 336.781 1071.86 343.744 1071.86 350.338C1071.86 357.04 1072.27 363.356 1073.03 369.336C1075.88 391.547 1083.71 409.107 1094.15 424.291C1101.11 434.429 1109.25 443.499 1117.84 452.179C1101.07 457.813 1076.58 465.979 1047.83 475.407C1047.77 467.123 1046.42 419.258 1023.72 418.568C1023.35 418.555 1022.97 418.551 1022.6 418.551C1013.01 418.551 1003.21 422.205 993.457 425.855C983.703 429.509 973.995 433.164 964.585 433.164C959.332 433.164 954.171 432.024 949.152 429.11C946.982 427.848 944.441 427.281 941.611 427.281C928.033 427.281 907.738 440.371 889.298 453.461C870.853 466.551 854.268 479.641 848.114 479.641C847.887 479.641 847.673 479.625 847.471 479.587C835.42 477.358 865.549 428.357 863.749 408.657C863.551 406.491 862.495 405.524 860.758 405.524C846.676 405.524 788.062 469.234 782.699 477.102C780.326 480.579 776.907 482.047 773.352 482.047C767.876 482.047 762.088 478.556 759.35 473.536C759.013 472.922 758.55 472.636 757.97 472.636C750.748 472.636 726.209 517.049 726.209 517.049L706.624 537.536L751.816 542.809L846.718 538.289L977.01 498.341C877.819 530.009 763.72 564.364 726.213 567.551C722.747 567.845 719.428 567.984 716.248 567.984Z" fill="#C0DAFC"/>
    <path d="M977.011 498.341C1002.06 490.343 1026.16 482.518 1047.83 475.407C1047.84 476.193 1047.83 476.626 1047.83 476.626L977.011 498.341Z" fill="#C0DAFC"/>
    <path d="M751.816 542.809L706.625 537.536L726.209 517.049C726.209 517.049 750.748 472.636 757.97 472.636C758.551 472.636 759.013 472.922 759.35 473.536C762.088 478.556 767.876 482.047 773.352 482.047C776.907 482.047 780.326 480.579 782.699 477.101C788.062 469.234 846.676 405.524 860.758 405.524C862.496 405.524 863.551 406.491 863.749 408.657C865.549 428.357 835.42 477.358 847.471 479.587C847.673 479.624 847.887 479.641 848.114 479.641C854.268 479.641 870.853 466.551 889.298 453.461C907.738 440.371 928.033 427.281 941.611 427.281C944.442 427.281 946.982 427.848 949.153 429.11C954.171 432.024 959.332 433.163 964.585 433.163C973.995 433.163 983.703 429.509 993.457 425.855C1003.21 422.205 1013.01 418.551 1022.6 418.551C1022.97 418.551 1023.35 418.555 1023.72 418.568C1046.42 419.258 1047.77 467.123 1047.83 475.407C1026.16 482.518 1002.06 490.343 977.011 498.341L846.718 538.288L751.816 542.809" fill="#A6CBFD"/>
    <path d="M1134.82 468.624C1134.82 468.624 807.966 536.72 773.861 534.849C773.861 534.849 797.98 510.893 828.109 509.888C858.234 508.887 871.291 480.453 906.442 477.101C941.594 473.746 962.684 481.277 977.246 473.746C991.808 466.215 1008.38 429.568 1042.53 430.573C1071.82 431.439 1083 430.821 1094.15 424.291C1103.06 437.272 1113.9 448.507 1125.18 459.411C1128.37 462.497 1131.59 465.559 1134.82 468.624" fill="#80B4FF"/>
    <path d="M482.452 504.484L0.955731 422.336L0.950684 422.302C1.26237 417.79 1.66869 413.261 2.18101 408.716C3.82313 394.103 6.54963 379.348 10.5468 364.559C10.5468 364.559 61.8967 354.223 86.7531 364.559C111.61 374.899 109.35 391.463 128.934 393.721C148.513 395.983 166.274 394.095 181.002 405.81C195.735 417.521 217.83 425.889 240.256 424.552C262.686 423.21 310.556 417.857 329.307 432.92C348.05 447.978 385.212 480.773 417.348 480.272C449.488 479.772 467.306 488.32 472.585 495.835C477.695 503.114 482.183 504.413 482.452 504.484" fill="#AFCDFB"/>
    <path d="M1198.6 599.56C1198.27 607.927 1197.39 616.829 1195.88 626.354C1189.29 667.861 1153.52 698.432 1111.48 698.411L869.385 698.301L657.251 698.2H650.883L605.468 698.184H599.609L556.268 698.167L548.856 698.163L488.467 698.137L477.821 698.125L428.57 698.1H421.213L415.178 698.095L330.296 698.053L315.472 698.049L246.166 698.02L235.922 698.015L134.814 697.965C121.884 697.961 109.365 695.127 98.0116 689.917C80.8127 682.028 66.2906 668.673 57.0562 651.399C40.0179 619.516 19.5352 573.493 8.39744 520.434C6.14331 509.694 4.27532 498.673 2.89399 487.421C0.619246 468.952 -0.329687 449.866 0.498945 430.418C0.810207 423.231 1.36249 415.99 2.18102 408.716C49.5892 408.076 174.805 411.756 323.833 459.108C514.273 519.622 689.934 558.515 817.993 526.885C924.508 500.578 1056.79 468.002 1134.82 468.624C1139.13 472.716 1143.45 476.82 1147.68 481.012C1148.59 481.904 1149.49 482.808 1150.39 483.716C1151.94 485.272 1153.47 486.844 1154.98 488.434C1161.21 494.956 1167.16 501.781 1172.55 509.173C1173.73 510.775 1174.87 512.407 1175.99 514.063C1177.3 516.015 1178.57 518.008 1179.79 520.047C1183.69 526.523 1187.15 533.453 1190 540.98C1196.16 557.249 1199.53 576.302 1198.6 599.56" fill="#BFE2A8"/>
    <path d="M863.749 217.653L569.496 214.642C569.496 214.642 582.708 190.333 614.007 190.333C615.748 190.333 617.54 190.409 619.395 190.564C619.395 190.564 644.258 168.593 677.786 168.593C692.315 168.593 708.471 172.718 724.938 184.547C724.938 184.547 740.438 181.953 761.335 181.953C780.831 181.953 805.021 184.211 825.72 192.94C854.306 205 863.749 217.653 863.749 217.653" fill="#F5FAFE"/>
    <path d="M622.588 279.673L373.342 277.557C373.342 277.557 384.531 260.456 411.043 260.456C412.519 260.456 414.034 260.51 415.607 260.62C415.607 260.62 436.667 245.162 465.068 245.162C477.376 245.162 491.058 248.064 505.006 256.385C505.006 256.385 518.134 254.56 535.834 254.56C552.348 254.56 572.841 256.15 590.372 262.289C614.588 270.775 622.588 279.673 622.588 279.673" fill="#F5FAFE"/>
    <path d="M396.258 193.121L218.731 191.006C218.731 191.006 226.699 173.904 245.584 173.904C246.634 173.904 247.715 173.959 248.833 174.068C248.833 174.068 263.835 158.615 284.062 158.615C292.829 158.615 302.575 161.516 312.511 169.834C312.511 169.834 321.861 168.009 334.467 168.009C346.229 168.009 360.824 169.598 373.313 175.742C390.558 184.223 396.258 193.121 396.258 193.121" fill="#F5FAFE"/>
    <path d="M516.552 525.774C516.552 525.774 329.64 504.548 253.983 477.102C178.325 449.651 172.826 457.721 191.142 472.257C209.459 486.798 315.079 521.157 271.307 525.064C227.536 528.966 148.76 517.486 119.071 547.859C89.3837 578.232 42.7448 605.531 119.071 611.426C195.399 617.317 418.286 575.461 418.286 575.461L516.552 525.774" fill="#DAED8E"/>
    <path d="M722.654 492.824C722.654 492.824 749.772 558.081 752.784 560.091C755.8 562.097 766.883 564.641 767.636 567.656C768.389 570.667 785.71 610.572 785.71 610.572L719.432 623.372L666.707 592.504L722.654 492.824" fill="#A36F4B"/>
    <path d="M1111.48 698.411L911.494 698.322L869.385 698.301L657.251 698.2H650.883L605.468 698.184H599.609L556.268 698.167L548.856 698.163L488.467 698.137L477.821 698.125L428.57 698.099H421.214L415.178 698.095L330.296 698.053L315.472 698.049L246.166 698.02L235.922 698.015L134.814 697.965C121.884 697.961 109.365 695.127 98.0117 689.917C152.098 664.737 316.813 589.32 447.477 543.023C606.158 486.798 696.546 456.678 722.654 492.824C748.767 528.966 653.361 605.27 705.581 607.28C757.806 609.286 883.342 593.223 930.544 602.259C977.654 611.275 972.745 629.297 985.709 630.365C985.755 630.37 985.781 630.37 985.781 630.37C998.837 631.375 1099.27 624.348 1111.32 642.417C1123.37 660.49 1111.48 698.411 1111.48 698.411" fill="#D8A987"/>
    <path d="M936.858 240.911L936.862 240.902C950.393 217.081 964.261 196.14 972.203 196.14C972.211 196.14 972.215 196.14 972.224 196.14C980.195 196.174 991.059 213.435 1002.52 235.314V235.322C1002.52 235.322 985.116 221.74 981.099 217.649C980.43 216.972 979.736 216.677 979.03 216.677C975.467 216.677 971.559 224.112 969.044 227.631C968.636 228.199 968.278 228.451 967.963 228.451C965.948 228.456 965.696 218.187 965.696 214.714C965.696 214.461 965.582 214.348 965.376 214.348C962.217 214.348 936.858 240.911 936.858 240.911" fill="#EDF5FE"/>
    <path d="M828.282 326.424C828.282 326.424 848.863 271.939 859.576 273.613C870.29 275.287 884.931 299.999 884.931 299.999C884.931 299.999 870.037 287.254 867.274 291.518C864.514 295.786 864.01 304.217 859.24 299.999C854.47 295.786 851.458 295.181 848.947 299.999C846.436 304.823 828.282 326.424 828.282 326.424Z" fill="#F8FCFF"/>
    <path d="M299.343 638.401C286.288 654.468 205.944 659.485 208.454 671.032C210.468 680.283 247.607 686.956 249.902 698.02H246.166L235.922 698.015L134.814 697.965C121.884 697.961 109.365 695.126 98.0116 689.917C80.8127 682.028 66.2906 668.673 57.0562 651.399C50.5079 639.145 43.4477 624.794 36.6038 608.76C36.6038 608.76 70.8653 574.258 155.226 587.756C239.588 601.254 251.283 566.252 290.807 577.159C330.331 588.067 340.52 578.774 355.083 587.756C369.645 596.738 299.846 611.796 292.313 618.823C284.781 625.853 312.4 622.338 299.343 638.401" fill="#509B67"/>
    <path d="M80.5586 591.322C80.5586 591.322 63.3207 550.067 79.6232 541.081C95.9257 532.099 77.7918 576.503 84.7594 592.979C88.2098 601.136 80.5586 591.322 80.5586 591.322" fill="#509B67"/>
    <path d="M72.6079 601.443C72.6079 601.443 51.3596 575.372 61.2658 565.23C71.1723 555.083 67.4578 591.313 76.0032 601.708C80.2351 606.855 72.6079 601.443 72.6079 601.443Z" fill="#509B67"/>
    <path d="M88.2543 599.072C88.2543 599.072 86.2433 558.123 103.303 555.323C120.363 552.522 90.5207 585.406 91.3968 601.784C91.8305 609.896 88.2543 599.072 88.2543 599.072Z" fill="#509B67"/>
    <path d="M147.825 640.386C147.825 640.386 145.477 615.682 154.451 613.558C163.424 611.43 152.478 639.284 152.478 639.284L147.825 640.386" fill="#82B378"/>
    <path d="M154.519 641.008C154.519 641.008 164.13 621.577 172.754 624.285C181.378 626.989 158.99 642.413 158.99 642.413L154.519 641.008Z" fill="#82B378"/>
    <path d="M135.977 641.748C135.977 641.748 145.686 636.395 154.055 637.733C162.424 639.07 163.763 640.411 167.445 641.748C171.128 643.09 175.647 645.764 173.639 646.937C171.63 648.106 154.891 645.932 150.874 646.937C146.857 647.942 125.837 645.419 135.977 641.748Z" fill="#82B378"/>
    <path d="M326.24 675.237C326.24 675.237 337.503 622.788 353.194 635.088C368.888 647.383 335.433 659.493 326.24 675.237Z" fill="#82B378"/>
    <path d="M321.633 678.121C321.633 678.121 316.484 640.012 326.899 638.149C337.314 636.286 321.766 666.587 321.633 678.121Z" fill="#82B378"/>
    <path d="M311.019 675.119C311.019 675.119 320.017 670.754 326.564 671.158C333.111 671.562 350.734 673.647 349.123 677.129C347.507 680.615 329.876 677.6 325.409 678.168C320.943 678.735 306.194 678.412 311.019 675.119" fill="#82B378"/>
    <path d="M918.817 638.107C918.817 638.107 918.485 620.034 926.851 616.855C935.221 613.676 919.654 633.422 918.817 638.107Z" fill="#509B67"/>
    <path d="M925.539 635.533C925.539 635.533 931.928 612.671 943.655 611.821C955.382 610.972 928.357 629.953 925.539 635.533" fill="#509B67"/>
    <path d="M142.207 557.346C145.574 558.708 157.604 557.606 157.994 556.648C158.383 555.685 150.515 546.522 147.148 545.155C143.781 543.793 139.945 545.416 138.581 548.78C137.216 552.148 138.84 555.983 142.207 557.346" fill="#509B67"/>
    <path d="M172.556 563.085C170.666 566.189 169.811 578.236 170.697 578.774C171.583 579.312 181.901 573.03 183.791 569.931C185.682 566.828 184.699 562.783 181.597 560.89C178.494 559.002 174.446 559.986 172.556 563.085Z" fill="#509B67"/>
    <path d="M156.342 586.663C159.803 587.769 171.714 585.75 172.03 584.762C172.345 583.774 163.802 575.238 160.341 574.132C156.88 573.03 153.179 574.939 152.074 578.4C150.97 581.856 152.88 585.557 156.342 586.663Z" fill="#509B67"/>
    <path d="M173.863 598.323C173.852 598.05 172.52 570.781 157.587 556.702L157.904 556.366C172.976 570.574 174.314 598.025 174.326 598.302L173.863 598.323Z" fill="#509B67"/>
    <path d="M269.318 534.908C266.049 537.077 253.078 538.503 252.459 537.574C251.839 536.64 258.189 525.245 261.458 523.075C264.727 520.905 269.137 521.792 271.307 525.064C273.478 528.331 272.587 532.738 269.318 534.908Z" fill="#509B67"/>
    <path d="M238.437 547.531C241.107 550.403 244.61 562.972 243.789 563.733C242.969 564.494 230.693 560.07 228.023 557.194C225.353 554.322 225.52 549.827 228.396 547.157C231.272 544.487 235.767 544.655 238.437 547.531Z" fill="#509B67"/>
    <path d="M260.685 568.985C257.26 570.898 244.218 571.336 243.672 570.356C243.125 569.38 250.324 558.502 253.748 556.584C257.173 554.671 261.502 555.895 263.418 559.318C265.333 562.74 264.11 567.067 260.685 568.985Z" fill="#509B67"/>
    <path d="M244.657 585.103C244.61 584.808 240.135 555.668 252.902 537.548L252.494 537.258C239.609 555.546 244.116 584.888 244.163 585.183L244.657 585.103" fill="#509B67"/>
    <path d="M204.722 600.657L203.764 600.506C199.99 551.694 185.081 516.671 184.872 516.195L185.744 515.817C185.953 516.3 200.971 551.555 204.722 600.657Z" fill="#509B67"/>
    <path d="M174.757 511.28C176.595 513.365 185.205 516.713 185.799 516.187C186.394 515.666 184.138 506.709 182.3 504.627C180.461 502.542 177.282 502.344 175.199 504.182C173.116 506.019 172.918 509.198 174.757 511.28" fill="white"/>
    <path d="M187.95 504.022C186.29 506.251 184.782 515.363 185.418 515.834C186.054 516.309 194.357 512.259 196.018 510.031C197.678 507.806 197.218 504.657 194.99 502.996C192.762 501.335 189.611 501.793 187.95 504.022" fill="white"/>
    <path d="M197.854 513.71C195.173 512.978 186.138 514.909 185.93 515.674C185.722 516.439 192.528 522.684 195.208 523.415C197.889 524.147 200.654 522.566 201.384 519.883C202.115 517.205 200.534 514.442 197.854 513.71Z" fill="white"/>
    <path d="M191.75 525.791C191.483 523.024 186.475 515.266 185.685 515.342C184.896 515.417 181.468 523.991 181.736 526.758C182.003 529.521 184.461 531.548 187.227 531.279C189.992 531.014 192.017 528.554 191.75 525.791Z" fill="white"/>
    <path d="M178.046 525.198C180.506 523.903 185.804 516.338 185.436 515.636C185.067 514.934 175.829 515.001 173.369 516.292C170.909 517.583 169.962 520.623 171.254 523.083C172.545 525.539 175.586 526.485 178.046 525.198" fill="white"/>
    <path d="M183.8 515.375C183.944 514.476 184.793 513.857 185.697 514C186.6 514.148 187.216 514.993 187.072 515.897C186.928 516.801 186.079 517.415 185.175 517.272C184.272 517.129 183.656 516.28 183.8 515.375Z" fill="#F99746"/>
    <path d="M204.448 550.752C201.715 554.116 198.764 568.215 199.724 568.993C200.683 569.775 213.888 564.01 216.622 560.651C219.356 557.291 218.847 552.35 215.485 549.617C212.123 546.884 207.182 547.392 204.448 550.752" fill="#509B67"/>
    <path d="M292.432 603.87L293.39 603.714C297.164 554.907 312.073 519.879 312.282 519.404L311.41 519.03C311.202 519.509 296.184 554.768 292.432 603.87Z" fill="#509B67"/>
    <path d="M322.397 514.492C320.559 516.574 311.949 519.925 311.355 519.4C310.76 518.874 313.016 509.917 314.854 507.836C316.693 505.754 319.872 505.557 321.955 507.394C324.038 509.232 324.236 512.411 322.397 514.492Z" fill="white"/>
    <path d="M309.204 507.234C310.864 509.459 312.372 518.571 311.736 519.046C311.1 519.517 302.797 515.472 301.137 513.243C299.476 511.015 299.936 507.865 302.164 506.204C304.392 504.547 307.543 505.006 309.204 507.234Z" fill="white"/>
    <path d="M299.3 516.923C301.981 516.191 311.016 518.121 311.224 518.887C311.432 519.648 304.626 525.896 301.946 526.624C299.265 527.356 296.5 525.774 295.77 523.096C295.039 520.417 296.62 517.65 299.3 516.923Z" fill="white"/>
    <path d="M305.404 529C305.672 526.237 310.679 518.474 311.469 518.55C312.258 518.626 315.686 527.204 315.418 529.967C315.151 532.734 312.693 534.756 309.927 534.491C307.162 534.222 305.137 531.767 305.404 529Z" fill="white"/>
    <path d="M319.108 528.407C316.648 527.116 311.35 519.551 311.718 518.849C312.087 518.146 321.325 518.209 323.785 519.5C326.245 520.791 327.192 523.832 325.9 526.292C324.609 528.751 321.568 529.698 319.108 528.407Z" fill="white"/>
    <path d="M313.354 518.588C313.21 517.684 312.361 517.07 311.457 517.213C310.554 517.356 309.939 518.205 310.082 519.109C310.226 520.013 311.075 520.627 311.979 520.484C312.883 520.341 313.498 519.492 313.354 518.588Z" fill="#F99746"/>
    <path d="M292.706 553.965C295.44 557.325 298.39 571.424 297.431 572.206C296.471 572.984 283.266 567.223 280.533 563.863C277.798 560.499 278.307 555.563 281.669 552.829C285.031 550.096 289.972 550.605 292.706 553.965" fill="#509B67"/>
    <path d="M841.38 588.933C845.788 590.876 861.789 589.901 862.344 588.643C862.899 587.386 852.838 574.914 848.426 572.967C844.017 571.024 838.865 573.017 836.921 577.429C834.974 581.835 836.972 586.986 841.38 588.933" fill="#509B67"/>
    <path d="M881.39 597.772C878.757 601.809 877.137 617.75 878.29 618.499C879.442 619.251 893.378 611.338 896.011 607.305C898.644 603.268 897.504 597.861 893.466 595.232C889.428 592.6 884.023 593.735 881.39 597.772" fill="#509B67"/>
    <path d="M858.933 628.376C863.48 629.983 879.354 627.792 879.813 626.497C880.271 625.197 869.288 613.528 864.746 611.926C860.199 610.32 855.214 612.704 853.612 617.246C852.005 621.791 854.39 626.774 858.933 628.376Z" fill="#509B67"/>
    <path d="M881.693 644.549C881.689 644.183 881.032 607.978 861.801 588.702L862.235 588.269C881.642 607.721 882.303 644.174 882.307 644.54L881.693 644.549" fill="#509B67"/>
    <path d="M911.347 645.625L910.51 645.495C907.208 602.776 894.156 572.122 893.975 571.706L894.736 571.378C894.921 571.798 908.066 602.654 911.347 645.625Z" fill="#509B67"/>
    <path d="M885.121 567.408C886.732 569.229 894.265 572.16 894.787 571.701C895.309 571.243 893.332 563.405 891.725 561.584C890.114 559.759 887.333 559.587 885.508 561.197C883.687 562.804 883.514 565.587 885.121 567.408Z" fill="white"/>
    <path d="M896.667 561.054C895.216 563.005 893.895 570.978 894.455 571.394C895.01 571.806 902.278 568.266 903.729 566.315C905.181 564.368 904.781 561.609 902.829 560.154C900.882 558.704 898.122 559.107 896.667 561.054" fill="white"/>
    <path d="M905.336 569.532C902.989 568.897 895.081 570.583 894.9 571.251C894.719 571.92 900.676 577.387 903.023 578.026C905.366 578.665 907.788 577.281 908.428 574.939C909.067 572.593 907.683 570.175 905.336 569.532Z" fill="white"/>
    <path d="M899.994 580.107C899.759 577.685 895.38 570.894 894.686 570.961C893.996 571.028 890.997 578.534 891.228 580.952C891.464 583.37 893.618 585.145 896.036 584.909C898.455 584.678 900.23 582.525 899.994 580.107" fill="white"/>
    <path d="M888.002 579.586C890.156 578.455 894.791 571.836 894.467 571.222C894.148 570.604 886.059 570.663 883.91 571.794C881.756 572.921 880.927 575.583 882.059 577.736C883.186 579.889 885.849 580.717 888.002 579.586" fill="white"/>
    <path d="M893.037 570.991C893.163 570.2 893.908 569.662 894.699 569.788C895.489 569.914 896.028 570.658 895.902 571.449C895.776 572.24 895.031 572.778 894.24 572.652C893.449 572.526 892.911 571.781 893.037 570.991Z" fill="#F99746"/>
    <path d="M911.107 601.952C908.714 604.896 906.131 617.233 906.972 617.914C907.814 618.6 919.368 613.554 921.761 610.614C924.155 607.671 923.709 603.348 920.765 600.96C917.824 598.567 913.5 599.013 911.107 601.952Z" fill="#509B67"/>
    <path d="M1111.48 698.411L911.494 698.322C912.504 688.794 930.607 683.979 928.929 674.577C926.775 662.529 837.683 658.009 873.436 642.64C908.554 627.544 983.042 630.264 985.709 630.365C985.755 630.369 985.781 630.369 985.781 630.369C998.837 631.374 1099.27 624.348 1111.32 642.417C1123.37 660.49 1111.48 698.411 1111.48 698.411" fill="#509B67"/>
    <path d="M518.601 588.938C518.601 588.938 519.829 608.104 523.539 608.369C524.035 608.407 542.354 608.365 542.354 608.365L565.74 608.18C565.74 608.18 565.576 602.545 558.737 601.368C551.898 600.194 540.444 595.418 536.284 586.394C531.905 576.899 518.601 588.938 518.601 588.938Z" fill="#AF5919"/>
    <path d="M637.613 572.694C637.613 572.694 641.184 591.562 644.898 591.372C645.394 591.347 663.569 589.064 663.569 589.064L686.758 586.015C686.758 586.015 685.904 580.444 678.972 580.116C672.041 579.788 660.091 576.449 654.854 568.001C649.348 559.116 637.613 572.694 637.613 572.694Z" fill="#AF5919"/>
    <path d="M596.143 382.771C596.143 382.771 590.111 421.894 567.444 491.365C544.776 560.84 541.735 590.91 541.735 590.91L517.255 590.275C517.255 590.275 516.88 514.404 527.32 479.469C537.76 444.538 529.314 353.609 529.314 353.609L596.143 382.771" fill="#163560"/>
    <path d="M602.785 347.259C602.785 347.259 636.111 414.54 644.587 467.8C653.066 521.061 659.738 569.792 659.738 569.792C659.738 569.792 651.548 572.803 636.204 574.132C636.204 574.132 610.234 496.802 607.479 477.543C604.724 458.284 527.333 381.291 533.373 362.288C539.418 343.282 602.785 347.259 602.785 347.259" fill="#1C468A"/>
    <path d="M554.497 217.476C554.497 217.476 520.082 250.507 518.433 264.106C516.788 277.705 535.132 298.931 535.132 298.931L554.497 217.476Z" fill="#ED7D2B"/>
    <path d="M560.407 217.771L573.438 226.273L592.244 222.729C591.979 221.211 590.721 214.92 589.581 209.226C589.51 208.89 589.442 208.553 589.375 208.225C588.399 203.377 587.554 199.214 587.554 199.214L569.967 191.502L563.41 188.626C563.427 188.731 563.932 194.008 563.999 194.778C565.257 208.461 560.407 217.771 560.407 217.771" fill="#FFB27D"/>
    <path d="M587.402 213.406C587.041 213.255 564.739 206.728 562.316 207.532C559.898 208.335 558.476 213.023 558.476 213.023L594.948 221.181C594.948 221.181 592.067 215.357 587.402 213.406" fill="#ED7D2B"/>
    <path d="M527.716 363.032C531.531 380.252 594.406 382.157 610.579 366.485C612.417 364.698 612.493 356.401 611.773 345.224C610.364 323.379 605.927 290.526 605.721 273.735C605.62 265.628 604.484 257.336 602.987 249.809C599.79 233.767 594.948 221.181 594.948 221.181C594.948 221.181 564.218 211.325 558.476 213.023C530.812 221.215 523.901 345.809 527.716 363.032Z" fill="#F99746"/>
    <path d="M611.773 345.224C610.364 323.379 609.603 287.309 609.397 270.518C609.296 262.411 604.484 257.336 602.987 249.809L584.504 246.588C584.504 246.588 566.603 320.377 611.773 345.224" fill="#ED7D2B"/>
    <path d="M578.607 319.38C578.607 319.38 599.537 301.097 607.365 289.533L613.279 293.528C613.279 293.528 596.778 321.138 581.005 328.417C565.231 335.696 578.607 319.38 578.607 319.38" fill="#163560"/>
    <path d="M565.32 195.017C569.19 201.544 583.579 207.162 589.582 209.226C589.51 208.89 589.443 208.553 589.375 208.225C588.4 203.377 587.554 199.214 587.554 199.214L569.968 191.502C566.085 191.456 563.721 192.33 565.32 195.017" fill="#FCA56B"/>
    <path d="M593.522 197.326C593.522 197.326 566.83 210.219 559.056 193.474C551.279 176.734 542.597 167.122 559.309 158.182C576.024 149.242 582.325 154.086 586.283 159.04C590.237 163.997 600.265 193.537 593.522 197.326Z" fill="#FFB27D"/>
    <path d="M584.933 157.517C584.933 157.517 586.178 178.16 581.833 177.903C577.484 177.642 573.564 177.558 575.095 183.609C576.626 189.66 583.528 195.884 570.699 198.899C557.87 201.918 534.21 171.205 536.835 164.334C544.41 144.503 596.492 132.981 584.933 157.517" fill="#163560"/>
    <path d="M541.95 289.693C541.95 289.693 538.757 290.08 538.467 293.082C538.173 296.085 536.158 332.635 537.987 333.602C539.813 334.569 547.414 334.178 547.855 333.602C548.297 333.026 549.942 292.914 548.835 290.496C548.835 290.496 545.13 289.058 541.95 289.693Z" fill="#163560"/>
    <path d="M611.955 331.39C611.955 331.39 616.363 334.661 617.288 338.206C618.79 343.95 617.831 349.324 612.194 351.481C610.116 352.28 609.83 347.344 608.291 345.224C606.751 343.101 601.254 341.928 602.511 338.702C603.769 335.473 606.23 329.161 606.23 329.161L611.955 331.39" fill="#FFB27D"/>
    <path d="M604.619 333.295C604.619 333.295 601.132 337.125 600.774 339.594C600.412 342.058 600.269 345.872 600.189 347.499C600.11 349.127 600.93 350.472 602.436 347.823C603.941 345.17 605.237 341.646 606.259 341.65C607.285 341.654 604.619 333.295 604.619 333.295Z" fill="#FFB27D"/>
    <path d="M580.467 216.825C580.467 216.825 602.352 220.693 619.24 245.456C636.128 270.22 642.383 286.056 639.299 295C636.216 303.944 620.834 331.676 617.73 335.431C615.071 338.643 607.366 338.412 602.326 336.242C602.326 336.242 612.093 294.979 608.165 290.521C606.486 288.617 584.824 270.329 581.396 279.193C575.722 293.86 580.467 216.825 580.467 216.825Z" fill="#F99746"/>
    <path d="M599.163 225.251C599.163 225.251 595.575 218.919 587.074 217.653C578.578 216.387 573.438 226.273 573.438 226.273L579.793 228.687C579.793 228.687 583.882 221.181 587.579 221.181C592.244 221.181 596.017 222.766 599.163 225.251" fill="#163560"/>
    <path d="M585.388 255.612C585.388 255.612 576.538 255.494 565.193 255.229C545.247 254.771 517.595 253.875 516.885 252.428C515.774 250.153 517.251 224.852 524.069 223.023C524.662 222.863 525.512 222.733 526.567 222.632C537.579 221.576 571.238 223.574 579.007 226.071C587.508 228.813 585.388 255.612 585.388 255.612Z" fill="#163560"/>
    <path d="M565.193 255.229C545.247 254.771 517.595 253.875 516.885 252.428C515.774 250.153 517.251 224.852 524.069 223.023C524.662 222.863 525.512 222.733 526.567 222.632C539.594 223.195 554.034 224.541 558.783 226.071C566.691 228.62 565.416 251.949 565.193 255.229" fill="#1C468A"/>
    <path d="M585.388 255.612C585.388 255.612 517.065 248.825 505.233 252.773C493.401 256.717 493.401 337.302 497.098 342.848C500.796 348.391 567.915 353.542 577.434 350.598C586.952 347.655 585.388 255.612 585.388 255.612Z" fill="#1C468A"/>
    <path d="M565.206 253.833C565.206 253.833 555.851 254.686 554.993 261.339C554.135 267.995 548.23 349.005 553.584 351.149C558.943 353.289 581.219 352.423 582.515 351.149C583.806 349.871 588.63 260.969 585.387 255.612C585.387 255.612 574.523 252.428 565.206 253.833Z" fill="#163560"/>
    <path d="M522.841 231.752C522.841 231.752 520.662 242.992 523.472 244.704C526.286 246.415 533.121 246.903 534.82 244.897C536.515 242.891 536.149 231.979 536.149 231.979L522.841 231.752Z" fill="#163560"/>
    <path d="M522.841 231.752C522.841 231.752 523.791 236.298 529.125 236.39C534.454 236.479 536.149 231.979 536.149 231.979C536.149 231.979 528.915 228.708 522.841 231.752Z" fill="#29589B"/>
    <path d="M528.162 234.616C528.17 234.069 528.624 233.632 529.171 233.64C529.718 233.649 530.155 234.103 530.147 234.65C530.139 235.2 529.684 235.638 529.138 235.625C528.586 235.617 528.149 235.167 528.162 234.616Z" fill="#F99746"/>
    <path d="M542.963 233.119C542.963 233.119 540.07 244.195 542.766 246.087C545.462 247.975 552.251 248.896 554.076 247.004C555.898 245.116 556.23 234.2 556.23 234.2L542.963 233.119" fill="#163560"/>
    <path d="M542.963 233.119C542.963 233.119 543.624 237.719 548.936 238.148C554.253 238.581 556.23 234.2 556.23 234.2C556.23 234.2 549.222 230.474 542.963 233.119Z" fill="#29589B"/>
    <path d="M548.091 236.319C548.133 235.772 548.612 235.364 549.159 235.411C549.706 235.453 550.114 235.932 550.072 236.483C550.026 237.03 549.546 237.433 548.999 237.391C548.453 237.345 548.045 236.866 548.091 236.319Z" fill="#F99746"/>
    <path d="M503.938 262.264C503.938 262.264 500.981 272.705 502.647 275.434C504.308 278.159 541.84 280.009 544.242 277.789C546.648 275.573 547.018 263.559 547.018 263.559L503.938 262.264" fill="#163560"/>
    <path d="M503.938 262.264C503.938 262.264 509.07 268.735 522.033 268.916C535.001 269.101 547.018 263.559 547.018 263.559C547.018 263.559 516.695 258.198 503.938 262.264" fill="#29589B"/>
    <path d="M520.023 266.469C520.023 265.855 520.523 265.359 521.133 265.359C521.747 265.359 522.244 265.855 522.244 266.469C522.244 267.083 521.747 267.579 521.133 267.579C520.523 267.579 520.023 267.083 520.023 266.469Z" fill="#F99746"/>
    <path d="M536.742 289.264C536.742 289.264 505.742 287.944 503.938 289.264C502.138 290.589 501.444 333.282 502.832 335.364C504.216 337.441 535.556 338.412 535.556 338.412L536.742 289.264" fill="#29589B"/>
    <path d="M1198.6 599.559C1179.61 598.634 1151.02 597.167 1126.38 595.565C1085.21 592.886 1103.29 580.17 1122.37 562.093C1141.45 544.011 1063.11 554.066 1004.86 558.098C946.616 562.127 859.24 560.091 890.362 534.891C921.484 509.686 1147.68 481.012 1147.68 481.012C1148.59 481.904 1149.49 482.808 1150.39 483.716C1151.94 485.272 1153.47 486.844 1154.98 488.434C1161.21 494.956 1167.16 501.781 1172.55 509.173C1173.73 510.775 1174.87 512.407 1175.99 514.063C1177.3 516.015 1178.57 518.008 1179.79 520.047C1183.69 526.523 1187.15 533.453 1190 540.98C1196.16 557.249 1199.53 576.302 1198.6 599.559" fill="#DAED8E"/>
    <path d="M108.582 461.699C89.4447 461.699 58.5221 462.704 67.9579 468.725C77.393 474.751 85.4273 483.787 53.2899 484.788C21.5188 485.785 3.30578 487.387 2.89399 487.421C0.619246 468.952 -0.329687 449.866 0.498945 430.418C0.498945 430.418 30.2611 421.94 48.3387 430.418C66.4159 438.899 79.4019 432.079 93.4617 441.115C107.522 450.152 137.149 451.157 143.175 456.177C149.2 461.198 127.714 461.699 108.582 461.699Z" fill="#82B378"/>
    <path d="M847.862 668.152L849.271 644.208C849.271 644.208 837.22 634.183 835.496 633.494C833.775 632.804 807.759 628.826 807.759 628.826L808.882 651.315L817.03 667.655L847.862 668.152" fill="#EDC5A2"/>
    <path d="M788.608 667.361C788.608 667.361 786.926 649.927 787.822 648.022C788.718 646.113 805.046 628.275 807.759 628.826C810.468 629.377 825.417 634.957 828.038 637.068C830.654 639.179 836.736 655.679 836.635 657.395C836.534 659.111 836.013 667.958 836.013 667.958L788.608 667.361Z" fill="#F9DDBF"/>
    <path d="M807.57 673.757L807.755 663.475C807.785 661.865 807.045 660.338 805.757 659.371C802.977 657.277 798.249 653.77 797.353 653.455C796.546 653.169 788.714 652.223 782.96 651.554C779.788 651.188 777.083 653.829 777.369 657.008L778.219 666.314C778.282 667.003 778.484 667.672 778.821 668.282L783.321 676.456C784.226 678.1 785.975 679.105 787.851 679.059L802.666 678.693C805.358 678.626 807.524 676.448 807.57 673.757" fill="#EDC5A2"/>
    <path d="M768.444 679.64C765.836 679.715 763.611 677.785 763.304 675.195C762.854 671.381 762.361 666.427 762.723 665.57C763.325 664.14 779.052 651.369 781.062 651.697C783.073 652.021 789.984 654.834 791.973 656.31C793.963 657.782 798.931 669.733 798.905 670.998L798.855 673.984C798.804 676.671 796.651 678.845 793.963 678.921L768.444 679.64Z" fill="#F9DDBF"/>
    <path d="M392.729 611.842L392.573 603.151C392.548 601.788 393.175 600.497 394.264 599.677C396.615 597.907 400.616 594.942 401.373 594.678C402.054 594.434 408.675 593.635 413.541 593.071C416.225 592.76 418.513 594.993 418.269 597.68L417.554 605.547C417.499 606.132 417.327 606.7 417.045 607.217L413.239 614.126C412.473 615.517 410.992 616.367 409.407 616.329L396.88 616.018C394.601 615.963 392.771 614.121 392.729 611.842" fill="#EDC5A2"/>
    <path d="M425.819 616.821C428.024 616.884 429.908 615.253 430.165 613.062C430.547 609.832 430.959 605.644 430.657 604.921C430.148 603.71 416.848 592.915 415.148 593.189C413.449 593.462 407.602 595.842 405.92 597.091C404.237 598.336 400.039 608.445 400.056 609.513L400.102 612.036C400.144 614.311 401.966 616.148 404.237 616.211L425.819 616.821Z" fill="#F9DDBF"/>
    <path d="M357.169 618.234L357.085 613.507C357.068 612.767 357.409 612.065 358.002 611.619C359.281 610.656 361.455 609.042 361.868 608.899C362.238 608.768 365.838 608.331 368.488 608.024C369.944 607.856 371.189 609.071 371.058 610.53L370.667 614.811C370.638 615.126 370.545 615.438 370.389 615.715L368.32 619.474C367.904 620.231 367.1 620.694 366.238 620.673L359.424 620.505C358.187 620.475 357.19 619.47 357.169 618.234" fill="#EDC5A2"/>
    <path d="M375.164 620.938C376.362 620.971 377.384 620.088 377.527 618.894C377.734 617.141 377.956 614.861 377.792 614.466C377.515 613.81 370.284 607.94 369.359 608.087C368.433 608.239 365.258 609.529 364.341 610.211C363.428 610.888 361.144 616.384 361.152 616.964L361.178 618.339C361.199 619.575 362.191 620.572 363.428 620.61L375.164 620.938" fill="#F9DDBF"/>
    <path d="M710.313 633.595L710.229 628.873C710.212 628.128 710.553 627.426 711.146 626.98C712.425 626.017 714.6 624.407 715.012 624.26C715.382 624.129 718.982 623.696 721.628 623.389C723.088 623.217 724.333 624.432 724.202 625.895L723.811 630.172C723.782 630.492 723.689 630.799 723.534 631.08L721.464 634.84C721.048 635.596 720.244 636.059 719.382 636.038L712.568 635.87C711.331 635.836 710.334 634.835 710.313 633.595" fill="#EDC5A2"/>
    <path d="M728.304 636.303C729.502 636.336 730.529 635.449 730.667 634.259C730.878 632.506 731.101 630.227 730.937 629.831C730.659 629.175 723.428 623.305 722.503 623.452C721.578 623.6 718.402 624.895 717.485 625.572C716.572 626.253 714.288 631.749 714.297 632.329L714.322 633.7C714.343 634.936 715.336 635.937 716.572 635.971L728.304 636.303" fill="#F9DDBF"/>
    <path d="M262.163 683.399L262.078 678.677C262.064 677.932 262.405 677.23 262.998 676.784C264.276 675.826 266.45 674.211 266.863 674.064C267.233 673.933 270.834 673.5 273.48 673.193C274.939 673.021 276.184 674.236 276.051 675.7L275.662 679.98C275.633 680.296 275.538 680.603 275.384 680.884L273.315 684.644C272.899 685.4 272.094 685.863 271.23 685.842L264.42 685.674C263.181 685.64 262.185 684.639 262.163 683.399" fill="#EDC5A2"/>
    <path d="M280.156 686.107C281.355 686.141 282.38 685.253 282.52 684.063C282.727 682.31 282.953 680.031 282.786 679.635C282.51 678.979 275.278 673.109 274.354 673.256C273.429 673.408 270.251 674.699 269.336 675.376C268.421 676.057 266.137 681.553 266.148 682.133L266.172 683.504C266.195 684.74 267.185 685.741 268.421 685.779L280.156 686.107Z" fill="#F9DDBF"/>
    <path d="M371.125 604.437L371.067 601.145C371.058 600.628 371.294 600.14 371.706 599.829C372.598 599.156 374.112 598.033 374.398 597.932C374.659 597.844 377.166 597.541 379.008 597.327C380.026 597.205 380.892 598.054 380.8 599.072L380.531 602.053C380.51 602.272 380.442 602.486 380.337 602.684L378.894 605.299C378.604 605.829 378.045 606.149 377.443 606.136L372.699 606.018C371.836 605.997 371.142 605.299 371.125 604.437" fill="#EDC5A2"/>
    <path d="M383.66 606.321C384.493 606.342 385.208 605.728 385.305 604.896C385.448 603.676 385.608 602.087 385.49 601.813C385.301 601.355 380.261 597.268 379.618 597.369C378.974 597.474 376.758 598.374 376.123 598.849C375.487 599.32 373.893 603.146 373.902 603.554L373.918 604.509C373.935 605.371 374.625 606.065 375.483 606.09L383.66 606.321Z" fill="#F9DDBF"/>
</svg>
