<svg width="167" height="211" viewBox="0 0 167 211" fill="none" xmlns="http://www.w3.org/2000/svg">
<path d="M166.43 196.036H146.638V196.188H166.43V196.036Z" fill="#EBEBEB"/>
<path d="M33.1579 62.6492C39.8595 62.6492 45.2905 56.94 45.2905 49.8949C45.2905 42.8499 39.8595 37.1406 33.1579 37.1406H31.6667V62.6492H33.1579Z" fill="#E0E0E0"/>
<path d="M31.6667 62.6492C38.3674 62.6492 43.7993 56.9389 43.7993 49.8949C43.7993 42.8509 38.3674 37.1406 31.6667 37.1406C24.9661 37.1406 19.5342 42.8509 19.5342 49.8949C19.5342 56.9389 24.9661 62.6492 31.6667 62.6492Z" fill="#F5F5F5"/>
<path d="M31.1095 51.493C22.1566 51.493 14.869 43.8319 14.869 34.4202V24.2216C14.869 23.3372 15.5536 22.6174 16.3949 22.6174C17.2363 22.6174 17.9209 23.3372 17.9209 24.2216V34.4202C17.9209 42.0691 23.8392 48.2847 31.1095 48.2847C31.9508 48.2847 32.6355 49.0044 32.6355 49.8889C32.6355 50.7733 31.9566 51.493 31.1095 51.493Z" fill="#E0E0E0"/>
<path d="M2.89907 33.2002H29.8912C31.7421 33.2002 33.0882 31.3581 32.6182 29.4794L30.2741 20.1836C29.9492 18.8844 28.8294 17.9817 27.5471 17.9817H5.24318C3.96669 17.9817 2.84685 18.8844 2.51612 20.1836L0.172008 29.4794C-0.297975 31.3581 1.04815 33.2002 2.89907 33.2002Z" fill="#F5F5F5"/>
<path d="M64.8135 94.4248L157.771 94.4248V5.29099L64.8135 5.29099L64.8135 94.4248Z" fill="#E6E6E6"/>
<path d="M62.7281 94.4248L156.864 94.4248V5.29099L62.7281 5.29099L62.7281 94.4248Z" fill="#F5F5F5"/>
<path d="M153.105 90.433V9.28357L66.4769 9.28357L66.4769 90.433L153.105 90.433Z" fill="#FAFAFA"/>
<path d="M142.478 90.4328L108.384 9.28342H96.803L130.897 90.4328H142.478Z" fill="white"/>
<path d="M127.613 90.4328L93.5184 9.28342H85.5461L119.64 90.4328H127.613Z" fill="white"/>
<path d="M98.6426 90.4292L98.6426 9.27979H94.1632L94.1632 90.4292H98.6426Z" fill="#E6E6E6"/>
<path d="M128.419 90.4295V9.28012H123.94L123.94 90.4295H128.419Z" fill="#E6E6E6"/>
<path d="M97.8367 92.9633L97.8367 6.31204L92.1737 6.31204L92.1737 92.9633H97.8367Z" fill="#F5F5F5"/>
<path d="M127.614 92.9636L127.614 6.31232L121.951 6.31232L121.951 92.9636H127.614Z" fill="#F5F5F5"/>
<path d="M66.8792 90.4313L66.8792 9.28186H66.4788L66.4788 90.4313H66.8792Z" fill="#E6E6E6"/>
<path d="M61.1477 0.152466H161.857C162.124 0.152466 162.339 0.384253 162.339 0.658737C162.339 0.939321 162.119 1.16501 161.857 1.16501H61.1477C60.8808 1.16501 60.6661 0.933221 60.6661 0.658737C60.6603 0.384253 60.8808 0.152466 61.1477 0.152466Z" fill="#E6E6E6"/>
<path d="M157.773 3.51334C158.133 3.51334 158.428 3.20227 158.428 2.82409V1.34798C158.428 0.969801 158.133 0.658722 157.773 0.658722C157.413 0.658722 157.117 0.969801 157.117 1.34798V2.82409C157.117 3.20227 157.413 3.51334 157.773 3.51334Z" fill="#E6E6E6"/>
<path d="M68.4477 3.51334C68.8075 3.51334 69.1034 3.20227 69.1034 2.82409V1.34798C69.1034 0.969801 68.8075 0.658722 68.4477 0.658722C68.088 0.658722 67.7921 0.969801 67.7921 1.34798V2.82409C67.7979 3.20227 68.088 3.51334 68.4477 3.51334Z" fill="#E6E6E6"/>
<path opacity="0.6" d="M61.3015 70.4639L155.374 70.4639V0.659775L61.3015 0.659775L61.3015 70.4639Z" fill="#E0E0E0"/>
<path d="M117.54 179.073H43.5207C41.0722 179.073 38.9891 176.987 38.8615 174.419L32.2411 39.2755C32.1135 36.7075 33.9934 34.6215 36.442 34.6215H110.461C112.904 34.6215 114.993 36.7075 115.121 39.2755L121.747 174.413C121.869 176.987 119.989 179.073 117.54 179.073Z" fill="#50AC96"/>
<path opacity="0.8" d="M117.54 179.073H43.5207C41.0722 179.073 38.9891 176.987 38.8615 174.419L32.2411 39.2755C32.1135 36.7075 33.9934 34.6215 36.442 34.6215H110.461C112.904 34.6215 114.993 36.7075 115.121 39.2755L121.747 174.413C121.869 176.987 119.989 179.073 117.54 179.073Z" fill="white"/>
<path d="M103.156 30.2175H94.9694V30.8275H103.156V30.2175Z" fill="#50AC96"/>
<path d="M92.1322 30.2175H89.1324V30.8275H92.1322V30.2175Z" fill="#50AC96"/>
<path d="M120.725 170.497H49.9321C47.5938 170.497 45.5978 168.502 45.4759 166.044L39.1399 36.799C39.018 34.3409 40.8167 32.3463 43.155 32.3463H113.948C116.287 32.3463 118.283 34.3409 118.405 36.799L124.741 166.044C124.862 168.508 123.064 170.497 120.725 170.497Z" fill="#43CD80"/>
<path d="M120.725 167.526H49.9321C49.1082 167.526 48.3481 166.764 48.3017 165.898L41.9656 36.6465C41.9424 36.1769 42.1223 35.8719 42.2789 35.695C42.4356 35.5242 42.7141 35.3168 43.1551 35.3168H113.948C114.772 35.3168 115.532 36.0793 115.579 36.9515L121.915 166.196C121.938 166.666 121.758 166.971 121.602 167.148C121.445 167.319 121.172 167.526 120.725 167.526ZM43.1609 35.4754C42.7663 35.4754 42.5226 35.6523 42.3892 35.8048C42.2499 35.9573 42.0932 36.2257 42.1165 36.6405L48.4525 165.885C48.4931 166.678 49.1836 167.374 49.9379 167.374H120.725C121.12 167.374 121.364 167.197 121.497 167.044C121.636 166.892 121.793 166.623 121.77 166.209L115.434 36.9637C115.393 36.1708 114.703 35.4754 113.948 35.4754H43.1609Z" fill="white"/>
<path opacity="0.3" d="M95.9679 82.4203C104.019 73.7346 103.494 59.4702 94.7961 50.5598C86.0978 41.6493 72.5198 41.4671 64.4686 50.1528C56.4175 58.8385 56.9422 73.1029 65.6404 82.0133C74.3387 90.9238 87.9168 91.106 95.9679 82.4203Z" fill="white"/>
<path d="M97.557 66.2968C97.7137 69.4443 97.0986 72.4026 95.886 74.9766C93.2401 80.6554 87.699 84.5225 81.1076 84.5225C74.5162 84.5225 68.5979 80.6615 65.3951 74.9766C63.9329 72.3965 63.0278 69.4443 62.8769 66.2968C62.3837 56.2264 69.7468 48.0712 79.3205 48.0712C88.8942 48.0712 97.0638 56.2325 97.557 66.2968Z" fill="white"/>
<path d="M95.8919 74.9827C93.2461 80.6614 87.7049 84.5286 81.1136 84.5286C74.5222 84.5286 68.6039 80.6675 65.4011 74.9827C69.6135 71.9146 74.7659 70.1274 80.4057 70.1274C86.0455 70.1274 91.372 71.9146 95.8919 74.9827Z" fill="#2F905A"/>
<path d="M85.5892 65.87C88.4898 62.7407 88.2998 57.6005 85.1647 54.389C82.0297 51.1775 77.1368 51.1108 74.2361 54.2401C71.3355 57.3693 71.5255 62.5095 74.6606 65.721C77.7956 68.9325 82.6885 68.9992 85.5892 65.87Z" fill="#2F905A"/>
<path d="M110.577 120.224H55.1484C54.1563 120.224 53.3149 119.382 53.2627 118.339L52.8449 109.775C52.7927 108.732 53.5528 107.89 54.545 107.89H109.974C110.966 107.89 111.807 108.732 111.86 109.775L112.277 118.339C112.33 119.382 111.57 120.224 110.577 120.224Z" fill="white"/>
<path opacity="0.3" d="M93.6059 103.193H70.4549C69.4627 103.193 68.6213 102.352 68.5691 101.309L68.4821 99.491C68.4299 98.4479 69.19 97.6062 70.1821 97.6062H93.3332C94.3254 97.6062 95.1667 98.4479 95.2189 99.491L95.3059 101.309C95.3524 102.346 94.5923 103.193 93.6059 103.193Z" fill="black"/>
<path opacity="0.3" d="M102.211 161.268H67.5363C65.8478 161.268 64.4147 159.828 64.3277 158.06L64.1188 153.857C64.0317 152.082 65.3256 150.649 67.0141 150.649H101.688C103.377 150.649 104.81 152.088 104.897 153.857L105.106 158.06C105.193 159.828 103.899 161.268 102.211 161.268Z" fill="black"/>
<path d="M111.593 140.865H56.1638C55.1716 140.865 54.3303 140.023 54.2781 138.98L53.8603 130.416C53.8081 129.373 54.5682 128.531 55.5604 128.531H110.989C111.982 128.531 112.823 129.373 112.875 130.416L113.293 138.98C113.339 140.017 112.579 140.865 111.593 140.865Z" fill="white"/>
<path d="M62.1979 114.057C62.256 115.21 61.4146 116.143 60.318 116.143C59.2214 116.143 58.2872 115.21 58.2292 114.057C58.1712 112.904 59.0125 111.971 60.1091 111.971C61.2058 111.971 62.1399 112.904 62.1979 114.057Z" fill="#263238"/>
<path d="M68.2963 114.057C68.3544 115.21 67.513 116.143 66.4164 116.143C65.3198 116.143 64.3856 115.21 64.3276 114.057C64.2696 112.904 65.1109 111.971 66.2075 111.971C67.3042 111.971 68.2383 112.904 68.2963 114.057Z" fill="#263238"/>
<path d="M74.3888 114.057C74.4468 115.21 73.6055 116.143 72.5089 116.143C71.4123 116.143 70.4781 115.21 70.4201 114.057C70.362 112.904 71.2034 111.971 72.3 111.971C73.3966 111.971 74.3308 112.904 74.3888 114.057Z" fill="#263238"/>
<path d="M80.4866 114.057C80.5446 115.21 79.7033 116.143 78.6066 116.143C77.51 116.143 76.5759 115.21 76.5178 114.057C76.4598 112.904 77.3011 111.971 78.3978 111.971C79.4944 111.971 80.4286 112.904 80.4866 114.057Z" fill="#263238"/>
<path d="M63.2078 134.698C63.2658 135.851 62.4245 136.784 61.3279 136.784C60.2312 136.784 59.2971 135.851 59.239 134.698C59.181 133.545 60.0223 132.612 61.119 132.612C62.2156 132.612 63.1498 133.545 63.2078 134.698Z" fill="#263238"/>
<path d="M69.3062 134.698C69.3642 135.851 68.5229 136.784 67.4262 136.784C66.3296 136.784 65.3954 135.851 65.3374 134.698C65.2794 133.545 66.1207 132.612 67.2173 132.612C68.314 132.612 69.2481 133.545 69.3062 134.698Z" fill="#263238"/>
<path d="M75.4042 134.698C75.4623 135.851 74.6209 136.784 73.5243 136.784C72.4277 136.784 71.4935 135.851 71.4355 134.698C71.3775 133.545 72.2188 132.612 73.3154 132.612C74.4121 132.612 75.3462 133.545 75.4042 134.698Z" fill="#263238"/>
<path d="M81.4964 134.698C81.5544 135.851 80.7131 136.784 79.6165 136.784C78.5199 136.784 77.5857 135.851 77.5277 134.698C77.4696 133.545 78.311 132.612 79.4076 132.612C80.51 132.612 81.4442 133.545 81.4964 134.698Z" fill="#263238"/>
<path d="M87.5945 134.698C87.6525 135.851 86.8112 136.784 85.7146 136.784C84.6179 136.784 83.6838 135.851 83.6258 134.698C83.5677 133.545 84.4091 132.612 85.5057 132.612C86.6023 132.612 87.5365 133.545 87.5945 134.698Z" fill="#263238"/>
<path d="M93.6929 134.698C93.7509 135.851 92.9096 136.784 91.813 136.784C90.7163 136.784 89.7822 135.851 89.7241 134.698C89.6661 133.545 90.5074 132.612 91.6041 132.612C92.7007 132.612 93.6349 133.545 93.6929 134.698Z" fill="#263238"/>
<path d="M159.676 63.863C159.821 64.0887 159.896 64.2107 159.989 64.3754L160.25 64.8328C160.418 65.1317 160.563 65.4367 160.714 65.7356C161.004 66.3394 161.277 66.9433 161.527 67.5533C162.026 68.7732 162.432 70.0175 162.786 71.274C163.499 73.781 163.935 76.3489 164.161 78.923L164.207 79.4048C164.213 79.4719 164.219 79.5817 164.225 79.6976L164.236 80.027C164.242 80.4601 164.225 80.887 164.167 81.2957C164.056 82.1131 163.848 82.8694 163.592 83.5648C163.07 84.9555 162.356 86.1388 161.585 87.2123C160.012 89.3533 158.225 91.0673 156.183 92.5861L154.587 90.6159C156.02 88.8715 157.413 86.9379 158.44 85.0104C158.962 84.0466 159.368 83.0585 159.618 82.1314C159.734 81.6678 159.798 81.2225 159.809 80.826C159.821 80.6248 159.809 80.4357 159.792 80.2588L159.774 80.1307C159.769 80.0941 159.769 80.0453 159.751 79.966L159.676 79.539C159.299 77.2517 158.776 75.0009 158.098 72.8294C157.767 71.7376 157.349 70.6885 156.931 69.6515C156.722 69.1331 156.496 68.6268 156.264 68.1388L155.904 67.4252L155.724 67.0836L155.579 66.8152L159.676 63.863Z" fill="#803E3C"/>
<path d="M154.263 92.6227L156.364 97.2889L158.029 93.3486C158.029 93.3486 156.555 89.9328 154.553 90.2438L154.263 92.6227Z" fill="#7F3E3B"/>
<path d="M157.866 97.5208L159.537 94.6418L158.028 93.3425L156.363 97.289L157.866 97.5208Z" fill="#7F3E3B"/>
<path d="M148.42 205.13C148.867 205.13 149.36 205.033 149.702 204.947C149.749 204.935 149.783 204.899 149.789 204.85C149.795 204.801 149.778 204.752 149.737 204.728C149.569 204.612 148.095 203.612 147.526 203.88C147.439 203.923 147.323 204.014 147.3 204.221C147.265 204.49 147.329 204.709 147.491 204.862C147.706 205.063 148.048 205.13 148.42 205.13ZM149.377 204.77C148.53 204.947 147.898 204.917 147.648 204.679C147.544 204.581 147.503 204.435 147.532 204.246C147.544 204.142 147.59 204.112 147.631 204.093C147.927 203.953 148.78 204.392 149.377 204.77Z" fill="#50AC96"/>
<path d="M149.679 204.947C149.696 204.947 149.719 204.941 149.737 204.929C149.772 204.905 149.795 204.868 149.795 204.825C149.795 204.764 149.789 203.294 149.261 202.8C149.122 202.672 148.953 202.617 148.774 202.636C148.483 202.672 148.408 202.861 148.385 202.971C148.275 203.544 149.157 204.648 149.621 204.923C149.638 204.941 149.661 204.947 149.679 204.947ZM148.849 202.88C148.942 202.88 149.029 202.916 149.104 202.983C149.418 203.276 149.528 204.099 149.557 204.594C149.093 204.203 148.541 203.38 148.611 203.026C148.623 202.971 148.652 202.898 148.803 202.88C148.82 202.88 148.837 202.88 148.849 202.88Z" fill="#50AC96"/>
<path d="M142.942 202.642C142.971 202.611 142.977 202.569 142.965 202.526C142.954 202.477 142.907 202.44 142.861 202.44C142.617 202.428 140.534 202.337 140.064 202.874C140.053 202.886 140.047 202.898 140.035 202.91C139.96 203.02 139.942 203.154 139.983 203.288C140.058 203.514 140.203 203.666 140.406 203.734C141.079 203.953 142.269 203.16 142.919 202.666C142.93 202.648 142.936 202.648 142.942 202.642ZM140.238 203.026C140.499 202.733 141.642 202.654 142.507 202.666C141.602 203.313 140.859 203.618 140.476 203.496C140.343 203.453 140.256 203.355 140.203 203.203C140.18 203.142 140.186 203.093 140.221 203.05C140.227 203.038 140.232 203.032 140.238 203.026Z" fill="#50AC96"/>
<path d="M142.942 202.642C142.948 202.636 142.954 202.63 142.959 202.617C142.983 202.581 142.983 202.532 142.959 202.495C142.93 202.447 142.286 201.245 141.515 201.025C141.282 200.958 141.056 200.989 140.853 201.117C140.575 201.288 140.563 201.483 140.598 201.617C140.749 202.184 142.228 202.678 142.861 202.678C142.89 202.678 142.919 202.666 142.942 202.642ZM140.859 201.416C140.882 201.391 140.917 201.361 140.969 201.324C141.12 201.233 141.277 201.208 141.457 201.257C141.961 201.397 142.437 202.081 142.646 202.416C141.961 202.331 140.911 201.885 140.818 201.55C140.812 201.538 140.801 201.483 140.859 201.416Z" fill="#50AC96"/>
<path d="M149.331 45.9973C148.768 49.0288 147.497 55.6408 149.51 57.6658C149.51 57.6658 148.721 60.74 143.366 60.74C137.471 60.74 140.552 57.6658 140.552 57.6658C143.766 56.8607 143.685 54.3476 143.122 51.9932L149.331 45.9973Z" fill="#7F3E3B"/>
<path d="M139.513 38.8484C139.548 38.8484 139.583 38.8423 139.618 38.824C139.734 38.763 139.78 38.6166 139.722 38.5007C139.154 37.3052 138.098 37.1649 138.051 37.1588C137.924 37.1405 137.813 37.2381 137.796 37.3723C137.784 37.5065 137.871 37.6224 137.999 37.6407C138.034 37.6468 138.858 37.7627 139.31 38.7203C139.345 38.7996 139.426 38.8484 139.513 38.8484Z" fill="#263238"/>
<path d="M137.755 41.4957C137.755 41.4957 136.89 43.1731 136.061 43.9234C136.513 44.4967 137.412 44.3748 137.412 44.3748L137.755 41.4957Z" fill="#630F0F"/>
<path d="M138.184 40.8369C138.138 41.2456 137.888 41.5506 137.639 41.5201C137.383 41.4896 137.215 41.1297 137.267 40.721C137.314 40.3123 137.563 40.0074 137.813 40.0379C138.062 40.0745 138.231 40.4282 138.184 40.8369Z" fill="#263238"/>
<path d="M137.924 40.0744L137.024 39.6719C137.019 39.6719 137.407 40.5014 137.924 40.0744Z" fill="#263238"/>
<path d="M148.066 201.483L143.331 202.642L140.453 191.199L145.188 190.034L148.066 201.483Z" fill="#7F3E3B"/>
<path d="M155.33 204.825H150.468L150.851 192.998H155.713L155.33 204.825Z" fill="#7F3E3B"/>
<path d="M150.085 204.234H155.545C155.742 204.234 155.905 204.38 155.934 204.581L156.555 209.126C156.619 209.595 156.236 210.041 155.777 210.034C153.874 209.998 152.957 209.882 150.555 209.882C149.076 209.882 146.917 210.041 144.881 210.041C142.885 210.041 142.734 207.918 143.581 207.729C147.387 206.869 147.991 205.679 149.273 204.545C149.505 204.344 149.795 204.234 150.085 204.234Z" fill="#263238"/>
<path d="M142.914 201.879L147.874 199.482C148.054 199.397 148.257 199.458 148.368 199.628L150.741 203.483C150.984 203.886 150.816 204.459 150.393 204.648C148.652 205.454 147.77 205.752 145.588 206.808C144.248 207.454 141.533 208.949 139.682 209.839C137.871 210.718 136.885 208.857 137.581 208.308C140.697 205.85 141.591 204.118 142.304 202.52C142.426 202.233 142.647 202.007 142.914 201.879Z" fill="#263238"/>
<path opacity="0.2" d="M140.459 191.199L141.996 197.335L146.673 195.938L145.193 190.04L140.459 191.199Z" fill="black"/>
<path opacity="0.2" d="M155.713 192.998H150.851L150.659 199.098H155.521L155.713 192.998Z" fill="black"/>
<path d="M157.894 58.8248C159.914 59.2883 162.072 66.9251 162.072 66.9251L156.363 73.3053C156.363 73.3053 151.628 66.1321 152.591 63.4971C153.595 60.7523 155.51 58.2758 157.894 58.8248Z" fill="#263238"/>
<path opacity="0.4" d="M154.691 63.6861C153.67 62.7041 152.98 62.9969 152.51 63.7776C152.045 66.0467 154.796 70.7983 155.904 72.5977C156.415 70.4506 157.001 65.9186 154.691 63.6861Z" fill="black"/>
<path d="M132.336 58.9772C132.336 58.9772 130.021 59.8372 134.657 89.8108C142.49 89.8108 150.584 89.8108 154.396 89.8108C154.066 81.3628 154.054 76.1598 157.895 58.8247C157.895 58.8247 153.758 57.8793 149.511 57.6658C146.192 57.495 143.465 57.3852 140.546 57.6658C136.7 58.0379 132.336 58.9772 132.336 58.9772Z" fill="#263238"/>
<path opacity="0.4" d="M132.156 70.4811C132.284 71.9389 132.452 73.5797 132.673 75.434C134.291 73.903 135.609 69.5479 135.127 67.0104C133.996 67.8949 132.951 69.2612 132.156 70.4811Z" fill="black"/>
<path d="M134.268 65.9369C133.194 68.7854 132.011 71.4998 130.682 74.208C129.353 76.9102 127.932 79.5635 126.046 82.1375L125.674 82.6194L125.489 82.8573C125.425 82.9366 125.373 83.0098 125.274 83.1196C124.914 83.5343 124.526 83.8942 124.125 84.1931C123.325 84.7909 122.501 85.1751 121.7 85.4679C120.098 86.0352 118.543 86.2365 117.035 86.3341C114 86.4622 111.134 86.1694 108.239 85.5106L108.558 82.9427C109.892 82.9488 111.291 82.9183 112.637 82.8268C113.994 82.7536 115.335 82.6011 116.623 82.3571C117.905 82.1314 119.147 81.7898 120.185 81.3141C120.696 81.0762 121.143 80.7834 121.468 80.4906C121.63 80.3442 121.764 80.1978 121.862 80.0515C121.886 80.0332 121.938 79.9478 121.978 79.8868L122.112 79.6855L122.385 79.2829C123.812 77.0626 125.071 74.4764 126.266 71.8963C127.444 69.3039 128.581 66.614 129.643 63.985L134.268 65.9369Z" fill="#803E3C"/>
<path d="M132.336 58.9772C129.922 59.5933 126.945 66.5652 126.945 66.5652L131.959 74.3117C131.959 74.3117 138.631 65.4794 137.842 62.7773C137.012 59.9654 135.266 58.2209 132.336 58.9772Z" fill="#263238"/>
<path d="M109.951 83.3147L105.768 81.2836L105.35 85.657C105.35 85.657 108.843 86.7366 110.566 85.6326L109.951 83.3147Z" fill="#7F3E3B"/>
<path d="M103.267 80.8444L102.866 84.1748L105.35 85.657L105.767 81.2836L103.267 80.8444Z" fill="#7F3E3B"/>
<path d="M151.431 41.1358C150.549 46.1192 150.27 48.248 147.555 50.517C143.47 53.9206 137.836 51.6881 137.291 46.5279C136.798 41.8799 138.324 34.5116 143.238 33.1209C148.077 31.7485 152.313 36.1524 151.431 41.1358Z" fill="#7F3E3B"/>
<path d="M141.016 42.185C140.743 44.7285 140.639 51.3283 145.954 51.5357C152.464 51.7919 154.413 45.9423 153.833 43.6062C157.216 40.7089 157.709 35.7255 153.903 31.9132C150.096 28.1009 141.718 30.2297 139.38 33.9444C136.473 38.5557 141.016 42.185 141.016 42.185Z" fill="#263238"/>
<path d="M147.532 33.4015C147.218 30.7238 147.462 28.8695 149.847 28.8695C152.231 28.8695 155.498 29.7783 156.693 32.3524C157.889 34.9203 157.987 38.9339 154.651 38.5313C151.315 38.1226 147.909 36.6099 147.532 33.4015Z" fill="#50AC96"/>
<path d="M151.234 32.7549C150.665 29.5587 153.375 20.5557 159.989 19.9701C163.053 19.7017 164.469 23.1663 162.867 23.7336C165.763 23.697 167.625 27.7288 164.921 28.3327C167.062 29.7722 166.529 32.7244 163.482 34.1761C161.231 35.2497 152.017 37.1833 151.234 32.7549Z" fill="#263238"/>
<path d="M158.295 36.189C156.165 36.189 153.943 35.8596 152.562 34.8898C151.727 34.2981 151.268 33.5174 151.199 32.5658C151.193 32.4804 151.251 32.4072 151.332 32.4011C151.419 32.395 151.483 32.456 151.489 32.5414C151.553 33.3954 151.965 34.0968 152.725 34.6336C155.347 36.4818 161.417 35.884 163.32 35.2314C164.956 34.6702 166.064 33.5845 166.285 32.3219C166.447 31.3947 166.099 30.5225 165.316 29.8515C165.252 29.7966 165.246 29.7051 165.292 29.638C165.345 29.5709 165.432 29.5648 165.496 29.6136C166.36 30.3456 166.749 31.352 166.569 32.3767C166.331 33.7492 165.147 34.9264 163.412 35.518C162.415 35.8657 160.401 36.189 158.295 36.189Z" fill="#263238"/>
<path d="M139.537 41.514C138.956 42.3618 138.788 43.4171 138.916 44.2649C139.107 45.5458 140.297 45.6312 141.155 44.8078C141.927 44.0697 142.757 42.5143 142.124 41.453C141.498 40.4099 140.198 40.5441 139.537 41.514Z" fill="#7F3E3B"/>
<path d="M139.867 89.8109C139.867 89.8109 142.687 124.878 145.611 144.64C147.973 160.603 149.841 197.915 149.841 197.915H156.467C156.467 197.915 158.823 161.719 157.622 145.927C154.587 105.975 161.359 102.724 154.39 89.8047H139.867V89.8109Z" fill="#2F905A"/>
<path opacity="0.4" d="M148.211 103.065C145.536 105.938 143.5 109.372 141.95 112.996C142.722 120.876 143.639 129.623 144.614 137.284C147.631 129.275 150.213 116.954 148.211 103.065Z" fill="black"/>
<path d="M135.231 89.5912C135.231 89.5912 129.11 127.891 128.146 145.153C130.548 161.115 140.378 194.859 140.378 194.859L146.406 192.565C146.406 192.565 143.07 155.772 139.426 145.702C147.59 116.808 153.589 109.507 151.843 89.8169C147.677 89.8108 135.231 89.5912 135.231 89.5912Z" fill="#2F905A"/>
<path d="M139.571 196.542L147.718 194.218L147.253 190.802L138.533 193.285L139.571 196.542Z" fill="#263238"/>
<path d="M148.936 198.055H157.379L157.82 194.944L148.89 194.627L148.936 198.055Z" fill="#263238"/>
<path d="M154.692 88.5908L155.579 90.4512C155.649 90.5976 155.487 90.744 155.26 90.744H134.558C134.378 90.744 134.233 90.6525 134.221 90.5366L134.041 88.6762C134.03 88.5481 134.181 88.4384 134.378 88.4384H154.367C154.518 88.4384 154.645 88.4994 154.692 88.5908Z" fill="#50AC96"/>
<path opacity="0.5" d="M154.692 88.5908L155.579 90.4512C155.649 90.5976 155.487 90.744 155.26 90.744H134.558C134.378 90.744 134.233 90.6525 134.221 90.5366L134.041 88.6762C134.03 88.5481 134.181 88.4384 134.378 88.4384H154.367C154.518 88.4384 154.645 88.4994 154.692 88.5908Z" fill="black"/>
<path d="M152.005 90.9453H152.539C152.643 90.9453 152.725 90.8904 152.719 90.8172L152.469 88.4018C152.464 88.3286 152.371 88.2737 152.26 88.2737H151.727C151.622 88.2737 151.541 88.3286 151.547 88.4018L151.796 90.8172C151.808 90.8843 151.901 90.9453 152.005 90.9453Z" fill="#50AC96"/>
<path d="M144.823 73.171C144.689 73.171 144.579 73.0795 144.544 72.9453C142.653 65.5953 138.719 59.5444 136.839 58.6112C136.63 58.5075 136.456 58.477 136.351 58.5258C136.206 58.5929 136.032 58.5258 135.969 58.3733C135.905 58.2208 135.969 58.0378 136.114 57.9707C136.386 57.8427 136.711 57.8732 137.088 58.0622C139.09 59.0565 143.059 65.0341 145.043 72.5611C146.465 72.5428 148.658 72.3537 149.192 72.311C149.853 71.4814 154.721 65.089 152.899 58.0988C152.859 57.9341 152.946 57.7695 153.103 57.7268C153.253 57.6841 153.416 57.7756 153.457 57.9402C155.481 65.7234 149.61 72.744 149.546 72.8111C149.499 72.866 149.43 72.9026 149.354 72.9087C149.331 72.9026 146.436 73.171 144.823 73.171Z" fill="#50AC96"/>
<path d="M154.431 77.4774C151.269 71.2436 149.975 70.8105 149.412 68.8037C149.412 68.8037 149.923 67.291 151.217 65.76C150.828 65.6441 150.01 65.4733 149.493 65.3696C149.552 65.0952 149.61 64.8268 149.673 64.5706C149.244 64.4486 148.356 64.5767 147.904 64.656L147.886 64.0399C147.886 64.0399 146.285 63.7045 145.635 63.8874C145.699 64.168 145.763 64.4669 145.826 64.7658C145.264 64.8817 144.358 65.0708 143.935 65.1928C145.165 66.6506 145.612 68.206 145.705 68.5902C143.999 71.6645 137.373 91.47 148.153 92.9583C158.934 94.4527 157.593 83.7112 154.431 77.4774Z" fill="#50AC96"/>
<path opacity="0.4" d="M154.431 77.4774C151.269 71.2436 149.975 70.8105 149.412 68.8037C149.412 68.8037 149.923 67.291 151.217 65.76C150.828 65.6441 150.01 65.4733 149.493 65.3696C149.552 65.0952 149.61 64.8268 149.673 64.5706C149.244 64.4486 148.356 64.5767 147.904 64.656L147.886 64.0399C147.886 64.0399 146.285 63.7045 145.635 63.8874C145.699 64.168 145.763 64.4669 145.826 64.7658C145.264 64.8817 144.358 65.0708 143.935 65.1928C145.165 66.6506 145.612 68.206 145.705 68.5902C143.999 71.6645 137.373 91.47 148.153 92.9583C158.934 94.4527 157.593 83.7112 154.431 77.4774Z" fill="white"/>
<path d="M145.304 68.0047C145.223 68.1571 145.235 68.7305 145.217 68.9562C145.206 69.188 145.786 69.3344 146.436 69.4015C147.086 69.4686 149.784 69.5783 149.697 69.2612C149.61 68.944 149.83 68.5109 149.842 68.2425C149.853 67.9742 148.768 67.9619 147.857 67.9985C146.946 68.0351 145.484 67.6631 145.304 68.0047Z" fill="#50AC96"/>
<path d="M139.032 90.9453H139.566C139.67 90.9453 139.751 90.8904 139.746 90.8172L139.496 88.4018C139.49 88.3286 139.398 88.2737 139.287 88.2737H138.753C138.649 88.2737 138.568 88.3286 138.574 88.4018L138.823 90.8172C138.829 90.8843 138.922 90.9453 139.032 90.9453Z" fill="#50AC96"/>
</svg>
