<svg width="350" height="150" viewBox="0 0 350 150" fill="none" xmlns="http://www.w3.org/2000/svg">
<g clip-path="url(#clip0)">
<rect width="350" height="150" fill="#FFFFF0"/>
<path d="M350.961 1.17576e-06L352.327 108.737L349.324 109.975L298.996 131.062L252.26 148.262L236.164 148.368L230.041 141.531C224.988 135.88 224.165 127.584 228.06 121.053L238.148 104.169L252.883 79.5442L295.115 8.91179C298.26 3.78269 303.778 0.592424 309.765 0.517243L350.961 1.17576e-06Z" fill="url(#paint0_linear)"/>
<path opacity="0.45" d="M351.311 27.8444L352.327 108.785L298.996 131.11L252.261 148.31L236.164 148.416L230.042 141.579C224.988 135.928 224.166 127.632 228.06 121.101L252.883 79.5922C264.792 77.9542 267.28 92.9517 267.381 93.3826C267.377 93.0465 266.856 85.8508 272.849 82.4145C278.986 78.9284 281.931 88.3984 281.931 88.3984C281.931 88.3984 281.345 72.2246 297.191 67.4642C313.038 62.7038 320.134 70.7773 320.134 70.7773C320.134 70.7773 317.803 53.0409 327.458 47.398C337.113 41.755 343.189 44.9437 343.339 45.422C343.583 45.7551 341.699 33.1027 351.311 27.8444Z" fill="url(#paint1_linear)"/>
<path d="M313.415 62.2189C314.235 62.2086 314.891 61.534 314.881 60.7121C314.871 59.8901 314.197 59.2322 313.377 59.2425C312.557 59.2528 311.901 59.9274 311.911 60.7493C311.921 61.5713 312.595 62.2292 313.415 62.2189Z" fill="url(#paint2_linear)"/>
<path d="M289.751 62.5161C289.761 63.3322 289.099 64.0127 288.285 64.023C287.47 64.0332 286.791 63.3695 286.781 62.5534C286.771 61.7372 287.433 61.0567 288.247 61.0465C289.062 61.0363 289.741 61.6999 289.751 62.5161Z" fill="url(#paint3_linear)"/>
<path d="M339.907 39.1751C339.917 39.9913 339.255 40.6718 338.441 40.682C337.626 40.6922 336.947 40.0286 336.937 39.2124C336.927 38.3963 337.589 37.7158 338.403 37.7055C339.266 37.7427 339.897 38.407 339.907 39.1751Z" fill="url(#paint4_linear)"/>
<path d="M323.743 45.332C323.749 45.8601 323.324 46.2975 322.797 46.3042C322.27 46.3108 321.833 45.8841 321.827 45.356C321.82 44.8279 322.246 44.3905 322.773 44.3838C323.3 44.3772 323.736 44.8039 323.743 45.332Z" fill="url(#paint5_linear)"/>
<path d="M259.27 76.9672C259.277 77.4953 258.851 77.9327 258.324 77.9394C257.797 77.946 257.361 77.5193 257.354 76.9912C257.347 76.4631 257.773 76.0257 258.3 76.019C258.827 76.0124 259.264 76.4391 259.27 76.9672Z" fill="url(#paint6_linear)"/>
<path d="M351.092 10.3696L351.14 14.2583C322.048 17.2163 314.553 23.1203 295.535 34.7867C313.51 16.3633 338.123 11.5888 351.092 10.3696Z" fill="url(#paint7_linear)"/>
<path d="M349.324 109.975L298.996 131.062L252.26 148.262L236.164 148.368L230.041 141.531C224.988 135.88 224.165 127.584 228.059 121.053L238.148 104.169L242.411 104.115L242.516 112.469L244.834 110.087L244.733 102.022C244.733 102.022 244.967 97.7934 250.173 96.5276C254.03 94.6546 253.759 80.6376 254.719 80.8176C255.68 81.0456 255.074 109.046 255.074 109.046L263.256 108.223L267.911 93.5681L278.066 93.4406L287.432 87.6572L287.657 105.612L292.543 105.551L292.443 97.5814L298.91 97.5002L298.825 90.7792L300.623 88.932L300.591 86.4356L308.112 86.3412L308.38 107.657L316.715 107.552L316.506 90.9413L321.993 85.3026L321.89 77.0933L330.766 85.7687L331.024 106.316L344.341 106.149L349.324 109.975Z" fill="url(#paint8_linear)"/>
<path opacity="0.79" d="M247.515 102.323L246.94 102.33C246.749 102.332 246.555 102.143 246.552 101.951L246.545 101.375C246.543 101.183 246.732 100.988 246.924 100.986L247.498 100.979C247.69 100.976 247.884 101.166 247.886 101.358L247.894 101.934C247.896 102.126 247.707 102.32 247.515 102.323Z" fill="white"/>
<path opacity="0.79" d="M250.246 102.289L249.671 102.296C249.479 102.298 249.285 102.109 249.283 101.917L249.276 101.34C249.273 101.148 249.462 100.954 249.654 100.952L250.229 100.944C250.42 100.942 250.614 101.132 250.617 101.324L250.624 101.9C250.626 102.092 250.437 102.286 250.246 102.289Z" fill="white"/>
<path opacity="0.79" d="M295.849 101.716L295.274 101.723C295.082 101.726 294.888 101.536 294.886 101.344L294.878 100.768C294.876 100.576 295.065 100.381 295.257 100.379L295.832 100.372C296.023 100.369 296.217 100.559 296.22 100.751L296.227 101.327C296.229 101.519 296.04 101.714 295.849 101.716Z" fill="white"/>
<path opacity="0.79" d="M298.723 101.68L298.148 101.687C297.956 101.69 297.762 101.5 297.76 101.308L297.753 100.732C297.75 100.54 297.939 100.345 298.131 100.343L298.706 100.336C298.897 100.333 299.091 100.523 299.094 100.715L299.101 101.291C299.104 101.483 298.914 101.677 298.723 101.68Z" fill="white"/>
<path opacity="0.79" d="M301.597 101.644L301.022 101.651C300.83 101.653 300.636 101.464 300.634 101.272L300.627 100.696C300.624 100.504 300.814 100.309 301.005 100.307L301.58 100.3C301.772 100.297 301.966 100.487 301.968 100.679L301.975 101.255C301.978 101.447 301.788 101.641 301.597 101.644Z" fill="white"/>
<path opacity="0.79" d="M304.471 101.608L303.896 101.615C303.705 101.617 303.511 101.428 303.508 101.236L303.501 100.66C303.499 100.468 303.688 100.273 303.879 100.271L304.454 100.264C304.646 100.261 304.84 100.451 304.842 100.643L304.849 101.219C304.852 101.411 304.663 101.605 304.471 101.608Z" fill="white"/>
<path opacity="0.79" d="M301.496 93.6266L300.921 93.6338C300.73 93.6362 300.536 93.4466 300.533 93.2545L300.526 92.6784C300.524 92.4864 300.713 92.292 300.905 92.2896L301.479 92.2823C301.671 92.2799 301.865 92.4696 301.867 92.6616L301.875 93.2377C301.878 93.4777 301.688 93.6242 301.496 93.6266Z" fill="white"/>
<path opacity="0.79" d="M320.279 93.8228L319.705 93.8301C319.513 93.8325 319.319 93.6428 319.316 93.4508L319.309 92.8747C319.307 92.6827 319.496 92.4883 319.688 92.4859L320.262 92.4786C320.454 92.4762 320.648 92.6659 320.651 92.8579L320.658 93.434C320.709 93.6734 320.519 93.8198 320.279 93.8228Z" fill="white"/>
<path opacity="0.79" d="M328.231 93.723L327.656 93.7302C327.465 93.7326 327.271 93.543 327.268 93.351L327.261 92.7749C327.259 92.5828 327.448 92.3884 327.639 92.386L328.214 92.3788C328.406 92.3764 328.6 92.566 328.602 92.758L328.61 93.3341C328.613 93.5741 328.423 93.7206 328.231 93.723Z" fill="white"/>
<path opacity="0.79" d="M322.775 98.0168L322.201 98.024C322.009 98.0264 321.815 97.8368 321.813 97.6448L321.805 97.0687C321.803 96.8767 321.992 96.6822 322.184 96.6798L322.759 96.6726C322.95 96.6702 323.144 96.8598 323.147 97.0518L323.154 97.628C323.156 97.82 322.967 98.0144 322.775 98.0168Z" fill="white"/>
<path opacity="0.79" d="M237.6 113.971L237.026 113.978C236.834 113.981 236.64 113.791 236.638 113.599L236.63 113.023C236.628 112.831 236.817 112.636 237.009 112.634L237.584 112.627C237.775 112.624 237.969 112.814 237.972 113.006L237.979 113.582C237.982 113.822 237.792 113.969 237.6 113.971Z" fill="white"/>
<path opacity="0.79" d="M252.976 102.254L252.401 102.262C252.21 102.264 252.016 102.074 252.013 101.882L252.006 101.306C252.004 101.114 252.193 100.92 252.384 100.917L252.959 100.91C253.151 100.908 253.345 101.097 253.347 101.289L253.355 101.865C253.357 102.057 253.216 102.251 252.976 102.254Z" fill="white"/>
<path d="M75.8307 15.4172C75.8307 15.4172 76.4545 13.3364 78.6446 12.5805C80.5856 11.8838 82.4012 13.1497 82.9763 15.1594C83.6557 17.504 82.5982 20.8789 78.5002 24.9643C73.092 24.2478 70.4654 22.0958 69.8361 19.7505C69.2609 17.7408 70.1332 15.5448 72.0742 14.8481C74.2643 14.0922 75.8307 15.4172 75.8307 15.4172Z" fill="#F48C7F"/>
<path d="M60.0152 21.9468C62.0111 21.6416 63.6063 21.2854 65.1002 20.8185C65.598 20.6441 66.547 20.5762 66.7399 20.0135C66.8863 19.7315 66.8321 19.396 66.5794 19.1751C66.0746 18.7893 65.3798 19.1902 64.882 19.3645C63.3381 19.8321 61.5436 20.2468 59.6977 20.5501C59.3485 20.6105 59.1542 21.0612 59.2084 21.3967C59.364 21.8429 59.666 22.0072 60.0152 21.9468Z" fill="#F48C7F"/>
<path d="M87.0729 18.9178C87.8206 18.7403 88.5675 18.5069 89.3145 18.2734C90.0114 18.0405 90.9104 17.9732 91.5046 17.5175C91.9503 17.1758 91.8404 16.3928 91.2399 16.3443C90.4888 16.2417 89.6939 16.6438 88.997 16.8767C88.25 17.1102 87.5024 17.2876 86.7554 17.5211C86.0092 17.8106 86.276 19.1519 87.0729 18.9178Z" fill="#F48C7F"/>
<path d="M69.4268 30.9611C69.9513 28.9375 70.9904 28.0841 71.6782 27.123C72.0718 26.6138 71.6135 25.9472 71.0665 26.1782C69.5761 26.9253 68.6003 28.8424 68.1716 30.5286C67.9829 31.4274 69.1881 31.8605 69.4268 30.9611Z" fill="#F48C7F"/>
<path d="M79.0498 32.9133C78.8393 32.0755 78.7281 31.1805 78.8668 30.2823C78.9097 29.7215 79.4892 28.0894 78.5894 28.1007C77.6897 28.112 77.6102 29.7378 77.5693 30.4667C77.4813 31.4202 77.5932 32.3713 77.8544 33.2644C78.0649 34.1022 79.311 33.8064 79.0498 32.9133Z" fill="#F48C7F"/>
<path d="M84.1602 25.8457C84.6628 26.0635 85.1655 26.2813 85.6182 26.4997C86.1208 26.7175 86.6256 27.1034 87.1219 26.817C87.4197 26.6452 87.4648 26.2524 87.3613 25.9736C87.1543 25.4159 86.4524 25.2567 86.0004 25.0943C85.4978 24.8765 84.9951 24.6587 84.5425 24.4402C84.1905 24.2766 83.8441 24.5611 83.749 24.9544C83.604 25.3485 83.8582 25.6814 84.1602 25.8457Z" fill="#F48C7F"/>
<path d="M69.5355 11.7425C66.9878 7.90861 66.9878 7.90861 66.5844 7.63354C66.181 7.35847 65.6361 7.7575 65.7431 8.31643C65.8494 8.81934 65.8487 8.76332 68.5485 12.7634C68.7526 13.097 69.2518 13.0347 69.4989 12.8075C69.7946 12.4676 69.7397 12.0761 69.5355 11.7425Z" fill="#F48C7F"/>
<path d="M76.3094 9.75249C76.3995 8.96699 76.3896 8.18273 76.3298 7.39911C76.2707 6.6715 76.2566 5.55114 75.5526 5.22382C75.4019 5.16968 75.1527 5.22884 75.0542 5.34213C74.6113 5.90796 74.9225 6.80048 74.9809 7.47207C75.0401 8.19968 75.0492 8.92791 74.9584 9.6574C74.9133 10.0502 75.2674 10.3819 75.5673 10.3781C76.0679 10.4278 76.3143 10.1446 76.3094 9.75249Z" fill="#F48C7F"/>
<path d="M86.0825 7.72487C86.1283 7.38814 85.8248 7.11181 85.5242 7.05956C84.973 6.95443 84.433 7.74558 84.0381 8.14273C83.5938 8.59652 83.251 9.1611 82.8574 9.67028C82.6617 10.0089 82.8173 10.4552 83.07 10.6761C83.4227 10.8958 83.7205 10.724 83.9669 10.4407C85.4411 8.40525 85.9938 8.62242 86.0825 7.72487Z" fill="#F48C7F"/>
<path d="M285.797 56.724L284.487 59.1893L280.297 57.5133L277.944 60.9039L274.582 60.1779L274.22 61.911L278.736 62.8626L280.947 59.6658L285.329 61.3874L287.246 57.6661L285.797 56.724Z" fill="#50BFA5"/>
<path d="M233.108 58.6345C234.97 61.9722 233.826 66.2119 230.448 68.1269C227.118 69.9933 222.888 68.846 220.977 65.4609C219.114 62.1233 220.259 57.8836 223.636 55.9686C227.014 54.1016 231.245 55.2968 233.108 58.6345Z" fill="#F7CC7F"/>
<path d="M224.37 64.8422C225.399 66.6538 227.659 67.2497 229.419 66.2673C231.226 65.2362 231.821 62.9721 230.841 61.2078L224.37 64.8422Z" fill="#EFEFEF"/>
<path d="M291.581 74.7531L293.06 74.2544C293.06 74.2544 294.52 72.2194 294.417 71.6926C294.315 71.1657 293.679 70.1653 293.916 69.9703C294.153 69.7273 294.772 69.4314 295.354 70.0003C295.79 70.3789 296.101 72.2476 296.294 72.3412C296.438 72.3874 297.297 72.1365 297.918 71.9367C298.347 71.7873 298.78 71.9259 299.071 72.2103C299.265 72.3999 299.317 72.7354 299.176 72.9772L298.942 73.3643L299.329 73.6475C299.618 73.8359 299.672 74.2674 299.483 74.5099L299.295 74.8003L299.536 74.9413C299.874 75.1291 299.927 75.5606 299.692 75.8517L299.503 76.0941L299.552 76.1415C299.794 76.3785 299.799 76.7626 299.61 77.005L299.422 77.2475L295.461 78.5456C295.079 78.6464 294.697 78.6992 294.313 78.6561L292.83 78.8667C292.687 78.8685 292.542 78.7743 292.492 78.6309L291.394 75.0916C291.296 74.9488 291.39 74.8035 291.581 74.7531Z" fill="#FAE0B2"/>
<path d="M311.837 47.2261L309.26 48.0747L308.478 50.6774C308.433 50.87 308.146 50.9216 308.001 50.7794L306.392 48.5429L303.662 48.6252C303.422 48.6282 303.323 48.3894 303.465 48.1955L305.066 46.0147L304.171 43.4332C304.121 43.2417 304.31 43.0473 304.503 43.0929L307.1 43.9245L309.235 42.2652C309.425 42.1188 309.666 42.2598 309.669 42.4998L309.656 45.2369L311.879 46.7935C312.072 46.8871 312.028 47.1757 311.837 47.2261Z" fill="#FED333"/>
<path d="M335.441 76.5552C335.449 77.1793 332.581 77.6955 329.084 77.7394C325.587 77.7833 322.707 77.3393 322.699 76.7152C322.691 76.0911 325.559 75.5749 329.056 75.531C332.553 75.4871 335.433 75.9311 335.441 76.5552Z" fill="#F48C7F"/>
<path d="M328.819 56.664C325.945 56.7001 323.577 58.8425 323.609 61.4349C323.642 64.0273 329.07 76.6352 329.07 76.6352C329.07 76.6352 334.18 63.895 334.148 61.3026C334.067 58.7108 331.694 56.6279 328.819 56.664ZM328.913 64.1052C327.667 64.1208 326.697 63.1247 326.682 61.9245C326.666 60.6763 327.66 59.7035 328.857 59.6885C330.055 59.6734 331.074 60.6689 331.089 61.8691C331.104 63.0693 330.158 64.0895 328.913 64.1052Z" fill="#F47458"/>
<path d="M298.011 21.8928L286.271 35.0212L281.274 25.6057L298.011 21.8928Z" fill="#466EB6"/>
<path d="M281.103 21.2122L281.274 25.6057L298.011 21.8928L281.103 21.2122Z" fill="#9BC1F9"/>
<path d="M281.062 27.1881L298.011 21.8928L281.145 33.8493L281.062 27.1881Z" fill="#9BC1F9"/>
<path d="M268.365 42.8011C268.362 42.5264 268.592 42.3174 268.824 42.3145C268.824 42.3145 271.556 42.5549 275.194 40.8609C278.831 39.1668 280.526 35.368 280.694 34.8851C280.749 34.6097 280.979 34.4695 281.211 34.4666C281.444 34.5323 281.622 34.8048 281.567 35.0802C281.46 35.7684 279.48 39.9829 275.553 41.7493C271.685 43.5149 268.894 43.2752 268.777 43.208C268.487 43.2803 268.311 43.0765 268.365 42.8011Z" fill="#F7CC7F"/>
<path d="M251.017 44.0491C256.068 43.9857 261.049 42.8929 265.785 40.8417C269.713 39.144 273.158 35.9413 277.149 34.6549C277.38 34.5833 277.493 34.3072 277.431 34.0332C277.37 33.7593 277.136 33.6248 276.904 33.6964C272.798 35.053 269.411 38.1862 265.483 39.8839C260.805 41.9344 255.939 42.9571 250.946 43.0198C249.146 43.0424 247.051 42.7253 244.72 42.0677C244.487 42.0019 244.256 42.1422 244.201 42.4176C244.147 42.693 244.266 42.9663 244.5 43.032C246.656 43.6231 248.868 44.0761 251.017 44.0491Z" fill="#F7CC7F"/>
<path d="M119.508 69L119.484 57.864L113.964 67.08H112.572L107.052 58.008V69H104.076V52.2H106.644L113.316 63.336L119.868 52.2H122.436L122.46 69H119.508ZM139.118 56.184V69H136.262V67.368C135.782 67.944 135.182 68.392 134.462 68.712C133.742 69.016 132.966 69.168 132.134 69.168C130.422 69.168 129.07 68.696 128.078 67.752C127.102 66.792 126.614 65.376 126.614 63.504V56.184H129.614V63.096C129.614 64.248 129.87 65.112 130.382 65.688C130.91 66.248 131.654 66.528 132.614 66.528C133.686 66.528 134.534 66.2 135.158 65.544C135.798 64.872 136.118 63.912 136.118 62.664V56.184H139.118ZM155.598 51.192V69H152.718V67.344C152.222 67.952 151.606 68.408 150.87 68.712C150.15 69.016 149.35 69.168 148.47 69.168C147.238 69.168 146.126 68.896 145.134 68.352C144.158 67.808 143.39 67.04 142.83 66.048C142.27 65.04 141.99 63.888 141.99 62.592C141.99 61.296 142.27 60.152 142.83 59.16C143.39 58.168 144.158 57.4 145.134 56.856C146.126 56.312 147.238 56.04 148.47 56.04C149.318 56.04 150.094 56.184 150.798 56.472C151.502 56.76 152.102 57.192 152.598 57.768V51.192H155.598ZM148.83 66.6C149.55 66.6 150.198 66.44 150.774 66.12C151.35 65.784 151.806 65.312 152.142 64.704C152.478 64.096 152.646 63.392 152.646 62.592C152.646 61.792 152.478 61.088 152.142 60.48C151.806 59.872 151.35 59.408 150.774 59.088C150.198 58.752 149.55 58.584 148.83 58.584C148.11 58.584 147.462 58.752 146.886 59.088C146.31 59.408 145.854 59.872 145.518 60.48C145.182 61.088 145.014 61.792 145.014 62.592C145.014 63.392 145.182 64.096 145.518 64.704C145.854 65.312 146.31 65.784 146.886 66.12C147.462 66.44 148.11 66.6 148.83 66.6ZM164.419 56.04C166.307 56.04 167.747 56.496 168.739 57.408C169.747 58.304 170.251 59.664 170.251 61.488V69H167.419V67.44C167.051 68 166.523 68.432 165.835 68.736C165.163 69.024 164.347 69.168 163.387 69.168C162.427 69.168 161.587 69.008 160.867 68.688C160.147 68.352 159.587 67.896 159.187 67.32C158.803 66.728 158.611 66.064 158.611 65.328C158.611 64.176 159.035 63.256 159.883 62.568C160.747 61.864 162.099 61.512 163.939 61.512H167.251V61.32C167.251 60.424 166.979 59.736 166.435 59.256C165.907 58.776 165.115 58.536 164.059 58.536C163.339 58.536 162.627 58.648 161.923 58.872C161.235 59.096 160.651 59.408 160.171 59.808L158.995 57.624C159.667 57.112 160.475 56.72 161.419 56.448C162.363 56.176 163.363 56.04 164.419 56.04ZM164.011 66.984C164.763 66.984 165.427 66.816 166.003 66.48C166.595 66.128 167.011 65.632 167.251 64.992V63.504H164.155C162.427 63.504 161.563 64.072 161.563 65.208C161.563 65.752 161.779 66.184 162.211 66.504C162.643 66.824 163.243 66.984 164.011 66.984ZM181.373 56.04C182.989 56.04 184.285 56.512 185.261 57.456C186.237 58.4 186.725 59.8 186.725 61.656V69H183.725V62.04C183.725 60.92 183.461 60.08 182.933 59.52C182.405 58.944 181.653 58.656 180.677 58.656C179.573 58.656 178.701 58.992 178.061 59.664C177.421 60.32 177.101 61.272 177.101 62.52V69H174.101V51.192H177.101V57.672C177.597 57.144 178.205 56.744 178.925 56.472C179.661 56.184 180.477 56.04 181.373 56.04ZM213.339 56.04C214.955 56.04 216.235 56.512 217.179 57.456C218.123 58.384 218.595 59.784 218.595 61.656V69H215.595V62.04C215.595 60.92 215.347 60.08 214.851 59.52C214.355 58.944 213.643 58.656 212.715 58.656C211.707 58.656 210.899 58.992 210.291 59.664C209.683 60.32 209.379 61.264 209.379 62.496V69H206.379V62.04C206.379 60.92 206.131 60.08 205.635 59.52C205.139 58.944 204.427 58.656 203.499 58.656C202.475 58.656 201.659 58.984 201.051 59.64C200.459 60.296 200.163 61.248 200.163 62.496V69H197.163V56.184H200.019V57.816C200.499 57.24 201.099 56.8 201.819 56.496C202.539 56.192 203.339 56.04 204.219 56.04C205.179 56.04 206.027 56.224 206.763 56.592C207.515 56.944 208.107 57.472 208.539 58.176C209.067 57.504 209.747 56.984 210.579 56.616C211.411 56.232 212.331 56.04 213.339 56.04ZM234.594 62.664C234.594 62.872 234.578 63.168 234.546 63.552H224.49C224.666 64.496 225.122 65.248 225.858 65.808C226.61 66.352 227.538 66.624 228.642 66.624C230.05 66.624 231.21 66.16 232.122 65.232L233.73 67.08C233.154 67.768 232.426 68.288 231.546 68.64C230.666 68.992 229.674 69.168 228.57 69.168C227.162 69.168 225.922 68.888 224.85 68.328C223.778 67.768 222.946 66.992 222.354 66C221.778 64.992 221.49 63.856 221.49 62.592C221.49 61.344 221.77 60.224 222.33 59.232C222.906 58.224 223.698 57.44 224.706 56.88C225.714 56.32 226.85 56.04 228.114 56.04C229.362 56.04 230.474 56.32 231.45 56.88C232.442 57.424 233.21 58.2 233.754 59.208C234.314 60.2 234.594 61.352 234.594 62.664ZM228.114 58.44C227.154 58.44 226.338 58.728 225.666 59.304C225.01 59.864 224.61 60.616 224.466 61.56H231.738C231.61 60.632 231.218 59.88 230.562 59.304C229.906 58.728 229.09 58.44 228.114 58.44ZM253.652 56.04C255.268 56.04 256.548 56.512 257.492 57.456C258.436 58.384 258.908 59.784 258.908 61.656V69H255.908V62.04C255.908 60.92 255.66 60.08 255.164 59.52C254.668 58.944 253.956 58.656 253.028 58.656C252.02 58.656 251.212 58.992 250.604 59.664C249.996 60.32 249.692 61.264 249.692 62.496V69H246.692V62.04C246.692 60.92 246.444 60.08 245.948 59.52C245.452 58.944 244.74 58.656 243.812 58.656C242.788 58.656 241.972 58.984 241.364 59.64C240.772 60.296 240.476 61.248 240.476 62.496V69H237.476V56.184H240.332V57.816C240.812 57.24 241.412 56.8 242.132 56.496C242.852 56.192 243.652 56.04 244.532 56.04C245.492 56.04 246.34 56.224 247.076 56.592C247.828 56.944 248.42 57.472 248.852 58.176C249.38 57.504 250.06 56.984 250.892 56.616C251.724 56.232 252.644 56.04 253.652 56.04ZM274.907 62.664C274.907 62.872 274.891 63.168 274.859 63.552H264.803C264.979 64.496 265.435 65.248 266.171 65.808C266.923 66.352 267.851 66.624 268.955 66.624C270.363 66.624 271.523 66.16 272.435 65.232L274.043 67.08C273.467 67.768 272.739 68.288 271.859 68.64C270.979 68.992 269.987 69.168 268.883 69.168C267.475 69.168 266.235 68.888 265.163 68.328C264.091 67.768 263.259 66.992 262.667 66C262.091 64.992 261.803 63.856 261.803 62.592C261.803 61.344 262.083 60.224 262.643 59.232C263.219 58.224 264.011 57.44 265.019 56.88C266.027 56.32 267.163 56.04 268.427 56.04C269.675 56.04 270.787 56.32 271.763 56.88C272.755 57.424 273.523 58.2 274.067 59.208C274.627 60.2 274.907 61.352 274.907 62.664ZM268.427 58.44C267.467 58.44 266.651 58.728 265.979 59.304C265.323 59.864 264.923 60.616 264.779 61.56H272.051C271.923 60.632 271.531 59.88 270.875 59.304C270.219 58.728 269.403 58.44 268.427 58.44ZM281.748 69.168C280.708 69.168 279.692 69.032 278.7 68.76C277.708 68.488 276.916 68.144 276.324 67.728L277.476 65.448C278.052 65.832 278.74 66.144 279.54 66.384C280.356 66.608 281.156 66.72 281.94 66.72C283.732 66.72 284.628 66.248 284.628 65.304C284.628 64.856 284.396 64.544 283.932 64.368C283.484 64.192 282.756 64.024 281.748 63.864C280.692 63.704 279.828 63.52 279.156 63.312C278.5 63.104 277.924 62.744 277.428 62.232C276.948 61.704 276.708 60.976 276.708 60.048C276.708 58.832 277.212 57.864 278.22 57.144C279.244 56.408 280.62 56.04 282.348 56.04C283.228 56.04 284.108 56.144 284.988 56.352C285.868 56.544 286.588 56.808 287.148 57.144L285.996 59.424C284.908 58.784 283.684 58.464 282.324 58.464C281.444 58.464 280.772 58.6 280.308 58.872C279.86 59.128 279.636 59.472 279.636 59.904C279.636 60.384 279.876 60.728 280.356 60.936C280.852 61.128 281.612 61.312 282.636 61.488C283.66 61.648 284.5 61.832 285.156 62.04C285.812 62.248 286.372 62.6 286.836 63.096C287.316 63.592 287.556 64.296 287.556 65.208C287.556 66.408 287.036 67.368 285.996 68.088C284.956 68.808 283.54 69.168 281.748 69.168ZM295.036 56.04C296.924 56.04 298.364 56.496 299.356 57.408C300.364 58.304 300.868 59.664 300.868 61.488V69H298.036V67.44C297.668 68 297.14 68.432 296.452 68.736C295.78 69.024 294.964 69.168 294.004 69.168C293.044 69.168 292.204 69.008 291.484 68.688C290.764 68.352 290.204 67.896 289.804 67.32C289.42 66.728 289.228 66.064 289.228 65.328C289.228 64.176 289.652 63.256 290.5 62.568C291.364 61.864 292.716 61.512 294.556 61.512H297.868V61.32C297.868 60.424 297.596 59.736 297.052 59.256C296.524 58.776 295.732 58.536 294.676 58.536C293.956 58.536 293.244 58.648 292.54 58.872C291.852 59.096 291.268 59.408 290.788 59.808L289.612 57.624C290.284 57.112 291.092 56.72 292.036 56.448C292.98 56.176 293.98 56.04 295.036 56.04ZM294.628 66.984C295.38 66.984 296.044 66.816 296.62 66.48C297.212 66.128 297.628 65.632 297.868 64.992V63.504H294.772C293.044 63.504 292.18 64.072 292.18 65.208C292.18 65.752 292.396 66.184 292.828 66.504C293.26 66.824 293.86 66.984 294.628 66.984ZM311.99 56.04C313.606 56.04 314.902 56.512 315.878 57.456C316.854 58.4 317.342 59.8 317.342 61.656V69H314.342V62.04C314.342 60.92 314.078 60.08 313.55 59.52C313.022 58.944 312.27 58.656 311.294 58.656C310.19 58.656 309.318 58.992 308.678 59.664C308.038 60.32 307.718 61.272 307.718 62.52V69H304.718V56.184H307.574V57.84C308.07 57.248 308.694 56.8 309.446 56.496C310.198 56.192 311.046 56.04 311.99 56.04Z" fill="#333333"/>
<path d="M105.45 78.6C106.538 78.6 107.394 78.86 108.018 79.38C108.642 79.9 108.954 80.616 108.954 81.528C108.954 82.44 108.642 83.156 108.018 83.676C107.394 84.196 106.538 84.456 105.45 84.456H103.374V87H102.174V78.6H105.45ZM105.414 83.412C106.174 83.412 106.754 83.252 107.154 82.932C107.554 82.604 107.754 82.136 107.754 81.528C107.754 80.92 107.554 80.456 107.154 80.136C106.754 79.808 106.174 79.644 105.414 79.644H103.374V83.412H105.414ZM116.274 83.856C116.274 83.944 116.266 84.06 116.25 84.204H111.09C111.162 84.764 111.406 85.216 111.822 85.56C112.246 85.896 112.77 86.064 113.394 86.064C114.154 86.064 114.766 85.808 115.23 85.296L115.866 86.04C115.578 86.376 115.218 86.632 114.786 86.808C114.362 86.984 113.886 87.072 113.358 87.072C112.686 87.072 112.09 86.936 111.57 86.664C111.05 86.384 110.646 85.996 110.358 85.5C110.078 85.004 109.938 84.444 109.938 83.82C109.938 83.204 110.074 82.648 110.346 82.152C110.626 81.656 111.006 81.272 111.486 81C111.974 80.72 112.522 80.58 113.13 80.58C113.738 80.58 114.278 80.72 114.75 81C115.23 81.272 115.602 81.656 115.866 82.152C116.138 82.648 116.274 83.216 116.274 83.856ZM113.13 81.552C112.578 81.552 112.114 81.72 111.738 82.056C111.37 82.392 111.154 82.832 111.09 83.376H115.17C115.106 82.84 114.886 82.404 114.51 82.068C114.142 81.724 113.682 81.552 113.13 81.552ZM119.697 87.072C119.177 87.072 118.677 87.004 118.197 86.868C117.717 86.724 117.341 86.544 117.069 86.328L117.549 85.416C117.829 85.616 118.169 85.776 118.569 85.896C118.969 86.016 119.373 86.076 119.781 86.076C120.789 86.076 121.293 85.788 121.293 85.212C121.293 85.02 121.225 84.868 121.089 84.756C120.953 84.644 120.781 84.564 120.573 84.516C120.373 84.46 120.085 84.4 119.709 84.336C119.197 84.256 118.777 84.164 118.449 84.06C118.129 83.956 117.853 83.78 117.621 83.532C117.389 83.284 117.273 82.936 117.273 82.488C117.273 81.912 117.513 81.452 117.993 81.108C118.473 80.756 119.117 80.58 119.925 80.58C120.349 80.58 120.773 80.632 121.197 80.736C121.621 80.84 121.969 80.98 122.241 81.156L121.749 82.068C121.229 81.732 120.617 81.564 119.913 81.564C119.425 81.564 119.053 81.644 118.797 81.804C118.541 81.964 118.413 82.176 118.413 82.44C118.413 82.648 118.485 82.812 118.629 82.932C118.773 83.052 118.949 83.14 119.157 83.196C119.373 83.252 119.673 83.316 120.057 83.388C120.569 83.476 120.981 83.572 121.293 83.676C121.613 83.772 121.885 83.94 122.109 84.18C122.333 84.42 122.445 84.756 122.445 85.188C122.445 85.764 122.197 86.224 121.701 86.568C121.213 86.904 120.545 87.072 119.697 87.072ZM126.201 80.58C127.081 80.58 127.753 80.796 128.217 81.228C128.689 81.66 128.925 82.304 128.925 83.16V87H127.833V86.16C127.641 86.456 127.365 86.684 127.005 86.844C126.653 86.996 126.233 87.072 125.745 87.072C125.033 87.072 124.461 86.9 124.029 86.556C123.605 86.212 123.393 85.76 123.393 85.2C123.393 84.64 123.597 84.192 124.005 83.856C124.413 83.512 125.061 83.34 125.949 83.34H127.773V83.112C127.773 82.616 127.629 82.236 127.341 81.972C127.053 81.708 126.629 81.576 126.069 81.576C125.693 81.576 125.325 81.64 124.965 81.768C124.605 81.888 124.301 82.052 124.053 82.26L123.573 81.396C123.901 81.132 124.293 80.932 124.749 80.796C125.205 80.652 125.689 80.58 126.201 80.58ZM125.937 86.184C126.377 86.184 126.757 86.088 127.077 85.896C127.397 85.696 127.629 85.416 127.773 85.056V84.168H125.997C125.021 84.168 124.533 84.496 124.533 85.152C124.533 85.472 124.657 85.724 124.905 85.908C125.153 86.092 125.497 86.184 125.937 86.184ZM134.453 80.58C135.261 80.58 135.901 80.816 136.373 81.288C136.853 81.752 137.093 82.436 137.093 83.34V87H135.941V83.472C135.941 82.856 135.793 82.392 135.497 82.08C135.201 81.768 134.777 81.612 134.225 81.612C133.601 81.612 133.109 81.796 132.749 82.164C132.389 82.524 132.209 83.044 132.209 83.724V87H131.057V80.64H132.161V81.6C132.393 81.272 132.705 81.02 133.097 80.844C133.497 80.668 133.949 80.58 134.453 80.58ZM146.023 86.628C145.855 86.772 145.647 86.884 145.399 86.964C145.151 87.036 144.895 87.072 144.631 87.072C143.991 87.072 143.495 86.9 143.143 86.556C142.791 86.212 142.615 85.72 142.615 85.08V81.588H141.535V80.64H142.615V79.248H143.767V80.64H145.591V81.588H143.767V85.032C143.767 85.376 143.851 85.64 144.019 85.824C144.195 86.008 144.443 86.1 144.763 86.1C145.115 86.1 145.415 86 145.663 85.8L146.023 86.628ZM147.416 80.64H148.568V87H147.416V80.64ZM147.992 79.416C147.768 79.416 147.58 79.344 147.428 79.2C147.284 79.056 147.212 78.88 147.212 78.672C147.212 78.464 147.284 78.288 147.428 78.144C147.58 77.992 147.768 77.916 147.992 77.916C148.216 77.916 148.4 77.988 148.544 78.132C148.696 78.268 148.772 78.44 148.772 78.648C148.772 78.864 148.696 79.048 148.544 79.2C148.4 79.344 148.216 79.416 147.992 79.416ZM153.24 84.036L151.92 85.26V87H150.768V78.096H151.92V83.808L155.388 80.64H156.78L154.104 83.268L157.044 87H155.628L153.24 84.036ZM163.641 83.856C163.641 83.944 163.633 84.06 163.617 84.204H158.457C158.529 84.764 158.773 85.216 159.189 85.56C159.613 85.896 160.137 86.064 160.761 86.064C161.521 86.064 162.133 85.808 162.597 85.296L163.233 86.04C162.945 86.376 162.585 86.632 162.153 86.808C161.729 86.984 161.253 87.072 160.725 87.072C160.053 87.072 159.457 86.936 158.937 86.664C158.417 86.384 158.013 85.996 157.725 85.5C157.445 85.004 157.305 84.444 157.305 83.82C157.305 83.204 157.441 82.648 157.713 82.152C157.993 81.656 158.373 81.272 158.853 81C159.341 80.72 159.889 80.58 160.497 80.58C161.105 80.58 161.645 80.72 162.117 81C162.597 81.272 162.969 81.656 163.233 82.152C163.505 82.648 163.641 83.216 163.641 83.856ZM160.497 81.552C159.945 81.552 159.481 81.72 159.105 82.056C158.737 82.392 158.521 82.832 158.457 83.376H162.537C162.473 82.84 162.253 82.404 161.877 82.068C161.509 81.724 161.049 81.552 160.497 81.552ZM168.816 86.628C168.648 86.772 168.44 86.884 168.192 86.964C167.944 87.036 167.688 87.072 167.424 87.072C166.784 87.072 166.288 86.9 165.936 86.556C165.584 86.212 165.408 85.72 165.408 85.08V81.588H164.328V80.64H165.408V79.248H166.56V80.64H168.384V81.588H166.56V85.032C166.56 85.376 166.644 85.64 166.812 85.824C166.988 86.008 167.236 86.1 167.556 86.1C167.908 86.1 168.208 86 168.456 85.8L168.816 86.628ZM183.056 80.64L180.68 87H179.576L177.74 82.176L175.88 87H174.776L172.412 80.64H173.504L175.352 85.704L177.272 80.64H178.244L180.128 85.728L182.024 80.64H183.056ZM184.225 80.64H185.377V87H184.225V80.64ZM184.801 79.416C184.577 79.416 184.389 79.344 184.237 79.2C184.093 79.056 184.021 78.88 184.021 78.672C184.021 78.464 184.093 78.288 184.237 78.144C184.389 77.992 184.577 77.916 184.801 77.916C185.025 77.916 185.209 77.988 185.353 78.132C185.505 78.268 185.581 78.44 185.581 78.648C185.581 78.864 185.505 79.048 185.353 79.2C185.209 79.344 185.025 79.416 184.801 79.416ZM189.4 87.072C188.88 87.072 188.38 87.004 187.9 86.868C187.42 86.724 187.044 86.544 186.772 86.328L187.252 85.416C187.532 85.616 187.872 85.776 188.272 85.896C188.672 86.016 189.076 86.076 189.484 86.076C190.492 86.076 190.996 85.788 190.996 85.212C190.996 85.02 190.928 84.868 190.792 84.756C190.656 84.644 190.484 84.564 190.276 84.516C190.076 84.46 189.788 84.4 189.412 84.336C188.9 84.256 188.48 84.164 188.152 84.06C187.832 83.956 187.556 83.78 187.324 83.532C187.092 83.284 186.976 82.936 186.976 82.488C186.976 81.912 187.216 81.452 187.696 81.108C188.176 80.756 188.82 80.58 189.628 80.58C190.052 80.58 190.476 80.632 190.9 80.736C191.324 80.84 191.672 80.98 191.944 81.156L191.452 82.068C190.932 81.732 190.32 81.564 189.616 81.564C189.128 81.564 188.756 81.644 188.5 81.804C188.244 81.964 188.116 82.176 188.116 82.44C188.116 82.648 188.188 82.812 188.332 82.932C188.476 83.052 188.652 83.14 188.86 83.196C189.076 83.252 189.376 83.316 189.76 83.388C190.272 83.476 190.684 83.572 190.996 83.676C191.316 83.772 191.588 83.94 191.812 84.18C192.036 84.42 192.148 84.756 192.148 85.188C192.148 85.764 191.9 86.224 191.404 86.568C190.916 86.904 190.248 87.072 189.4 87.072ZM195.904 80.58C196.784 80.58 197.456 80.796 197.92 81.228C198.392 81.66 198.628 82.304 198.628 83.16V87H197.536V86.16C197.344 86.456 197.068 86.684 196.708 86.844C196.356 86.996 195.936 87.072 195.448 87.072C194.736 87.072 194.164 86.9 193.732 86.556C193.308 86.212 193.096 85.76 193.096 85.2C193.096 84.64 193.3 84.192 193.708 83.856C194.116 83.512 194.764 83.34 195.652 83.34H197.476V83.112C197.476 82.616 197.332 82.236 197.044 81.972C196.756 81.708 196.332 81.576 195.772 81.576C195.396 81.576 195.028 81.64 194.668 81.768C194.308 81.888 194.004 82.052 193.756 82.26L193.276 81.396C193.604 81.132 193.996 80.932 194.452 80.796C194.908 80.652 195.392 80.58 195.904 80.58ZM195.64 86.184C196.08 86.184 196.46 86.088 196.78 85.896C197.1 85.696 197.332 85.416 197.476 85.056V84.168H195.7C194.724 84.168 194.236 84.496 194.236 85.152C194.236 85.472 194.36 85.724 194.608 85.908C194.856 86.092 195.2 86.184 195.64 86.184ZM204.336 86.628C204.168 86.772 203.96 86.884 203.712 86.964C203.464 87.036 203.208 87.072 202.944 87.072C202.304 87.072 201.808 86.9 201.456 86.556C201.104 86.212 200.928 85.72 200.928 85.08V81.588H199.848V80.64H200.928V79.248H202.08V80.64H203.904V81.588H202.08V85.032C202.08 85.376 202.164 85.64 202.332 85.824C202.508 86.008 202.756 86.1 203.076 86.1C203.428 86.1 203.728 86 203.976 85.8L204.336 86.628ZM208.045 80.58C208.925 80.58 209.597 80.796 210.061 81.228C210.533 81.66 210.769 82.304 210.769 83.16V87H209.677V86.16C209.485 86.456 209.209 86.684 208.849 86.844C208.497 86.996 208.077 87.072 207.589 87.072C206.877 87.072 206.305 86.9 205.873 86.556C205.449 86.212 205.237 85.76 205.237 85.2C205.237 84.64 205.441 84.192 205.849 83.856C206.257 83.512 206.905 83.34 207.793 83.34H209.617V83.112C209.617 82.616 209.473 82.236 209.185 81.972C208.897 81.708 208.473 81.576 207.913 81.576C207.537 81.576 207.169 81.64 206.809 81.768C206.449 81.888 206.145 82.052 205.897 82.26L205.417 81.396C205.745 81.132 206.137 80.932 206.593 80.796C207.049 80.652 207.533 80.58 208.045 80.58ZM207.781 86.184C208.221 86.184 208.601 86.088 208.921 85.896C209.241 85.696 209.473 85.416 209.617 85.056V84.168H207.841C206.865 84.168 206.377 84.496 206.377 85.152C206.377 85.472 206.501 85.724 206.749 85.908C206.997 86.092 207.341 86.184 207.781 86.184ZM217.947 87.072C217.427 87.072 216.927 87.004 216.447 86.868C215.967 86.724 215.591 86.544 215.319 86.328L215.799 85.416C216.079 85.616 216.419 85.776 216.819 85.896C217.219 86.016 217.623 86.076 218.031 86.076C219.039 86.076 219.543 85.788 219.543 85.212C219.543 85.02 219.475 84.868 219.339 84.756C219.203 84.644 219.031 84.564 218.823 84.516C218.623 84.46 218.335 84.4 217.959 84.336C217.447 84.256 217.027 84.164 216.699 84.06C216.379 83.956 216.103 83.78 215.871 83.532C215.639 83.284 215.523 82.936 215.523 82.488C215.523 81.912 215.763 81.452 216.243 81.108C216.723 80.756 217.367 80.58 218.175 80.58C218.599 80.58 219.023 80.632 219.447 80.736C219.871 80.84 220.219 80.98 220.491 81.156L219.999 82.068C219.479 81.732 218.867 81.564 218.163 81.564C217.675 81.564 217.303 81.644 217.047 81.804C216.791 81.964 216.663 82.176 216.663 82.44C216.663 82.648 216.735 82.812 216.879 82.932C217.023 83.052 217.199 83.14 217.407 83.196C217.623 83.252 217.923 83.316 218.307 83.388C218.819 83.476 219.231 83.572 219.543 83.676C219.863 83.772 220.135 83.94 220.359 84.18C220.583 84.42 220.695 84.756 220.695 85.188C220.695 85.764 220.447 86.224 219.951 86.568C219.463 86.904 218.795 87.072 217.947 87.072ZM227.883 83.856C227.883 83.944 227.875 84.06 227.859 84.204H222.699C222.771 84.764 223.015 85.216 223.431 85.56C223.855 85.896 224.379 86.064 225.003 86.064C225.763 86.064 226.375 85.808 226.839 85.296L227.475 86.04C227.187 86.376 226.827 86.632 226.395 86.808C225.971 86.984 225.495 87.072 224.967 87.072C224.295 87.072 223.699 86.936 223.179 86.664C222.659 86.384 222.255 85.996 221.967 85.5C221.687 85.004 221.547 84.444 221.547 83.82C221.547 83.204 221.683 82.648 221.955 82.152C222.235 81.656 222.615 81.272 223.095 81C223.583 80.72 224.131 80.58 224.739 80.58C225.347 80.58 225.887 80.72 226.359 81C226.839 81.272 227.211 81.656 227.475 82.152C227.747 82.648 227.883 83.216 227.883 83.856ZM224.739 81.552C224.187 81.552 223.723 81.72 223.347 82.056C222.979 82.392 222.763 82.832 222.699 83.376H226.779C226.715 82.84 226.495 82.404 226.119 82.068C225.751 81.724 225.291 81.552 224.739 81.552ZM232.879 80.58C233.687 80.58 234.327 80.816 234.799 81.288C235.279 81.752 235.519 82.436 235.519 83.34V87H234.367V83.472C234.367 82.856 234.219 82.392 233.923 82.08C233.627 81.768 233.203 81.612 232.651 81.612C232.027 81.612 231.535 81.796 231.175 82.164C230.815 82.524 230.635 83.044 230.635 83.724V87H229.483V80.64H230.587V81.6C230.819 81.272 231.131 81.02 231.523 80.844C231.923 80.668 232.375 80.58 232.879 80.58ZM237.651 80.64H238.803V87H237.651V80.64ZM238.227 79.416C238.003 79.416 237.815 79.344 237.663 79.2C237.519 79.056 237.447 78.88 237.447 78.672C237.447 78.464 237.519 78.288 237.663 78.144C237.815 77.992 238.003 77.916 238.227 77.916C238.451 77.916 238.635 77.988 238.779 78.132C238.931 78.268 239.007 78.44 239.007 78.648C239.007 78.864 238.931 79.048 238.779 79.2C238.635 79.344 238.451 79.416 238.227 79.416ZM250.225 78.096V87H249.121V85.992C248.865 86.344 248.541 86.612 248.149 86.796C247.757 86.98 247.325 87.072 246.853 87.072C246.237 87.072 245.685 86.936 245.197 86.664C244.709 86.392 244.325 86.012 244.045 85.524C243.773 85.028 243.637 84.46 243.637 83.82C243.637 83.18 243.773 82.616 244.045 82.128C244.325 81.64 244.709 81.26 245.197 80.988C245.685 80.716 246.237 80.58 246.853 80.58C247.309 80.58 247.729 80.668 248.113 80.844C248.497 81.012 248.817 81.264 249.073 81.6V78.096H250.225ZM246.949 86.064C247.349 86.064 247.713 85.972 248.041 85.788C248.369 85.596 248.625 85.332 248.809 84.996C248.993 84.652 249.085 84.26 249.085 83.82C249.085 83.38 248.993 82.992 248.809 82.656C248.625 82.312 248.369 82.048 248.041 81.864C247.713 81.68 247.349 81.588 246.949 81.588C246.541 81.588 246.173 81.68 245.845 81.864C245.525 82.048 245.269 82.312 245.077 82.656C244.893 82.992 244.801 83.38 244.801 83.82C244.801 84.26 244.893 84.652 245.077 84.996C245.269 85.332 245.525 85.596 245.845 85.788C246.173 85.972 246.541 86.064 246.949 86.064ZM254.721 80.58C255.601 80.58 256.273 80.796 256.737 81.228C257.209 81.66 257.445 82.304 257.445 83.16V87H256.353V86.16C256.161 86.456 255.885 86.684 255.525 86.844C255.173 86.996 254.753 87.072 254.265 87.072C253.553 87.072 252.981 86.9 252.549 86.556C252.125 86.212 251.913 85.76 251.913 85.2C251.913 84.64 252.117 84.192 252.525 83.856C252.933 83.512 253.581 83.34 254.469 83.34H256.293V83.112C256.293 82.616 256.149 82.236 255.861 81.972C255.573 81.708 255.149 81.576 254.589 81.576C254.213 81.576 253.845 81.64 253.485 81.768C253.125 81.888 252.821 82.052 252.573 82.26L252.093 81.396C252.421 81.132 252.813 80.932 253.269 80.796C253.725 80.652 254.209 80.58 254.721 80.58ZM254.457 86.184C254.897 86.184 255.277 86.088 255.597 85.896C255.917 85.696 256.149 85.416 256.293 85.056V84.168H254.517C253.541 84.168 253.053 84.496 253.053 85.152C253.053 85.472 253.177 85.724 253.425 85.908C253.673 86.092 254.017 86.184 254.457 86.184ZM262.972 80.58C263.78 80.58 264.42 80.816 264.892 81.288C265.372 81.752 265.612 82.436 265.612 83.34V87H264.46V83.472C264.46 82.856 264.312 82.392 264.016 82.08C263.72 81.768 263.296 81.612 262.744 81.612C262.12 81.612 261.628 81.796 261.268 82.164C260.908 82.524 260.728 83.044 260.728 83.724V87H259.576V80.64H260.68V81.6C260.912 81.272 261.224 81.02 261.616 80.844C262.016 80.668 262.468 80.58 262.972 80.58ZM274.339 80.58C274.955 80.58 275.507 80.716 275.995 80.988C276.483 81.26 276.863 81.64 277.135 82.128C277.415 82.616 277.555 83.18 277.555 83.82C277.555 84.46 277.415 85.028 277.135 85.524C276.863 86.012 276.483 86.392 275.995 86.664C275.507 86.936 274.955 87.072 274.339 87.072C273.867 87.072 273.435 86.98 273.043 86.796C272.651 86.612 272.327 86.344 272.071 85.992V87H270.967V78.096H272.119V81.6C272.375 81.264 272.695 81.012 273.079 80.844C273.463 80.668 273.883 80.58 274.339 80.58ZM274.243 86.064C274.651 86.064 275.015 85.972 275.335 85.788C275.663 85.596 275.919 85.332 276.103 84.996C276.295 84.652 276.391 84.26 276.391 83.82C276.391 83.38 276.295 82.992 276.103 82.656C275.919 82.312 275.663 82.048 275.335 81.864C275.015 81.68 274.651 81.588 274.243 81.588C273.843 81.588 273.479 81.68 273.151 81.864C272.823 82.048 272.567 82.312 272.383 82.656C272.199 82.992 272.107 83.38 272.107 83.82C272.107 84.26 272.199 84.652 272.383 84.996C272.567 85.332 272.823 85.596 273.151 85.788C273.479 85.972 273.843 86.064 274.243 86.064ZM285.075 80.64V87H283.983V86.04C283.751 86.368 283.443 86.624 283.059 86.808C282.683 86.984 282.271 87.072 281.823 87.072C280.975 87.072 280.307 86.84 279.819 86.376C279.331 85.904 279.087 85.212 279.087 84.3V80.64H280.239V84.168C280.239 84.784 280.387 85.252 280.683 85.572C280.979 85.884 281.403 86.04 281.955 86.04C282.563 86.04 283.043 85.856 283.395 85.488C283.747 85.12 283.923 84.6 283.923 83.928V80.64H285.075ZM293.268 78.096V87H292.164V85.992C291.908 86.344 291.584 86.612 291.192 86.796C290.8 86.98 290.368 87.072 289.896 87.072C289.28 87.072 288.728 86.936 288.24 86.664C287.752 86.392 287.368 86.012 287.088 85.524C286.816 85.028 286.68 84.46 286.68 83.82C286.68 83.18 286.816 82.616 287.088 82.128C287.368 81.64 287.752 81.26 288.24 80.988C288.728 80.716 289.28 80.58 289.896 80.58C290.352 80.58 290.772 80.668 291.156 80.844C291.54 81.012 291.86 81.264 292.116 81.6V78.096H293.268ZM289.992 86.064C290.392 86.064 290.756 85.972 291.084 85.788C291.412 85.596 291.668 85.332 291.852 84.996C292.036 84.652 292.128 84.26 292.128 83.82C292.128 83.38 292.036 82.992 291.852 82.656C291.668 82.312 291.412 82.048 291.084 81.864C290.756 81.68 290.392 81.588 289.992 81.588C289.584 81.588 289.216 81.68 288.888 81.864C288.568 82.048 288.312 82.312 288.12 82.656C287.936 82.992 287.844 83.38 287.844 83.82C287.844 84.26 287.936 84.652 288.12 84.996C288.312 85.332 288.568 85.596 288.888 85.788C289.216 85.972 289.584 86.064 289.992 86.064ZM297.763 80.58C298.643 80.58 299.315 80.796 299.779 81.228C300.251 81.66 300.487 82.304 300.487 83.16V87H299.395V86.16C299.203 86.456 298.927 86.684 298.567 86.844C298.215 86.996 297.795 87.072 297.307 87.072C296.595 87.072 296.023 86.9 295.591 86.556C295.167 86.212 294.955 85.76 294.955 85.2C294.955 84.64 295.159 84.192 295.567 83.856C295.975 83.512 296.623 83.34 297.511 83.34H299.335V83.112C299.335 82.616 299.191 82.236 298.903 81.972C298.615 81.708 298.191 81.576 297.631 81.576C297.255 81.576 296.887 81.64 296.527 81.768C296.167 81.888 295.863 82.052 295.615 82.26L295.135 81.396C295.463 81.132 295.855 80.932 296.311 80.796C296.767 80.652 297.251 80.58 297.763 80.58ZM297.499 86.184C297.939 86.184 298.319 86.088 298.639 85.896C298.959 85.696 299.191 85.416 299.335 85.056V84.168H297.559C296.583 84.168 296.095 84.496 296.095 85.152C296.095 85.472 296.219 85.724 296.467 85.908C296.715 86.092 297.059 86.184 297.499 86.184ZM308.13 80.64L305.046 87.636C304.774 88.284 304.454 88.74 304.086 89.004C303.726 89.268 303.29 89.4 302.778 89.4C302.466 89.4 302.162 89.348 301.866 89.244C301.578 89.148 301.338 89.004 301.146 88.812L301.638 87.948C301.966 88.26 302.346 88.416 302.778 88.416C303.058 88.416 303.29 88.34 303.474 88.188C303.666 88.044 303.838 87.792 303.99 87.432L304.194 86.988L301.386 80.64H302.586L304.806 85.728L307.002 80.64H308.13ZM311.322 80.58C312.202 80.58 312.874 80.796 313.338 81.228C313.81 81.66 314.046 82.304 314.046 83.16V87H312.954V86.16C312.762 86.456 312.486 86.684 312.126 86.844C311.774 86.996 311.354 87.072 310.866 87.072C310.154 87.072 309.582 86.9 309.15 86.556C308.726 86.212 308.514 85.76 308.514 85.2C308.514 84.64 308.718 84.192 309.126 83.856C309.534 83.512 310.182 83.34 311.07 83.34H312.894V83.112C312.894 82.616 312.75 82.236 312.462 81.972C312.174 81.708 311.75 81.576 311.19 81.576C310.814 81.576 310.446 81.64 310.086 81.768C309.726 81.888 309.422 82.052 309.174 82.26L308.694 81.396C309.022 81.132 309.414 80.932 309.87 80.796C310.326 80.652 310.81 80.58 311.322 80.58ZM311.058 86.184C311.498 86.184 311.878 86.088 312.198 85.896C312.518 85.696 312.75 85.416 312.894 85.056V84.168H311.118C310.142 84.168 309.654 84.496 309.654 85.152C309.654 85.472 309.778 85.724 310.026 85.908C310.274 86.092 310.618 86.184 311.058 86.184ZM146.004 93.096V102H144.9V100.992C144.644 101.344 144.32 101.612 143.928 101.796C143.536 101.98 143.104 102.072 142.632 102.072C142.016 102.072 141.464 101.936 140.976 101.664C140.488 101.392 140.104 101.012 139.824 100.524C139.552 100.028 139.416 99.46 139.416 98.82C139.416 98.18 139.552 97.616 139.824 97.128C140.104 96.64 140.488 96.26 140.976 95.988C141.464 95.716 142.016 95.58 142.632 95.58C143.088 95.58 143.508 95.668 143.892 95.844C144.276 96.012 144.596 96.264 144.852 96.6V93.096H146.004ZM142.728 101.064C143.128 101.064 143.492 100.972 143.82 100.788C144.148 100.596 144.404 100.332 144.588 99.996C144.772 99.652 144.864 99.26 144.864 98.82C144.864 98.38 144.772 97.992 144.588 97.656C144.404 97.312 144.148 97.048 143.82 96.864C143.492 96.68 143.128 96.588 142.728 96.588C142.32 96.588 141.952 96.68 141.624 96.864C141.304 97.048 141.048 97.312 140.856 97.656C140.672 97.992 140.58 98.38 140.58 98.82C140.58 99.26 140.672 99.652 140.856 99.996C141.048 100.332 141.304 100.596 141.624 100.788C141.952 100.972 142.32 101.064 142.728 101.064ZM150.5 95.58C151.38 95.58 152.052 95.796 152.516 96.228C152.988 96.66 153.224 97.304 153.224 98.16V102H152.132V101.16C151.94 101.456 151.664 101.684 151.304 101.844C150.952 101.996 150.532 102.072 150.044 102.072C149.332 102.072 148.76 101.9 148.328 101.556C147.904 101.212 147.692 100.76 147.692 100.2C147.692 99.64 147.896 99.192 148.304 98.856C148.712 98.512 149.36 98.34 150.248 98.34H152.072V98.112C152.072 97.616 151.928 97.236 151.64 96.972C151.352 96.708 150.928 96.576 150.368 96.576C149.992 96.576 149.624 96.64 149.264 96.768C148.904 96.888 148.6 97.052 148.352 97.26L147.872 96.396C148.2 96.132 148.592 95.932 149.048 95.796C149.504 95.652 149.988 95.58 150.5 95.58ZM150.236 101.184C150.676 101.184 151.056 101.088 151.376 100.896C151.696 100.696 151.928 100.416 152.072 100.056V99.168H150.296C149.32 99.168 148.832 99.496 148.832 100.152C148.832 100.472 148.956 100.724 149.204 100.908C149.452 101.092 149.796 101.184 150.236 101.184ZM155.356 93.096H156.508V102H155.356V93.096ZM161.023 95.58C161.903 95.58 162.575 95.796 163.039 96.228C163.511 96.66 163.747 97.304 163.747 98.16V102H162.655V101.16C162.463 101.456 162.187 101.684 161.827 101.844C161.475 101.996 161.055 102.072 160.567 102.072C159.855 102.072 159.283 101.9 158.851 101.556C158.427 101.212 158.215 100.76 158.215 100.2C158.215 99.64 158.419 99.192 158.827 98.856C159.235 98.512 159.883 98.34 160.771 98.34H162.595V98.112C162.595 97.616 162.451 97.236 162.163 96.972C161.875 96.708 161.451 96.576 160.891 96.576C160.515 96.576 160.147 96.64 159.787 96.768C159.427 96.888 159.123 97.052 158.875 97.26L158.395 96.396C158.723 96.132 159.115 95.932 159.571 95.796C160.027 95.652 160.511 95.58 161.023 95.58ZM160.759 101.184C161.199 101.184 161.579 101.088 161.899 100.896C162.219 100.696 162.451 100.416 162.595 100.056V99.168H160.819C159.843 99.168 159.355 99.496 159.355 100.152C159.355 100.472 159.479 100.724 159.727 100.908C159.975 101.092 160.319 101.184 160.759 101.184ZM173.835 95.58C174.635 95.58 175.267 95.812 175.731 96.276C176.203 96.74 176.439 97.428 176.439 98.34V102H175.287V98.472C175.287 97.856 175.143 97.392 174.855 97.08C174.575 96.768 174.171 96.612 173.643 96.612C173.059 96.612 172.595 96.796 172.251 97.164C171.907 97.524 171.735 98.044 171.735 98.724V102H170.583V98.472C170.583 97.856 170.439 97.392 170.151 97.08C169.871 96.768 169.467 96.612 168.939 96.612C168.355 96.612 167.891 96.796 167.547 97.164C167.203 97.524 167.031 98.044 167.031 98.724V102H165.879V95.64H166.983V96.588C167.215 96.26 167.519 96.012 167.895 95.844C168.271 95.668 168.699 95.58 169.179 95.58C169.675 95.58 170.115 95.68 170.499 95.88C170.883 96.08 171.179 96.372 171.387 96.756C171.627 96.388 171.959 96.1 172.383 95.892C172.815 95.684 173.299 95.58 173.835 95.58ZM187.865 95.64V101.136C187.865 102.248 187.589 103.068 187.037 103.596C186.485 104.132 185.661 104.4 184.565 104.4C183.965 104.4 183.393 104.316 182.849 104.148C182.305 103.988 181.865 103.756 181.529 103.452L182.081 102.564C182.377 102.82 182.741 103.02 183.173 103.164C183.613 103.316 184.065 103.392 184.529 103.392C185.273 103.392 185.821 103.216 186.173 102.864C186.533 102.512 186.713 101.976 186.713 101.256V100.752C186.441 101.08 186.105 101.328 185.705 101.496C185.313 101.656 184.885 101.736 184.421 101.736C183.813 101.736 183.261 101.608 182.765 101.352C182.277 101.088 181.893 100.724 181.613 100.26C181.333 99.788 181.193 99.252 181.193 98.652C181.193 98.052 181.333 97.52 181.613 97.056C181.893 96.584 182.277 96.22 182.765 95.964C183.261 95.708 183.813 95.58 184.421 95.58C184.901 95.58 185.345 95.668 185.753 95.844C186.169 96.02 186.509 96.28 186.773 96.624V95.64H187.865ZM184.553 100.728C184.969 100.728 185.341 100.64 185.669 100.464C186.005 100.288 186.265 100.044 186.449 99.732C186.641 99.412 186.737 99.052 186.737 98.652C186.737 98.036 186.533 97.54 186.125 97.164C185.717 96.78 185.193 96.588 184.553 96.588C183.905 96.588 183.377 96.78 182.969 97.164C182.561 97.54 182.357 98.036 182.357 98.652C182.357 99.052 182.449 99.412 182.633 99.732C182.825 100.044 183.085 100.288 183.413 100.464C183.749 100.64 184.129 100.728 184.553 100.728ZM195.815 98.856C195.815 98.944 195.807 99.06 195.791 99.204H190.631C190.703 99.764 190.947 100.216 191.363 100.56C191.787 100.896 192.311 101.064 192.935 101.064C193.695 101.064 194.307 100.808 194.771 100.296L195.407 101.04C195.119 101.376 194.759 101.632 194.327 101.808C193.903 101.984 193.427 102.072 192.899 102.072C192.227 102.072 191.631 101.936 191.111 101.664C190.591 101.384 190.187 100.996 189.899 100.5C189.619 100.004 189.479 99.444 189.479 98.82C189.479 98.204 189.615 97.648 189.887 97.152C190.167 96.656 190.547 96.272 191.027 96C191.515 95.72 192.063 95.58 192.671 95.58C193.279 95.58 193.819 95.72 194.291 96C194.771 96.272 195.143 96.656 195.407 97.152C195.679 97.648 195.815 98.216 195.815 98.856ZM192.671 96.552C192.119 96.552 191.655 96.72 191.279 97.056C190.911 97.392 190.695 97.832 190.631 98.376H194.711C194.647 97.84 194.427 97.404 194.051 97.068C193.683 96.724 193.223 96.552 192.671 96.552ZM200.81 95.58C201.618 95.58 202.258 95.816 202.73 96.288C203.21 96.752 203.45 97.436 203.45 98.34V102H202.298V98.472C202.298 97.856 202.15 97.392 201.854 97.08C201.558 96.768 201.134 96.612 200.582 96.612C199.958 96.612 199.466 96.796 199.106 97.164C198.746 97.524 198.566 98.044 198.566 98.724V102H197.414V95.64H198.518V96.6C198.75 96.272 199.062 96.02 199.454 95.844C199.854 95.668 200.306 95.58 200.81 95.58ZM211.701 95.64V101.136C211.701 102.248 211.425 103.068 210.873 103.596C210.321 104.132 209.497 104.4 208.401 104.4C207.801 104.4 207.229 104.316 206.685 104.148C206.141 103.988 205.701 103.756 205.365 103.452L205.917 102.564C206.213 102.82 206.577 103.02 207.009 103.164C207.449 103.316 207.901 103.392 208.365 103.392C209.109 103.392 209.657 103.216 210.009 102.864C210.369 102.512 210.549 101.976 210.549 101.256V100.752C210.277 101.08 209.941 101.328 209.541 101.496C209.149 101.656 208.721 101.736 208.257 101.736C207.649 101.736 207.097 101.608 206.601 101.352C206.113 101.088 205.729 100.724 205.449 100.26C205.169 99.788 205.029 99.252 205.029 98.652C205.029 98.052 205.169 97.52 205.449 97.056C205.729 96.584 206.113 96.22 206.601 95.964C207.097 95.708 207.649 95.58 208.257 95.58C208.737 95.58 209.181 95.668 209.589 95.844C210.005 96.02 210.345 96.28 210.609 96.624V95.64H211.701ZM208.389 100.728C208.805 100.728 209.177 100.64 209.505 100.464C209.841 100.288 210.101 100.044 210.285 99.732C210.477 99.412 210.573 99.052 210.573 98.652C210.573 98.036 210.369 97.54 209.961 97.164C209.553 96.78 209.029 96.588 208.389 96.588C207.741 96.588 207.213 96.78 206.805 97.164C206.397 97.54 206.193 98.036 206.193 98.652C206.193 99.052 206.285 99.412 206.469 99.732C206.661 100.044 206.921 100.288 207.249 100.464C207.585 100.64 207.965 100.728 208.389 100.728ZM219.987 95.64V101.136C219.987 102.248 219.711 103.068 219.159 103.596C218.607 104.132 217.783 104.4 216.687 104.4C216.087 104.4 215.515 104.316 214.971 104.148C214.427 103.988 213.987 103.756 213.651 103.452L214.203 102.564C214.499 102.82 214.863 103.02 215.295 103.164C215.735 103.316 216.187 103.392 216.651 103.392C217.395 103.392 217.943 103.216 218.295 102.864C218.655 102.512 218.835 101.976 218.835 101.256V100.752C218.563 101.08 218.227 101.328 217.827 101.496C217.435 101.656 217.007 101.736 216.543 101.736C215.935 101.736 215.383 101.608 214.887 101.352C214.399 101.088 214.015 100.724 213.735 100.26C213.455 99.788 213.315 99.252 213.315 98.652C213.315 98.052 213.455 97.52 213.735 97.056C214.015 96.584 214.399 96.22 214.887 95.964C215.383 95.708 215.935 95.58 216.543 95.58C217.023 95.58 217.467 95.668 217.875 95.844C218.291 96.02 218.631 96.28 218.895 96.624V95.64H219.987ZM216.675 100.728C217.091 100.728 217.463 100.64 217.791 100.464C218.127 100.288 218.387 100.044 218.571 99.732C218.763 99.412 218.859 99.052 218.859 98.652C218.859 98.036 218.655 97.54 218.247 97.164C217.839 96.78 217.315 96.588 216.675 96.588C216.027 96.588 215.499 96.78 215.091 97.164C214.683 97.54 214.479 98.036 214.479 98.652C214.479 99.052 214.571 99.412 214.755 99.732C214.947 100.044 215.207 100.288 215.535 100.464C215.871 100.64 216.251 100.728 216.675 100.728ZM224.504 95.58C225.384 95.58 226.056 95.796 226.52 96.228C226.992 96.66 227.228 97.304 227.228 98.16V102H226.136V101.16C225.944 101.456 225.668 101.684 225.308 101.844C224.956 101.996 224.536 102.072 224.048 102.072C223.336 102.072 222.764 101.9 222.332 101.556C221.908 101.212 221.696 100.76 221.696 100.2C221.696 99.64 221.9 99.192 222.308 98.856C222.716 98.512 223.364 98.34 224.252 98.34H226.076V98.112C226.076 97.616 225.932 97.236 225.644 96.972C225.356 96.708 224.932 96.576 224.372 96.576C223.996 96.576 223.628 96.64 223.268 96.768C222.908 96.888 222.604 97.052 222.356 97.26L221.876 96.396C222.204 96.132 222.596 95.932 223.052 95.796C223.508 95.652 223.992 95.58 224.504 95.58ZM224.24 101.184C224.68 101.184 225.06 101.088 225.38 100.896C225.7 100.696 225.932 100.416 226.076 100.056V99.168H224.3C223.324 99.168 222.836 99.496 222.836 100.152C222.836 100.472 222.96 100.724 223.208 100.908C223.456 101.092 223.8 101.184 224.24 101.184ZM237.316 95.58C238.116 95.58 238.748 95.812 239.212 96.276C239.684 96.74 239.92 97.428 239.92 98.34V102H238.768V98.472C238.768 97.856 238.624 97.392 238.336 97.08C238.056 96.768 237.652 96.612 237.124 96.612C236.54 96.612 236.076 96.796 235.732 97.164C235.388 97.524 235.216 98.044 235.216 98.724V102H234.064V98.472C234.064 97.856 233.92 97.392 233.632 97.08C233.352 96.768 232.948 96.612 232.42 96.612C231.836 96.612 231.372 96.796 231.028 97.164C230.684 97.524 230.512 98.044 230.512 98.724V102H229.36V95.64H230.464V96.588C230.696 96.26 231 96.012 231.376 95.844C231.752 95.668 232.18 95.58 232.66 95.58C233.156 95.58 233.596 95.68 233.98 95.88C234.364 96.08 234.66 96.372 234.868 96.756C235.108 96.388 235.44 96.1 235.864 95.892C236.296 95.684 236.78 95.58 237.316 95.58ZM244.355 95.58C245.235 95.58 245.907 95.796 246.371 96.228C246.843 96.66 247.079 97.304 247.079 98.16V102H245.987V101.16C245.795 101.456 245.519 101.684 245.159 101.844C244.807 101.996 244.387 102.072 243.899 102.072C243.187 102.072 242.615 101.9 242.183 101.556C241.759 101.212 241.547 100.76 241.547 100.2C241.547 99.64 241.751 99.192 242.159 98.856C242.567 98.512 243.215 98.34 244.103 98.34H245.927V98.112C245.927 97.616 245.783 97.236 245.495 96.972C245.207 96.708 244.783 96.576 244.223 96.576C243.847 96.576 243.479 96.64 243.119 96.768C242.759 96.888 242.455 97.052 242.207 97.26L241.727 96.396C242.055 96.132 242.447 95.932 242.903 95.796C243.359 95.652 243.843 95.58 244.355 95.58ZM244.091 101.184C244.531 101.184 244.911 101.088 245.231 100.896C245.551 100.696 245.783 100.416 245.927 100.056V99.168H244.151C243.175 99.168 242.687 99.496 242.687 100.152C242.687 100.472 242.811 100.724 243.059 100.908C243.307 101.092 243.651 101.184 244.091 101.184ZM252.607 95.58C253.415 95.58 254.055 95.816 254.527 96.288C255.007 96.752 255.247 97.436 255.247 98.34V102H254.095V98.472C254.095 97.856 253.947 97.392 253.651 97.08C253.355 96.768 252.931 96.612 252.379 96.612C251.755 96.612 251.263 96.796 250.903 97.164C250.543 97.524 250.363 98.044 250.363 98.724V102H249.211V95.64H250.315V96.6C250.547 96.272 250.859 96.02 251.251 95.844C251.651 95.668 252.103 95.58 252.607 95.58ZM265.335 95.58C266.135 95.58 266.767 95.812 267.231 96.276C267.703 96.74 267.939 97.428 267.939 98.34V102H266.787V98.472C266.787 97.856 266.643 97.392 266.355 97.08C266.075 96.768 265.671 96.612 265.143 96.612C264.559 96.612 264.095 96.796 263.751 97.164C263.407 97.524 263.235 98.044 263.235 98.724V102H262.083V98.472C262.083 97.856 261.939 97.392 261.651 97.08C261.371 96.768 260.967 96.612 260.439 96.612C259.855 96.612 259.391 96.796 259.047 97.164C258.703 97.524 258.531 98.044 258.531 98.724V102H257.379V95.64H258.483V96.588C258.715 96.26 259.019 96.012 259.395 95.844C259.771 95.668 260.199 95.58 260.679 95.58C261.175 95.58 261.615 95.68 261.999 95.88C262.383 96.08 262.679 96.372 262.887 96.756C263.127 96.388 263.459 96.1 263.883 95.892C264.315 95.684 264.799 95.58 265.335 95.58ZM275.987 95.64V102H274.895V101.04C274.663 101.368 274.355 101.624 273.971 101.808C273.595 101.984 273.183 102.072 272.735 102.072C271.887 102.072 271.219 101.84 270.731 101.376C270.243 100.904 269.999 100.212 269.999 99.3V95.64H271.151V99.168C271.151 99.784 271.299 100.252 271.595 100.572C271.891 100.884 272.315 101.04 272.867 101.04C273.475 101.04 273.955 100.856 274.307 100.488C274.659 100.12 274.835 99.6 274.835 98.928V95.64H275.987Z" fill="#BDBDBD"/>
<path d="M21.0269 31.0529C25.0719 38.5206 22.4107 47.9086 14.853 52.0692C7.40165 56.123 -1.96573 53.456 -6.11718 45.8816C-10.1622 38.4139 -7.50099 29.0259 0.0567723 24.8654C7.61454 20.8115 16.9819 23.5852 21.0269 31.0529Z" fill="#F7CC7F"/>
<path d="M1.44067 44.6014C3.67607 48.6553 8.67909 50.0422 12.6176 47.9086C16.6626 45.6683 18.0465 40.6542 15.9175 36.707L1.44067 44.6014Z" fill="#EFEFEF"/>
<path d="M38.916 70.5447L36.1033 63.1972C34.7908 59.8021 30.5718 56.8124 27.5248 58.3832L19.9307 41.0531C19.2744 39.3809 17.4931 38.5701 15.8993 39.2288C14.3523 39.9383 13.6023 41.8638 14.2117 43.5867L21.712 60.7142C14.6805 63.5012 21.1964 73.5344 22.509 76.9295C22.509 76.9295 20.3526 81.8955 21.4777 86.4561C24.5247 99.023 31.7906 99.8844 37.2284 97.4521L40.5567 95.9826C45.9944 93.5503 45.8538 81.9968 42.9943 75.5614C42.2911 73.8385 38.916 70.5447 38.916 70.5447Z" fill="#184655"/>
<path d="M59.1201 55.9509C59.5419 53.9747 59.917 51.9477 58.8388 49.7688C57.995 47.9952 56.4949 46.9818 54.7605 46.7284C49.8384 46.1203 49.4165 50.8329 44.7288 52.9105C42.7131 53.8226 40.6973 53.5186 38.916 54.6841C35.6815 56.7617 36.9003 59.2446 39.0098 64.6667C44.2131 77.8923 53.2135 70.2407 54.8074 67.6564C56.0262 65.7308 58.8857 57.2177 59.1201 55.9509Z" fill="#13375B"/>
<path d="M56.3074 62.7918C53.6823 63.7039 48.1039 68.1124 47.7289 68.0111L41.2129 62.437L37.2284 66.2375C37.2284 66.2375 46.135 73.3824 46.6507 73.6358C47.0257 73.8385 54.1041 67.3523 57.8074 65.3761C57.7606 64.0586 56.9168 63.9066 56.3074 62.7918Z" fill="#F48C7F"/>
<path d="M45.9476 65.5281L41.8692 71.2542C41.8692 71.2542 37.5566 67.7071 36.0096 65.7815C34.0876 63.4505 31.9782 58.4339 32.3063 58.2819C33.197 57.7752 35.0721 57.3698 36.3377 57.6738C40.8379 58.738 45.9476 65.5281 45.9476 65.5281Z" fill="#B75742"/>
<path d="M56.1198 65.9335L55.6041 63.0958C55.6041 63.0958 57.1042 63.5012 58.0417 65.0721C58.9793 66.6429 60.5731 72.0143 60.8544 72.1663C61.1356 72.3183 64.0889 67.3523 64.6514 66.5416C65.3077 65.5788 65.5421 64.464 65.964 63.6025C66.3859 62.7411 67.7922 62.4877 68.3547 62.5891C68.9172 62.6904 67.6047 65.1734 67.6047 65.1734C67.6047 65.1734 64.3701 71.2542 63.292 74.5986C62.2138 77.943 58.8386 79.5139 58.323 79.0578C57.7136 78.6017 56.1198 65.9335 56.1198 65.9335Z" fill="#F48C7F"/>
<path d="M56.7292 74.4466L60.8544 71.9129C60.8544 71.9129 58.9793 63.3999 55.651 63.0958L56.7292 74.4466Z" fill="#F7CC7F"/>
<path d="M65.964 64.1092C65.964 64.1092 66.1046 63.4505 66.4797 63.3491C66.8547 63.1971 67.4641 63.3491 67.5109 63.3491C67.5578 63.3491 68.261 62.9438 68.261 62.9438L67.6985 64.1092C67.6985 64.1092 66.5734 65.5281 66.1984 65.0214C65.7765 64.5146 65.964 64.1092 65.964 64.1092Z" fill="#F7A491"/>
<path d="M68.4485 62.9944C68.4485 62.9944 68.8704 65.2241 68.7766 65.7308C68.6829 66.1868 68.4016 65.9335 68.3547 65.8321C68.1672 65.4267 68.0266 63.9572 68.0266 63.9572L68.4485 62.9944Z" fill="#F48C7F"/>
<path d="M67.5579 64.8694C67.5579 64.8694 67.7454 66.2375 67.9329 66.4402C68.0735 66.5416 68.2141 66.4909 68.261 66.1869C68.3079 65.8828 67.9798 64.2106 67.9798 64.2106L67.5579 64.8694Z" fill="#F48C7F"/>
<path d="M66.3859 68.8219L65.7296 68.4672L68.5891 62.0824C68.9641 62.2851 69.1048 62.7918 68.9173 63.1465L66.3859 68.8219Z" fill="#184655"/>
<path d="M39.4785 139.663C39.4785 139.663 39.1504 143.514 38.2128 144.223C37.3222 144.933 36.1034 147.517 36.7128 148.936C36.9003 149.392 37.2753 149.645 37.6972 149.797C38.9629 150.203 40.3223 149.493 40.838 148.226C41.1192 147.517 41.4005 146.504 41.4474 145.287C41.588 142.146 42.4787 140.575 42.4787 140.575L39.4785 139.663Z" fill="#F7A491"/>
<path d="M53.3071 141.234C53.3071 141.234 53.5884 145.085 53.354 146.352C53.2134 147.01 52.5571 148.429 52.8384 149.037C53.1665 149.696 53.4946 149.848 53.4946 149.848L61.6513 150C62.0732 150 61.7919 149.696 61.4638 149.392C60.8544 148.936 60.3856 148.632 58.5105 147.618C58.3699 147.568 57.948 147.264 57.7605 147.162C57.3386 146.909 56.9636 146.453 56.5885 146.048C56.026 145.338 55.9323 141.943 55.9323 141.943L53.3071 141.234Z" fill="#F7A491"/>
<path d="M59.6825 89.7498C59.6825 89.7498 60.7138 96.0332 60.0575 100.138C59.4012 104.242 56.1667 142.5 56.1667 142.5L52.5571 142.703C52.5571 142.703 51.8071 126.741 51.9477 124.511C52.0884 122.282 53.1665 118.583 53.1665 118.583L52.7915 105.712L57.3386 88.787L59.6825 89.7498Z" fill="#B75742"/>
<path d="M49.1352 88.4323C49.1352 88.4323 46.3226 93.0436 45.6194 96.8441C44.9632 100.645 46.1351 112.35 44.8225 117.316C44.1194 120.002 41.4474 124.207 41.0724 127.653C40.6505 131.15 39.1035 140.271 39.1035 140.271L42.7131 141.031L51.0572 118.228L57.62 97.6042L59.3076 86.9628L49.1352 88.4323Z" fill="#F47458"/>
<path d="M51.4321 62.2344C51.4321 62.2344 49.5101 62.5891 48.0569 64.1093C44.963 67.403 49.8851 80.0713 50.1664 82.2502C50.4477 84.4798 47.9632 89.6485 47.9632 89.6485C47.9632 89.6485 57.2448 91.5234 59.7293 89.6991C59.7293 89.6991 60.0106 71.8622 59.7762 70.2914C59.4949 68.7205 56.4948 63.8052 55.9323 63.1972C55.3698 62.5891 51.4321 62.2344 51.4321 62.2344Z" fill="#FAE0B2"/>
<path d="M47.9163 65.6295C48.1507 64.8694 48.9945 64.464 49.6508 64.8187C50.5883 65.2747 51.9477 66.1362 52.5571 67.555C53.6353 69.9873 57.4324 78.3484 58.6043 78.6524C59.7762 78.9564 64.5577 69.9873 64.5577 69.9873C64.5577 69.9873 64.4171 68.4165 64.839 67.5044C65.2609 66.5922 66.4797 65.6295 66.6203 65.9842C66.8078 66.2882 65.964 67.099 65.964 67.251C65.964 67.403 66.339 67.5044 66.8078 67.2003C67.3234 66.8963 67.5578 66.2375 67.5578 66.2375C67.5578 66.2375 68.3547 67.8084 67.511 69.2779C66.6672 70.6968 66.2922 71.3048 66.2922 71.3048C66.2922 71.3048 60.7606 84.5811 58.7449 84.7332C56.8698 84.8345 45.9943 71.8116 47.9163 65.6295Z" fill="#F7A491"/>
<path d="M52.6508 56.863C52.6508 56.863 52.6508 56.9644 52.604 57.1671C52.4165 58.1299 51.8071 61.3729 51.3383 62.2344C50.8226 63.2985 53.1196 66.7443 55.3697 66.2882C56.026 66.1869 54.8072 63.1465 54.8541 62.8425C54.9478 62.2344 55.1353 61.3729 55.276 60.5622C55.3697 60.0554 55.4635 59.5994 55.5572 59.1433C55.7916 57.8258 55.9791 56.7617 55.9791 56.7617L52.6508 56.863Z" fill="#F7A491"/>
<path d="M52.604 57.1671C52.6509 56.9644 52.6509 56.863 52.6509 56.863L56.026 56.7617C56.026 56.7617 55.8385 57.8258 55.6041 59.1433C55.5104 59.5994 55.4166 60.1061 55.3229 60.5622C54.8072 60.4608 54.2447 60.2075 53.7291 59.7007C53.1197 59.1433 52.7446 58.4846 52.5103 57.7752C52.5571 57.5218 52.5571 57.3191 52.604 57.1671Z" fill="#F47458"/>
<path d="M54.6666 48.2487C54.6666 48.2487 53.3072 48.4513 52.3227 49.8195C51.3383 51.1877 50.2601 55.4949 52.7446 57.8259C55.1822 60.1568 57.6198 57.5218 57.9949 54.7348C58.323 51.8971 58.2761 48.1473 54.6666 48.2487Z" fill="#F7A491"/>
<path d="M58.7449 53.772C58.4636 54.3801 57.948 54.7348 57.6667 54.5321C57.3386 54.3294 57.3386 53.6706 57.6199 53.0626C57.9011 52.4545 58.4168 52.0998 58.698 52.3025C59.0262 52.5052 59.0731 53.1639 58.7449 53.772Z" fill="#F7A491"/>
<path d="M55.0885 48.1473C55.0885 48.1473 52.979 52.2011 51.479 52.4038C49.9789 52.6065 49.7914 54.7348 49.7914 54.7348C49.7914 54.7348 50.3539 49.7688 51.8071 48.806C53.3072 47.8939 55.0885 48.1473 55.0885 48.1473Z" fill="#13375B"/>
<path d="M51.9478 53.4173C52.0884 54.1267 51.8072 54.7855 51.3853 54.8868C50.9634 54.9881 50.4946 54.4814 50.4008 53.772C50.2602 53.0626 50.5415 52.4038 50.9634 52.3025C51.3853 52.1505 51.854 52.6572 51.9478 53.4173Z" fill="#F7A491"/>
<path d="M41.1192 147.466C39.1504 147.872 37.8378 146.605 37.1815 145.693C36.6659 146.757 36.3846 148.074 36.7596 148.936C37.0878 149.696 37.9316 149.747 38.6816 149.797C39.4785 149.848 40.2285 149.544 40.6036 148.784C40.7911 148.429 40.9786 147.973 41.1192 147.466Z" fill="#3C8F7C"/>
<path d="M57.8542 147.162C55.6979 147.77 54.104 147.365 53.2134 146.96C52.979 147.669 52.6977 148.53 52.8384 149.037C53.0259 149.645 53.3071 149.797 53.5884 149.797C55.5572 149.848 60.8075 149.949 62.3075 149.949C62.4951 149.949 62.6357 149.696 62.4951 149.493C62.0732 149.088 57.9949 147.264 57.8542 147.162Z" fill="#3C8F7C"/>
<path d="M50.9166 77.2843L55.7918 73.8385C55.7918 73.8385 53.7761 67.6564 51.526 65.4775C49.3228 63.2985 48.2446 63.8053 47.7758 64.2613C46.4633 65.5281 46.6976 68.5685 48.1977 72.369C49.6509 76.1188 50.9166 77.2843 50.9166 77.2843Z" fill="#F7CC7F"/>
<path d="M43.3224 141.892C43.3224 141.892 43.1349 145.49 43.1349 145.541C43.088 145.997 42.8068 147.112 42.8068 147.568C42.8068 149.139 49.2758 146.25 47.8226 145.541C47.682 145.49 47.0257 144.983 46.9788 144.477C46.9319 143.666 46.7444 141.994 46.7444 141.994L43.3224 141.892Z" fill="#F7A491"/>
<path d="M47.7757 145.49C47.7757 145.49 46.2757 145.946 45.4788 146.098C44.6818 146.2 43.6037 145.642 43.0411 145.895C42.4317 146.2 42.6193 149.747 42.6193 149.747C42.6193 149.747 50.8227 149.949 53.5416 149.797C54.4791 149.797 50.8696 146.605 47.7757 145.49Z" fill="#F47458"/>
<path d="M29.0718 142.247C29.0718 142.247 28.8843 145.845 28.8843 145.895C28.8374 146.352 28.5562 147.466 28.5562 147.922C28.5562 149.493 35.0252 146.605 33.572 145.895C33.4314 145.845 32.5407 144.983 32.4938 144.477C32.447 143.666 32.447 142.348 32.447 142.348L29.0718 142.247Z" fill="#F7A491"/>
<path d="M33.5251 145.845C33.5251 145.845 32.0251 146.301 31.2282 146.453C30.4313 146.605 29.4468 145.541 28.8843 145.845C28.2749 146.149 28.1343 149.747 28.1343 149.747C28.1343 149.747 37.0409 150.152 39.1504 149.848C40.0879 149.696 36.619 146.96 33.5251 145.845Z" fill="#F47458"/>
<path d="M39.2909 90.0538L42.0098 91.3207L47.7288 120.964L47.4944 143.159L42.9004 143.26C42.9004 143.26 40.7441 123.853 40.7441 122.333C40.7441 120.812 30.853 95.9826 30.853 95.9826L39.2909 90.0538Z" fill="#355389"/>
<path d="M37.2284 91.6754C37.2284 91.6754 36.4784 114.174 36.4784 117.975C36.4784 121.826 35.4002 143.463 35.4002 143.463L28.978 143.666C28.978 143.666 28.6499 137.078 28.1342 127.451C28.0405 125.93 28.228 122.89 28.1342 121.319C27.4311 110.07 25.9779 99.479 26.681 95.2732C26.7748 94.6144 27.0092 92.8409 27.3842 92.3848C30.3843 89.0404 37.2284 91.6754 37.2284 91.6754Z" fill="#466EB6"/>
<path d="M29.5874 57.5218C29.5874 57.5218 26.3998 57.9779 25.556 58.6873C24.6185 59.4474 23.5872 61.1196 23.5872 61.1196C23.5872 61.1196 27.478 81.0847 27.478 84.4291C27.478 87.0135 26.6342 93.3983 26.6342 93.3983C26.6342 93.3983 38.4472 94.209 42.9005 92.2835C42.9005 92.2835 41.4942 84.6825 41.4942 82.7063C41.4942 80.73 39.8067 62.5891 39.4316 61.3223C39.1035 60.1568 38.4472 58.1299 36.2909 57.6231C34.1814 57.1164 29.5874 57.5218 29.5874 57.5218Z" fill="#F47458"/>
<path d="M30.4781 52.1504L29.728 57.5218C29.728 57.5218 32.1188 62.133 33.8532 61.5756C35.3064 61.0689 34.8845 57.4204 34.8845 57.4204C34.8845 57.4204 34.0876 54.2787 34.322 52.7078C34.5095 51.137 30.4781 52.1504 30.4781 52.1504Z" fill="#F7A491"/>
<path d="M34.2751 52.7078C34.5095 51.137 30.478 52.1504 30.478 52.1504L30.4312 52.6065C30.5718 52.9105 30.7124 53.1639 30.853 53.3666C31.7437 54.4307 33.15 55.0388 34.3688 55.0895C34.2751 54.2787 34.1813 53.3666 34.2751 52.7078Z" fill="#F47458"/>
<path d="M29.8219 44.2961C29.7281 44.2455 28.8843 50.6302 30.4313 52.4038C31.9313 54.1774 34.9315 54.7348 35.9628 53.3666C37.1347 51.8464 37.0878 44.9549 34.6971 43.1307C32.3532 41.3064 29.8219 44.2961 29.8219 44.2961Z" fill="#F7A491"/>
<path d="M33.8064 39.6849C31.9782 40.0903 30.8063 41.3064 30.3375 41.8131C29.4937 41.9145 28.3687 42.4212 27.1967 44.4988C25.7436 47.0325 26.8217 49.8701 28.5093 51.2383C29.4 51.9984 29.8219 52.8092 30.0094 53.4172C30.0563 53.6199 30.3375 53.6199 30.4313 53.4172C30.6188 52.8092 30.7125 52.0997 30.6188 51.4917C30.5719 51.0863 30.4781 50.6809 30.3375 50.3262C29.9156 49.4141 31.1813 48.806 31.5563 47.9952C31.8376 47.3872 31.8376 46.0697 32.2595 45.0562L32.7751 44.2961C32.7751 44.2961 33.947 43.2827 35.119 43.5867C36.3378 43.8401 36.1503 39.1781 33.8064 39.6849Z" fill="#13375B"/>
<path d="M31.5095 49.1101C31.5095 49.8702 31.1813 50.5289 30.7594 50.5289C30.3375 50.5289 30.0094 49.9208 29.9625 49.1101C29.9625 48.35 30.2907 47.6912 30.7126 47.6912C31.1813 47.6912 31.5095 48.35 31.5095 49.1101Z" fill="#F7A491"/>
<path d="M37.7441 77.8417L37.8378 78.2977C37.8847 78.5511 38.0722 78.7031 38.3066 78.6524L47.4477 76.9296C47.682 76.8789 47.8227 76.6762 47.7758 76.4228L47.682 75.9668C47.6352 75.7134 47.4477 75.5614 47.2133 75.6121L38.0722 77.335C37.8378 77.3856 37.6972 77.5883 37.7441 77.8417Z" fill="#13375B"/>
<path d="M24.806 60.1061C25.8842 60.0555 26.8217 67.7071 26.1654 68.4672C25.5091 69.2273 25.3685 78.6018 25.3685 78.6018L35.4471 78.3484C35.6346 78.1964 37.7441 76.6762 38.0722 76.3215C38.4003 75.9668 39.9473 76.1695 40.3223 76.6255C40.7442 77.1323 39.5254 76.9296 39.1973 77.1323C38.8222 77.335 39.3379 77.8924 39.3379 77.8924C39.3379 77.8924 41.9161 78.2977 42.3849 77.7403C42.9006 77.1829 44.2131 76.2202 44.4006 76.7776C44.4944 77.0816 43.7912 77.943 43.4162 78.3484C43.885 77.943 44.4944 77.5376 44.6819 77.639C45.0569 77.791 44.9163 78.2471 44.6819 78.3991C44.4944 78.5511 42.4318 80.2233 42.1505 80.3247C41.8224 80.426 37.1347 80.578 36.2909 80.7807C36.2909 80.7807 22.9778 84.0745 22.2277 83.8718C21.5715 83.6691 20.9152 79.1085 20.9152 75.5614C20.8683 72.0143 21.4308 60.2075 24.806 60.1061Z" fill="#F7A491"/>
<path d="M26.1653 58.3832C26.1653 58.3832 23.8215 58.9913 22.3683 61.1703C20.8213 63.5012 19.5088 75.2067 19.5088 75.2067L25.5559 76.2708L26.0247 70.4941L27.6185 67.8591L26.1653 58.3832Z" fill="#F47458"/>
<path d="M55.2292 62.8931C55.2292 62.8931 55.6511 62.3864 56.4481 62.4371C57.245 62.4877 58.2763 63.5519 58.4169 63.9573C58.5106 64.1599 57.995 65.7308 57.7606 66.0855C57.62 66.2882 57.3387 66.3896 57.245 66.2882C57.1981 66.2375 57.245 65.8828 57.245 65.7815C57.2918 65.6295 57.5262 64.6667 57.5262 64.6667C57.5262 64.6667 57.0106 65.6295 56.7762 65.6801C56.5418 65.7308 56.4012 65.5281 56.4012 65.4268C56.4949 65.0214 56.8699 64.2106 56.8699 64.2106C56.8699 64.2106 56.2605 65.1734 55.9793 65.0721C55.698 64.9707 55.7918 64.616 55.8387 64.5147C55.8855 64.4133 56.3074 63.7546 56.3074 63.7546C56.3074 63.7546 55.6511 64.7174 55.5574 64.3626C55.4636 64.1599 55.8855 63.2478 55.8855 63.2478L55.2292 62.8931Z" fill="#F7A491"/>
<path d="M25.8373 57.3698L41.3536 74.1932V76.2708L23.5872 58.738L25.8373 57.3698Z" fill="#184655"/>
</g>
<defs>
<linearGradient id="paint0_linear" x1="504.344" y1="173.944" x2="240.024" y2="49.4173" gradientUnits="userSpaceOnUse">
<stop offset="2.7e-07" stop-color="#81B1FF"/>
<stop offset="1" stop-color="white"/>
</linearGradient>
<linearGradient id="paint1_linear" x1="272.972" y1="41.0825" x2="313.849" y2="144.715" gradientUnits="userSpaceOnUse">
<stop offset="2.7e-07" stop-color="white"/>
<stop offset="1" stop-color="white" stop-opacity="0"/>
</linearGradient>
<linearGradient id="paint2_linear" x1="304.037" y1="44.6274" x2="332.023" y2="92.5809" gradientUnits="userSpaceOnUse">
<stop offset="2.7e-07" stop-color="white"/>
<stop offset="1" stop-color="white" stop-opacity="0"/>
</linearGradient>
<linearGradient id="paint3_linear" x1="278.9" y1="46.4083" x2="306.886" y2="94.3623" gradientUnits="userSpaceOnUse">
<stop offset="2.7e-07" stop-color="white"/>
<stop offset="1" stop-color="white" stop-opacity="0"/>
</linearGradient>
<linearGradient id="paint4_linear" x1="329.092" y1="23.0961" x2="357.079" y2="71.0499" gradientUnits="userSpaceOnUse">
<stop offset="2.7e-07" stop-color="white"/>
<stop offset="1" stop-color="white" stop-opacity="0"/>
</linearGradient>
<linearGradient id="paint5_linear" x1="316.744" y1="34.9325" x2="334.823" y2="65.9108" gradientUnits="userSpaceOnUse">
<stop offset="2.7e-07" stop-color="white"/>
<stop offset="1" stop-color="white" stop-opacity="0"/>
</linearGradient>
<linearGradient id="paint6_linear" x1="252.289" y1="66.5449" x2="270.369" y2="97.5232" gradientUnits="userSpaceOnUse">
<stop offset="2.7e-07" stop-color="white"/>
<stop offset="1" stop-color="white" stop-opacity="0"/>
</linearGradient>
<linearGradient id="paint7_linear" x1="384.634" y1="-2.50781" x2="282.069" y2="36.4074" gradientUnits="userSpaceOnUse">
<stop offset="2.7e-07" stop-color="white"/>
<stop offset="1" stop-color="white" stop-opacity="0"/>
</linearGradient>
<linearGradient id="paint8_linear" x1="258.388" y1="-26.7342" x2="296.712" y2="166.835" gradientUnits="userSpaceOnUse">
<stop offset="2.7e-07" stop-color="#81B1FF"/>
<stop offset="1" stop-color="white"/>
</linearGradient>
<clipPath id="clip0">
<rect width="350" height="150" fill="white"/>
</clipPath>
</defs>
</svg>
