<svg width="246" height="250" viewBox="0 0 246 250" fill="none" xmlns="http://www.w3.org/2000/svg">
<g clip-path="url(#clip0)">
<path d="M216.986 95.1784C203.211 40.8433 155.615 1.62105 99.7479 0.0478796C70.2125 -0.783809 39.1329 9.04246 16.5047 43.4282C-23.9456 104.896 18.9905 147.373 48.9244 167.557C63.3861 177.328 76.4169 189.076 87.6394 202.463C107.859 226.531 146.756 256.44 193.081 209.578C226.658 175.612 226.162 131.371 216.986 95.1784Z" fill="#F2F2F2"/>
<path d="M240.542 220.29C240.542 230.999 190.335 250 128.402 250C66.4693 250 22.141 211.495 22.141 200.785C22.141 190.076 66.4693 211.218 128.402 211.218C190.335 211.218 240.542 209.58 240.542 220.29Z" fill="#3F3D56"/>
<path opacity="0.1" d="M240.542 220.29C240.542 230.999 190.335 250 128.402 250C66.4693 250 22.141 211.495 22.141 200.785C22.141 190.076 66.4693 211.218 128.402 211.218C190.335 211.218 240.542 209.58 240.542 220.29Z" fill="black"/>
<path d="M240.542 220.176C240.542 230.886 190.335 239.567 128.402 239.567C66.4693 239.567 22.141 211.495 22.141 200.785C22.141 190.076 66.4693 200.785 128.402 200.785C190.335 200.785 240.542 209.467 240.542 220.176Z" fill="#3F3D56"/>
<g opacity="0.7">
<path opacity="0.7" d="M236.83 58.3671C232.762 66.2868 219.87 75.6189 211.975 71.5386C204.08 67.4584 204.172 51.5107 208.24 43.591C210.193 39.7886 213.573 36.9204 217.634 35.6172C221.696 34.3139 226.108 34.6825 229.898 36.6417C233.689 38.6009 236.549 41.9903 237.849 46.0645C239.149 50.1387 238.782 54.564 236.83 58.3671Z" fill="#43CD80"/>
<path opacity="0.7" d="M212.643 73.6329C212.389 73.1368 211.987 72.7327 211.493 72.4773C210.999 72.2219 210.437 72.128 209.887 72.2087L211.307 69.4444L214.063 70.8686L212.643 73.6329Z" fill="#43CD80"/>
<path opacity="0.7" d="M210.635 70.7717C210.951 71.2105 211.367 71.5676 211.848 71.8137C212.329 72.0597 212.861 72.1877 213.401 72.1871" stroke="#2F2E41" stroke-width="2" stroke-miterlimit="10"/>
<path opacity="0.4" d="M234.597 49.5608C235.626 47.557 235.111 45.2352 233.446 44.3749C231.781 43.5146 229.598 44.4416 228.569 46.4454C227.539 48.4492 228.055 50.771 229.719 51.6313C231.384 52.4916 233.567 51.5646 234.597 49.5608Z" fill="white"/>
<path opacity="0.7" d="M211.901 71.6378L199.904 101.922" stroke="#2F2E41" stroke-width="2" stroke-miterlimit="10"/>
</g>
<path d="M239.362 106.948C230.457 115.961 208.961 123.102 199.977 114.169C190.993 105.236 197.923 83.6104 206.828 74.5981C211.105 70.2728 216.919 67.8285 222.993 67.8027C229.066 67.7769 234.901 70.1718 239.214 74.4607C243.527 78.7496 245.966 84.5814 245.994 90.6737C246.022 96.7659 243.636 102.62 239.362 106.948Z" fill="#FF6584"/>
<path d="M199.99 117.301C199.857 116.518 199.483 115.796 198.921 115.237C198.359 114.678 197.636 114.309 196.854 114.183L199.963 111.037L203.099 114.155L199.99 117.301Z" fill="#FF6584"/>
<path d="M198.483 112.552C198.726 113.284 199.139 113.947 199.687 114.488C200.235 115.029 200.904 115.431 201.637 115.662" stroke="#2F2E41" stroke-width="2" stroke-miterlimit="10"/>
<path d="M199.379 114.929L169.85 144.813" stroke="#2F2E41" stroke-width="2" stroke-miterlimit="10"/>
<path opacity="0.4" d="M240.086 94.0258C242.339 91.7456 242.63 88.3702 240.736 86.4867C238.842 84.6032 235.48 84.9248 233.227 87.205C230.974 89.4852 230.683 92.8606 232.577 94.7441C234.471 96.6276 237.833 96.306 240.086 94.0258Z" fill="white"/>
<path d="M211.528 77.7517C208.594 90.0951 193.935 107.409 181.631 104.465C169.326 101.522 164.034 79.4351 166.969 67.0918C168.381 61.1678 172.081 56.0489 177.254 52.8602C182.428 49.6715 188.652 48.6741 194.558 50.087C200.465 51.5 205.57 55.2078 208.752 60.3954C211.934 65.583 212.933 71.8259 211.528 77.7517Z" fill="#43CD80"/>
<path d="M183.266 107.133C182.747 106.534 182.053 106.112 181.283 105.928C180.513 105.744 179.704 105.806 178.971 106.106L179.995 101.797L184.29 102.825L183.266 107.133Z" fill="#43CD80"/>
<path d="M179.516 103.863C180.103 104.362 180.8 104.713 181.548 104.889C182.297 105.065 183.077 105.06 183.823 104.875" stroke="#2F2E41" stroke-width="2" stroke-miterlimit="10"/>
<path opacity="0.4" d="M205.447 66.3365C206.19 63.2135 204.689 60.1786 202.094 59.558C199.5 58.9373 196.795 60.9659 196.052 64.0889C195.31 67.212 196.811 70.2468 199.405 70.8674C202 71.4881 204.705 69.4595 205.447 66.3365Z" fill="white"/>
<path d="M181.563 105.421L171.833 146.35" stroke="#2F2E41" stroke-width="2" stroke-miterlimit="10"/>
<g opacity="0.8">
<path opacity="0.8" d="M75.1377 185.982C68.7412 192.226 53.4863 196.99 47.2619 190.573C41.0375 184.157 46.2005 168.99 52.5971 162.746C54.118 161.261 55.9156 160.091 57.8872 159.304C59.8588 158.516 61.9657 158.125 64.0878 158.154C66.2098 158.183 68.3054 158.631 70.2548 159.473C72.2042 160.314 73.9693 161.533 75.4494 163.058C76.9294 164.584 78.0954 166.387 78.8807 168.365C79.6661 170.343 80.0554 172.456 80.0264 174.585C79.9975 176.714 79.5509 178.816 78.7121 180.771C77.8733 182.727 76.6587 184.498 75.1377 185.982Z" fill="#43CD80"/>
<path opacity="0.8" d="M47.2319 192.783C47.148 192.229 46.8934 191.715 46.5038 191.313C46.1142 190.912 45.6091 190.642 45.0593 190.543L47.292 188.364L49.4646 190.603L47.2319 192.783Z" fill="#43CD80"/>
<path opacity="0.8" d="M46.2285 189.413C46.3905 189.933 46.673 190.406 47.053 190.795C47.433 191.183 47.8995 191.476 48.4141 191.648" stroke="#2F2E41" stroke-width="2" stroke-miterlimit="10"/>
<path opacity="0.4" d="M75.8122 176.875C77.4306 175.296 77.6787 172.918 76.3663 171.565C75.0539 170.212 72.6781 170.396 71.0597 171.976C69.4413 173.556 69.1932 175.933 70.5055 177.286C71.8179 178.639 74.1938 178.455 75.8122 176.875Z" fill="white"/>
</g>
<path d="M144.561 54.4013H149.055C152.003 54.4013 154.83 55.5761 156.915 57.6673C159 59.7585 160.171 62.5948 160.171 65.5521V81.2109H133.445V65.5522C133.445 64.0878 133.733 62.6378 134.291 61.2849C134.85 59.932 135.669 58.7028 136.701 57.6673C137.733 56.6319 138.959 55.8105 140.307 55.2501C141.656 54.6897 143.101 54.4013 144.561 54.4013Z" fill="#2F2E41"/>
<path d="M131.806 124.209L128.433 131.322C128.433 131.322 125.684 140.878 128.799 141.9C131.914 142.921 132.522 132.093 132.522 132.093L135.102 124.923L131.806 124.209Z" fill="#FFB9B9"/>
<path opacity="0.1" d="M131.806 124.209L128.433 131.322C128.433 131.322 125.684 140.878 128.799 141.9C131.914 142.921 132.522 132.093 132.522 132.093L135.102 124.923L131.806 124.209Z" fill="black"/>
<path d="M132.444 113.075L128.178 128.052L134.933 131.617V113.788L132.444 113.075Z" fill="#575A89"/>
<path d="M143.997 73.3161C143.997 73.3161 143.642 79.0215 142.931 79.0215C142.22 79.0215 140.798 85.7965 140.798 85.7965L146.841 89.719L154.306 82.9439L152.173 77.5951C152.173 77.5951 151.107 75.4556 151.462 73.3161C151.818 71.1766 143.997 73.3161 143.997 73.3161Z" fill="#FFB9B9"/>
<path opacity="0.1" d="M143.997 73.3161C143.997 73.3161 143.642 79.0215 142.931 79.0215C142.22 79.0215 140.798 85.7965 140.798 85.7965L146.841 89.719L154.306 82.9439L152.173 77.5951C152.173 77.5951 151.107 75.4556 151.462 73.3161C151.818 71.1766 143.997 73.3161 143.997 73.3161Z" fill="black"/>
<path d="M166.391 130.013L167.102 137.858C167.102 137.858 169.591 147.485 172.79 146.772C175.989 146.059 171.012 136.431 171.012 136.431L169.591 128.943L166.391 130.013Z" fill="#FFB9B9"/>
<path d="M151.107 207.391C151.107 207.391 153.24 220.585 151.818 223.081C150.396 225.577 153.24 225.934 153.24 225.934L161.771 223.794V219.872C161.771 219.872 158.927 207.035 158.927 206.322C158.927 205.608 151.107 207.391 151.107 207.391Z" fill="#FFB9B9"/>
<path d="M133.688 148.199C133.688 148.199 136.176 173.873 140.086 182.074C143.997 190.275 147.551 212.74 149.329 213.097C151.106 213.453 164.614 210.957 166.391 209.531C168.169 208.105 154.305 173.516 154.305 173.159C154.305 172.803 151.106 141.067 151.106 141.067L146.84 133.935L133.688 148.199Z" fill="#2F2E41"/>
<path opacity="0.1" d="M133.688 148.199C133.688 148.199 136.176 173.873 140.086 182.074C143.997 190.275 147.551 212.74 149.329 213.097C151.106 213.453 164.614 210.957 166.391 209.531C168.169 208.105 154.305 173.516 154.305 173.159C154.305 172.803 151.106 141.067 151.106 141.067L146.84 133.935L133.688 148.199Z" fill="black"/>
<path d="M154.306 222.368C154.306 222.368 150.751 220.585 150.04 221.655L147.196 225.934C147.196 225.934 135.11 231.639 139.376 232.352C143.641 233.065 151.817 233.065 152.884 232.352C153.95 231.639 165.681 225.221 165.325 224.864C164.97 224.507 162.126 217.019 161.77 217.732C161.415 218.445 156.438 223.794 154.306 222.368Z" fill="#2F2E41"/>
<path d="M94.586 192.058C94.586 192.058 86.4102 197.764 82.5001 196.694C78.5899 195.624 82.5001 204.539 82.5001 204.539L89.6095 208.461L91.7423 206.678C91.7423 206.678 99.2071 196.694 102.406 196.337C105.606 195.981 94.586 192.058 94.586 192.058Z" fill="#FFB9B9"/>
<path d="M131.556 126.804L132.978 134.292L106.317 174.942C106.317 174.942 90.3212 190.989 91.743 192.771C93.1649 194.554 102.052 204.895 104.184 203.469C106.317 202.043 155.728 148.555 155.372 141.423C155.017 134.292 143.286 120.742 143.286 120.742L131.556 126.09V126.804Z" fill="#2F2E41"/>
<path d="M84.2785 199.19C84.2785 199.19 87.4777 195.624 85.7003 195.268C83.7013 194.914 81.6836 194.676 79.6573 194.554C78.9464 194.554 69.3487 189.562 68.6378 191.345C67.9268 193.128 72.9034 202.399 75.7472 203.469C78.5909 204.539 88.8995 212.027 88.8995 212.027C88.8995 212.027 94.2316 207.391 93.5207 206.322C92.8097 205.252 82.8566 203.112 84.2785 199.19Z" fill="#2F2E41"/>
<path d="M146.841 76.882C151.552 76.882 155.372 73.0504 155.372 68.324C155.372 63.5975 151.552 59.766 146.841 59.766C142.129 59.766 138.309 63.5975 138.309 68.324C138.309 73.0504 142.129 76.882 146.841 76.882Z" fill="#FFB9B9"/>
<path d="M148.619 81.161C148.619 81.161 142.576 81.5176 140.798 80.4479C139.021 79.3781 135.111 95.0678 135.111 95.0678L132.622 115.75C132.622 115.75 132.267 118.246 132.622 119.672C132.978 121.098 129.068 118.959 130.49 122.881C131.911 126.804 129.423 128.587 131.912 128.943C134.4 129.3 147.552 123.951 147.552 123.951L153.595 92.2151L155.373 79.3781L148.619 81.161Z" fill="#D0CDE1"/>
<path d="M143.361 78.2642C143.361 78.2642 140.086 77.5951 139.02 78.3083C137.954 79.0215 134.043 84.3702 134.043 85.7966C134.043 87.2229 132.622 102.913 132.622 104.339C132.622 105.765 131.555 113.253 131.555 113.967C131.555 114.68 132.467 117.745 132.467 117.745L134.754 113.61C134.754 113.61 134.043 108.261 136.532 99.7033C139.02 91.1453 143.361 78.2642 143.361 78.2642Z" fill="#575A89"/>
<path d="M146.841 83.6571C146.841 83.6571 151.59 76.1688 151.882 76.882C152.173 77.5952 157.505 78.6649 157.505 78.6649C157.505 78.6649 167.103 85.44 166.392 88.2927C165.681 91.1453 160.704 112.54 160.704 112.54C160.704 112.54 156.083 123.594 159.638 131.439C163.193 139.284 158.927 142.137 158.927 142.137C158.927 142.137 156.083 143.563 156.794 144.989C157.505 146.416 148.618 151.764 147.552 147.842C146.486 143.92 133.333 120.385 136.177 111.827C139.021 103.269 146.841 83.6571 146.841 83.6571Z" fill="#575A89"/>
<path d="M164.614 87.2228C164.614 87.2228 168.525 94.7111 167.814 95.7808C167.103 96.8506 170.302 103.269 170.302 103.269C170.081 103.843 170.081 104.478 170.302 105.052C170.657 106.122 172.79 110.757 172.79 112.54C172.79 114.323 172.435 120.028 172.79 122.525C173.146 125.021 177.767 131.083 173.857 131.439C169.946 131.796 163.548 135.005 163.903 131.439C164.259 127.873 165.325 119.315 163.903 117.889C162.482 116.463 161.415 116.463 162.126 114.68C162.837 112.897 158.927 108.261 158.927 108.261L164.614 87.2228Z" fill="#575A89"/>
<path d="M153.969 66.2157H140.476L137.421 59.1724H156.261L153.969 66.2157Z" fill="#2F2E41"/>
<path d="M138.705 71.3695C139.066 71.2647 139.132 70.3982 138.854 69.434C138.575 68.4698 138.057 67.7732 137.697 67.8779C137.336 67.9827 137.27 68.8492 137.548 69.8134C137.827 70.7776 138.345 71.4743 138.705 71.3695Z" fill="#FFB9B9"/>
<path d="M155.84 69.8134C156.119 68.8493 156.052 67.9827 155.692 67.878C155.331 67.7732 154.813 68.4699 154.535 69.434C154.256 70.3982 154.323 71.2647 154.683 71.3695C155.044 71.4743 155.562 70.7776 155.84 69.8134Z" fill="#FFB9B9"/>
<path d="M235.578 205.468C235.578 213.751 230.67 216.643 224.615 216.643C224.475 216.643 224.334 216.641 224.195 216.639C223.914 216.631 223.636 216.618 223.362 216.599C217.897 216.211 213.652 213.171 213.652 205.468C213.652 197.498 223.803 187.441 224.57 186.693C224.57 186.693 224.57 186.693 224.571 186.693C224.571 186.693 224.571 186.693 224.571 186.692C224.571 186.692 224.571 186.692 224.572 186.692C224.572 186.692 224.572 186.691 224.572 186.691C224.6 186.664 224.615 186.649 224.615 186.649C224.615 186.649 235.578 197.185 235.578 205.468Z" fill="#F2F2F2"/>
<path d="M224.216 215.376L228.224 209.756L224.206 215.992L224.195 216.639C223.913 216.631 223.636 216.618 223.362 216.599L223.794 208.314L223.79 208.249L223.797 208.238L223.839 207.454L219.81 201.202L223.851 206.866L223.86 207.034L224.187 200.773L220.738 194.312L224.229 199.672L224.569 186.693L224.571 186.649V186.691L224.514 196.927L227.949 192.87L224.499 197.809L224.41 203.415L227.616 198.036L224.396 204.239L224.345 207.356L229 199.869L224.328 208.444L224.216 215.376Z" fill="#3F3D56"/>
</g>
<defs>
<clipPath id="clip0">
<rect width="246" height="250" fill="white"/>
</clipPath>
</defs>
</svg>
