<svg width="219" height="215" viewBox="0 0 219 215" fill="none" xmlns="http://www.w3.org/2000/svg">
<path d="M109.5 214.249C169.975 214.249 219 166.288 219 107.125C219 47.9614 169.975 0 109.5 0C49.0248 0 0 47.9614 0 107.125C0 166.288 49.0248 214.249 109.5 214.249Z" fill="url(#paint0_radial)"/>
<path d="M142.869 59.6065C145.141 60.8082 147.363 62.0379 149.533 63.2956" stroke="#2F2E41" stroke-miterlimit="10"/>
<path d="M100.576 52.1606C110.489 54.3078 121.312 58.0146 132.214 63.2459C140.111 67.0098 147.667 71.4524 154.798 76.5237" stroke="#2F2E41" stroke-miterlimit="10"/>
<path d="M67.5792 197.061H169.223" stroke="#3F3D56" stroke-miterlimit="10"/>
<path d="M91.2999 50.5712C94.2788 50.9381 97.38 51.4682 100.576 52.1605" stroke="#2F2E41" stroke-miterlimit="10"/>
<path d="M62.1488 81.7062C56.6454 73.6382 54.7548 66.0155 57.5824 60.102C60.7099 53.5614 69.0814 50.2157 80.4294 49.9692" stroke="#2F2E41" stroke-miterlimit="10"/>
<path d="M178.042 99.7265C182.63 107.124 184.053 114.059 181.436 119.531C179.134 124.346 173.989 127.429 166.907 128.82" stroke="#2F2E41" stroke-miterlimit="10"/>
<path d="M154.799 76.5236C159.396 79.7896 163.741 83.3974 167.798 87.3165" stroke="#2F2E41" stroke-miterlimit="10"/>
<path d="M59.1016 40.5139C68.2368 38.548 80.0584 38.8974 93.2797 41.5081" stroke="#2F2E41" stroke-miterlimit="10"/>
<path d="M192.06 99.7256C196.149 105.71 198.665 111.501 199.322 116.775" stroke="#2F2E41" stroke-miterlimit="10"/>
<path d="M149.534 63.2957C153.636 65.6716 157.539 68.1289 161.243 70.6676" stroke="#2F2E41" stroke-miterlimit="10"/>
<path d="M155.412 151.44C154.363 151.5 153.351 151.851 152.49 152.454C151.628 153.057 150.952 153.889 150.536 154.855C149.317 157.807 150.887 161.275 153.243 163.427C155.6 165.58 158.627 166.81 161.377 168.428C165.071 170.6 168.39 173.616 170.238 177.487C172.087 181.357 172.283 186.152 170.111 189.85C168.094 193.283 164.427 195.337 160.93 197.232" stroke="#3F3D56" stroke-miterlimit="10"/>
<path d="M158.518 153.793C160.896 153.793 162.824 152.855 162.824 151.697C162.824 150.54 160.896 149.602 158.518 149.602C156.139 149.602 154.211 150.54 154.211 151.697C154.211 152.855 156.139 153.793 158.518 153.793Z" fill="#43CD80"/>
<path d="M161.963 167.599C164.342 167.599 166.27 166.661 166.27 165.504C166.27 164.346 164.342 163.408 161.963 163.408C159.585 163.408 157.656 164.346 157.656 165.504C157.656 166.661 159.585 167.599 161.963 167.599Z" fill="#43CD80"/>
<path d="M154.088 169.818C156.467 169.818 158.395 168.88 158.395 167.722C158.395 166.565 156.467 165.627 154.088 165.627C151.71 165.627 149.781 166.565 149.781 167.722C149.781 168.88 151.71 169.818 154.088 169.818Z" fill="#43CD80"/>
<path d="M166.394 181.405C168.772 181.405 170.7 180.467 170.7 179.31C170.7 178.153 168.772 177.214 166.394 177.214C164.015 177.214 162.087 178.153 162.087 179.31C162.087 180.467 164.015 181.405 166.394 181.405Z" fill="#43CD80"/>
<path d="M175.007 181.405C177.386 181.405 179.314 180.467 179.314 179.31C179.314 178.153 177.386 177.214 175.007 177.214C172.629 177.214 170.7 178.153 170.7 179.31C170.7 180.467 172.629 181.405 175.007 181.405Z" fill="#43CD80"/>
<path d="M132.332 70.0655H134.758C134.758 70.0655 136.982 87.2817 135.365 88.902C133.747 90.5224 129.299 91.5351 128.692 88.902C128.086 86.269 128.692 76.5469 128.692 76.5469L132.332 70.0655Z" fill="#43CD80"/>
<path d="M116.46 72.3948C124.611 72.3948 131.22 64.6415 131.22 55.0773C131.22 45.5131 124.611 37.7598 116.46 37.7598C108.308 37.7598 101.7 45.5131 101.7 55.0773C101.7 64.6415 108.308 72.3948 116.46 72.3948Z" fill="#2F2E41"/>
<path d="M113.123 58.3181C113.123 58.3181 113.932 65.002 111.505 66.4198C109.079 67.8376 114.336 75.9394 114.336 75.9394L120.604 77.5597L124.85 71.686L124.041 65.6097C124.041 65.6097 119.189 60.7486 121.413 56.2927L113.123 58.3181Z" fill="#FFC1C7"/>
<path opacity="0.1" d="M113.123 58.3181C113.123 58.3181 113.932 65.002 111.505 66.4198C109.079 67.8376 114.336 75.9394 114.336 75.9394L120.604 77.5597L124.85 71.686L124.041 65.6097C124.041 65.6097 119.189 60.7486 121.413 56.2927L113.123 58.3181Z" fill="black"/>
<path d="M104.025 130.873C104.025 130.873 101.599 152.95 104.025 158.217C106.452 163.483 112.922 178.268 112.922 178.268L110.9 182.522L116.359 181.307L118.583 177.053C118.583 177.053 115.955 166.723 115.55 163.078C115.146 159.432 112.113 152.748 112.113 152.748L117.775 128.645L104.025 130.873Z" fill="#FFC1C7"/>
<path d="M123.234 127.183C123.234 127.183 123.436 149.463 124.851 152.919L124.042 183.098L128.491 183.692C128.491 183.692 134.961 158.375 133.95 152.298C132.939 146.222 134.152 124.347 134.152 124.347L123.234 127.183Z" fill="#FFC1C7"/>
<path d="M116.46 61.0523C120.703 61.0523 124.143 57.6064 124.143 53.3557C124.143 49.1049 120.703 45.659 116.46 45.659C112.216 45.659 108.776 49.1049 108.776 53.3557C108.776 57.6064 112.216 61.0523 116.46 61.0523Z" fill="#FFC1C7"/>
<path d="M142.644 130.018C142.644 130.018 137.185 133.664 134.961 131.031C132.737 128.398 105.441 132.652 102.003 131.841C98.566 131.031 103.823 118.068 103.823 111.384C103.823 106.384 105.635 98.7761 106.547 95.26C106.854 94.0771 107.058 93.3581 107.058 93.3581C107.058 93.3581 109.133 87.4458 108.744 84.989C108.718 84.8028 108.667 84.6209 108.593 84.4482C108.56 84.3759 108.52 84.3074 108.473 84.2436C107.505 82.9494 104.729 73.5108 103.651 69.4579C103.475 68.8581 103.33 68.2497 103.216 67.635C103.216 67.0274 110.698 65.2045 112.568 65.1174C114.44 65.0303 114.944 67.635 114.944 67.635C115.55 68.0401 118.381 75.1292 118.381 75.1292L121.009 68.4452C121.009 68.4452 120.807 67.0274 120.605 67.0274C120.403 67.0274 123.595 65.1154 123.595 65.1154C123.595 65.1154 126.873 67.4325 128.693 67.0274C130.512 66.6223 134.758 70.2681 134.758 70.2681C134.758 70.2681 127.277 89.1047 130.31 93.1555C133.343 97.2064 142.644 130.018 142.644 130.018Z" fill="#43CD80"/>
<path d="M117.976 176.243C117.976 176.243 114.539 179.686 114.539 180.091L111.708 178.876C111.708 178.876 110.495 183.332 110.293 183.94C110.091 184.547 106.654 190.016 103.216 192.447C99.779 194.877 103.216 197.915 106.249 197.308C109.282 196.7 116.965 189.814 116.965 189.814C116.965 189.814 122.222 189.814 124.042 185.763C124.042 185.763 119.19 175.838 117.976 176.243Z" fill="#2F2E41"/>
<path d="M128.086 182.085C128.086 182.085 122.891 178.304 122.557 181.815C122.222 185.326 122.222 193.022 122.222 193.022C122.222 193.022 120.605 198.086 125.659 197.478C130.714 196.871 131.119 195.453 131.119 195.453L128.692 185.731V181.477L128.086 182.085Z" fill="#2F2E41"/>
<path opacity="0.1" d="M108.473 84.2436C107.504 82.9493 104.728 73.5108 103.651 69.4579H104.631C104.631 69.4579 107.094 79.1131 108.592 84.4481C108.56 84.3759 108.52 84.3073 108.473 84.2436Z" fill="black"/>
<path opacity="0.1" d="M121.818 97.6115C121.818 97.6115 118.987 97.814 108.675 95.7886C107.957 95.6503 107.246 95.4739 106.546 95.2599C106.854 94.0771 107.058 93.3581 107.058 93.3581C107.058 93.3581 109.132 87.4458 108.744 84.989C109.227 86.6903 109.587 87.8387 109.686 87.8894C110.091 88.0919 123.031 90.3199 124.851 91.1301C126.671 91.9402 121.818 97.6115 121.818 97.6115Z" fill="black"/>
<path opacity="0.1" d="M125.457 71.1028C125.457 71.1028 131.034 70.4135 131.38 71.3194C131.725 72.2252 133.141 80.9794 133.747 82.1017C134.354 83.224 134.556 90.1825 132.13 90.407C129.704 90.6314 126.468 88.1623 127.075 86.1421C127.682 84.1219 125.457 71.1028 125.457 71.1028Z" fill="black"/>
<path d="M122.626 89.7123C122.626 89.7123 131.119 90.725 132.534 89.7123C133.949 88.6996 139.813 88.6996 138.6 91.5352C137.386 94.3708 126.872 94.5734 126.872 94.5734H120.807L122.626 89.7123Z" fill="#FFC1C7"/>
<path d="M104.632 68.0401H103.216C103.216 68.0401 100.386 68.6477 100.79 77.5596C101.194 86.4716 98.3637 92.3453 108.676 94.3708C118.987 96.3962 121.818 96.1937 121.818 96.1937C121.818 96.1937 126.671 90.5224 124.851 89.7123C123.031 88.9021 110.091 86.6741 109.687 86.4716C109.282 86.269 104.632 68.0401 104.632 68.0401Z" fill="#43CD80"/>
<path d="M131.225 72.0378C131.225 72.0378 127.682 58.7231 124.851 58.7231C122.02 58.7231 118.785 59.3307 121.211 61.9638C123.638 64.5968 126.671 67.4325 126.873 68.8503C127.075 70.2681 127.884 72.2935 127.884 72.2935L131.225 72.0378Z" fill="#FFC1C7"/>
<path d="M126.266 71.1028C126.266 71.1028 131.843 70.4135 132.189 71.3194C132.534 72.2252 133.949 80.9794 134.556 82.1017C135.163 83.224 135.365 90.1825 132.939 90.407C130.512 90.6314 127.277 88.1623 127.884 86.1421C128.49 84.1219 126.266 71.1028 126.266 71.1028Z" fill="#43CD80"/>
<path d="M114.438 53.3557C118.458 53.3557 121.717 50.0911 121.717 46.0641C121.717 42.0371 118.458 38.7725 114.438 38.7725C110.418 38.7725 107.159 42.0371 107.159 46.0641C107.159 50.0911 110.418 53.3557 114.438 53.3557Z" fill="#2F2E41"/>
<path d="M143.769 128.491C132.474 126.626 119.695 122.572 106.804 116.387C92.127 109.344 79.6899 100.683 70.8278 91.9299" stroke="#2F2E41" stroke-miterlimit="10"/>
<path d="M97.9705 120.196C87.865 114.952 78.7163 109.121 70.8271 103.05" stroke="#2F2E41" stroke-miterlimit="10"/>
<path d="M26.535 38.2292C33.226 38.2292 38.6502 32.7957 38.6502 26.093C38.6502 19.3904 33.226 13.9568 26.535 13.9568C19.844 13.9568 14.4198 19.3904 14.4198 26.093C14.4198 32.7957 19.844 38.2292 26.535 38.2292Z" fill="#43CD80"/>
<path d="M29.3771 33.2848C36.0682 33.2848 41.4923 27.8512 41.4923 21.1486C41.4923 14.4459 36.0682 9.01233 29.3771 9.01233C22.6861 9.01233 17.262 14.4459 17.262 21.1486C17.262 27.8512 22.6861 33.2848 29.3771 33.2848Z" stroke="#2F2E41" stroke-miterlimit="10"/>
<path d="M194.977 76.9901C198.87 76.9901 202.026 73.8288 202.026 69.9291C202.026 66.0293 198.87 62.868 194.977 62.868C191.084 62.868 187.928 66.0293 187.928 69.9291C187.928 73.8288 191.084 76.9901 194.977 76.9901Z" fill="#F2F2F2"/>
<path d="M196.63 74.1135C200.523 74.1135 203.679 70.9521 203.679 67.0524C203.679 63.1527 200.523 59.9913 196.63 59.9913C192.737 59.9913 189.581 63.1527 189.581 67.0524C189.581 70.9521 192.737 74.1135 196.63 74.1135Z" stroke="#2F2E41" stroke-miterlimit="10"/>
<path d="M66.3914 153.684C71.9875 153.684 76.5241 149.14 76.5241 143.534C76.5241 137.928 71.9875 133.384 66.3914 133.384C60.7952 133.384 56.2587 137.928 56.2587 143.534C56.2587 149.14 60.7952 153.684 66.3914 153.684Z" fill="#F2F2F2"/>
<path d="M68.7687 149.549C74.3648 149.549 78.9014 145.004 78.9014 139.398C78.9014 133.793 74.3648 129.248 68.7687 129.248C63.1726 129.248 58.636 133.793 58.636 139.398C58.636 145.004 63.1726 149.549 68.7687 149.549Z" stroke="#2F2E41" stroke-miterlimit="10"/>
<defs>
<radialGradient id="paint0_radial" cx="0" cy="0" r="1" gradientUnits="userSpaceOnUse" gradientTransform="translate(109.5 107.124) scale(109.5 107.124)">
<stop stop-color="#43CD80" stop-opacity="0.35"/>
<stop offset="1" stop-color="white" stop-opacity="0.1"/>
</radialGradient>
</defs>
</svg>
