<svg width="318" height="382" viewBox="0 0 318 382" fill="none" xmlns="http://www.w3.org/2000/svg">
    <path d="M318 0V241.634L311.294 244.301L198.885 289.747L94.567 326.659L58.8007 326.445L45.3883 311.083C34.3178 298.388 32.7211 279.932 41.5562 265.53L64.4424 228.298L97.8669 173.998L193.669 18.2425C200.801 6.9343 213.149 0 226.455 0H318Z" fill="url(#paint0_linear)"/>
    <path opacity="0.45" d="M318 61.8753V241.74L198.885 289.854L94.567 326.765L58.8007 326.552L45.3883 311.19C34.3178 298.495 32.7211 280.039 41.5562 265.637L97.8669 174.104C124.372 170.797 129.482 204.188 129.695 205.149C129.695 204.402 128.737 188.4 142.149 180.932C155.881 173.357 162.161 194.48 162.161 194.48C162.161 194.48 161.31 158.529 196.65 148.394C231.991 138.259 247.532 156.395 247.532 156.395C247.532 156.395 242.848 116.923 264.457 104.655C286.066 92.3862 299.478 99.6405 299.798 100.707C300.33 101.454 296.498 73.2902 318 61.8753Z" fill="url(#paint1_linear)"/>
    <path d="M232.842 137.192C234.665 137.192 236.142 135.712 236.142 133.885C236.142 132.059 234.665 130.578 232.842 130.578C231.02 130.578 229.542 132.059 229.542 133.885C229.542 135.712 231.02 137.192 232.842 137.192Z" fill="url(#paint2_linear)"/>
    <path d="M180.257 137.192C180.257 139.006 178.767 140.5 176.957 140.5C175.148 140.5 173.657 139.006 173.657 137.192C173.657 135.379 175.148 133.885 176.957 133.885C178.767 133.885 180.257 135.379 180.257 137.192Z" fill="url(#paint3_linear)"/>
    <path d="M292.346 86.7321C292.346 88.5457 290.856 90.0392 289.046 90.0392C287.237 90.0392 285.746 88.5457 285.746 86.7321C285.746 84.9185 287.237 83.4249 289.046 83.4249C290.962 83.5316 292.346 85.0252 292.346 86.7321Z" fill="url(#paint4_linear)"/>
    <path d="M256.261 99.9605C256.261 101.134 255.303 102.094 254.132 102.094C252.961 102.094 252.003 101.134 252.003 99.9605C252.003 98.787 252.961 97.8269 254.132 97.8269C255.303 97.8269 256.261 98.787 256.261 99.9605Z" fill="url(#paint5_linear)"/>
    <path d="M112.131 168.45C112.131 169.624 111.173 170.584 110.002 170.584C108.831 170.584 107.873 169.624 107.873 168.45C107.873 167.277 108.831 166.316 110.002 166.316C111.173 166.316 112.131 167.277 112.131 168.45Z" fill="url(#paint6_linear)"/>
    <path d="M318 23.0432V31.6844C253.28 37.4452 236.461 50.3537 193.882 75.7439C234.332 35.3116 289.153 25.3902 318 23.0432Z" fill="url(#paint7_linear)"/>
    <path d="M311.294 244.301L198.885 289.747L94.567 326.659L58.8007 326.445L45.3883 311.083C34.3178 298.388 32.7211 279.932 41.5562 265.53L64.4424 228.298H73.9162V246.861L79.1321 241.634V223.711C79.1321 223.711 79.7708 214.323 91.3736 211.656C99.9958 207.602 99.7829 176.451 101.912 176.878C104.041 177.411 101.912 239.607 101.912 239.607L120.114 238.006L130.866 205.575H153.432L174.403 192.987V232.886H185.26V215.177H199.631V200.241L203.676 196.187V190.64H220.388V238.006H238.91V201.095L251.258 188.72V170.477L270.737 190V235.659H300.33L311.294 244.301Z" fill="url(#paint8_linear)"/>
    <path opacity="0.79" d="M85.3061 224.458H84.0287C83.6029 224.458 83.1771 224.031 83.1771 223.604V222.324C83.1771 221.898 83.6029 221.471 84.0287 221.471H85.3061C85.7319 221.471 86.1577 221.898 86.1577 222.324V223.604C86.1577 224.031 85.7319 224.458 85.3061 224.458Z" fill="white"/>
    <path opacity="0.79" d="M91.3736 224.458H90.0962C89.6704 224.458 89.2446 224.031 89.2446 223.604V222.324C89.2446 221.898 89.6704 221.471 90.0962 221.471H91.3736C91.7994 221.471 92.2252 221.898 92.2252 222.324V223.604C92.2252 224.031 91.7994 224.458 91.3736 224.458Z" fill="white"/>
    <path opacity="0.79" d="M192.711 224.458H191.434C191.008 224.458 190.583 224.031 190.583 223.604V222.324C190.583 221.898 191.008 221.471 191.434 221.471H192.711C193.137 221.471 193.563 221.898 193.563 222.324V223.604C193.563 224.031 193.137 224.458 192.711 224.458Z" fill="white"/>
    <path opacity="0.79" d="M199.098 224.458H197.821C197.395 224.458 196.969 224.031 196.969 223.604V222.324C196.969 221.898 197.395 221.471 197.821 221.471H199.098C199.524 221.471 199.95 221.898 199.95 222.324V223.604C199.95 224.031 199.524 224.458 199.098 224.458Z" fill="white"/>
    <path opacity="0.79" d="M205.485 224.458H204.208C203.782 224.458 203.356 224.031 203.356 223.604V222.324C203.356 221.898 203.782 221.471 204.208 221.471H205.485C205.911 221.471 206.337 221.898 206.337 222.324V223.604C206.337 224.031 205.911 224.458 205.485 224.458Z" fill="white"/>
    <path opacity="0.79" d="M211.872 224.458H210.595C210.169 224.458 209.743 224.031 209.743 223.604V222.324C209.743 221.898 210.169 221.471 210.595 221.471H211.872C212.298 221.471 212.724 221.898 212.724 222.324V223.604C212.724 224.031 212.298 224.458 211.872 224.458Z" fill="white"/>
    <path opacity="0.79" d="M205.485 206.642H204.208C203.782 206.642 203.356 206.215 203.356 205.789V204.508C203.356 204.082 203.782 203.655 204.208 203.655H205.485C205.911 203.655 206.337 204.082 206.337 204.508V205.789C206.337 206.322 205.911 206.642 205.485 206.642Z" fill="white"/>
    <path opacity="0.79" d="M247.213 207.602H245.935C245.509 207.602 245.084 207.175 245.084 206.749V205.469C245.084 205.042 245.509 204.615 245.935 204.615H247.213C247.638 204.615 248.064 205.042 248.064 205.469V206.749C248.171 207.282 247.745 207.602 247.213 207.602Z" fill="white"/>
    <path opacity="0.79" d="M264.883 207.602H263.605C263.18 207.602 262.754 207.175 262.754 206.749V205.469C262.754 205.042 263.18 204.615 263.605 204.615H264.883C265.309 204.615 265.734 205.042 265.734 205.469V206.749C265.734 207.282 265.309 207.602 264.883 207.602Z" fill="white"/>
    <path opacity="0.79" d="M252.641 216.99H251.364C250.938 216.99 250.512 216.563 250.512 216.137V214.856C250.512 214.43 250.938 214.003 251.364 214.003H252.641C253.067 214.003 253.493 214.43 253.493 214.856V216.137C253.493 216.563 253.067 216.99 252.641 216.99Z" fill="white"/>
    <path opacity="0.79" d="M62.9522 250.061H61.6748C61.249 250.061 60.8232 249.635 60.8232 249.208V247.928C60.8232 247.501 61.249 247.074 61.6748 247.074H62.9522C63.378 247.074 63.8038 247.501 63.8038 247.928V249.208C63.8038 249.741 63.378 250.061 62.9522 250.061Z" fill="white"/>
    <path opacity="0.79" d="M97.4411 224.458H96.1637C95.7379 224.458 95.3121 224.031 95.3121 223.604V222.324C95.3121 221.898 95.7379 221.471 96.1637 221.471H97.4411C97.8669 221.471 98.2926 221.898 98.2926 222.324V223.604C98.2926 224.031 97.9733 224.458 97.4411 224.458Z" fill="white"/>
    <path d="M121.285 214.643L114.898 199.174C111.918 192.027 102.338 185.733 95.4186 189.04L78.1741 152.555C76.6838 149.034 72.6388 147.327 69.0196 148.714C65.5069 150.208 63.8037 154.261 65.1875 157.889L82.2191 193.947C66.252 199.814 81.0482 220.937 84.0287 228.085C84.0287 228.085 79.1321 238.54 81.6869 248.141C88.6059 274.598 105.105 276.412 117.453 271.291L125.011 268.197C137.359 263.077 137.039 238.753 130.546 225.205C128.949 221.577 121.285 214.643 121.285 214.643Z" fill="#184655"/>
    <path d="M167.164 183.919C168.122 179.758 168.974 175.491 166.525 170.904C164.609 167.17 161.203 165.036 157.265 164.503C146.088 163.223 145.13 173.144 134.485 177.518C129.908 179.438 125.33 178.798 121.285 181.252C113.94 185.626 116.708 190.853 121.498 202.268C133.314 230.112 153.752 214.003 157.371 208.562C160.139 204.508 166.632 186.586 167.164 183.919Z" fill="#13375B"/>
    <path d="M160.777 198.321C154.816 200.241 142.149 209.522 141.297 209.309L126.501 197.574L117.453 205.575C117.453 205.575 137.678 220.617 138.849 221.151C139.701 221.577 155.774 207.922 164.184 203.762C164.077 200.988 162.161 200.668 160.777 198.321Z" fill="#F48C7F"/>
    <path d="M137.252 204.082L127.992 216.137C127.992 216.137 118.198 208.669 114.686 204.615C110.321 199.708 105.531 189.146 106.276 188.826C108.299 187.759 112.557 186.906 115.431 187.546C125.65 189.786 137.252 204.082 137.252 204.082Z" fill="#B75742"/>
    <path d="M160.351 204.935L159.181 198.961C159.181 198.961 162.587 199.814 164.716 203.122C166.845 206.429 170.464 217.737 171.103 218.057C171.741 218.377 178.448 207.922 179.725 206.215C181.215 204.188 181.747 201.841 182.705 200.028C183.663 198.214 186.857 197.681 188.134 197.894C189.412 198.108 186.431 203.335 186.431 203.335C186.431 203.335 179.086 216.137 176.638 223.178C174.19 230.219 166.525 233.526 165.354 232.566C163.971 231.606 160.351 204.935 160.351 204.935Z" fill="#F48C7F"/>
    <path d="M161.735 222.858L171.103 217.524C171.103 217.524 166.845 199.601 159.287 198.961L161.735 222.858Z" fill="#F7CC7F"/>
    <path d="M182.705 201.095C182.705 201.095 183.025 199.708 183.876 199.494C184.728 199.174 186.112 199.494 186.218 199.494C186.325 199.494 187.921 198.641 187.921 198.641L186.644 201.095C186.644 201.095 184.089 204.082 183.238 203.015C182.28 201.948 182.705 201.095 182.705 201.095Z" fill="#F7A491"/>
    <path d="M188.347 198.748C188.347 198.748 189.305 203.442 189.092 204.508C188.879 205.469 188.241 204.935 188.134 204.722C187.708 203.868 187.389 200.775 187.389 200.775L188.347 198.748Z" fill="#F48C7F"/>
    <path d="M186.325 202.695C186.325 202.695 186.75 205.575 187.176 206.002C187.496 206.215 187.815 206.109 187.921 205.469C188.028 204.828 187.283 201.308 187.283 201.308L186.325 202.695Z" fill="#F48C7F"/>
    <path d="M183.663 211.016L182.173 210.269L188.666 196.827C189.518 197.254 189.837 198.321 189.412 199.068L183.663 211.016Z" fill="#184655"/>
    <path d="M122.563 360.157C122.563 360.157 121.818 368.265 119.689 369.758C117.666 371.252 114.898 376.692 116.282 379.679C116.708 380.64 117.56 381.173 118.518 381.493C121.392 382.346 124.479 380.853 125.65 378.186C126.288 376.692 126.927 374.559 127.033 371.998C127.353 365.384 129.375 362.077 129.375 362.077L122.563 360.157Z" fill="#F7A491"/>
    <path d="M153.965 363.464C153.965 363.464 154.603 371.572 154.071 374.239C153.752 375.626 152.261 378.613 152.9 379.893C153.645 381.28 154.39 381.6 154.39 381.6L172.912 381.92C173.87 381.92 173.232 381.28 172.486 380.64C171.103 379.68 170.038 379.039 165.78 376.906C165.461 376.799 164.503 376.159 164.077 375.946C163.119 375.412 162.267 374.452 161.416 373.599C160.139 372.105 159.926 364.957 159.926 364.957L153.965 363.464Z" fill="#F7A491"/>
    <path d="M168.441 255.075C168.441 255.075 170.783 268.304 169.293 276.945C167.803 285.586 160.458 366.131 160.458 366.131L152.261 366.558C152.261 366.558 150.558 332.953 150.878 328.259C151.197 323.565 153.645 315.777 153.645 315.777L152.794 288.68L163.119 253.048L168.441 255.075Z" fill="#B75742"/>
    <path d="M144.491 252.302C144.491 252.302 138.104 262.01 136.507 270.011C135.017 278.012 137.678 302.655 134.698 313.11C133.101 318.764 127.033 327.619 126.182 334.873C125.224 342.234 121.711 361.437 121.711 361.437L129.908 363.037L148.855 315.03L163.758 271.611L167.59 249.208L144.491 252.302Z" fill="#F47458"/>
    <path d="M149.707 197.147C149.707 197.147 145.342 197.894 142.042 201.095C135.017 208.029 146.194 234.699 146.833 239.287C147.471 243.981 141.83 254.862 141.83 254.862C141.83 254.862 162.906 258.809 168.548 254.969C168.548 254.969 169.187 217.417 168.654 214.11C168.016 210.803 161.203 200.455 159.926 199.174C158.648 197.894 149.707 197.147 149.707 197.147Z" fill="#FAE0B2"/>
    <path d="M141.723 204.295C142.255 202.695 144.171 201.841 145.662 202.588C147.791 203.548 150.878 205.362 152.261 208.349C154.71 213.47 163.332 231.072 165.993 231.712C168.654 232.352 179.512 213.47 179.512 213.47C179.512 213.47 179.193 210.163 180.151 208.242C181.109 206.322 183.876 204.295 184.196 205.042C184.621 205.682 182.705 207.389 182.705 207.709C182.705 208.029 183.557 208.242 184.621 207.602C185.792 206.962 186.325 205.575 186.325 205.575C186.325 205.575 188.134 208.882 186.218 211.976C184.302 214.963 183.451 216.243 183.451 216.243C183.451 216.243 170.89 244.194 166.312 244.514C162.055 244.727 137.359 217.31 141.723 204.295Z" fill="#F7A491"/>
    <path d="M152.474 185.839C152.474 185.839 152.474 186.053 152.368 186.479C151.942 188.506 150.558 195.334 149.494 197.147C148.323 199.388 153.539 206.642 158.648 205.682C160.139 205.469 157.371 199.068 157.477 198.428C157.69 197.147 158.116 195.334 158.435 193.627C158.648 192.56 158.861 191.6 159.074 190.64C159.606 187.866 160.032 185.626 160.032 185.626L152.474 185.839Z" fill="#F7A491"/>
    <path d="M152.368 186.479C152.474 186.053 152.474 185.839 152.474 185.839L160.139 185.626C160.139 185.626 159.713 187.866 159.181 190.64C158.968 191.6 158.755 192.667 158.542 193.627C157.371 193.414 156.094 192.88 154.923 191.813C153.539 190.64 152.687 189.253 152.155 187.759C152.261 187.226 152.261 186.799 152.368 186.479Z" fill="#F47458"/>
    <path d="M157.052 167.703C157.052 167.703 153.965 168.13 151.729 171.01C149.494 173.891 147.046 182.959 152.687 187.866C158.223 192.773 163.758 187.226 164.609 181.359C165.354 175.384 165.248 167.49 157.052 167.703Z" fill="#F7A491"/>
    <path d="M166.312 179.332C165.674 180.612 164.503 181.359 163.864 180.932C163.119 180.505 163.119 179.118 163.758 177.838C164.396 176.558 165.567 175.811 166.206 176.238C166.951 176.665 167.058 178.051 166.312 179.332Z" fill="#F7A491"/>
    <path d="M158.01 167.49C158.01 167.49 153.22 176.024 149.813 176.451C146.407 176.878 145.981 181.359 145.981 181.359C145.981 181.359 147.258 170.904 150.558 168.877C153.965 166.957 158.01 167.49 158.01 167.49Z" fill="#13375B"/>
    <path d="M150.878 178.585C151.197 180.078 150.558 181.465 149.6 181.679C148.642 181.892 147.578 180.825 147.365 179.332C147.046 177.838 147.684 176.451 148.642 176.238C149.6 175.918 150.665 176.985 150.878 178.585Z" fill="#F7A491"/>
    <path d="M126.288 376.586C121.817 377.439 118.837 374.772 117.347 372.852C116.176 375.092 115.537 377.866 116.389 379.679C117.134 381.28 119.05 381.386 120.753 381.493C122.563 381.6 124.266 380.96 125.117 379.359C125.543 378.613 125.969 377.653 126.288 376.586Z" fill="#3C8F7C"/>
    <path d="M164.29 375.946C159.393 377.226 155.774 376.372 153.752 375.519C153.219 377.012 152.581 378.826 152.9 379.893C153.326 381.173 153.965 381.493 154.603 381.493C159.074 381.6 170.996 381.813 174.403 381.813C174.828 381.813 175.148 381.28 174.828 380.853C173.87 380 164.609 376.159 164.29 375.946Z" fill="#3C8F7C"/>
    <path d="M148.536 228.832L159.606 221.577C159.606 221.577 155.029 208.562 149.92 203.975C144.917 199.388 142.468 200.455 141.404 201.415C138.423 204.082 138.956 210.483 142.362 218.484C145.662 226.378 148.536 228.832 148.536 228.832Z" fill="#F7CC7F"/>
    <path d="M131.291 364.851C131.291 364.851 130.866 372.425 130.866 372.532C130.759 373.492 130.12 375.839 130.12 376.799C130.12 380.106 144.81 374.025 141.51 372.532C141.191 372.425 139.701 371.358 139.594 370.291C139.488 368.585 139.062 365.064 139.062 365.064L131.291 364.851Z" fill="#F7A491"/>
    <path d="M141.404 372.425C141.404 372.425 137.998 373.385 136.188 373.705C134.378 373.919 131.93 372.745 130.653 373.279C129.269 373.919 129.695 381.386 129.695 381.386C129.695 381.386 148.323 381.813 154.497 381.493C156.626 381.493 148.429 374.772 141.404 372.425Z" fill="#F47458"/>
    <path d="M98.9314 365.597C98.9314 365.597 98.5056 373.172 98.5056 373.279C98.3991 374.239 97.7604 376.586 97.7604 377.546C97.7604 380.853 112.45 374.772 109.15 373.279C108.831 373.172 106.808 371.358 106.702 370.291C106.596 368.585 106.596 365.811 106.596 365.811L98.9314 365.597Z" fill="#F7A491"/>
    <path d="M109.044 373.172C109.044 373.172 105.638 374.132 103.828 374.452C102.018 374.772 99.783 372.532 98.5056 373.172C97.1218 373.812 96.8024 381.386 96.8024 381.386C96.8024 381.386 117.027 382.24 121.818 381.6C123.946 381.28 116.069 375.519 109.044 373.172Z" fill="#F47458"/>
    <path d="M122.137 255.716L128.311 258.383L141.297 320.791L140.765 367.518L130.333 367.731C130.333 367.731 125.437 326.872 125.437 323.672C125.437 320.471 102.976 268.197 102.976 268.197L122.137 255.716Z" fill="#355389"/>
    <path d="M117.453 259.129C117.453 259.129 115.75 306.496 115.75 314.497C115.75 322.605 113.302 368.158 113.302 368.158L98.7184 368.585C98.7184 368.585 97.9733 354.716 96.8024 334.447C96.5895 331.246 97.0153 324.845 96.8024 321.538C95.2057 297.855 91.9058 275.558 93.5025 266.704C93.7154 265.317 94.2476 261.583 95.0992 260.623C101.912 253.582 117.453 259.129 117.453 259.129Z" fill="#466EB6"/>
    <path d="M100.102 187.226C100.102 187.226 92.8638 188.186 90.9478 189.68C88.8188 191.28 86.477 194.8 86.477 194.8C86.477 194.8 95.3121 236.833 95.3121 243.874C95.3121 249.315 93.3961 262.757 93.3961 262.757C93.3961 262.757 120.221 264.463 130.333 260.41C130.333 260.41 127.14 244.407 127.14 240.247C127.14 236.086 123.308 197.894 122.456 195.227C121.711 192.773 120.221 188.506 115.324 187.439C110.534 186.373 100.102 187.226 100.102 187.226Z" fill="#F47458"/>
    <path d="M102.125 175.918L100.422 187.226C100.422 187.226 105.85 196.934 109.789 195.761C113.089 194.694 112.131 187.013 112.131 187.013C112.131 187.013 110.321 180.398 110.853 177.091C111.279 173.784 102.125 175.918 102.125 175.918Z" fill="#F7A491"/>
    <path d="M110.747 177.091C111.279 173.784 102.125 175.918 102.125 175.918L102.018 176.878C102.338 177.518 102.657 178.051 102.976 178.478C104.999 180.718 108.192 181.999 110.96 182.105C110.747 180.398 110.534 178.478 110.747 177.091Z" fill="#F47458"/>
    <path d="M100.635 159.382C100.422 159.275 98.5056 172.717 102.018 176.451C105.425 180.185 112.237 181.359 114.579 178.478C117.24 175.278 117.134 160.769 111.705 156.928C106.383 153.088 100.635 159.382 100.635 159.382Z" fill="#F7A491"/>
    <path d="M109.683 149.674C105.531 150.528 102.87 153.088 101.805 154.155C99.8894 154.368 97.3347 155.435 94.6735 159.809C91.3736 165.143 93.8219 171.117 97.654 173.997C99.6765 175.598 100.635 177.305 101.06 178.585C101.167 179.011 101.805 179.011 102.018 178.585C102.444 177.305 102.657 175.811 102.444 174.531C102.338 173.677 102.125 172.824 101.805 172.077C100.847 170.157 103.721 168.877 104.573 167.17C105.212 165.89 105.212 163.116 106.17 160.982L107.341 159.382C107.341 159.382 110.002 157.248 112.663 157.889C115.431 158.422 115.005 148.607 109.683 149.674Z" fill="#13375B"/>
    <path d="M104.467 169.517C104.467 171.117 103.721 172.504 102.763 172.504C101.805 172.504 101.06 171.224 100.954 169.517C100.954 167.917 101.699 166.53 102.657 166.53C103.721 166.53 104.467 167.917 104.467 169.517Z" fill="#F7A491"/>
    <path d="M118.624 230.005L118.837 230.965C118.943 231.499 119.369 231.819 119.901 231.712L140.659 228.085C141.191 227.978 141.51 227.552 141.404 227.018L141.191 226.058C141.084 225.525 140.659 225.205 140.126 225.311L119.369 228.938C118.837 229.045 118.518 229.472 118.624 230.005Z" fill="#13375B"/>
    <path d="M89.2446 192.667C91.6929 192.56 93.8219 208.669 92.3316 210.269C90.8413 211.87 90.522 231.606 90.522 231.606L113.408 231.072C113.834 230.752 118.624 227.552 119.369 226.805C120.114 226.058 123.627 226.485 124.479 227.445C125.437 228.512 122.669 228.085 121.924 228.512C121.072 228.939 122.243 230.112 122.243 230.112C122.243 230.112 128.098 230.965 129.162 229.792C130.333 228.618 133.314 226.592 133.74 227.765C133.953 228.405 132.356 230.219 131.504 231.072C132.569 230.219 133.953 229.365 134.378 229.579C135.23 229.899 134.911 230.859 134.378 231.179C133.953 231.499 129.269 235.019 128.63 235.233C127.885 235.446 117.24 235.766 115.324 236.193C115.324 236.193 85.0932 243.127 83.39 242.7C81.8998 242.274 80.4095 232.672 80.4095 225.205C80.3031 217.737 81.5804 192.88 89.2446 192.667Z" fill="#F7A491"/>
    <path d="M92.3316 189.04C92.3316 189.04 87.0092 190.32 83.7093 194.907C80.1966 199.814 77.2161 224.458 77.2161 224.458L90.9478 226.698L92.0122 214.536L95.6314 208.989L92.3316 189.04Z" fill="#F47458"/>
    <path d="M158.329 198.534C158.329 198.534 159.287 197.467 161.097 197.574C162.906 197.681 165.248 199.921 165.567 200.775C165.78 201.201 164.609 204.508 164.077 205.255C163.758 205.682 163.119 205.895 162.906 205.682C162.8 205.575 162.906 204.829 162.906 204.615C163.013 204.295 163.545 202.268 163.545 202.268C163.545 202.268 162.374 204.295 161.842 204.402C161.31 204.508 160.99 204.082 160.99 203.868C161.203 203.015 162.055 201.308 162.055 201.308C162.055 201.308 160.671 203.335 160.032 203.122C159.393 202.908 159.606 202.161 159.713 201.948C159.819 201.735 160.777 200.348 160.777 200.348C160.777 200.348 159.287 202.375 159.074 201.628C158.861 201.201 159.819 199.281 159.819 199.281L158.329 198.534Z" fill="#F7A491"/>
    <path d="M91.5865 186.906L126.821 222.324V226.698L86.477 189.786L91.5865 186.906Z" fill="#184655"/>
    <path d="M36.3403 78.6243C36.3403 78.6243 37.7241 74.6771 42.4078 73.2902C46.5593 72.01 50.3914 74.4637 51.5623 78.3042C52.9461 82.7849 50.6043 89.1858 41.7691 96.8668C30.2728 95.3733 24.7376 91.2127 23.4602 86.7321C22.2893 82.8916 24.2053 78.731 28.3568 77.4508C33.0405 76.0639 36.3403 78.6243 36.3403 78.6243Z" fill="#F48C7F"/>
    <path d="M2.49004 90.6793C6.74793 90.1459 10.1542 89.5058 13.3477 88.6523C14.4121 88.3323 16.4346 88.2256 16.8604 87.1588C17.1798 86.6254 17.0733 85.9853 16.5411 85.5586C15.4766 84.8118 13.9864 85.5586 12.9219 85.8786C9.62201 86.7321 5.7899 87.4788 1.85135 88.0122C1.10622 88.1189 0.68043 88.9724 0.786878 89.6125C1.10622 90.4659 1.7449 90.786 2.49004 90.6793Z" fill="#F48C7F"/>
    <path d="M60.1845 85.5586C61.7812 85.2385 63.3779 84.8118 64.9747 84.3851C66.4649 83.9583 68.381 83.8517 69.6583 82.9982C70.6164 82.3581 70.4035 80.8646 69.1261 80.7579C67.5294 80.5445 65.8262 81.2913 64.336 81.718C62.7393 82.1447 61.1425 82.4648 59.5458 82.8915C57.9491 83.4249 58.4814 85.9853 60.1845 85.5586Z" fill="#F48C7F"/>
    <path d="M22.2893 108.068C23.4602 104.228 25.6956 102.628 27.1858 100.814C28.0374 99.8538 27.0794 98.5737 25.9085 99.0004C22.715 100.387 20.5861 104.014 19.6281 107.215C19.2023 108.922 21.757 109.775 22.2893 108.068Z" fill="#F48C7F"/>
    <path d="M42.7271 112.016C42.3013 110.415 42.0884 108.708 42.4077 107.002C42.5142 105.935 43.7916 102.841 41.8755 102.841C39.9595 102.841 39.7466 105.935 39.6401 107.322C39.4272 109.135 39.6401 110.949 40.1724 112.656C40.5981 114.256 43.2593 113.723 42.7271 112.016Z" fill="#F48C7F"/>
    <path d="M53.7977 98.6804C54.8622 99.1072 55.9266 99.5339 56.8847 99.9606C57.9491 100.387 59.0136 101.134 60.0781 100.601C60.7168 100.281 60.8232 99.5339 60.6103 99.0005C60.1845 97.9337 58.6943 97.6136 57.7362 97.2936C56.6718 96.8668 55.6073 96.4401 54.6493 96.0134C53.9041 95.6933 53.159 96.2268 52.9461 96.9735C52.6268 97.7203 53.159 98.3604 53.7977 98.6804Z" fill="#F48C7F"/>
    <path d="M23.0344 71.4766C17.712 64.1156 17.712 64.1156 16.8605 63.5822C16.0089 63.0488 14.838 63.7955 15.0509 64.8623C15.2637 65.8225 15.2637 65.7158 20.9055 73.3969C21.3312 74.037 22.3957 73.9303 22.928 73.5036C23.5666 72.8635 23.4602 72.1167 23.0344 71.4766Z" fill="#F48C7F"/>
    <path d="M37.5112 67.8494C37.7241 66.3559 37.7241 64.8624 37.6176 63.3688C37.5112 61.982 37.5112 59.8483 36.0209 59.2082C35.7016 59.1016 35.1693 59.2082 34.9564 59.4216C33.9984 60.4884 34.6371 62.1953 34.7436 63.4755C34.85 64.8624 34.85 66.2492 34.6371 67.6361C34.5307 68.3828 35.2758 69.0229 35.9145 69.0229C36.9789 69.1296 37.5112 68.5962 37.5112 67.8494Z" fill="#F48C7F"/>
    <path d="M58.3749 64.2223C58.4813 63.5822 57.8426 63.0488 57.2039 62.9421C56.033 62.7287 54.8621 64.2223 54.0105 64.969C53.0525 65.8225 52.3074 66.8893 51.4558 67.8494C51.03 68.4895 51.3493 69.343 51.8816 69.7697C52.6267 70.1964 53.2654 69.8764 53.7976 69.343C56.9911 65.5025 58.162 65.9292 58.3749 64.2223Z" fill="#F48C7F"/>
    <path d="M177.277 124.284L174.296 129.725L165.035 125.884L159.713 133.352L152.261 131.645L151.41 135.486L161.416 137.726L166.419 130.685L176.106 134.632L180.47 126.418L177.277 124.284Z" fill="#50BFA5"/>
    <path d="M45.7076 156.822C49.7526 164.29 47.0915 173.677 39.5337 177.838C32.0824 181.892 22.715 179.225 18.5635 171.651C14.5185 164.183 17.1797 154.795 24.7375 150.634C32.2953 146.58 41.6626 149.354 45.7076 156.822Z" fill="#F7CC7F"/>
    <path d="M26.1213 170.37C28.3567 174.424 33.3598 175.811 37.2983 173.677C41.3433 171.437 42.7271 166.423 40.5982 162.476L26.1213 170.37Z" fill="#EFEFEF"/>
    <path d="M189.625 164.503L192.924 163.436C192.924 163.436 196.224 158.955 196.011 157.782C195.798 156.608 194.415 154.368 194.947 153.941C195.479 153.408 196.863 152.768 198.14 154.048C199.098 154.902 199.737 159.062 200.163 159.276C200.482 159.382 202.398 158.849 203.782 158.422C204.74 158.102 205.698 158.422 206.337 159.062C206.763 159.489 206.869 160.236 206.55 160.769L206.017 161.623L206.869 162.263C207.508 162.689 207.614 163.649 207.188 164.183L206.763 164.823L207.295 165.143C208.04 165.57 208.146 166.53 207.614 167.17L207.188 167.703L207.295 167.81C207.827 168.343 207.827 169.197 207.401 169.73L206.975 170.264L198.14 173.037C197.289 173.251 196.437 173.357 195.586 173.251L192.286 173.678C191.966 173.678 191.647 173.464 191.541 173.144L189.199 165.25C188.986 164.93 189.199 164.61 189.625 164.503Z" fill="#FAE0B2"/>
    <path d="M235.397 103.908L229.649 105.721L227.839 111.482C227.733 111.909 227.094 112.016 226.775 111.696L223.262 106.682L217.194 106.788C216.662 106.788 216.449 106.255 216.769 105.828L220.388 101.027L218.472 95.2666C218.365 94.8399 218.791 94.4132 219.217 94.5198L224.965 96.4401L229.755 92.8129C230.181 92.4929 230.713 92.8129 230.713 93.3463L230.607 99.4272L235.503 102.948C235.929 103.161 235.823 103.801 235.397 103.908Z" fill="#FED333"/>
    <path d="M287.024 169.73C287.024 171.117 280.637 172.184 272.866 172.184C265.096 172.184 258.709 171.117 258.709 169.73C258.709 168.343 265.096 167.277 272.866 167.277C280.637 167.277 287.024 168.343 287.024 169.73Z" fill="#F48C7F"/>
    <path d="M272.866 125.351C266.479 125.351 261.157 130.045 261.157 135.806C261.157 141.566 272.866 169.73 272.866 169.73C272.866 169.73 284.576 141.566 284.576 135.806C284.469 130.045 279.253 125.351 272.866 125.351ZM272.866 141.886C270.099 141.886 267.97 139.646 267.97 136.979C267.97 134.205 270.205 132.072 272.866 132.072C275.528 132.072 277.763 134.312 277.763 136.979C277.763 139.646 275.634 141.886 272.866 141.886Z" fill="#F47458"/>
    <path d="M168.229 85.6652L146.407 105.828L137.465 91.106L168.229 85.6652Z" fill="#466EB6"/>
    <path d="M137.252 84.2784L137.465 91.106L168.229 85.6652L137.252 84.2784Z" fill="#9BC1F9"/>
    <path d="M137.039 93.5596L168.229 85.6652L137.039 103.908V93.5596Z" fill="#9BC1F9"/>
    <path d="M113.408 117.563C113.408 117.136 113.834 116.816 114.26 116.816C114.26 116.816 119.263 117.243 125.969 114.683C132.675 112.122 135.869 106.255 136.188 105.508C136.294 105.081 136.72 104.868 137.146 104.868C137.572 104.975 137.891 105.401 137.785 105.828C137.572 106.895 133.846 113.402 126.608 116.069C119.476 118.737 114.366 118.31 114.153 118.203C113.621 118.31 113.302 117.99 113.408 117.563Z" fill="#F7CC7F"/>
    <path d="M81.5804 119.163C90.8413 119.163 99.9958 117.563 108.724 114.469C115.963 111.909 122.35 107.002 129.695 105.081C130.12 104.975 130.333 104.548 130.227 104.121C130.12 103.694 129.695 103.481 129.269 103.588C121.711 105.615 115.431 110.415 108.192 112.976C99.57 116.069 90.6284 117.563 81.474 117.563C78.1741 117.563 74.342 117.03 70.0841 115.963C69.6583 115.856 69.2325 116.069 69.1261 116.496C69.0196 116.923 69.2325 117.35 69.6583 117.456C73.5969 118.416 77.6419 119.163 81.5804 119.163Z" fill="#F7CC7F"/>
    <defs>
        <linearGradient id="paint0_linear" x1="653.937" y1="390.753" x2="70.137" y2="106.702" gradientUnits="userSpaceOnUse">
            <stop offset="2.7e-07" stop-color="#81B1FF"/>
            <stop offset="1" stop-color="white"/>
        </linearGradient>
        <linearGradient id="paint1_linear" x1="143.575" y1="89.1026" x2="231.505" y2="320.496" gradientUnits="userSpaceOnUse">
            <stop offset="2.7e-07" stop-color="white"/>
            <stop offset="1" stop-color="white" stop-opacity="0"/>
        </linearGradient>
        <linearGradient id="paint2_linear" x1="212.497" y1="97.8455" x2="273.34" y2="205.171" gradientUnits="userSpaceOnUse">
            <stop offset="2.7e-07" stop-color="white"/>
            <stop offset="1" stop-color="white" stop-opacity="0"/>
        </linearGradient>
        <linearGradient id="paint3_linear" x1="156.596" y1="101.101" x2="217.44" y2="208.427" gradientUnits="userSpaceOnUse">
            <stop offset="2.7e-07" stop-color="white"/>
            <stop offset="1" stop-color="white" stop-opacity="0"/>
        </linearGradient>
        <linearGradient id="paint4_linear" x1="268.766" y1="50.7055" x2="329.61" y2="158.031" gradientUnits="userSpaceOnUse">
            <stop offset="2.7e-07" stop-color="white"/>
            <stop offset="1" stop-color="white" stop-opacity="0"/>
        </linearGradient>
        <linearGradient id="paint5_linear" x1="241.001" y1="76.6595" x2="280.305" y2="145.992" gradientUnits="userSpaceOnUse">
            <stop offset="2.7e-07" stop-color="white"/>
            <stop offset="1" stop-color="white" stop-opacity="0"/>
        </linearGradient>
        <linearGradient id="paint6_linear" x1="96.9107" y1="145.099" x2="136.216" y2="214.432" gradientUnits="userSpaceOnUse">
            <stop offset="2.7e-07" stop-color="white"/>
            <stop offset="1" stop-color="white" stop-opacity="0"/>
        </linearGradient>
        <linearGradient id="paint7_linear" x1="392.885" y1="-4.63254" x2="163.918" y2="78.9693" gradientUnits="userSpaceOnUse">
            <stop offset="2.7e-07" stop-color="white"/>
            <stop offset="1" stop-color="white" stop-opacity="0"/>
        </linearGradient>
        <linearGradient id="paint8_linear" x1="113.064" y1="-61.9813" x2="192.813" y2="369.165" gradientUnits="userSpaceOnUse">
            <stop offset="2.7e-07" stop-color="#81B1FF"/>
            <stop offset="1" stop-color="white"/>
        </linearGradient>
    </defs>
</svg>
