<svg width="350" height="150" viewBox="0 0 350 150" fill="none" xmlns="http://www.w3.org/2000/svg">
<rect width="350" height="150" fill="#FFFFF0"/>
<g clip-path="url(#clip0)">
<rect width="350" height="150" fill="#FFFFF0"/>
<path d="M127.981 140.204C127.806 147.791 126.489 158.476 123.873 166.514C123.79 166.772 123.698 167.04 123.615 167.298C123.099 168.791 122.537 170.183 121.929 171.437C121.763 171.787 121.588 172.128 121.404 172.451C120.556 174 119.626 175.281 118.603 176.203C118.262 176.516 117.903 176.784 117.544 177.005L117.535 177.014C117.525 177.024 117.516 177.024 117.507 177.033C117.498 177.042 117.479 177.051 117.47 177.051C117.295 177.162 117.111 177.254 116.936 177.337L107.07 177.401L93.1042 177.494L89.9813 177.512L55.6109 177.383L6.08674 177.199H5.88407L-21.2363 177.097C-21.2363 177.097 -28.0809 171.455 -30.8537 161.324C-30.9274 161.066 -30.9919 160.799 -31.0564 160.531C-31.6828 158.006 -32.0421 155.222 -31.996 152.179C-31.821 142.067 -29.5456 120.716 -5.66789 115.729C16.7267 111.046 10.7757 81.2791 43.7918 84.2014C56.8177 85.3537 62.6029 96.8125 72.6717 93.7611C99.6171 85.5934 113.242 93.3555 120.436 106.75L120.482 106.842C120.722 107.294 120.952 107.746 121.183 108.207C122.122 110.124 122.933 112.143 123.651 114.236C124.158 115.711 124.61 117.213 125.015 118.753C125.07 118.974 125.135 119.204 125.19 119.426C125.19 119.435 125.19 119.435 125.19 119.444C125.724 121.528 126.185 123.657 126.581 125.814C126.645 126.183 126.71 126.552 126.774 126.92C126.866 127.464 126.959 128.008 127.042 128.552C127.106 128.949 127.161 129.336 127.226 129.732C127.29 130.147 127.346 130.562 127.41 130.977C127.539 131.889 127.659 132.802 127.769 133.715C127.861 134.452 127.926 135.309 127.963 136.259C128.009 137.457 128.009 138.776 127.981 140.204Z" fill="#E8F2FA"/>
<path d="M350 105.701V150.795H240.68C240.68 150.795 238.789 146.964 241.314 144.225C243.839 141.486 247.761 142.789 248.672 144.225C248.325 138.06 252.039 135.373 257.01 135.188C261.982 135.004 264.299 140.174 264.299 140.174C264.299 140.174 263.883 134.625 270.112 134.008C276.351 133.383 276.906 138.183 276.906 138.183C276.906 138.183 276.975 132.018 284.264 131.075C291.443 130.151 293.8 133.718 293.86 133.815C293.81 133.682 292.196 129.182 294.474 124.056C295.612 121.493 297.722 118.771 301.495 116.367C312.913 109.074 322.162 117.177 322.162 117.177C322.162 117.177 319.637 112.333 325.005 109.013C330.362 105.692 335.512 112.421 335.512 112.421C335.512 112.421 336.373 102.293 350 105.701Z" fill="url(#paint0_linear)"/>
<path opacity="0.45" d="M350 112.439V150.804H276.816L275.212 147.66C275.212 147.66 276.648 140.684 286.927 137.936C297.207 135.197 303.584 137.699 303.584 137.699C303.584 137.699 302.604 124.443 314.299 120.594C326.005 116.746 338.334 123.351 338.334 123.351C338.334 123.351 340.364 114.544 350 112.439Z" fill="url(#paint1_linear)"/>
<path opacity="0.45" d="M350 105.701V108.017C347.039 106.758 342.979 107.278 340.384 109.021C337.235 111.144 337.166 117.433 334.987 115.812C332.818 114.191 332.184 110.827 328.471 110.704C324.757 110.58 323.43 112.888 324.411 116.252C325.391 119.617 323.985 120.797 321.826 119.397C319.657 117.996 315.31 114.878 307.457 116.191C299.613 117.503 299.395 122.356 296.593 123.545C295.672 123.932 294.979 124.065 294.474 124.073C295.612 121.51 297.722 118.789 301.495 116.384C312.913 109.092 322.163 117.195 322.163 117.195C322.163 117.195 319.637 112.351 325.005 109.03C330.362 105.71 335.512 112.439 335.512 112.439C335.512 112.439 336.373 102.293 350 105.701Z" fill="url(#paint2_linear)"/>
<path d="M350 125.395V150.804H253.97C254.247 149.897 254.772 148.972 255.723 148.215C258.694 145.863 262.338 147.695 262.992 149.245C263.735 143.106 267.874 140.975 272.825 141.486C277.767 141.997 279.144 147.422 279.144 147.422C279.144 147.422 279.708 141.891 285.977 142.146C292.245 142.402 291.958 147.22 291.958 147.22C291.958 147.22 293.117 141.134 300.475 141.23C307.734 141.327 309.427 145.167 309.467 145.273C309.427 145.062 307.645 134.66 320.093 129.111C332.511 123.571 340.176 132.573 340.364 132.793C340.315 132.634 338.819 127.623 344.613 125.13C346.673 124.232 348.505 124.575 350 125.395Z" fill="url(#paint3_linear)"/>
<path opacity="0.45" d="M350 134.951V150.804H312.359C312.25 148.963 312.903 146.251 316.904 144.357C323.49 141.239 333.442 145.476 333.442 145.476C333.442 145.476 331.689 140.825 337.017 137.699C342.345 134.572 347.95 138.747 347.95 138.747C347.95 138.747 347.821 136.289 350 134.951Z" fill="url(#paint4_linear)"/>
<path d="M129.489 91.096C128.649 91.096 127.889 90.912 127.209 90.544C126.537 90.168 126.009 89.656 125.625 89.008C125.241 88.352 125.049 87.616 125.049 86.8C125.049 85.984 125.241 85.252 125.625 84.604C126.009 83.948 126.541 83.436 127.221 83.068C127.901 82.692 128.661 82.504 129.501 82.504C130.157 82.504 130.757 82.616 131.301 82.84C131.845 83.056 132.309 83.38 132.693 83.812L131.913 84.568C131.281 83.904 130.493 83.572 129.549 83.572C128.925 83.572 128.361 83.712 127.857 83.992C127.353 84.272 126.957 84.66 126.669 85.156C126.389 85.644 126.249 86.192 126.249 86.8C126.249 87.408 126.389 87.96 126.669 88.456C126.957 88.944 127.353 89.328 127.857 89.608C128.361 89.888 128.925 90.028 129.549 90.028C130.485 90.028 131.273 89.692 131.913 89.02L132.693 89.776C132.309 90.208 131.841 90.536 131.289 90.76C130.745 90.984 130.145 91.096 129.489 91.096ZM136.471 84.58C137.351 84.58 138.023 84.796 138.487 85.228C138.959 85.66 139.195 86.304 139.195 87.16V91H138.103V90.16C137.911 90.456 137.635 90.684 137.275 90.844C136.923 90.996 136.503 91.072 136.015 91.072C135.303 91.072 134.731 90.9 134.299 90.556C133.875 90.212 133.663 89.76 133.663 89.2C133.663 88.64 133.867 88.192 134.275 87.856C134.683 87.512 135.331 87.34 136.219 87.34H138.043V87.112C138.043 86.616 137.899 86.236 137.611 85.972C137.323 85.708 136.899 85.576 136.339 85.576C135.963 85.576 135.595 85.64 135.235 85.768C134.875 85.888 134.571 86.052 134.323 86.26L133.843 85.396C134.171 85.132 134.563 84.932 135.019 84.796C135.475 84.652 135.959 84.58 136.471 84.58ZM136.207 90.184C136.647 90.184 137.027 90.088 137.347 89.896C137.667 89.696 137.899 89.416 138.043 89.056V88.168H136.267C135.291 88.168 134.803 88.496 134.803 89.152C134.803 89.472 134.927 89.724 135.175 89.908C135.423 90.092 135.767 90.184 136.207 90.184ZM142.43 85.708C142.63 85.34 142.926 85.06 143.318 84.868C143.71 84.676 144.186 84.58 144.746 84.58V85.696C144.682 85.688 144.594 85.684 144.482 85.684C143.858 85.684 143.366 85.872 143.006 86.248C142.654 86.616 142.478 87.144 142.478 87.832V91H141.326V84.64H142.43V85.708ZM146.166 84.64H147.318V91H146.166V84.64ZM146.742 83.416C146.518 83.416 146.33 83.344 146.178 83.2C146.034 83.056 145.962 82.88 145.962 82.672C145.962 82.464 146.034 82.288 146.178 82.144C146.33 81.992 146.518 81.916 146.742 81.916C146.966 81.916 147.15 81.988 147.294 82.132C147.446 82.268 147.522 82.44 147.522 82.648C147.522 82.864 147.446 83.048 147.294 83.2C147.15 83.344 146.966 83.416 146.742 83.416ZM156.316 90.628C156.148 90.772 155.94 90.884 155.692 90.964C155.444 91.036 155.188 91.072 154.924 91.072C154.284 91.072 153.788 90.9 153.436 90.556C153.084 90.212 152.908 89.72 152.908 89.08V85.588H151.828V84.64H152.908V83.248H154.06V84.64H155.884V85.588H154.06V89.032C154.06 89.376 154.144 89.64 154.312 89.824C154.488 90.008 154.736 90.1 155.056 90.1C155.408 90.1 155.708 90 155.956 89.8L156.316 90.628ZM157.709 84.64H158.861V91H157.709V84.64ZM158.285 83.416C158.061 83.416 157.873 83.344 157.721 83.2C157.577 83.056 157.505 82.88 157.505 82.672C157.505 82.464 157.577 82.288 157.721 82.144C157.873 81.992 158.061 81.916 158.285 81.916C158.509 81.916 158.693 81.988 158.837 82.132C158.989 82.268 159.065 82.44 159.065 82.648C159.065 82.864 158.989 83.048 158.837 83.2C158.693 83.344 158.509 83.416 158.285 83.416ZM163.533 88.036L162.213 89.26V91H161.061V82.096H162.213V87.808L165.681 84.64H167.073L164.397 87.268L167.337 91H165.921L163.533 88.036ZM173.934 87.856C173.934 87.944 173.926 88.06 173.91 88.204H168.75C168.822 88.764 169.066 89.216 169.482 89.56C169.906 89.896 170.43 90.064 171.054 90.064C171.814 90.064 172.426 89.808 172.89 89.296L173.526 90.04C173.238 90.376 172.878 90.632 172.446 90.808C172.022 90.984 171.546 91.072 171.018 91.072C170.346 91.072 169.75 90.936 169.23 90.664C168.71 90.384 168.306 89.996 168.018 89.5C167.738 89.004 167.598 88.444 167.598 87.82C167.598 87.204 167.734 86.648 168.006 86.152C168.286 85.656 168.666 85.272 169.146 85C169.634 84.72 170.182 84.58 170.79 84.58C171.398 84.58 171.938 84.72 172.41 85C172.89 85.272 173.262 85.656 173.526 86.152C173.798 86.648 173.934 87.216 173.934 87.856ZM170.79 85.552C170.238 85.552 169.774 85.72 169.398 86.056C169.03 86.392 168.814 86.832 168.75 87.376H172.83C172.766 86.84 172.546 86.404 172.17 86.068C171.802 85.724 171.342 85.552 170.79 85.552ZM179.109 90.628C178.941 90.772 178.733 90.884 178.485 90.964C178.237 91.036 177.981 91.072 177.717 91.072C177.077 91.072 176.581 90.9 176.229 90.556C175.877 90.212 175.701 89.72 175.701 89.08V85.588H174.621V84.64H175.701V83.248H176.853V84.64H178.677V85.588H176.853V89.032C176.853 89.376 176.937 89.64 177.105 89.824C177.281 90.008 177.529 90.1 177.849 90.1C178.201 90.1 178.501 90 178.749 89.8L179.109 90.628ZM193.349 84.64L190.973 91H189.869L188.033 86.176L186.173 91H185.069L182.705 84.64H183.797L185.645 89.704L187.565 84.64H188.537L190.421 89.728L192.317 84.64H193.349ZM194.518 84.64H195.67V91H194.518V84.64ZM195.094 83.416C194.87 83.416 194.682 83.344 194.53 83.2C194.386 83.056 194.314 82.88 194.314 82.672C194.314 82.464 194.386 82.288 194.53 82.144C194.682 81.992 194.87 81.916 195.094 81.916C195.318 81.916 195.502 81.988 195.646 82.132C195.798 82.268 195.874 82.44 195.874 82.648C195.874 82.864 195.798 83.048 195.646 83.2C195.502 83.344 195.318 83.416 195.094 83.416ZM199.693 91.072C199.173 91.072 198.673 91.004 198.193 90.868C197.713 90.724 197.337 90.544 197.065 90.328L197.545 89.416C197.825 89.616 198.165 89.776 198.565 89.896C198.965 90.016 199.369 90.076 199.777 90.076C200.785 90.076 201.289 89.788 201.289 89.212C201.289 89.02 201.221 88.868 201.085 88.756C200.949 88.644 200.777 88.564 200.569 88.516C200.369 88.46 200.081 88.4 199.705 88.336C199.193 88.256 198.773 88.164 198.445 88.06C198.125 87.956 197.849 87.78 197.617 87.532C197.385 87.284 197.269 86.936 197.269 86.488C197.269 85.912 197.509 85.452 197.989 85.108C198.469 84.756 199.113 84.58 199.921 84.58C200.345 84.58 200.769 84.632 201.193 84.736C201.617 84.84 201.965 84.98 202.237 85.156L201.745 86.068C201.225 85.732 200.613 85.564 199.909 85.564C199.421 85.564 199.049 85.644 198.793 85.804C198.537 85.964 198.409 86.176 198.409 86.44C198.409 86.648 198.481 86.812 198.625 86.932C198.769 87.052 198.945 87.14 199.153 87.196C199.369 87.252 199.669 87.316 200.053 87.388C200.565 87.476 200.977 87.572 201.289 87.676C201.609 87.772 201.881 87.94 202.105 88.18C202.329 88.42 202.441 88.756 202.441 89.188C202.441 89.764 202.193 90.224 201.697 90.568C201.209 90.904 200.541 91.072 199.693 91.072ZM206.197 84.58C207.077 84.58 207.749 84.796 208.213 85.228C208.685 85.66 208.921 86.304 208.921 87.16V91H207.829V90.16C207.637 90.456 207.361 90.684 207.001 90.844C206.649 90.996 206.229 91.072 205.741 91.072C205.029 91.072 204.457 90.9 204.025 90.556C203.601 90.212 203.389 89.76 203.389 89.2C203.389 88.64 203.593 88.192 204.001 87.856C204.409 87.512 205.057 87.34 205.945 87.34H207.769V87.112C207.769 86.616 207.625 86.236 207.337 85.972C207.049 85.708 206.625 85.576 206.065 85.576C205.689 85.576 205.321 85.64 204.961 85.768C204.601 85.888 204.297 86.052 204.049 86.26L203.569 85.396C203.897 85.132 204.289 84.932 204.745 84.796C205.201 84.652 205.685 84.58 206.197 84.58ZM205.933 90.184C206.373 90.184 206.753 90.088 207.073 89.896C207.393 89.696 207.625 89.416 207.769 89.056V88.168H205.993C205.017 88.168 204.529 88.496 204.529 89.152C204.529 89.472 204.653 89.724 204.901 89.908C205.149 90.092 205.493 90.184 205.933 90.184ZM214.629 90.628C214.461 90.772 214.253 90.884 214.005 90.964C213.757 91.036 213.501 91.072 213.237 91.072C212.597 91.072 212.101 90.9 211.749 90.556C211.397 90.212 211.221 89.72 211.221 89.08V85.588H210.141V84.64H211.221V83.248H212.373V84.64H214.197V85.588H212.373V89.032C212.373 89.376 212.457 89.64 212.625 89.824C212.801 90.008 213.049 90.1 213.369 90.1C213.721 90.1 214.021 90 214.269 89.8L214.629 90.628ZM218.338 84.58C219.218 84.58 219.89 84.796 220.354 85.228C220.826 85.66 221.062 86.304 221.062 87.16V91H219.97V90.16C219.778 90.456 219.502 90.684 219.142 90.844C218.79 90.996 218.37 91.072 217.882 91.072C217.17 91.072 216.598 90.9 216.166 90.556C215.742 90.212 215.53 89.76 215.53 89.2C215.53 88.64 215.734 88.192 216.142 87.856C216.55 87.512 217.198 87.34 218.086 87.34H219.91V87.112C219.91 86.616 219.766 86.236 219.478 85.972C219.19 85.708 218.766 85.576 218.206 85.576C217.83 85.576 217.462 85.64 217.102 85.768C216.742 85.888 216.438 86.052 216.19 86.26L215.71 85.396C216.038 85.132 216.43 84.932 216.886 84.796C217.342 84.652 217.826 84.58 218.338 84.58ZM218.074 90.184C218.514 90.184 218.894 90.088 219.214 89.896C219.534 89.696 219.766 89.416 219.91 89.056V88.168H218.134C217.158 88.168 216.67 88.496 216.67 89.152C216.67 89.472 216.794 89.724 217.042 89.908C217.29 90.092 217.634 90.184 218.074 90.184ZM232.044 84.64L228.96 91.636C228.688 92.284 228.368 92.74 228 93.004C227.64 93.268 227.204 93.4 226.692 93.4C226.38 93.4 226.076 93.348 225.78 93.244C225.492 93.148 225.252 93.004 225.06 92.812L225.552 91.948C225.88 92.26 226.26 92.416 226.692 92.416C226.972 92.416 227.204 92.34 227.388 92.188C227.58 92.044 227.752 91.792 227.904 91.432L228.108 90.988L225.3 84.64H226.5L228.72 89.728L230.916 84.64H232.044ZM235.236 84.58C236.116 84.58 236.788 84.796 237.252 85.228C237.724 85.66 237.96 86.304 237.96 87.16V91H236.868V90.16C236.676 90.456 236.4 90.684 236.04 90.844C235.688 90.996 235.268 91.072 234.78 91.072C234.068 91.072 233.496 90.9 233.064 90.556C232.64 90.212 232.428 89.76 232.428 89.2C232.428 88.64 232.632 88.192 233.04 87.856C233.448 87.512 234.096 87.34 234.984 87.34H236.808V87.112C236.808 86.616 236.664 86.236 236.376 85.972C236.088 85.708 235.664 85.576 235.104 85.576C234.728 85.576 234.36 85.64 234 85.768C233.64 85.888 233.336 86.052 233.088 86.26L232.608 85.396C232.936 85.132 233.328 84.932 233.784 84.796C234.24 84.652 234.724 84.58 235.236 84.58ZM234.972 90.184C235.412 90.184 235.792 90.088 236.112 89.896C236.432 89.696 236.664 89.416 236.808 89.056V88.168H235.032C234.056 88.168 233.568 88.496 233.568 89.152C233.568 89.472 233.692 89.724 233.94 89.908C234.188 90.092 234.532 90.184 234.972 90.184ZM243.488 84.58C244.296 84.58 244.936 84.816 245.408 85.288C245.888 85.752 246.128 86.436 246.128 87.34V91H244.976V87.472C244.976 86.856 244.828 86.392 244.532 86.08C244.236 85.768 243.812 85.612 243.26 85.612C242.636 85.612 242.144 85.796 241.784 86.164C241.424 86.524 241.244 87.044 241.244 87.724V91H240.092V84.64H241.196V85.6C241.428 85.272 241.74 85.02 242.132 84.844C242.532 84.668 242.984 84.58 243.488 84.58ZM254.379 84.64V90.136C254.379 91.248 254.103 92.068 253.551 92.596C252.999 93.132 252.175 93.4 251.079 93.4C250.479 93.4 249.907 93.316 249.363 93.148C248.819 92.988 248.379 92.756 248.043 92.452L248.595 91.564C248.891 91.82 249.255 92.02 249.687 92.164C250.127 92.316 250.579 92.392 251.043 92.392C251.787 92.392 252.335 92.216 252.687 91.864C253.047 91.512 253.227 90.976 253.227 90.256V89.752C252.955 90.08 252.619 90.328 252.219 90.496C251.827 90.656 251.399 90.736 250.935 90.736C250.327 90.736 249.775 90.608 249.279 90.352C248.791 90.088 248.407 89.724 248.127 89.26C247.847 88.788 247.707 88.252 247.707 87.652C247.707 87.052 247.847 86.52 248.127 86.056C248.407 85.584 248.791 85.22 249.279 84.964C249.775 84.708 250.327 84.58 250.935 84.58C251.415 84.58 251.859 84.668 252.267 84.844C252.683 85.02 253.023 85.28 253.287 85.624V84.64H254.379ZM251.067 89.728C251.483 89.728 251.855 89.64 252.183 89.464C252.519 89.288 252.779 89.044 252.963 88.732C253.155 88.412 253.251 88.052 253.251 87.652C253.251 87.036 253.047 86.54 252.639 86.164C252.231 85.78 251.707 85.588 251.067 85.588C250.419 85.588 249.891 85.78 249.483 86.164C249.075 86.54 248.871 87.036 248.871 87.652C248.871 88.052 248.963 88.412 249.147 88.732C249.339 89.044 249.599 89.288 249.927 89.464C250.263 89.64 250.643 89.728 251.067 89.728ZM262.575 91.072C261.927 91.072 261.347 90.932 260.835 90.652C260.331 90.372 259.935 89.988 259.647 89.5C259.359 89.004 259.215 88.444 259.215 87.82C259.215 87.196 259.359 86.64 259.647 86.152C259.935 85.656 260.331 85.272 260.835 85C261.347 84.72 261.927 84.58 262.575 84.58C263.151 84.58 263.663 84.696 264.111 84.928C264.567 85.16 264.919 85.496 265.167 85.936L264.291 86.5C264.091 86.196 263.843 85.968 263.547 85.816C263.251 85.664 262.923 85.588 262.563 85.588C262.147 85.588 261.771 85.68 261.435 85.864C261.107 86.048 260.847 86.312 260.655 86.656C260.471 86.992 260.379 87.38 260.379 87.82C260.379 88.268 260.471 88.664 260.655 89.008C260.847 89.344 261.107 89.604 261.435 89.788C261.771 89.972 262.147 90.064 262.563 90.064C262.923 90.064 263.251 89.988 263.547 89.836C263.843 89.684 264.091 89.456 264.291 89.152L265.167 89.704C264.919 90.144 264.567 90.484 264.111 90.724C263.663 90.956 263.151 91.072 262.575 91.072ZM269.289 91.072C268.657 91.072 268.089 90.932 267.585 90.652C267.081 90.372 266.685 89.988 266.397 89.5C266.117 89.004 265.977 88.444 265.977 87.82C265.977 87.196 266.117 86.64 266.397 86.152C266.685 85.656 267.081 85.272 267.585 85C268.089 84.72 268.657 84.58 269.289 84.58C269.921 84.58 270.485 84.72 270.981 85C271.485 85.272 271.877 85.656 272.157 86.152C272.445 86.64 272.589 87.196 272.589 87.82C272.589 88.444 272.445 89.004 272.157 89.5C271.877 89.988 271.485 90.372 270.981 90.652C270.485 90.932 269.921 91.072 269.289 91.072ZM269.289 90.064C269.697 90.064 270.061 89.972 270.381 89.788C270.709 89.596 270.965 89.332 271.149 88.996C271.333 88.652 271.425 88.26 271.425 87.82C271.425 87.38 271.333 86.992 271.149 86.656C270.965 86.312 270.709 86.048 270.381 85.864C270.061 85.68 269.697 85.588 269.289 85.588C268.881 85.588 268.513 85.68 268.185 85.864C267.865 86.048 267.609 86.312 267.417 86.656C267.233 86.992 267.141 87.38 267.141 87.82C267.141 88.26 267.233 88.652 267.417 88.996C267.609 89.332 267.865 89.596 268.185 89.788C268.513 89.972 268.881 90.064 269.289 90.064ZM276.954 91.072C276.306 91.072 275.726 90.932 275.214 90.652C274.71 90.372 274.314 89.988 274.026 89.5C273.738 89.004 273.594 88.444 273.594 87.82C273.594 87.196 273.738 86.64 274.026 86.152C274.314 85.656 274.71 85.272 275.214 85C275.726 84.72 276.306 84.58 276.954 84.58C277.53 84.58 278.042 84.696 278.49 84.928C278.946 85.16 279.298 85.496 279.546 85.936L278.67 86.5C278.47 86.196 278.222 85.968 277.926 85.816C277.63 85.664 277.302 85.588 276.942 85.588C276.526 85.588 276.15 85.68 275.814 85.864C275.486 86.048 275.226 86.312 275.034 86.656C274.85 86.992 274.758 87.38 274.758 87.82C274.758 88.268 274.85 88.664 275.034 89.008C275.226 89.344 275.486 89.604 275.814 89.788C276.15 89.972 276.526 90.064 276.942 90.064C277.302 90.064 277.63 89.988 277.926 89.836C278.222 89.684 278.47 89.456 278.67 89.152L279.546 89.704C279.298 90.144 278.946 90.484 278.49 90.724C278.042 90.956 277.53 91.072 276.954 91.072ZM283.668 91.072C283.036 91.072 282.468 90.932 281.964 90.652C281.46 90.372 281.064 89.988 280.776 89.5C280.496 89.004 280.356 88.444 280.356 87.82C280.356 87.196 280.496 86.64 280.776 86.152C281.064 85.656 281.46 85.272 281.964 85C282.468 84.72 283.036 84.58 283.668 84.58C284.3 84.58 284.864 84.72 285.36 85C285.864 85.272 286.256 85.656 286.536 86.152C286.824 86.64 286.968 87.196 286.968 87.82C286.968 88.444 286.824 89.004 286.536 89.5C286.256 89.988 285.864 90.372 285.36 90.652C284.864 90.932 284.3 91.072 283.668 91.072ZM283.668 90.064C284.076 90.064 284.44 89.972 284.76 89.788C285.088 89.596 285.344 89.332 285.528 88.996C285.712 88.652 285.804 88.26 285.804 87.82C285.804 87.38 285.712 86.992 285.528 86.656C285.344 86.312 285.088 86.048 284.76 85.864C284.44 85.68 284.076 85.588 283.668 85.588C283.26 85.588 282.892 85.68 282.564 85.864C282.244 86.048 281.988 86.312 281.796 86.656C281.612 86.992 281.52 87.38 281.52 87.82C281.52 88.26 281.612 88.652 281.796 88.996C281.988 89.332 282.244 89.596 282.564 89.788C282.892 89.972 283.26 90.064 283.668 90.064ZM291.033 88.036L289.713 89.26V91H288.561V82.096H289.713V87.808L293.181 84.64H294.573L291.897 87.268L294.837 91H293.421L291.033 88.036ZM302.55 84.58C303.166 84.58 303.718 84.716 304.206 84.988C304.694 85.26 305.074 85.64 305.346 86.128C305.626 86.616 305.766 87.18 305.766 87.82C305.766 88.46 305.626 89.028 305.346 89.524C305.074 90.012 304.694 90.392 304.206 90.664C303.718 90.936 303.166 91.072 302.55 91.072C302.078 91.072 301.646 90.98 301.254 90.796C300.862 90.612 300.538 90.344 300.282 89.992V91H299.178V82.096H300.33V85.6C300.586 85.264 300.906 85.012 301.29 84.844C301.674 84.668 302.094 84.58 302.55 84.58ZM302.454 90.064C302.862 90.064 303.226 89.972 303.546 89.788C303.874 89.596 304.13 89.332 304.314 88.996C304.506 88.652 304.602 88.26 304.602 87.82C304.602 87.38 304.506 86.992 304.314 86.656C304.13 86.312 303.874 86.048 303.546 85.864C303.226 85.68 302.862 85.588 302.454 85.588C302.054 85.588 301.69 85.68 301.362 85.864C301.034 86.048 300.778 86.312 300.594 86.656C300.41 86.992 300.318 87.38 300.318 87.82C300.318 88.26 300.41 88.652 300.594 88.996C300.778 89.332 301.034 89.596 301.362 89.788C301.69 89.972 302.054 90.064 302.454 90.064ZM313.286 84.64V91H312.194V90.04C311.962 90.368 311.654 90.624 311.27 90.808C310.894 90.984 310.482 91.072 310.034 91.072C309.186 91.072 308.518 90.84 308.03 90.376C307.542 89.904 307.298 89.212 307.298 88.3V84.64H308.45V88.168C308.45 88.784 308.598 89.252 308.894 89.572C309.19 89.884 309.614 90.04 310.166 90.04C310.774 90.04 311.254 89.856 311.606 89.488C311.958 89.12 312.134 88.6 312.134 87.928V84.64H313.286ZM317.795 84.58C318.675 84.58 319.347 84.796 319.811 85.228C320.283 85.66 320.519 86.304 320.519 87.16V91H319.427V90.16C319.235 90.456 318.959 90.684 318.599 90.844C318.247 90.996 317.827 91.072 317.339 91.072C316.627 91.072 316.055 90.9 315.623 90.556C315.199 90.212 314.987 89.76 314.987 89.2C314.987 88.64 315.191 88.192 315.599 87.856C316.007 87.512 316.655 87.34 317.543 87.34H319.367V87.112C319.367 86.616 319.223 86.236 318.935 85.972C318.647 85.708 318.223 85.576 317.663 85.576C317.287 85.576 316.919 85.64 316.559 85.768C316.199 85.888 315.895 86.052 315.647 86.26L315.167 85.396C315.495 85.132 315.887 84.932 316.343 84.796C316.799 84.652 317.283 84.58 317.795 84.58ZM317.531 90.184C317.971 90.184 318.351 90.088 318.671 89.896C318.991 89.696 319.223 89.416 319.367 89.056V88.168H317.591C316.615 88.168 316.127 88.496 316.127 89.152C316.127 89.472 316.251 89.724 316.499 89.908C316.747 90.092 317.091 90.184 317.531 90.184ZM326.227 90.628C326.059 90.772 325.851 90.884 325.603 90.964C325.355 91.036 325.099 91.072 324.835 91.072C324.195 91.072 323.699 90.9 323.347 90.556C322.995 90.212 322.819 89.72 322.819 89.08V85.588H321.739V84.64H322.819V83.248H323.971V84.64H325.795V85.588H323.971V89.032C323.971 89.376 324.055 89.64 324.223 89.824C324.399 90.008 324.647 90.1 324.967 90.1C325.319 90.1 325.619 90 325.867 89.8L326.227 90.628ZM143.253 103.036L141.933 104.26V106H140.781V97.096H141.933V102.808L145.401 99.64H146.793L144.117 102.268L147.057 106H145.641L143.253 103.036ZM150.375 99.58C151.255 99.58 151.927 99.796 152.391 100.228C152.863 100.66 153.099 101.304 153.099 102.16V106H152.007V105.16C151.815 105.456 151.539 105.684 151.179 105.844C150.827 105.996 150.407 106.072 149.919 106.072C149.207 106.072 148.635 105.9 148.203 105.556C147.779 105.212 147.567 104.76 147.567 104.2C147.567 103.64 147.771 103.192 148.179 102.856C148.587 102.512 149.235 102.34 150.123 102.34H151.947V102.112C151.947 101.616 151.803 101.236 151.515 100.972C151.227 100.708 150.803 100.576 150.243 100.576C149.867 100.576 149.499 100.64 149.139 100.768C148.779 100.888 148.475 101.052 148.227 101.26L147.747 100.396C148.075 100.132 148.467 99.932 148.923 99.796C149.379 99.652 149.863 99.58 150.375 99.58ZM150.111 105.184C150.551 105.184 150.931 105.088 151.251 104.896C151.571 104.696 151.803 104.416 151.947 104.056V103.168H150.171C149.195 103.168 148.707 103.496 148.707 104.152C148.707 104.472 148.831 104.724 149.079 104.908C149.327 105.092 149.671 105.184 150.111 105.184ZM163.187 99.58C163.987 99.58 164.619 99.812 165.083 100.276C165.555 100.74 165.791 101.428 165.791 102.34V106H164.639V102.472C164.639 101.856 164.495 101.392 164.207 101.08C163.927 100.768 163.523 100.612 162.995 100.612C162.411 100.612 161.947 100.796 161.603 101.164C161.259 101.524 161.087 102.044 161.087 102.724V106H159.935V102.472C159.935 101.856 159.791 101.392 159.503 101.08C159.223 100.768 158.819 100.612 158.291 100.612C157.707 100.612 157.243 100.796 156.899 101.164C156.555 101.524 156.383 102.044 156.383 102.724V106H155.231V99.64H156.335V100.588C156.567 100.26 156.871 100.012 157.247 99.844C157.623 99.668 158.051 99.58 158.531 99.58C159.027 99.58 159.467 99.68 159.851 99.88C160.235 100.08 160.531 100.372 160.739 100.756C160.979 100.388 161.311 100.1 161.735 99.892C162.167 99.684 162.651 99.58 163.187 99.58ZM173.838 99.64V106H172.746V105.04C172.514 105.368 172.206 105.624 171.822 105.808C171.446 105.984 171.034 106.072 170.586 106.072C169.738 106.072 169.07 105.84 168.582 105.376C168.094 104.904 167.85 104.212 167.85 103.3V99.64H169.002V103.168C169.002 103.784 169.15 104.252 169.446 104.572C169.742 104.884 170.166 105.04 170.718 105.04C171.326 105.04 171.806 104.856 172.158 104.488C172.51 104.12 172.686 103.6 172.686 102.928V99.64H173.838ZM176.319 104.428C176.543 104.428 176.727 104.508 176.871 104.668C177.023 104.82 177.099 105.012 177.099 105.244C177.099 105.364 177.083 105.48 177.051 105.592C177.027 105.704 176.975 105.876 176.895 106.108L176.331 107.776H175.575L176.019 105.988C175.867 105.932 175.743 105.84 175.647 105.712C175.559 105.576 175.515 105.42 175.515 105.244C175.515 105.004 175.591 104.808 175.743 104.656C175.895 104.504 176.087 104.428 176.319 104.428ZM187.973 97.096V106H186.869V104.992C186.613 105.344 186.289 105.612 185.897 105.796C185.505 105.98 185.073 106.072 184.601 106.072C183.985 106.072 183.433 105.936 182.945 105.664C182.457 105.392 182.073 105.012 181.793 104.524C181.521 104.028 181.385 103.46 181.385 102.82C181.385 102.18 181.521 101.616 181.793 101.128C182.073 100.64 182.457 100.26 182.945 99.988C183.433 99.716 183.985 99.58 184.601 99.58C185.057 99.58 185.477 99.668 185.861 99.844C186.245 100.012 186.565 100.264 186.821 100.6V97.096H187.973ZM184.697 105.064C185.097 105.064 185.461 104.972 185.789 104.788C186.117 104.596 186.373 104.332 186.557 103.996C186.741 103.652 186.833 103.26 186.833 102.82C186.833 102.38 186.741 101.992 186.557 101.656C186.373 101.312 186.117 101.048 185.789 100.864C185.461 100.68 185.097 100.588 184.697 100.588C184.289 100.588 183.921 100.68 183.593 100.864C183.273 101.048 183.017 101.312 182.825 101.656C182.641 101.992 182.549 102.38 182.549 102.82C182.549 103.26 182.641 103.652 182.825 103.996C183.017 104.332 183.273 104.596 183.593 104.788C183.921 104.972 184.289 105.064 184.697 105.064ZM195.901 102.856C195.901 102.944 195.893 103.06 195.877 103.204H190.717C190.789 103.764 191.033 104.216 191.449 104.56C191.873 104.896 192.397 105.064 193.021 105.064C193.781 105.064 194.393 104.808 194.857 104.296L195.493 105.04C195.205 105.376 194.845 105.632 194.413 105.808C193.989 105.984 193.513 106.072 192.985 106.072C192.313 106.072 191.717 105.936 191.197 105.664C190.677 105.384 190.273 104.996 189.985 104.5C189.705 104.004 189.565 103.444 189.565 102.82C189.565 102.204 189.701 101.648 189.973 101.152C190.253 100.656 190.633 100.272 191.113 100C191.601 99.72 192.149 99.58 192.757 99.58C193.365 99.58 193.905 99.72 194.377 100C194.857 100.272 195.229 100.656 195.493 101.152C195.765 101.648 195.901 102.216 195.901 102.856ZM192.757 100.552C192.205 100.552 191.741 100.72 191.365 101.056C190.997 101.392 190.781 101.832 190.717 102.376H194.797C194.733 101.84 194.513 101.404 194.137 101.068C193.769 100.724 193.309 100.552 192.757 100.552ZM200.896 99.58C201.704 99.58 202.344 99.816 202.816 100.288C203.296 100.752 203.536 101.436 203.536 102.34V106H202.384V102.472C202.384 101.856 202.236 101.392 201.94 101.08C201.644 100.768 201.22 100.612 200.668 100.612C200.044 100.612 199.552 100.796 199.192 101.164C198.832 101.524 198.652 102.044 198.652 102.724V106H197.5V99.64H198.604V100.6C198.836 100.272 199.148 100.02 199.54 99.844C199.94 99.668 200.392 99.58 200.896 99.58ZM211.787 99.64V105.136C211.787 106.248 211.511 107.068 210.959 107.596C210.407 108.132 209.583 108.4 208.487 108.4C207.887 108.4 207.315 108.316 206.771 108.148C206.227 107.988 205.787 107.756 205.451 107.452L206.003 106.564C206.299 106.82 206.663 107.02 207.095 107.164C207.535 107.316 207.987 107.392 208.451 107.392C209.195 107.392 209.743 107.216 210.095 106.864C210.455 106.512 210.635 105.976 210.635 105.256V104.752C210.363 105.08 210.027 105.328 209.627 105.496C209.235 105.656 208.807 105.736 208.343 105.736C207.735 105.736 207.183 105.608 206.687 105.352C206.199 105.088 205.815 104.724 205.535 104.26C205.255 103.788 205.115 103.252 205.115 102.652C205.115 102.052 205.255 101.52 205.535 101.056C205.815 100.584 206.199 100.22 206.687 99.964C207.183 99.708 207.735 99.58 208.343 99.58C208.823 99.58 209.267 99.668 209.675 99.844C210.091 100.02 210.431 100.28 210.695 100.624V99.64H211.787ZM208.475 104.728C208.891 104.728 209.263 104.64 209.591 104.464C209.927 104.288 210.187 104.044 210.371 103.732C210.563 103.412 210.659 103.052 210.659 102.652C210.659 102.036 210.455 101.54 210.047 101.164C209.639 100.78 209.115 100.588 208.475 100.588C207.827 100.588 207.299 100.78 206.891 101.164C206.483 101.54 206.279 102.036 206.279 102.652C206.279 103.052 206.371 103.412 206.555 103.732C206.747 104.044 207.007 104.288 207.335 104.464C207.671 104.64 208.051 104.728 208.475 104.728ZM216.304 99.58C217.184 99.58 217.856 99.796 218.32 100.228C218.792 100.66 219.028 101.304 219.028 102.16V106H217.936V105.16C217.744 105.456 217.468 105.684 217.108 105.844C216.756 105.996 216.336 106.072 215.848 106.072C215.136 106.072 214.564 105.9 214.132 105.556C213.708 105.212 213.496 104.76 213.496 104.2C213.496 103.64 213.7 103.192 214.108 102.856C214.516 102.512 215.164 102.34 216.052 102.34H217.876V102.112C217.876 101.616 217.732 101.236 217.444 100.972C217.156 100.708 216.732 100.576 216.172 100.576C215.796 100.576 215.428 100.64 215.068 100.768C214.708 100.888 214.404 101.052 214.156 101.26L213.676 100.396C214.004 100.132 214.396 99.932 214.852 99.796C215.308 99.652 215.792 99.58 216.304 99.58ZM216.04 105.184C216.48 105.184 216.86 105.088 217.18 104.896C217.5 104.696 217.732 104.416 217.876 104.056V103.168H216.1C215.124 103.168 214.636 103.496 214.636 104.152C214.636 104.472 214.76 104.724 215.008 104.908C215.256 105.092 215.6 105.184 216.04 105.184ZM224.556 99.58C225.364 99.58 226.004 99.816 226.476 100.288C226.956 100.752 227.196 101.436 227.196 102.34V106H226.044V102.472C226.044 101.856 225.896 101.392 225.6 101.08C225.304 100.768 224.88 100.612 224.328 100.612C223.704 100.612 223.212 100.796 222.852 101.164C222.492 101.524 222.312 102.044 222.312 102.724V106H221.16V99.64H222.264V100.6C222.496 100.272 222.808 100.02 223.2 99.844C223.6 99.668 224.052 99.58 224.556 99.58ZM233.655 100.708C233.855 100.34 234.151 100.06 234.543 99.868C234.935 99.676 235.411 99.58 235.971 99.58V100.696C235.907 100.688 235.819 100.684 235.707 100.684C235.083 100.684 234.591 100.872 234.231 101.248C233.879 101.616 233.703 102.144 233.703 102.832V106H232.551V99.64H233.655V100.708ZM243.08 102.856C243.08 102.944 243.072 103.06 243.056 103.204H237.896C237.968 103.764 238.212 104.216 238.628 104.56C239.052 104.896 239.576 105.064 240.2 105.064C240.96 105.064 241.572 104.808 242.036 104.296L242.672 105.04C242.384 105.376 242.024 105.632 241.592 105.808C241.168 105.984 240.692 106.072 240.164 106.072C239.492 106.072 238.896 105.936 238.376 105.664C237.856 105.384 237.452 104.996 237.164 104.5C236.884 104.004 236.744 103.444 236.744 102.82C236.744 102.204 236.88 101.648 237.152 101.152C237.432 100.656 237.812 100.272 238.292 100C238.78 99.72 239.328 99.58 239.936 99.58C240.544 99.58 241.084 99.72 241.556 100C242.036 100.272 242.408 100.656 242.672 101.152C242.944 101.648 243.08 102.216 243.08 102.856ZM239.936 100.552C239.384 100.552 238.92 100.72 238.544 101.056C238.176 101.392 237.96 101.832 237.896 102.376H241.976C241.912 101.84 241.692 101.404 241.316 101.068C240.948 100.724 240.488 100.552 239.936 100.552ZM247.152 103.036L245.832 104.26V106H244.68V97.096H245.832V102.808L249.3 99.64H250.692L248.016 102.268L250.956 106H249.54L247.152 103.036ZM254.529 106.072C253.897 106.072 253.329 105.932 252.825 105.652C252.321 105.372 251.925 104.988 251.637 104.5C251.357 104.004 251.217 103.444 251.217 102.82C251.217 102.196 251.357 101.64 251.637 101.152C251.925 100.656 252.321 100.272 252.825 100C253.329 99.72 253.897 99.58 254.529 99.58C255.161 99.58 255.725 99.72 256.221 100C256.725 100.272 257.117 100.656 257.397 101.152C257.685 101.64 257.829 102.196 257.829 102.82C257.829 103.444 257.685 104.004 257.397 104.5C257.117 104.988 256.725 105.372 256.221 105.652C255.725 105.932 255.161 106.072 254.529 106.072ZM254.529 105.064C254.937 105.064 255.301 104.972 255.621 104.788C255.949 104.596 256.205 104.332 256.389 103.996C256.573 103.652 256.665 103.26 256.665 102.82C256.665 102.38 256.573 101.992 256.389 101.656C256.205 101.312 255.949 101.048 255.621 100.864C255.301 100.68 254.937 100.588 254.529 100.588C254.121 100.588 253.753 100.68 253.425 100.864C253.105 101.048 252.849 101.312 252.657 101.656C252.473 101.992 252.381 102.38 252.381 102.82C252.381 103.26 252.473 103.652 252.657 103.996C252.849 104.332 253.105 104.596 253.425 104.788C253.753 104.972 254.121 105.064 254.529 105.064ZM267.378 99.58C268.178 99.58 268.81 99.812 269.274 100.276C269.746 100.74 269.982 101.428 269.982 102.34V106H268.83V102.472C268.83 101.856 268.686 101.392 268.398 101.08C268.118 100.768 267.714 100.612 267.186 100.612C266.602 100.612 266.138 100.796 265.794 101.164C265.45 101.524 265.278 102.044 265.278 102.724V106H264.126V102.472C264.126 101.856 263.982 101.392 263.694 101.08C263.414 100.768 263.01 100.612 262.482 100.612C261.898 100.612 261.434 100.796 261.09 101.164C260.746 101.524 260.574 102.044 260.574 102.724V106H259.422V99.64H260.526V100.588C260.758 100.26 261.062 100.012 261.438 99.844C261.814 99.668 262.242 99.58 262.722 99.58C263.218 99.58 263.658 99.68 264.042 99.88C264.426 100.08 264.722 100.372 264.93 100.756C265.17 100.388 265.502 100.1 265.926 99.892C266.358 99.684 266.842 99.58 267.378 99.58ZM277.885 102.856C277.885 102.944 277.877 103.06 277.861 103.204H272.701C272.773 103.764 273.017 104.216 273.433 104.56C273.857 104.896 274.381 105.064 275.005 105.064C275.765 105.064 276.377 104.808 276.841 104.296L277.477 105.04C277.189 105.376 276.829 105.632 276.397 105.808C275.973 105.984 275.497 106.072 274.969 106.072C274.297 106.072 273.701 105.936 273.181 105.664C272.661 105.384 272.257 104.996 271.969 104.5C271.689 104.004 271.549 103.444 271.549 102.82C271.549 102.204 271.685 101.648 271.957 101.152C272.237 100.656 272.617 100.272 273.097 100C273.585 99.72 274.133 99.58 274.741 99.58C275.349 99.58 275.889 99.72 276.361 100C276.841 100.272 277.213 100.656 277.477 101.152C277.749 101.648 277.885 102.216 277.885 102.856ZM274.741 100.552C274.189 100.552 273.725 100.72 273.349 101.056C272.981 101.392 272.765 101.832 272.701 102.376H276.781C276.717 101.84 276.497 101.404 276.121 101.068C275.753 100.724 275.293 100.552 274.741 100.552ZM282.881 99.58C283.689 99.58 284.329 99.816 284.801 100.288C285.281 100.752 285.521 101.436 285.521 102.34V106H284.369V102.472C284.369 101.856 284.221 101.392 283.925 101.08C283.629 100.768 283.205 100.612 282.653 100.612C282.029 100.612 281.537 100.796 281.177 101.164C280.817 101.524 280.637 102.044 280.637 102.724V106H279.485V99.64H280.589V100.6C280.821 100.272 281.133 100.02 281.525 99.844C281.925 99.668 282.377 99.58 282.881 99.58ZM293.688 97.096V106H292.584V104.992C292.328 105.344 292.004 105.612 291.612 105.796C291.22 105.98 290.788 106.072 290.316 106.072C289.7 106.072 289.148 105.936 288.66 105.664C288.172 105.392 287.788 105.012 287.508 104.524C287.236 104.028 287.1 103.46 287.1 102.82C287.1 102.18 287.236 101.616 287.508 101.128C287.788 100.64 288.172 100.26 288.66 99.988C289.148 99.716 289.7 99.58 290.316 99.58C290.772 99.58 291.192 99.668 291.576 99.844C291.96 100.012 292.28 100.264 292.536 100.6V97.096H293.688ZM290.412 105.064C290.812 105.064 291.176 104.972 291.504 104.788C291.832 104.596 292.088 104.332 292.272 103.996C292.456 103.652 292.548 103.26 292.548 102.82C292.548 102.38 292.456 101.992 292.272 101.656C292.088 101.312 291.832 101.048 291.504 100.864C291.176 100.68 290.812 100.588 290.412 100.588C290.004 100.588 289.636 100.68 289.308 100.864C288.988 101.048 288.732 101.312 288.54 101.656C288.356 101.992 288.264 102.38 288.264 102.82C288.264 103.26 288.356 103.652 288.54 103.996C288.732 104.332 288.988 104.596 289.308 104.788C289.636 104.972 290.004 105.064 290.412 105.064ZM298.183 99.58C299.063 99.58 299.735 99.796 300.199 100.228C300.671 100.66 300.907 101.304 300.907 102.16V106H299.815V105.16C299.623 105.456 299.347 105.684 298.987 105.844C298.635 105.996 298.215 106.072 297.727 106.072C297.015 106.072 296.443 105.9 296.011 105.556C295.587 105.212 295.375 104.76 295.375 104.2C295.375 103.64 295.579 103.192 295.987 102.856C296.395 102.512 297.043 102.34 297.931 102.34H299.755V102.112C299.755 101.616 299.611 101.236 299.323 100.972C299.035 100.708 298.611 100.576 298.051 100.576C297.675 100.576 297.307 100.64 296.947 100.768C296.587 100.888 296.283 101.052 296.035 101.26L295.555 100.396C295.883 100.132 296.275 99.932 296.731 99.796C297.187 99.652 297.671 99.58 298.183 99.58ZM297.919 105.184C298.359 105.184 298.739 105.088 299.059 104.896C299.379 104.696 299.611 104.416 299.755 104.056V103.168H297.979C297.003 103.168 296.515 103.496 296.515 104.152C296.515 104.472 296.639 104.724 296.887 104.908C297.135 105.092 297.479 105.184 297.919 105.184ZM304.863 106.072C304.343 106.072 303.843 106.004 303.363 105.868C302.883 105.724 302.507 105.544 302.235 105.328L302.715 104.416C302.995 104.616 303.335 104.776 303.735 104.896C304.135 105.016 304.539 105.076 304.947 105.076C305.955 105.076 306.459 104.788 306.459 104.212C306.459 104.02 306.391 103.868 306.255 103.756C306.119 103.644 305.947 103.564 305.739 103.516C305.539 103.46 305.251 103.4 304.875 103.336C304.363 103.256 303.943 103.164 303.615 103.06C303.295 102.956 303.019 102.78 302.787 102.532C302.555 102.284 302.439 101.936 302.439 101.488C302.439 100.912 302.679 100.452 303.159 100.108C303.639 99.756 304.283 99.58 305.091 99.58C305.515 99.58 305.939 99.632 306.363 99.736C306.787 99.84 307.135 99.98 307.407 100.156L306.915 101.068C306.395 100.732 305.783 100.564 305.079 100.564C304.591 100.564 304.219 100.644 303.963 100.804C303.707 100.964 303.579 101.176 303.579 101.44C303.579 101.648 303.651 101.812 303.795 101.932C303.939 102.052 304.115 102.14 304.323 102.196C304.539 102.252 304.839 102.316 305.223 102.388C305.735 102.476 306.147 102.572 306.459 102.676C306.779 102.772 307.051 102.94 307.275 103.18C307.499 103.42 307.611 103.756 307.611 104.188C307.611 104.764 307.363 105.224 306.867 105.568C306.379 105.904 305.711 106.072 304.863 106.072ZM309.051 99.64H310.203V106H309.051V99.64ZM309.627 98.416C309.403 98.416 309.215 98.344 309.063 98.2C308.919 98.056 308.847 97.88 308.847 97.672C308.847 97.464 308.919 97.288 309.063 97.144C309.215 96.992 309.403 96.916 309.627 96.916C309.851 96.916 310.035 96.988 310.179 97.132C310.331 97.268 310.407 97.44 310.407 97.648C310.407 97.864 310.331 98.048 310.179 98.2C310.035 98.344 309.851 98.416 309.627 98.416Z" fill="#BDBDBD"/>
<path d="M121.847 64.112H113.447L111.791 68H108.575L116.135 51.2H119.207L126.791 68H123.527L121.847 64.112ZM120.815 61.664L117.647 54.32L114.503 61.664H120.815ZM136.227 67.304C135.875 67.592 135.443 67.808 134.931 67.952C134.435 68.096 133.907 68.168 133.347 68.168C131.939 68.168 130.851 67.8 130.083 67.064C129.315 66.328 128.931 65.256 128.931 63.848V57.68H126.819V55.28H128.931V52.352H131.931V55.28H135.363V57.68H131.931V63.776C131.931 64.4 132.083 64.88 132.387 65.216C132.691 65.536 133.131 65.696 133.707 65.696C134.379 65.696 134.939 65.52 135.387 65.168L136.227 67.304ZM151.103 55.184V68H148.247V66.368C147.767 66.944 147.167 67.392 146.447 67.712C145.727 68.016 144.951 68.168 144.119 68.168C142.407 68.168 141.055 67.696 140.063 66.752C139.087 65.792 138.599 64.376 138.599 62.504V55.184H141.599V62.096C141.599 63.248 141.855 64.112 142.367 64.688C142.895 65.248 143.639 65.528 144.599 65.528C145.671 65.528 146.519 65.2 147.143 64.544C147.783 63.872 148.103 62.912 148.103 61.664V55.184H151.103ZM157.887 57.056C158.751 55.712 160.271 55.04 162.447 55.04V57.896C162.191 57.848 161.959 57.824 161.751 57.824C160.583 57.824 159.671 58.168 159.015 58.856C158.359 59.528 158.031 60.504 158.031 61.784V68H155.031V55.184H157.887V57.056ZM174.597 57.056C175.461 55.712 176.981 55.04 179.157 55.04V57.896C178.901 57.848 178.669 57.824 178.461 57.824C177.293 57.824 176.381 58.168 175.725 58.856C175.069 59.528 174.741 60.504 174.741 61.784V68H171.741V55.184H174.597V57.056ZM193.633 61.664C193.633 61.872 193.617 62.168 193.585 62.552H183.529C183.705 63.496 184.161 64.248 184.897 64.808C185.649 65.352 186.577 65.624 187.681 65.624C189.089 65.624 190.249 65.16 191.161 64.232L192.769 66.08C192.193 66.768 191.465 67.288 190.585 67.64C189.705 67.992 188.713 68.168 187.609 68.168C186.201 68.168 184.961 67.888 183.889 67.328C182.817 66.768 181.985 65.992 181.393 65C180.817 63.992 180.529 62.856 180.529 61.592C180.529 60.344 180.809 59.224 181.369 58.232C181.945 57.224 182.737 56.44 183.745 55.88C184.753 55.32 185.889 55.04 187.153 55.04C188.401 55.04 189.513 55.32 190.489 55.88C191.481 56.424 192.249 57.2 192.793 58.208C193.353 59.2 193.633 60.352 193.633 61.664ZM187.153 57.44C186.193 57.44 185.377 57.728 184.705 58.304C184.049 58.864 183.649 59.616 183.505 60.56H190.777C190.649 59.632 190.257 58.88 189.601 58.304C188.945 57.728 188.129 57.44 187.153 57.44ZM201.747 62.504L199.515 64.616V68H196.515V50.192H199.515V60.944L205.731 55.184H209.331L203.979 60.56L209.835 68H206.187L201.747 62.504ZM216.994 68.168C215.698 68.168 214.53 67.888 213.49 67.328C212.45 66.768 211.634 65.992 211.042 65C210.466 63.992 210.178 62.856 210.178 61.592C210.178 60.328 210.466 59.2 211.042 58.208C211.634 57.216 212.45 56.44 213.49 55.88C214.53 55.32 215.698 55.04 216.994 55.04C218.306 55.04 219.482 55.32 220.522 55.88C221.562 56.44 222.37 57.216 222.946 58.208C223.538 59.2 223.834 60.328 223.834 61.592C223.834 62.856 223.538 63.992 222.946 65C222.37 65.992 221.562 66.768 220.522 67.328C219.482 67.888 218.306 68.168 216.994 68.168ZM216.994 65.6C218.098 65.6 219.01 65.232 219.73 64.496C220.45 63.76 220.81 62.792 220.81 61.592C220.81 60.392 220.45 59.424 219.73 58.688C219.01 57.952 218.098 57.584 216.994 57.584C215.89 57.584 214.978 57.952 214.258 58.688C213.554 59.424 213.202 60.392 213.202 61.592C213.202 62.792 213.554 63.76 214.258 64.496C214.978 65.232 215.89 65.6 216.994 65.6ZM242.878 55.04C244.494 55.04 245.774 55.512 246.718 56.456C247.662 57.384 248.134 58.784 248.134 60.656V68H245.134V61.04C245.134 59.92 244.886 59.08 244.39 58.52C243.894 57.944 243.182 57.656 242.254 57.656C241.246 57.656 240.438 57.992 239.83 58.664C239.222 59.32 238.918 60.264 238.918 61.496V68H235.918V61.04C235.918 59.92 235.67 59.08 235.174 58.52C234.678 57.944 233.966 57.656 233.038 57.656C232.014 57.656 231.198 57.984 230.59 58.64C229.998 59.296 229.702 60.248 229.702 61.496V68H226.702V55.184H229.558V56.816C230.038 56.24 230.638 55.8 231.358 55.496C232.078 55.192 232.878 55.04 233.758 55.04C234.718 55.04 235.566 55.224 236.302 55.592C237.054 55.944 237.646 56.472 238.078 57.176C238.606 56.504 239.286 55.984 240.118 55.616C240.95 55.232 241.87 55.04 242.878 55.04ZM264.133 61.664C264.133 61.872 264.117 62.168 264.085 62.552H254.029C254.205 63.496 254.661 64.248 255.397 64.808C256.149 65.352 257.077 65.624 258.181 65.624C259.589 65.624 260.749 65.16 261.661 64.232L263.269 66.08C262.693 66.768 261.965 67.288 261.085 67.64C260.205 67.992 259.213 68.168 258.109 68.168C256.701 68.168 255.461 67.888 254.389 67.328C253.317 66.768 252.485 65.992 251.893 65C251.317 63.992 251.029 62.856 251.029 61.592C251.029 60.344 251.309 59.224 251.869 58.232C252.445 57.224 253.237 56.44 254.245 55.88C255.253 55.32 256.389 55.04 257.653 55.04C258.901 55.04 260.013 55.32 260.989 55.88C261.981 56.424 262.749 57.2 263.293 58.208C263.853 59.2 264.133 60.352 264.133 61.664ZM257.653 57.44C256.693 57.44 255.877 57.728 255.205 58.304C254.549 58.864 254.149 59.616 254.005 60.56H261.277C261.149 59.632 260.757 58.88 260.101 58.304C259.445 57.728 258.629 57.44 257.653 57.44ZM274.287 55.04C275.903 55.04 277.199 55.512 278.175 56.456C279.151 57.4 279.639 58.8 279.639 60.656V68H276.639V61.04C276.639 59.92 276.375 59.08 275.847 58.52C275.319 57.944 274.567 57.656 273.591 57.656C272.487 57.656 271.615 57.992 270.975 58.664C270.335 59.32 270.015 60.272 270.015 61.52V68H267.015V55.184H269.871V56.84C270.367 56.248 270.991 55.8 271.743 55.496C272.495 55.192 273.343 55.04 274.287 55.04ZM296.114 50.192V68H293.234V66.344C292.738 66.952 292.122 67.408 291.386 67.712C290.666 68.016 289.866 68.168 288.986 68.168C287.754 68.168 286.642 67.896 285.65 67.352C284.674 66.808 283.906 66.04 283.346 65.048C282.786 64.04 282.506 62.888 282.506 61.592C282.506 60.296 282.786 59.152 283.346 58.16C283.906 57.168 284.674 56.4 285.65 55.856C286.642 55.312 287.754 55.04 288.986 55.04C289.834 55.04 290.61 55.184 291.314 55.472C292.018 55.76 292.618 56.192 293.114 56.768V50.192H296.114ZM289.346 65.6C290.066 65.6 290.714 65.44 291.29 65.12C291.866 64.784 292.322 64.312 292.658 63.704C292.994 63.096 293.162 62.392 293.162 61.592C293.162 60.792 292.994 60.088 292.658 59.48C292.322 58.872 291.866 58.408 291.29 58.088C290.714 57.752 290.066 57.584 289.346 57.584C288.626 57.584 287.978 57.752 287.402 58.088C286.826 58.408 286.37 58.872 286.034 59.48C285.698 60.088 285.53 60.792 285.53 61.592C285.53 62.392 285.698 63.096 286.034 63.704C286.37 64.312 286.826 64.784 287.402 65.12C287.978 65.44 288.626 65.6 289.346 65.6ZM304.934 55.04C306.822 55.04 308.262 55.496 309.254 56.408C310.262 57.304 310.766 58.664 310.766 60.488V68H307.934V66.44C307.566 67 307.038 67.432 306.35 67.736C305.678 68.024 304.862 68.168 303.902 68.168C302.942 68.168 302.102 68.008 301.382 67.688C300.662 67.352 300.102 66.896 299.702 66.32C299.318 65.728 299.126 65.064 299.126 64.328C299.126 63.176 299.55 62.256 300.398 61.568C301.262 60.864 302.614 60.512 304.454 60.512H307.766V60.32C307.766 59.424 307.494 58.736 306.95 58.256C306.422 57.776 305.63 57.536 304.574 57.536C303.854 57.536 303.142 57.648 302.438 57.872C301.75 58.096 301.166 58.408 300.686 58.808L299.51 56.624C300.182 56.112 300.99 55.72 301.934 55.448C302.878 55.176 303.878 55.04 304.934 55.04ZM304.526 65.984C305.278 65.984 305.942 65.816 306.518 65.48C307.11 65.128 307.526 64.632 307.766 63.992V62.504H304.67C302.942 62.504 302.078 63.072 302.078 64.208C302.078 64.752 302.294 65.184 302.726 65.504C303.158 65.824 303.758 65.984 304.526 65.984ZM318.576 68.168C317.536 68.168 316.52 68.032 315.528 67.76C314.536 67.488 313.744 67.144 313.152 66.728L314.304 64.448C314.88 64.832 315.568 65.144 316.368 65.384C317.184 65.608 317.984 65.72 318.768 65.72C320.56 65.72 321.456 65.248 321.456 64.304C321.456 63.856 321.224 63.544 320.76 63.368C320.312 63.192 319.584 63.024 318.576 62.864C317.52 62.704 316.656 62.52 315.984 62.312C315.328 62.104 314.752 61.744 314.256 61.232C313.776 60.704 313.536 59.976 313.536 59.048C313.536 57.832 314.04 56.864 315.048 56.144C316.072 55.408 317.448 55.04 319.176 55.04C320.056 55.04 320.936 55.144 321.816 55.352C322.696 55.544 323.416 55.808 323.976 56.144L322.824 58.424C321.736 57.784 320.512 57.464 319.152 57.464C318.272 57.464 317.6 57.6 317.136 57.872C316.688 58.128 316.464 58.472 316.464 58.904C316.464 59.384 316.704 59.728 317.184 59.936C317.68 60.128 318.44 60.312 319.464 60.488C320.488 60.648 321.328 60.832 321.984 61.04C322.64 61.248 323.2 61.6 323.664 62.096C324.144 62.592 324.384 63.296 324.384 64.208C324.384 65.408 323.864 66.368 322.824 67.088C321.784 67.808 320.368 68.168 318.576 68.168ZM326.968 55.184H329.968V68H326.968V55.184ZM328.48 53.072C327.936 53.072 327.48 52.904 327.112 52.568C326.744 52.216 326.56 51.784 326.56 51.272C326.56 50.76 326.744 50.336 327.112 50C327.48 49.648 327.936 49.472 328.48 49.472C329.024 49.472 329.48 49.64 329.848 49.976C330.216 50.296 330.4 50.704 330.4 51.2C330.4 51.728 330.216 52.176 329.848 52.544C329.496 52.896 329.04 53.072 328.48 53.072Z" fill="#333333"/>
<path d="M100.402 142.363C100.402 142.363 99.9237 143.206 100.288 144.141C100.516 144.734 100.539 145.349 100.345 145.874C100.186 146.318 99.5934 146.387 99.3314 145.999L96.5863 141.862C96.3471 141.508 96.4724 141.029 96.8483 140.836C97.1786 140.665 97.5545 140.46 97.8393 140.289C98.4543 139.924 99.3314 140.197 99.3314 140.197L100.402 142.363Z" fill="#2A3967"/>
<path d="M108.034 134.008C107.305 136.288 100.664 143.469 100.664 143.469C100.664 143.469 97.8165 141.383 97.8848 139.867C97.8848 139.867 101.382 133.347 101.427 132.538C101.439 132.344 101.04 131.569 100.436 130.475C100.357 130.326 100.265 130.167 100.174 130.019C99.1264 128.149 97.6115 125.596 96.4269 123.465C96.4041 123.419 96.3699 123.362 96.3471 123.316C95.2878 121.402 94.5133 119.851 94.6272 119.521C94.9347 118.552 104.047 117.253 104.047 117.253C104.047 117.253 108.763 131.717 108.034 134.008Z" fill="#32478F"/>
<path d="M100.174 130.019C99.1264 128.149 97.6115 125.596 96.4269 123.465C96.4041 123.419 96.3699 123.362 96.3472 123.317V121.037L99.5023 120.558L100.174 130.019Z" fill="#2A3967"/>
<path d="M88.6815 144.597C88.6815 144.597 88.1803 146.672 88.6929 147.526C89.0118 148.074 89.1371 148.678 89.0232 149.225C88.9321 149.681 88.3512 149.852 88.0437 149.51L84.6835 145.851C84.3988 145.543 84.4443 145.053 84.786 144.791C85.0822 144.574 85.4239 144.312 85.6745 144.096C86.2212 143.64 87.1324 143.776 87.1324 143.776L88.6815 144.597Z" fill="#2A3967"/>
<path d="M99.5933 118.598C99.5933 118.598 96.0623 130.908 94.741 134.008C93.8298 136.162 89.399 146.125 89.399 146.125C89.399 146.125 84.9796 144.78 85.2757 143.412C85.2757 143.412 88.0891 133.199 88.6017 132.048C89.2623 130.554 88.8409 120.353 91.3354 118.518C93.8298 116.671 99.5933 118.598 99.5933 118.598Z" fill="#32478F"/>
<path d="M99.5706 101.603C99.5706 101.603 105.163 95.7211 105.471 94.946C105.778 94.1709 106.94 87.4231 106.94 87.4231L108.398 87.4801C108.398 87.4801 108.785 95.4361 108.307 97.0319C107.829 98.6277 101.268 105.786 101.268 105.786L99.5706 101.603Z" fill="#FFAE73"/>
<path d="M98.5227 99.87C98.3518 99.6079 98.2151 99.3115 98.124 99.0152C97.9076 98.3313 97.8734 97.5904 97.8962 97.0432C97.919 96.5303 97.9759 96.1884 97.9759 96.1884L94.126 94.604C94.2741 95.5615 94.2969 96.4391 94.2513 97.2028C94.1374 99.0038 93.6476 100.144 93.6476 100.144L93.716 100.315C93.2831 100.394 92.8275 100.486 92.3491 100.6L97.3267 103.233L100.208 100.235C100.208 100.235 99.7984 99.9498 98.5227 99.87Z" fill="#FFAE73"/>
<path d="M98.1241 99.0152C96.0169 99.1292 94.24 97.1915 94.24 97.1915L97.8963 97.0433C97.8849 97.5905 97.9191 98.3313 98.1241 99.0152Z" fill="#F5975D"/>
<path d="M91.119 101.819C91.119 101.819 86.4832 96.7469 84.319 95.2309C84.319 95.2309 80.9703 88.5857 80.7083 88.1526C80.4463 87.7194 79.0681 88.6655 79.0681 88.6655C79.0681 88.6655 80.64 95.2537 81.8815 97.1459C83.1231 99.038 87.0185 105.398 89.3991 105.455C91.7683 105.524 91.119 101.819 91.119 101.819Z" fill="#FFAE73"/>
<path d="M99.0466 97.7614C99.0466 97.7614 94.9461 99.2204 93.2261 96.0061C91.3695 92.541 92.8616 89.7712 94.274 89.4862C97.076 88.8935 98.8188 89.8396 99.4111 90.9452C100.003 92.0394 101.313 96.9749 99.0466 97.7614Z" fill="#FFAE73"/>
<path d="M97.0305 96.0061C97.0305 96.0061 97.5089 96.6102 98.591 96.2683C98.591 96.2683 99.5819 96.0061 99.2858 95.345C99.2972 95.345 98.1126 95.1968 97.0305 96.0061Z" fill="white"/>
<path d="M94.0808 97.1003C94.0808 97.1003 93.4657 95.6983 93.4657 94.9232C93.4657 94.9232 92.2584 93.6238 92.8621 93.2248C93.4657 92.8259 93.8872 93.6238 94.0125 93.4528C94.1492 93.2818 94.1492 90.5234 94.9237 90.5462C95.7096 90.569 98.6369 91.2187 99.7987 90.0333C100.961 88.8479 97.5662 84.8699 92.5545 86.933C87.5428 88.9847 89.0691 94.6268 94.0808 97.1003Z" fill="#2A3967"/>
<path d="M90.1963 89.3836C90.1963 89.3836 89.9002 88.7111 90.1166 88.1868C90.1166 88.1868 90.1849 88.8707 90.4811 89.1556C90.7773 89.4406 90.1963 89.3836 90.1963 89.3836Z" fill="#2A3967"/>
<path d="M90.2647 88.8822C90.2647 88.8822 89.6155 88.8594 89.3649 89.3837C89.3649 89.3837 89.7863 89.0418 90.2647 89.3267V88.8822Z" fill="#2A3967"/>
<path d="M103.728 120.273C98.7846 121.926 92.3036 121.766 90.6975 121.698C90.4584 121.686 90.3331 121.675 90.3331 121.675C89.7635 121.595 89.3535 121.185 89.3079 120.683C89.3079 120.615 89.3079 120.558 89.3079 120.49L90.185 112.876L89.3763 109.16L88.9093 107.04L87.85 102.195C89.923 101.021 91.848 100.337 93.6249 99.9499C94.3652 100.531 95.8004 101.352 97.3153 101.044C98.4429 100.816 98.6594 100.258 98.591 99.6649C101.006 99.8245 102.316 100.326 102.316 100.326L105.323 117.8C105.505 118.86 104.844 119.897 103.728 120.273Z" fill="#FF912B"/>
<path d="M85.3328 103.073C85.3328 103.073 88.4423 104.851 88.784 106.436C88.784 106.436 93.0895 102.993 93.6363 99.9499C93.6363 99.9499 92.7137 99.9499 91.586 100.394C91.586 100.394 91.0051 100.178 90.4128 100.212L88.0209 98.5821C88.0095 98.5707 85.4467 99.4712 85.3328 103.073Z" fill="#FF912B"/>
<path d="M98.5911 99.665C98.5911 99.665 99.844 99.4484 100.311 99.5282C100.311 99.5282 100.527 99.3344 101.051 99.266L103.637 97.2827C103.637 97.2827 105.619 98.9925 105.346 101.625C105.346 101.625 103.193 103.198 103.193 103.54C103.193 103.882 103.25 105.82 103.25 105.82L98.5911 99.665Z" fill="#FF912B"/>
<path d="M106.94 87.4231C106.94 87.4231 106.917 86.7962 106.667 86.2947C106.428 85.7817 106.428 84.4139 106.69 84.4709C106.952 84.5279 106.883 85.0294 107.157 84.9383C107.441 84.8585 107.772 83.2399 108.159 83.3539C108.546 83.4679 108.865 83.9808 108.842 85.1434C108.82 86.3061 108.387 87.4915 108.387 87.4915L106.94 87.4231Z" fill="#FFAE73"/>
<path d="M80.6627 88.1526C80.6627 88.1526 80.4577 87.4801 80.526 86.8532C80.5944 86.2263 80.0818 84.7673 79.8198 84.9269C79.5578 85.0864 79.8198 85.588 79.4895 85.5994C79.1592 85.6222 78.2024 84.015 77.8379 84.2886C77.4734 84.5507 77.3254 85.2118 77.781 86.4315C78.2366 87.6625 79.1364 88.7567 79.1364 88.7567L80.6627 88.1526Z" fill="#FFAE73"/>
<path d="M78.1341 57.5596C78.1341 57.5596 86.7224 72.5826 85.0025 77.7574C83.2825 82.9322 77.519 83.2742 77.519 83.2742L78.1341 57.5596Z" fill="#FDDBBA"/>
<path d="M82.5877 150H70.5937C69.7394 149.419 70.8215 143.72 70.8215 143.72C70.8215 143.72 74.0905 142.477 74.66 145.008C75.2295 147.538 78.8289 148.336 80.731 148.644C82.0523 148.849 82.4624 149.567 82.5877 150Z" fill="#1E3865"/>
<path d="M64.8075 150H52.8136C51.9593 149.419 53.0414 143.72 53.0414 143.72C53.0414 143.72 56.3104 142.477 56.8799 145.008C57.4494 147.538 61.0487 148.336 62.9509 148.644C64.2608 148.849 64.6708 149.567 64.8075 150Z" fill="#1E3865"/>
<path d="M79.3643 91.8457C79.3643 91.8457 78.829 98.5707 78.1911 106.664C77.3255 117.652 75.0133 144.894 75.0133 144.894C75.0133 144.894 73.487 146.193 70.1154 145.486C70.1154 145.486 67.2451 136.083 66.3908 125.357C66.3794 125.186 66.368 125.003 66.3453 124.821C65.5479 113.901 64.3064 90.8997 64.3064 90.8997L79.3643 91.8457Z" fill="#25468F"/>
<path d="M79.5465 89.5205C79.5465 89.5205 78.8289 98.5708 78.191 106.664L66.3793 125.357C66.3679 125.186 66.3566 125.003 66.3338 124.821C65.5365 113.902 64.2949 90.8997 64.2949 90.8997L79.5465 89.5205Z" fill="#1E3865"/>
<path d="M76.1067 89.5204C76.1067 89.5204 67.5412 110.847 64.8076 118.94C62.8598 124.696 57.3583 144.905 57.3583 144.905C57.3583 144.905 54.9664 145.634 52.9617 144.221C52.9617 144.221 50.9114 123.579 55.0461 117.754C57.2444 114.665 55.5928 85.6564 64.4773 85.4056C73.3617 85.1663 76.1067 89.5204 76.1067 89.5204Z" fill="#25468F"/>
<path d="M72.2795 58.0725C70.9696 58.7564 69.6939 58.802 68.589 58.574C67.5753 58.3575 66.7096 57.9129 66.0945 57.514C65.4567 57.1036 65.0808 56.7503 65.0808 56.7503C65.0808 56.7503 65.1264 56.6819 65.1947 56.5565C65.582 55.8954 66.7552 53.5132 66.2312 49.6947C66.2198 49.6491 66.6071 49.7175 67.1766 49.8543C68.8738 50.2532 72.2909 51.2221 72.4389 51.2677H72.4503C72.4503 51.2677 72.4959 52.0656 72.6326 53.5132C72.6439 53.6386 72.6553 53.7753 72.6667 53.9121C72.6895 54.0831 72.7009 54.2655 72.7237 54.4478C72.8831 55.9524 72.2795 58.0725 72.2795 58.0725Z" fill="#FFAE73"/>
<path d="M72.6326 53.5245C70.0926 54.1058 66.311 50.3558 66.311 50.3558C66.5844 50.1506 66.8806 49.991 67.1767 49.8657C68.8738 50.2646 72.2909 51.2335 72.439 51.2791H72.4504C72.4504 51.2791 72.4959 52.0883 72.6326 53.5245Z" fill="#F9924F"/>
<path d="M80.7084 85.93C80.5261 88.3806 80.0022 90.1245 78.8745 90.1245C78.8745 90.1245 73.84 91.9027 67.826 91.9483C66.6528 91.9597 64.9898 91.7317 63.6002 91.4923C62.1878 91.253 61.0715 91.0136 61.0715 91.0136C59.8641 90.7401 58.5315 89.9878 58.7023 88.6086C58.7935 87.8791 58.8618 86.933 58.9074 85.8388C58.9074 85.7704 58.9188 85.702 58.9188 85.6222C59.0554 82.4307 59.0327 78.0195 59.044 73.8135C59.0554 71.2261 59.0782 68.7071 59.1693 66.587C59.1693 66.587 57.9847 58.2434 59.2946 56.8756C60.8437 55.2799 65.377 54.7783 65.6618 54.8467C65.7415 54.8239 65.8327 54.8125 65.9238 54.7897C65.9238 54.7897 69.8648 56.944 72.7352 55.3369C72.7352 55.3369 76.9154 56.2943 78.1228 57.5595C78.5442 57.9927 80.1958 60.6941 80.2414 63.6462C80.2983 67.7724 80.1389 72.4457 80.1389 72.4457C80.1844 73.1182 80.2528 73.9731 80.3325 74.9648C80.4122 76.0134 80.5147 77.1988 80.5831 78.4413C80.6172 79.0682 80.6628 79.6951 80.6856 80.3334C80.7995 82.3053 80.8337 84.2772 80.7084 85.93Z" fill="#FDDBBA"/>
<path d="M65.6959 54.8467C65.6959 54.8467 69.9673 59.2579 73.0199 58.3574C73.0199 58.3574 73.4299 57.7647 72.0517 57.5709C70.6849 57.3772 69.1927 57.457 65.6959 54.8467Z" fill="#F8CAA4"/>
<path d="M73.4983 51.0739C73.4983 51.0739 72.4504 51.4501 71.1291 51.6324C69.1814 51.8946 66.63 51.735 65.8212 49.387C64.4658 45.4204 62.7345 43.0495 66.7211 41.4309C68.8511 40.5647 70.2179 40.5191 71.1405 40.8496C71.9492 41.1346 72.4162 41.7045 72.7807 42.2744C73.5552 43.4826 75.1043 50.39 73.4983 51.0739Z" fill="#FFAE73"/>
<path d="M73.0768 39.8693C73.9767 40.0859 74.3753 41.5107 73.521 42.092C71.9834 43.152 70.1154 42.7303 69.4206 43.0381C68.4296 43.4826 68.2473 45.1354 68.236 45.6711C68.2132 46.1954 68.1448 46.6399 66.8008 46.3322C66.5844 46.2752 66.4249 46.298 66.311 46.3664C65.7529 46.6969 66.4705 48.3041 66.6755 48.646C66.6755 48.646 66.983 49.7973 66.2996 50.3558C66.2199 50.4242 64.8644 51.0169 61.6182 46.0358C61.1056 45.2493 60.6159 43.494 61.4132 41.7956C62.1991 40.0973 64.6366 38 67.5639 38C69.8875 38.0114 71.1746 39.4134 73.0768 39.8693Z" fill="#0B3563"/>
<path d="M73.5325 48.5206C73.5325 48.5206 73.6122 49.0336 72.4276 49.4439C72.4276 49.4439 71.4253 49.7859 71.243 49.2615C71.2317 49.2615 72.029 48.4978 73.5325 48.5206Z" fill="white"/>
<path d="M69.2156 83.012C69.2156 83.012 72.4276 85.1321 73.6692 85.2689C74.5121 85.3601 77.8494 85.2233 77.8608 84.8015C77.8836 84.2088 75.8219 83.5819 75.2866 83.3426C74.7513 83.1032 74.3298 82.8296 74.3412 82.6017C74.3412 82.3737 76.4028 83.1374 76.1864 82.6359C75.9586 82.1343 74.0564 81.2567 73.6008 81.1769C73.1452 81.0971 71.6531 81.5986 71.0836 81.325C70.5027 81.0401 69.2156 83.012 69.2156 83.012Z" fill="#F9924F"/>
<path d="M70.628 81.1541C71.0608 81.952 69.2156 83.0121 69.2156 83.0121C69.2156 83.0121 64.1355 85.4285 58.9302 85.8388C58.9302 85.7704 58.9416 85.7021 58.9416 85.6223C59.0783 82.4307 59.0555 78.0196 59.0669 73.8136C59.0669 73.8136 69.9218 79.8205 70.628 81.1541Z" fill="#F8CAA4"/>
<path d="M60.4336 56.1005C60.4336 56.1005 58.2353 57.0352 55.6155 61.9251C52.9958 66.815 50.5241 77.176 51.5834 78.863C52.6427 80.5499 61.5726 84.4026 69.3636 83.3767C69.3636 83.3767 71.2999 81.6214 70.9013 80.9375C70.9013 80.9375 57.848 75.6145 57.8366 74.9762C57.8252 74.3379 62.4952 68.8553 62.7572 66.1197C63.0306 63.3841 60.4336 56.1005 60.4336 56.1005Z" fill="#FDDBBA"/>
<path d="M73.3502 68.4791C73.3502 68.4791 73.1907 70.1546 73.3502 70.5878C73.5096 71.0209 77.9519 71.1235 78.0658 70.7131C78.1797 70.3028 78.3505 69.0718 78.0658 68.8552C77.781 68.6272 73.3502 68.4791 73.3502 68.4791Z" fill="#FFAE73"/>
<path d="M76.2775 84.0377H75.2752C72.8035 84.0377 70.776 82.0088 70.776 79.5354V75.2154C70.776 72.742 70.833 70.5421 73.4869 69.7214L78.1683 70.0748C82.2118 71.1918 80.7767 72.742 80.7767 75.2154V79.5354C80.7881 82.0088 78.7606 84.0377 76.2775 84.0377Z" fill="#FFAE73"/>
<path d="M78.0658 70.0178C78.0658 70.0178 79.1707 70.3028 79.9566 69.8696C81.0956 69.2427 82.4511 68.8894 82.6902 68.6044C83.0889 68.1143 85.0594 66.1196 85.0594 66.1196L86.0048 66.7465C86.0048 66.7465 85.0936 70.4395 84.3646 71.1006C83.6242 71.7617 82.3144 74.0984 80.0933 74.4404C78.9315 74.5999 78.0658 70.0178 78.0658 70.0178Z" fill="#FFAE73"/>
<path d="M85.0594 66.1082C85.0594 66.1082 84.7177 65.1735 85.0025 65.0595C85.2872 64.9342 85.4581 65.6181 85.4581 65.6181C85.4581 65.6181 86.1985 64.0793 86.9502 64.7404C87.702 65.4015 86.0048 66.7351 86.0048 66.7351L85.0594 66.1082Z" fill="#FFAE73"/>
<path d="M73.3274 69.7784C73.3274 69.7784 72.2226 70.0634 71.4366 69.6302C70.2976 69.0033 68.9422 68.65 68.703 68.365C68.3043 67.8749 66.3338 65.8802 66.3338 65.8802L65.3884 66.5071C65.3884 66.5071 66.2996 70.2002 67.0286 70.8613C67.769 71.5224 69.0789 73.859 71.3 74.201C72.4618 74.3606 73.3274 69.7784 73.3274 69.7784Z" fill="#FFAE73"/>
<path d="M66.3339 65.8688C66.3339 65.8688 66.6756 64.9342 66.3908 64.8202C66.1061 64.6948 65.9352 65.3787 65.9352 65.3787C65.9352 65.3787 65.1948 63.8399 64.4431 64.501C63.6913 65.1621 65.3885 66.4957 65.3885 66.4957L66.3339 65.8688Z" fill="#FFAE73"/>
<path d="M79.9907 77.7687C79.9907 77.7687 82.6105 78.9199 83.9887 79.3189C85.2758 79.695 86.8705 80.6069 86.9046 80.7436C86.9388 80.8918 86.9502 82.1684 86.3009 82.4192C85.6517 82.67 78.5669 83.6844 77.519 83.2741C77.519 83.2741 78.2708 78.1904 79.9907 77.7687Z" fill="#FFAE73"/>
<path d="M86.8135 78.0879C86.8135 78.0879 85.5606 78.1791 84.8316 79.0909C84.8316 79.0909 84.5355 79.4899 84.0001 79.3189C84.0001 79.3189 82.041 80.5727 83.2825 82.9436C83.2825 82.9436 85.9251 82.7726 86.3009 82.4193C86.6768 82.0659 86.8135 78.0879 86.8135 78.0879Z" fill="white"/>
<path d="M86.301 82.4192C86.301 82.4192 87.6223 82.1115 87.8615 80.7778C88.1006 79.4556 87.8501 78.2018 86.9844 78.0878C86.1187 77.9739 85.5606 78.4526 85.3214 79.0795C85.0822 79.7292 84.3874 82.4876 86.301 82.4192Z" fill="#A8CCFF"/>
<path d="M76.1408 59.5428C76.1408 59.5428 78.7833 59.4289 79.7857 61.9365C80.788 64.4441 80.9931 68.7641 78.658 69.448C77.0634 69.9153 75.3549 69.5848 73.8172 68.9921C73.0085 68.6843 72.7351 68.0004 72.2681 67.4533C69.2838 63.9768 70.252 59.8506 76.1408 59.5428Z" fill="#FFAE73"/>
<path d="M70.7874 77.1418C70.7874 77.1418 75.97 78.2588 80.7767 77.1418C80.7767 77.1418 81.3234 78.0764 81.3918 78.3614C81.5398 78.9541 81.2665 79.9344 80.2072 81.1768C78.6353 83.0005 73.2591 84.3683 71.3797 83.1943C69.7281 82.1684 69.3523 78.6806 70.7874 77.1418Z" fill="white"/>
<path d="M76.585 79.3531C77.5532 79.6836 78.9428 80.4701 80.2071 81.1768C81.3803 81.8265 82.7357 83.0689 82.7357 83.2171C82.7357 83.3653 82.4738 84.6191 81.779 84.7217C81.0842 84.8243 73.9538 84.2429 73.0198 83.6046C73.0198 83.6046 71.9378 83.2969 71.8011 82.0659C71.5961 80.2535 72.4731 77.9169 76.585 79.3531Z" fill="#FFAE73"/>
<path d="M83.2256 80.5955C83.2256 80.5955 81.984 80.4018 81.0728 81.1313C81.0728 81.1313 80.6969 81.4504 80.2072 81.1654C80.2072 81.1654 78.0088 81.9519 78.715 84.5394C78.715 84.5394 81.3348 84.9611 81.779 84.6989C82.2232 84.4482 83.2256 80.5955 83.2256 80.5955Z" fill="white"/>
<path d="M81.779 84.7103C81.779 84.7103 83.1344 84.6989 83.6584 83.4565C84.1823 82.2141 84.2165 80.9375 83.3964 80.6411C82.5763 80.3448 81.927 80.6753 81.5625 81.2452C81.1867 81.8038 79.8882 84.3456 81.779 84.7103Z" fill="#A8CCFF"/>
<path d="M77.2001 67.0998C77.2001 67.0998 77.7354 67.7268 78.4302 67.4988C79.125 67.2708 79.2389 66.5071 79.2389 66.5071C79.2389 66.5071 78.2138 66.5071 77.2001 67.0998Z" fill="white"/>
<path d="M73.84 65.5041C73.84 65.5041 72.8149 64.6037 72.496 65.2534C72.1657 65.9031 72.9174 66.8605 73.5211 66.8719C74.1248 66.8833 74.2501 65.7891 73.84 65.5041Z" fill="#F9924F"/>
<path d="M73.9994 65.4586C73.9994 65.4586 73.2135 64.7747 72.9743 65.2648C72.7237 65.7663 73.2932 66.4958 73.7602 66.4958C74.2045 66.5186 74.307 65.6865 73.9994 65.4586Z" fill="#FFAE73"/>
<path d="M73.0769 60.8536C73.0769 60.8536 74.3412 62.5747 77.0066 62.5177C77.0066 62.5177 78.0545 62.3696 78.4987 61.6857C78.4987 61.6857 77.6558 62.0276 77.2116 61.8794C77.2116 61.8794 79.7174 61.4919 79.6947 60.8194C79.6605 60.1469 78.3506 59.3946 77.3824 59.2806C76.6193 59.1894 74.3071 59.2008 73.6009 59.5884C72.9061 59.9759 72.8833 60.637 73.0769 60.8536Z" fill="#FF9223"/>
<path d="M74.2045 59.406C74.2045 59.406 71.3 59.8733 70.7874 62.1986C70.5824 63.1333 71.0152 64.4897 71.0152 64.4897C71.0152 64.4897 70.9583 61.7313 73.2819 61.6173C74.9677 61.5375 76.0839 61.3665 76.0839 61.3665L74.2045 59.406Z" fill="#FF9223"/>
<path d="M74.6259 73.3005C74.6259 73.3917 74.5462 73.4715 74.455 73.4715C74.3639 73.4715 74.2842 73.3917 74.2842 73.3005C74.2842 73.2094 74.3639 73.1296 74.455 73.1296C74.5462 73.1182 74.6259 73.198 74.6259 73.3005Z" fill="#F9924F"/>
<path d="M78.9884 73.3005C78.9884 73.3917 78.9087 73.4715 78.8176 73.4715C78.7265 73.4715 78.6467 73.3917 78.6467 73.3005C78.6467 73.2094 78.7265 73.1296 78.8176 73.1296C78.9201 73.1182 78.9884 73.198 78.9884 73.3005Z" fill="#F9924F"/>
<path d="M82.6561 76.5948C82.5194 76.0704 82.1549 75.6487 81.6651 75.4207C81.0387 75.1358 80.1616 74.7482 79.763 74.6684C79.1137 74.5545 77.7697 73.768 77.6672 74.1669C77.5533 74.5773 78.6126 75.0446 78.6126 75.5005C78.6126 75.9565 75.6511 77.0507 75.7308 77.518C75.8106 77.9854 76.6534 79.034 77.8039 78.7491C78.9543 78.4641 81.8018 77.803 82.4625 77.6206C82.8156 77.5408 82.77 77.0507 82.6561 76.5948Z" fill="#F9924F"/>
<path d="M52.6312 100.087L50.9796 100.394C50.9796 100.394 46.4691 93.4415 46.3438 91.3214C46.2185 89.2925 42.1636 80.436 46.9133 74.9078C47.1297 74.657 47.3575 74.4177 47.6081 74.1783C47.6195 74.1669 47.6309 74.1555 47.6309 74.1555C47.6309 74.1555 47.6423 74.1669 47.6537 74.1897C47.7448 74.3493 48.1321 75.0332 48.5649 76.5378C49.2597 78.8972 50.114 83.2742 50.319 90.8427C50.3418 90.8427 51.4466 97.3169 52.6312 100.087Z" fill="#FFA166"/>
<path d="M52.6312 100.087C52.6312 100.087 54.1348 101.762 54.1803 102.366C54.2373 103.176 53.6222 104.498 53.2121 104.372C52.8021 104.247 52.7565 103.586 52.6426 103.084C52.5287 102.583 51.9934 102.047 52.0162 102.275C52.0503 102.503 52.3579 103.392 52.2668 103.529C52.1642 103.666 52.0503 103.643 51.8225 103.221C51.5492 102.708 50.9455 101.99 51.0252 101.466C51.1049 100.896 51.1163 100.782 50.9113 100.098C50.6949 99.4142 50.3418 98.5935 50.3418 98.5935L51.6175 98.3199L52.6312 100.087Z" fill="#FFA166"/>
<path d="M17.3328 146.774L15.3623 147.789C15.3623 147.789 14.1891 146.25 13.1411 144.403C12.4008 143.104 11.7288 141.656 11.5693 140.459C11.1706 137.564 8.10664 132.811 8.42557 132.002C8.7445 131.193 14.8155 129.791 14.8155 129.791C14.8155 129.791 16.0001 137.918 16.786 143.172C17.0138 144.711 17.2075 145.999 17.3328 146.774Z" fill="#FFAE73"/>
<path d="M17.3327 146.774L15.3622 147.789C15.3622 147.789 14.189 146.25 13.1411 144.403C13.9612 144.346 15.385 144.096 16.786 143.172C17.0138 144.711 17.2074 145.999 17.3327 146.774Z" fill="white"/>
<path d="M12.8678 131.649C12.8678 131.649 10.3847 135.159 8.88117 140.083C8.52807 141.246 7.3207 142.694 6.10194 143.97C4.91735 145.213 3.72137 146.307 3.27715 146.854L1.27246 145.885C1.27246 145.885 1.97866 143.868 3.01517 142.033C3.40244 141.349 3.83527 140.699 4.29088 140.175C4.92874 139.457 4.72372 130.44 5.35018 129.848C5.99943 129.266 12.8678 131.649 12.8678 131.649Z" fill="#FFAE73"/>
<path d="M12.3666 118.666L7.24097 115.577C7.26375 115.566 7.37765 115.406 7.75353 114.3C7.91299 113.833 8.00412 113.411 8.04968 113.092C8.04968 113.058 8.06107 113.024 8.06107 113.001C8.11802 112.534 8.07246 112.26 8.07246 112.26L9.20009 112.67L11.2731 113.423C11.2503 113.947 11.3187 114.323 11.4326 114.574C11.706 115.19 12.2071 115.201 12.2185 115.201L12.3666 118.666Z" fill="#FFAE73"/>
<path d="M11.4327 114.551C9.42797 114.722 8.30034 113.411 8.04975 113.081C8.01558 113.035 7.9928 113.001 7.9928 113.001C7.9928 113.001 8.01558 112.99 8.06114 112.978C8.2206 112.933 8.66482 112.796 9.20017 112.636L11.2732 113.389C11.2504 113.924 11.3188 114.3 11.4327 114.551Z" fill="#F99352"/>
<path d="M11.5351 113.833C11.5351 113.833 7.08153 114.323 6.99041 111.303C6.89928 108.282 6.23865 106.903 9.32541 106.641C12.4122 106.367 13.1412 107.484 13.3234 108.51C13.8815 111.69 12.7881 113.696 11.5351 113.833Z" fill="#FFAE73"/>
<path d="M3.22019 103.586C3.16324 103.449 3.11768 103.358 3.11768 103.358C3.16324 103.426 3.19741 103.506 3.22019 103.586Z" fill="#E25310"/>
<path d="M12.9703 115.474C12.9703 115.474 17.2417 112.192 17.6973 111.097C18.1529 110.015 20.112 106.025 20.6246 105.615C20.6246 105.615 21.6839 105.478 21.8434 106.219C21.9914 106.96 20.8296 111.325 20.0209 112.648C19.2122 113.97 15.3281 118.438 14.041 119.088L12.9703 115.474Z" fill="#FFAE73"/>
<path d="M23.3582 103.609C23.2899 103.985 23.1304 104.395 22.9482 104.612C22.709 104.897 22.3331 105.455 22.0939 105.82C21.9344 106.048 21.8433 106.219 21.8433 106.219L20.6359 105.626C20.6359 105.626 20.6131 103.563 21.4105 103.13C21.4332 103.119 21.456 103.107 21.4788 103.107C21.8205 102.925 22.1394 102.799 22.4242 102.708C22.8001 102.606 23.0962 102.594 23.2671 102.697C23.4152 102.777 23.4379 103.187 23.3582 103.609Z" fill="#FFAE73"/>
<path d="M9.55326 108.111C7.9814 107.712 8.57369 110.505 8.17503 110.322C7.73081 110.106 6.96766 110.106 7.08156 110.653C7.20686 111.189 7.37771 111.382 7.46883 111.724C7.55996 112.066 7.46883 112.727 7.10435 112.591C6.73986 112.454 3.32277 108.556 5.73751 105.524C8.14086 102.492 15.3281 104.361 13.0729 107.53C12.6742 108.088 10.6809 108.396 9.55326 108.111Z" fill="#25468F"/>
<path d="M17.0594 137.485C17.0594 137.485 12.6742 138.408 10.5783 138.123C7.76495 137.747 5.27047 137.678 2.62793 136.254C2.62793 136.254 4.02893 129.289 4.10867 128.959C4.23396 128.469 5.1224 124.73 5.95389 121.276C6.70565 118.107 7.41185 115.178 7.41185 115.178C7.41185 115.178 9.49627 116.66 10.715 116.136C11.9338 115.611 11.7743 115.018 11.7743 115.018C11.7743 115.018 12.5716 114.699 12.9475 114.813C13.3234 114.927 14.3827 114.335 14.3827 114.335C14.3827 114.335 15.5559 115.235 15.6015 117.184C15.6128 117.469 15.5901 117.788 15.5445 118.119L14.7016 119.088C14.713 119.088 16.6152 130.737 17.0594 137.485Z" fill="#FF912B"/>
<path d="M20.5904 149.191H14.7244C14.7244 149.191 14.6105 148.233 14.7472 147.413C14.7586 147.31 14.8155 147.219 14.8953 147.139C15.237 147.253 15.7496 147.333 16.3077 147.139C16.7633 146.968 17.105 146.717 17.3442 146.489C17.4011 146.546 18.6199 147.709 19.178 147.709C19.7475 147.709 20.6246 147.982 20.5904 149.191Z" fill="#B63B39"/>
<path d="M6.10194 143.982C4.91735 145.224 3.72137 146.318 3.27715 146.865L1.27246 145.897C1.27246 145.897 1.97866 143.879 3.01517 142.044C3.37966 142.602 4.31367 143.754 6.10194 143.982Z" fill="white"/>
<path d="M3.70999 146.341C3.70999 146.341 3.64165 147.618 4.06309 147.789C4.48453 147.96 5.28185 148.381 5.28185 149.191H2.33176C2.33176 149.191 0.304293 148.188 0.0309266 147.766C-0.24244 147.344 1.38637 145.532 1.38637 145.532C1.38637 145.532 2.38871 146.626 3.70999 146.341Z" fill="#B63B39"/>
<path d="M8.57359 125.619C8.57359 125.619 9.86069 125.38 10.3619 125.71C10.863 126.041 11.0111 126.554 10.6466 126.77C9.5076 127.431 8.35718 126.702 8.35718 126.702L8.57359 125.619Z" fill="#FFAE73"/>
<path d="M7.4802 115.577C7.4802 115.577 3.51638 116.42 1.95591 122.587C1.80784 123.191 1.95591 123.829 2.37735 124.297C3.09494 125.095 4.67819 126.257 8.36864 126.69C8.7673 126.736 8.82425 125.71 8.82425 125.71C8.77869 125.79 6.31839 124.114 5.27048 123.214C5.07685 123.054 5.08824 122.712 5.22492 122.496C5.57802 121.96 6.17032 121.014 6.37534 120.535C6.67149 119.851 8.59645 115.896 7.4802 115.577Z" fill="#FFAE73"/>
<path d="M7.43469 115.178C7.43469 115.178 5.09969 115.349 3.19751 117.88C3.19751 117.88 3.83537 120.216 6.86518 120.832C6.86518 120.832 8.72179 116.637 7.43469 115.178Z" fill="#FF912B"/>
<path d="M6.8651 104.589C6.8651 104.589 4.62121 103.973 3.1177 105.615C1.61418 107.256 3.80111 110.254 1.69391 111.907C-0.41329 113.548 0.4182 114.779 1.27247 115.178C3.19743 116.078 6.14751 114.961 5.54383 113.434C4.39341 110.516 6.09056 108.282 6.09056 108.282L6.8651 104.589Z" fill="#25468F"/>
<path d="M37.3341 130.27C37.3341 130.292 37.3341 130.304 37.3455 130.327C37.3455 130.361 37.3569 130.395 37.3569 130.418C37.5847 132.618 38.0745 134.852 38.644 136.926C40.1475 142.34 42.3003 146.467 42.3003 146.467L44.0886 146.296C44.0886 146.296 43.109 142.135 43.0293 136.482C42.9723 132.526 43.3482 127.842 44.8062 123.351C45.6604 120.718 46.3325 118.21 46.8678 115.862C48.5991 108.202 48.8269 102.23 48.7814 99.1293C48.7586 97.5905 48.6789 96.7584 48.6789 96.7584L38.6212 98.1832L38.1542 98.2516C38.2226 102.891 38.2568 109.183 38.2681 114.107C38.2681 115.292 38.2681 116.398 38.2795 117.389C38.2795 118.757 38.2795 119.886 38.2795 120.672C38.2795 121.424 38.2795 121.858 38.2795 121.858C37.71 123.18 37.3911 124.65 37.2772 126.212C37.1519 127.5 37.1975 128.879 37.3341 130.27Z" fill="#FF912B"/>
<path d="M41.1955 144.552C41.1499 144.312 41.093 144.016 41.0246 143.697C40.2956 141.987 39.3958 139.616 38.644 136.926C41.1727 137.143 42.4256 136.801 43.0293 136.47C43.0635 138.67 43.2343 140.631 43.4166 142.226C43.6785 143.218 44.1683 144.802 44.7265 145.463C45.6149 146.524 46.5831 147.424 47.7677 148.028C47.9043 148.097 44.8176 149.179 43.2457 149.008C41.6739 148.849 40.3754 148.564 40.512 147.584C40.5576 147.242 40.6487 146.888 40.7854 146.581C41.036 146.011 41.3321 145.258 41.1955 144.552Z" fill="#FFAE73"/>
<path d="M37.3341 130.269C37.1746 128.423 40.3183 122.051 40.3183 122.051L38.2567 120.649C38.2567 121.402 38.2567 121.835 38.2567 121.835C37.6872 123.157 37.3683 124.627 37.2543 126.189C37.1518 127.5 37.1974 128.879 37.3341 130.269Z" fill="#ED770D"/>
<path d="M43.3596 149.282C44.9428 149.202 44.4986 149.567 46.6969 149.738C48.8953 149.909 49.6926 149.225 49.8179 148.917C49.9318 148.643 48.8839 148.347 47.7676 147.994L47.7562 148.017C47.7562 148.017 46.2983 148.689 44.4986 148.393C43.0293 148.153 41.5713 147.435 40.5576 147.264C40.4665 147.595 40.3867 147.925 40.3867 148.279C40.3981 149.27 41.7877 149.373 43.3596 149.282Z" fill="#0D458E"/>
<path d="M38.1428 98.2287C38.2112 102.868 38.2453 109.16 38.2567 114.084C38.2567 115.269 40.3298 121.06 40.3298 122.04C42.0041 119.646 43.4507 103.141 45.7743 98.9582C45.7515 97.4194 48.6674 96.7241 48.6674 96.7241L38.6098 98.1489L38.1428 98.2287Z" fill="#ED770D"/>
<path d="M36.5482 54.9835C36.4912 54.7783 35.7281 52.4188 32.0604 53.2053C32.0604 53.2053 33.8942 52.9774 34.3954 53.6841C34.3954 53.6841 32.9374 53.0116 32.0262 53.5701C31.115 54.1286 30.9669 56.0093 31.1036 56.5792C31.2403 57.1491 32.2426 58.8475 32.9147 58.8475C33.1652 58.8475 33.4386 58.7677 33.6778 58.6537C33.5753 58.9615 33.4842 59.2806 33.4044 59.6454C32.6982 62.9737 34.908 65.5155 36.0584 64.8886C36.7874 64.4897 37.3455 65.7777 37.3455 65.7777L43.4393 57.6963C43.4507 57.6963 39.2021 52.5898 36.5482 54.9835Z" fill="#1E3865"/>
<path d="M46.116 94.2735C43.3482 85.4284 46.378 83.5021 46.0933 79.0795C45.8085 74.657 42.38 69.8925 42.38 69.8925C42.38 69.8925 42.2092 69.8697 41.913 69.8469C41.6852 69.7215 41.6169 68.764 41.6283 67.7496C41.6283 66.53 41.7194 65.242 41.7194 65.242L37.6075 64.4327L37.3683 64.3871C37.3797 67.2481 36.6279 69.1288 36.0812 69.5619C35.5686 69.6189 33.3817 69.8925 32.0376 70.4624C31.5251 70.679 31.1378 70.9297 31.0011 71.2261C29.8735 73.7109 28.7459 79.9686 27.9599 84.4367C27.5157 86.9216 27.1854 88.8593 27.0031 89.2696C26.5134 90.4095 25.0212 96.7013 23.7341 99.8017L24.8959 101.226C24.8959 101.226 30.7505 91.3555 31.2403 89.0189C31.3998 88.2666 31.7871 86.7506 32.2541 85.0523C32.3224 84.7901 32.3907 84.5393 32.4705 84.2658C33.2792 86.4543 33.6892 87.4687 33.6665 88.4148C33.6323 89.7598 32.7211 90.968 30.8189 95.2538C29.7596 97.6132 48.9408 103.301 46.116 94.2735Z" fill="#FFAE73"/>
<path d="M41.7194 65.8917C41.7194 65.8917 41.6283 67.1797 41.6283 68.3993C39.3274 68.3309 38.1201 66.2336 37.6189 65.071L41.7194 65.8917Z" fill="#F48F4E"/>
<path d="M37.1975 64.6265C37.1975 64.6265 35.9901 62.7229 35.7054 61.093C35.5003 59.9303 36.0926 55.6218 40.4209 56.2373C40.4209 56.2373 41.6739 56.3627 42.8585 57.1605C43.7925 57.7988 45.1593 59.1666 43.633 62.9281L43.2343 64.1933L37.1975 64.6265Z" fill="#1E3865"/>
<path d="M42.4939 67.0429C42.4939 67.0429 37.0607 67.1341 37.0494 63.7488C37.0494 60.3635 36.3432 58.0838 39.8172 57.89C43.2912 57.6848 43.9633 58.9843 44.2366 60.1127C44.51 61.2297 43.9063 66.9289 42.4939 67.0429Z" fill="#FFAE73"/>
<path d="M39.7716 123.487C39.4299 124.137 36.0014 128.252 32.573 132.811C32.2768 133.199 31.9693 133.621 31.6617 134.065C29.6343 136.915 27.2993 140.642 25.9096 142.454C24.6453 144.107 23.5063 142.044 24.1442 140.562C25.1579 138.237 26.0122 134.179 26.9803 131.193C27.2081 130.497 27.4359 129.871 27.6751 129.323C28.723 126.975 30.4999 123.681 32.9944 121.128C33.4272 120.683 29.657 110.835 29.9304 102.685C30.0329 99.4598 30.4885 96.6216 31.5137 94.889L41.7421 95.402C41.7421 95.4134 43.1317 117.173 39.7716 123.487Z" fill="#FF912B"/>
<path d="M44.0771 58.2206C43.2343 57.2062 42.6078 57.4227 42.2433 57.7305C39.3274 56.1119 37.3569 58.517 37.3569 58.517C36.9924 60.9448 35.2383 62.3468 35.2383 62.3468C35.2383 62.3468 36.2292 62.9623 38.5187 62.3696C39.2135 62.1872 39.84 61.6971 40.3639 61.093C39.4413 62.6432 38.177 63.7602 38.177 63.7602C40.9106 62.495 42.0041 58.6994 42.1066 58.3004C42.4369 58.5968 43.0976 59.2465 43.2912 59.8848C43.5646 60.7511 43.6899 62.5292 44.2024 62.4608C44.2138 62.4494 45.3415 59.748 44.0771 58.2206Z" fill="#1E3865"/>
<path d="M23.8821 99.4939C23.8821 99.4939 23.3809 100.668 22.8684 100.987C22.3558 101.318 22.0255 101.99 22.1622 102.617C22.2989 103.244 22.0255 104.327 22.6748 104.327C23.324 104.327 24.8503 101.443 25.0439 100.896C25.2376 100.349 25.397 100.246 25.397 100.246L23.8821 99.4939Z" fill="#FFAE73"/>
<path d="M29.5318 98.9354C29.509 99.2887 29.5318 99.5737 29.6001 99.7675C29.8166 100.463 30.5683 100.782 32.368 100.6C33.4728 100.486 33.9626 98.5935 34.179 96.9749C34.8397 99.2888 35.7737 100.577 36.9697 100.85C38.7238 101.249 48.1891 101.922 48.77 97.6246C49.4078 92.9057 46.8678 84.9724 46.7653 80.4587C47.0273 78.8629 47.1184 77.4723 47.0842 76.2755C47.0159 73.0612 46.0933 71.2603 45.3757 70.5422C45.1707 70.3826 44.977 70.2914 44.1683 70.1432C43.7583 70.0748 43.1887 69.9836 42.38 69.8811C42.38 69.8811 42.0269 69.8355 42.0383 69.8469C42.1864 70.1204 43.7924 72.5369 43.6444 73.3348C43.4849 74.1668 37.3 74.0528 36.8102 73.5855C36.3204 73.1296 35.0447 69.6645 35.0447 69.6645C35.0447 69.6645 32.5275 69.9494 31.2973 70.8613C31.2973 70.8613 31.2973 70.8727 31.3087 70.8727C31.1606 70.9867 31.0467 71.1007 30.9898 71.2147C29.6799 73.7679 28.37 80.2079 27.4474 84.8015C29.6799 86.0553 31.6276 85.6791 32.2427 85.5196C31.4454 90.8426 29.6457 96.519 29.5318 98.9354Z" fill="white"/>
<path d="M40.9335 65.0369C40.9335 65.0369 41.036 65.4586 42.0725 65.3788C42.0725 65.3788 42.9496 65.3104 42.9154 64.8545C42.9154 64.8545 42.0611 64.5353 40.9335 65.0369Z" fill="white"/>
<path d="M31.6504 134.065C29.6229 136.915 27.2879 140.642 25.8983 142.454C24.634 144.107 23.4949 142.044 24.1328 140.562C25.1465 138.237 26.0008 134.179 26.969 131.193C27.6296 132.196 28.9737 133.484 31.6504 134.065Z" fill="#FFAE73"/>
<path d="M24.8048 100.657C24.8048 100.657 25.1009 101.956 24.8845 102.355C24.6681 102.765 24.8161 103.29 24.3719 103.141C23.9391 103.005 24.8048 100.657 24.8048 100.657Z" fill="#FFAE73"/>
<path d="M21.6384 141.257C20.8183 141.793 21.4789 143.013 22.3901 144.301C23.3127 145.589 22.7546 145.418 23.7911 147.356C24.8276 149.305 25.83 149.612 26.1603 149.555C26.445 149.498 26.1489 148.461 25.8414 147.333C25.8072 147.196 25.7616 147.048 25.7275 146.911C25.3971 145.634 25.8186 144.426 26.0236 143.07C26.2172 141.782 28.0739 139.217 28.0739 139.217L26.7412 136.516C26.7412 136.516 25.101 138.864 24.3606 139.821C23.9278 140.38 23.1646 140.665 22.5724 140.859C22.2648 140.95 21.9345 141.064 21.6384 141.257Z" fill="#FFAE73"/>
<path d="M22.4015 144.301C23.3241 145.589 22.766 145.418 23.8025 147.356C24.839 149.305 25.8414 149.612 26.1717 149.556C26.4564 149.499 26.1603 148.461 25.8527 147.333H25.83C25.83 147.333 24.4745 146.455 23.7569 144.78C23.176 143.412 22.9824 141.793 22.5837 140.847C22.2648 140.95 21.9345 141.064 21.6383 141.246C20.8182 141.793 21.4789 143.013 22.4015 144.301Z" fill="#0D458E"/>
<path d="M44.6694 70.2459C44.6694 70.2459 46.3096 70.2345 47.4486 72.4457C48.5877 74.6456 50.319 81.8152 50.319 81.8152C50.319 81.8152 48.3143 84.0606 45.9565 83.5477C43.5987 83.0348 44.6694 70.2459 44.6694 70.2459Z" fill="white"/>
<path d="M32 41C39.732 41 46 34.732 46 27C46 19.268 39.732 13 32 13C24.268 13 18 19.268 18 27C18 34.732 24.268 41 32 41Z" fill="url(#paint5_linear)"/>
<path d="M339.192 51.7566L342.431 38L346.243 51.7566H339.192Z" fill="#BFA63A"/>
<path d="M347.625 108.678H337.237L338.62 55.8619H346.243L347.625 108.678Z" fill="#D9DBCC"/>
<path d="M347.625 108.678H337.237L337.751 88.9606H347.112L347.625 108.678Z" fill="#C7C9BC"/>
<path d="M350.904 112.566H333.939V130.23H350.904V112.566Z" fill="#D9DBCC"/>
<path d="M350.904 121.664H333.939V130.23H350.904V121.664Z" fill="#CBCCC0"/>
<path d="M354.458 133.053H330.424V142.25H354.458V133.053Z" fill="#D9DBCC"/>
<path d="M354.458 137.632H330.424V142.23H354.458V137.632Z" fill="#BBBCB1"/>
<path d="M350.923 130.25H333.939L330.424 133.329H354.439L350.923 130.25Z" fill="#9A9B8F"/>
<path d="M359.415 144.263H326V149.533H359.415V144.263Z" fill="#D9DBCC"/>
<path d="M354.498 142.27H330.918L326 144.421H359.415L354.498 142.27Z" fill="#9A9B8F"/>
<path d="M347.625 115.368H337.237V127.961H347.625V115.368Z" fill="#8C7353"/>
<path d="M346.243 117.046H338.62V126.303H346.243V117.046Z" fill="#BCA48A"/>
<path d="M346.243 121.664H338.62V126.283H346.243V121.664Z" fill="#9B846D"/>
<path d="M354.458 108.441H330.424V112.546H354.458V108.441Z" fill="#BBBCB1"/>
<path d="M347.349 51.5789H337.514V55.8618H347.349V51.5789Z" fill="#BBBCB1"/>
<path d="M342.727 100.98C342.51 100.98 342.352 100.803 342.352 100.605V60.9341C342.352 60.717 342.53 60.5591 342.727 60.5591C342.945 60.5591 343.103 60.7368 343.103 60.9341V100.605C343.103 100.822 342.925 100.98 342.727 100.98Z" fill="#BFA63A"/>
<path d="M346.243 53.2565H338.185V53.7302H346.243V53.2565Z" fill="#BFA63A"/>
</g>
<defs>
<linearGradient id="paint0_linear" x1="290.085" y1="117.186" x2="311.719" y2="174.812" gradientUnits="userSpaceOnUse">
<stop offset="2.7e-07" stop-color="#84F1C7"/>
<stop offset="1" stop-color="#4084B6"/>
</linearGradient>
<linearGradient id="paint1_linear" x1="350.04" y1="174.314" x2="305.37" y2="108.492" gradientUnits="userSpaceOnUse">
<stop offset="2.7e-07"/>
<stop offset="1" stop-opacity="0"/>
</linearGradient>
<linearGradient id="paint2_linear" x1="306.071" y1="76.4675" x2="328.724" y2="144.535" gradientUnits="userSpaceOnUse">
<stop offset="2.7e-07" stop-color="white"/>
<stop offset="1" stop-color="white" stop-opacity="0"/>
</linearGradient>
<linearGradient id="paint3_linear" x1="299.632" y1="134.093" x2="321.042" y2="180.184" gradientUnits="userSpaceOnUse">
<stop offset="2.7e-07" stop-color="#84F1C7"/>
<stop offset="1" stop-color="#4084B6"/>
</linearGradient>
<linearGradient id="paint4_linear" x1="354.929" y1="183.402" x2="327.083" y2="123.327" gradientUnits="userSpaceOnUse">
<stop offset="2.7e-07"/>
<stop offset="1" stop-opacity="0"/>
</linearGradient>
<linearGradient id="paint5_linear" x1="47.489" y1="47.2881" x2="18.9322" y2="9.86481" gradientUnits="userSpaceOnUse">
<stop offset="2.7e-07" stop-color="#FFBD6D"/>
<stop offset="1" stop-color="#FFEE8B"/>
</linearGradient>
<clipPath id="clip0">
<rect width="350" height="150" fill="white"/>
</clipPath>
</defs>
</svg>
